<svg xmlns="http://www.w3.org/2000/svg" version="1.1" xmlns:xlink="http://www.w3.org/1999/xlink" width="326.28" height="311.71"><svg xmlns="http://www.w3.org/2000/svg" version="1.1" xmlns:xlink="http://www.w3.org/1999/xlink" width="326.28" height="311.71"><svg id="_Слой_1" data-name="Слой 1" xmlns="http://www.w3.org/2000/svg" viewBox="0 0 326.28 311.71">
  <defs>
    <style>
      .cls-1 {
        fill: #315242;
      }

      .cls-1, .cls-2, .cls-3, .cls-4 {
        stroke-width: 0px;
      }

      .cls-2 {
        fill: #58b140;
      }

      .cls-3 {
        fill: #87c69e;
      }

      .cls-4 {
        fill: #1b6f31;
      }
    </style>
  </defs>
  <rect class="cls-4" x="99.5" y="42.56" width="127.28" height="127.28" transform="translate(-27.31 146.47) rotate(-45)"></rect>
  <polygon class="cls-1" points="220.29 295.51 163.14 238.36 106 295.51 96.81 286.32 163.14 219.98 229.48 286.32 220.29 295.51"></polygon>
  <path class="cls-2" d="m85.59,274.16L21.57,210.14l64.02-64.02,64.02,64.02-64.02,64.02Zm-39.98-64.02l39.98,39.98,39.98-39.98-39.98-39.98-39.98,39.98Z"></path>
  <path class="cls-3" d="m240.69,274.16l-64.02-64.02,64.02-64.02,64.02,64.02-64.02,64.02Zm-39.98-64.02l39.98,39.98,39.98-39.98-39.98-39.98-39.98,39.98Z"></path>
</svg></svg><style>@media (prefers-color-scheme: light) { :root { filter: none; } }
@media (prefers-color-scheme: dark) { :root { filter: none; } }
</style></svg>