<svg xmlns="http://www.w3.org/2000/svg" version="1.1" xmlns:xlink="http://www.w3.org/1999/xlink" width="1000" height="1000"><svg xmlns="http://www.w3.org/2000/svg" version="1.1" xmlns:xlink="http://www.w3.org/1999/xlink" width="1000" height="1000"><svg xmlns="http://www.w3.org/2000/svg" version="1.1" xmlns:xlink="http://www.w3.org/1999/xlink" width="1000" height="1000"><g clip-path="url(#SvgjsClipPath1265)"><rect width="1000" height="1000" fill="#0b3d34"></rect><g transform="matrix(12.5,0,0,12.5,100,112.5)"><svg xmlns="http://www.w3.org/2000/svg" version="1.1" xmlns:xlink="http://www.w3.org/1999/xlink" width="64" height="62"><svg width="64" height="62" viewBox="0 0 64 62" fill="none" xmlns="http://www.w3.org/2000/svg">
<rect x="31.9648" y="2.74487" width="25.3169" height="25.3169" rx="3" transform="rotate(45 31.9648 2.74487)" fill="white"></rect>
<rect x="15.3281" y="27.7671" width="18.9877" height="18.9877" rx="1" transform="rotate(45 15.3281 27.7671)" stroke="white" stroke-width="3"></rect>
<rect x="48.5547" y="27.7671" width="18.9877" height="18.9877" rx="1" transform="rotate(45 48.5547 27.7671)" stroke="white" stroke-width="3"></rect>
<path d="M43.064 57.8775L32.6485 47.462C32.258 47.0715 31.6248 47.0715 31.2343 47.462L20.8188 57.8775" stroke="white" stroke-width="3" stroke-linecap="round"></path>
</svg></svg></g></g><defs><clipPath id="SvgjsClipPath1265"><rect width="1000" height="1000" x="0" y="0" rx="150" ry="150"></rect></clipPath></defs></svg></svg><style>@media (prefers-color-scheme: light) { :root { filter: none; } }
@media (prefers-color-scheme: dark) { :root { filter: none; } }
</style></svg>