<svg width="72" height="72" viewBox="0 0 72 72" fill="none" xmlns="http://www.w3.org/2000/svg">
<path fill-rule="evenodd" clip-rule="evenodd" d="M35.1089 39.2861H18.2986C10.657 39.2861 4.40625 45.5369 4.40625 53.1785V67.0708H48.9998V53.1785C48.9998 45.5369 42.7505 39.2861 35.1089 39.2861Z" fill="#B5D8D2"/>
<path fill-rule="evenodd" clip-rule="evenodd" d="M18.2991 39.2861H35.1095C42.751 39.2861 49.0018 45.5369 49.0018 53.1785V64.5986C45.7126 65.0768 42.1576 65.1527 38.431 64.7505C24.1154 63.2163 11.6026 55.1908 6.79883 45.4132C9.30195 41.7218 13.5277 39.2861 18.2991 39.2861Z" fill="#E9EAE3"/>
<path fill-rule="evenodd" clip-rule="evenodd" d="M33.3712 31.0625H20.0371V38.465C20.0371 42.1325 23.038 45.1334 26.7027 45.1334C30.3702 45.1334 33.3712 42.1325 33.3712 38.465V31.0625Z" fill="#E9EAE3"/>
<path fill-rule="evenodd" clip-rule="evenodd" d="M26.6145 37.7043C15.9073 37.7043 15.6289 21.6083 15.6289 21.6083C20.368 13.7123 37.5608 19.9462 37.5692 19.9462C37.7998 20.2049 37.7802 20.129 37.7802 20.5804C37.7802 30.0388 32.7809 37.7043 26.6145 37.7043Z" fill="#B5D8D2"/>
<path fill-rule="evenodd" clip-rule="evenodd" d="M24.6877 17.6087C30.871 17.5216 37.5591 19.9445 37.5676 19.9445C37.7982 20.2033 37.7785 20.1273 37.7785 20.5787C37.7785 28.4158 34.3459 35.0294 29.6588 37.0572C20.0359 33.453 19.8966 22.1242 21.4829 20.3509C22.2606 19.0558 23.3715 18.1797 24.6877 17.6087Z" fill="#E9EAE3"/>
<path fill-rule="evenodd" clip-rule="evenodd" d="M34.7027 47.0404L33.717 38.9404L26.7012 43.8229L34.7027 47.0404Z" fill="#B5D8D2"/>
<path fill-rule="evenodd" clip-rule="evenodd" d="M18.7051 47.0402L19.6979 38.8643L26.701 43.8227L18.7051 47.0402Z" fill="#B5D8D2"/>
<path fill-rule="evenodd" clip-rule="evenodd" d="M29.1417 43.2881H24.6895L23.0273 61.0195H23.0512L24.9806 64.0443L26.9142 67.0706L28.8464 64.0443L30.78 61.0195H30.7997L29.1417 43.2881Z" fill="#B5D8D2"/>
<path fill-rule="evenodd" clip-rule="evenodd" d="M26.0761 43.2881H24.6895L23.0273 61.0195H23.0512L24.9806 64.0443L25.1761 64.3481L25.7302 63.479L27.6595 60.457H27.6834L26.0761 43.2881Z" fill="#B5D8D2"/>
<path fill-rule="evenodd" clip-rule="evenodd" d="M27.8363 39.9443H25.9871C25.1223 39.9443 24.4121 40.6545 24.4121 41.5236V44.9675C24.4121 45.8365 25.1223 46.5425 25.9871 46.5425H27.8363C28.7054 46.5425 29.4155 45.8365 29.4155 44.9675V41.5236C29.4155 40.6531 28.7054 39.9443 27.8363 39.9443Z" fill="#B5D8D2"/>
<path fill-rule="evenodd" clip-rule="evenodd" d="M44.0605 33.3828H60.6191L67.5829 41.6178V65.2836C67.5829 66.5675 66.6984 67.6109 65.6141 67.6109H44.0605C42.9763 67.6109 42.0918 66.5661 42.0918 65.2836V35.7102C42.0918 34.4319 42.9763 33.3828 44.0605 33.3828Z" fill="#B5D8D2"/>
<path fill-rule="evenodd" clip-rule="evenodd" d="M47.0684 33.3828H60.6218L67.5855 41.6178V64.2669H49.0371C47.9529 64.2669 47.0684 63.222 47.0684 61.9395V33.3828Z" fill="#E9EAE3"/>
<path fill-rule="evenodd" clip-rule="evenodd" d="M67.5848 41.6178H62.5898C61.5056 41.6178 60.6211 40.5687 60.6211 39.2905V33.3828L67.5848 41.6178Z" fill="#B5D8D2"/>
<path fill-rule="evenodd" clip-rule="evenodd" d="M39.151 23.9073C38.1427 23.3054 37.1063 21.9146 36.0502 19.7335C31.1874 21.9104 26.9531 21.5715 23.3461 18.7253C22.425 17.9996 21.2733 17.8323 20.1891 18.2753C17.3147 19.4439 15.1871 22.0384 14.6724 25.1996C12.8864 21.3845 11.3072 6.94229 18.8208 9.23026C21.2761 -0.216925 45.541 3.65307 39.151 23.9073Z" fill="#B5D8D2"/>
<path fill-rule="evenodd" clip-rule="evenodd" d="M38.2696 22.1019C38.233 22.0907 38.2021 22.078 38.1698 22.0696C38.1262 23.6839 37.7029 25.3546 36.9941 26.9014C37.1137 26.9211 37.2374 26.9338 37.3654 26.938C40.9654 27.8113 42.3041 21.2174 39.621 21.2413C39.0416 21.2483 38.5157 21.5802 38.2696 22.1019Z" fill="#E9EAE3"/>
<path fill-rule="evenodd" clip-rule="evenodd" d="M16.1583 26.9856C12.4472 27.8308 11.1042 21.2369 13.7859 21.2608C14.3639 21.265 14.8899 21.5997 15.1416 22.1172C15.2048 23.8075 15.5874 25.4697 16.1583 26.9856Z" fill="#E9EAE3"/>
<path d="M15.5916 28.0465C11.7525 28.1618 10.1423 22.2232 12.4936 20.6398C12.0197 17.2873 11.8791 12.0096 14.1122 9.45867C15.1683 8.25492 16.5759 7.82038 18.1777 8.07491C21.9492 -0.937742 43.8206 2.78882 40.9434 20.644C41.9433 21.3499 42.1472 22.8082 41.9433 24.0204C41.828 24.6982 41.5805 25.3915 41.2177 26.0018C40.4808 27.2337 39.2841 28.1351 37.7105 27.9916C36.4392 32.2329 34.3706 34.5293 34.3537 34.5729V38.1926C34.3931 38.2249 34.4339 38.2643 34.4691 38.3079C36.1706 38.3079 37.3266 38.3712 38.9817 38.8226C39.7116 39.0223 40.4203 39.2726 41.1066 39.5805V35.7134C41.1066 33.9907 42.3469 32.4002 44.0597 32.4002H60.6183C60.9656 32.4002 61.2047 32.5521 61.4114 32.8024L68.3316 40.9868C68.4834 41.1668 68.5622 41.3848 68.5622 41.621H68.5664V65.291C68.5664 67.0137 67.3261 68.6041 65.6133 68.6041H44.0611C43.4592 68.6041 42.9052 68.4002 42.4383 68.0585H4.40625C3.86344 68.0585 3.42188 67.6155 3.42188 67.0741V53.1818C3.42188 44.9974 10.1142 38.3093 18.2986 38.3093H18.8892C18.937 38.2418 18.9933 38.1813 19.0523 38.1265V35.2085C19.0158 35.1101 16.8994 33.0569 15.5916 28.0465ZM14.4441 20.3726C14.7984 20.4682 15.1219 20.644 15.4003 20.883C16.5 19.3165 18.0356 18.093 19.8173 17.3674C20.6977 17.0088 21.6384 16.9526 22.5244 17.2113C22.5483 15.9682 22.2769 14.7518 21.7552 13.6591C21.0619 12.1994 19.9214 10.9563 18.442 10.1435C17.8359 9.96773 17.3212 9.93257 16.8839 10.0085C15.6647 10.2152 15.0347 11.3754 14.6761 12.5482C14.0138 14.7237 14.0686 17.7569 14.4441 20.3726ZM13.8661 24.9598C14.0897 25.3423 14.392 25.6727 14.7591 25.8724C14.655 25.5012 14.5636 25.1187 14.4806 24.7362C14.3245 23.9824 14.2177 23.209 14.1741 22.4243C14.1544 22.3765 13.6242 21.9504 13.433 22.5916C13.2234 23.2905 13.4794 24.303 13.8661 24.9598ZM37.8553 21.0068C38.1703 20.6876 38.5612 20.4612 39 20.3444C41.5059 4.77023 22.9589 2.01538 20.0044 8.79632C23.1769 10.8537 24.8911 14.5479 24.4088 18.2998C25.9233 19.384 27.5573 19.9985 29.3039 20.1335C31.2488 20.2896 33.3497 19.8621 35.6138 18.8538C36.1242 18.619 36.6938 18.8215 36.9328 19.308C37.245 19.9493 37.5516 20.5202 37.8553 21.0068ZM39.1266 22.5804C39.0464 23.7321 38.8031 24.8641 38.4248 25.961C40.2741 25.3704 40.4977 21.5805 39.3502 22.309C39.218 22.3934 39.1898 22.4651 39.1266 22.5804ZM22.7986 19.5429C22.762 19.519 22.7227 19.4909 22.6903 19.4585C22.1081 18.9804 21.2672 18.896 20.5542 19.1871C19.5544 19.5935 18.653 20.1954 17.8992 20.9449C17.4253 21.423 17.0062 21.9532 16.6589 22.5354C16.8178 24.6237 17.4563 29.6665 19.9439 33.1624C21.4627 35.2957 23.6198 36.7216 26.6123 36.7216C29.287 36.7216 31.5905 35.051 33.2498 32.7827C35.0836 30.2712 36.3478 26.7752 36.698 22.8166C36.5503 22.6099 36.3984 22.3863 36.2522 22.1515C36.0286 21.7971 35.8092 21.4104 35.587 20.9913C31.0223 22.7955 26.6616 22.5607 22.7986 19.5429ZM54.4659 62.4827C53.9203 62.4827 53.4816 62.044 53.4816 61.5026C53.4816 60.957 53.9203 60.5182 54.4659 60.5182H59.07C59.6156 60.5182 60.0544 60.957 60.0544 61.5026C60.0544 62.044 59.6156 62.4827 59.07 62.4827H54.4659ZM54.4659 44.2732C53.9203 44.2732 53.4816 43.8302 53.4816 43.2888C53.4816 42.746 53.9203 42.3045 54.4659 42.3045H59.07C59.6156 42.3045 60.0544 42.7474 60.0544 43.2888C60.0544 43.8302 59.6156 44.2732 59.07 44.2732H54.4659ZM54.4659 41.081C53.9203 41.081 53.4816 40.6423 53.4816 40.0966C53.4816 39.5538 53.9203 39.1123 54.4659 39.1123H56.8777C57.4233 39.1123 57.862 39.5552 57.862 40.0966C57.862 40.6423 57.4233 41.081 56.8777 41.081H54.4659ZM54.4659 50.1893C53.9203 50.1893 53.4816 49.7463 53.4816 49.2049C53.4816 48.6593 53.9203 48.2205 54.4659 48.2205H56.8777C57.4233 48.2205 57.862 48.6593 57.862 49.2049C57.862 49.7463 57.4233 50.1893 56.8777 50.1893H54.4659ZM54.4659 53.3787C53.9203 53.3787 53.4816 52.9399 53.4816 52.3943C53.4816 51.8529 53.9203 51.4099 54.4659 51.4099H59.07C59.6156 51.4099 60.0544 51.8529 60.0544 52.3943C60.0544 52.9399 59.6156 53.3787 59.07 53.3787H54.4659ZM54.4659 59.2934C53.9203 59.2934 53.4816 58.8504 53.4816 58.309C53.4816 57.7676 53.9203 57.3246 54.4659 57.3246H56.8777C57.4233 57.3246 57.862 57.7676 57.862 58.309C57.862 58.8518 57.4233 59.2934 56.8777 59.2934H54.4659ZM46.2098 61.3662C45.8034 61.0034 45.7669 60.3818 46.1255 59.9754C46.4883 59.5732 47.1098 59.5366 47.512 59.8952L48.3684 60.6602L49.9434 57.3401C50.1741 56.8493 50.7605 56.6426 51.2513 56.8732C51.742 57.1038 51.953 57.686 51.7209 58.181L49.6003 62.6416C49.3092 63.2998 48.5245 63.4305 48.0422 63.0002L46.2098 61.3662ZM46.2098 42.2805C45.8034 41.922 45.7669 41.3004 46.1255 40.894C46.4883 40.4876 47.1098 40.451 47.512 40.8138L48.3684 41.5746L49.9434 38.2587C50.1741 37.7679 50.7605 37.5569 51.2513 37.789C51.742 38.0196 51.953 38.606 51.7209 39.0968L49.6003 43.5616C49.3092 44.2198 48.5245 44.3505 48.0422 43.9202L46.2098 42.2805ZM46.2098 51.8234C45.8034 51.4605 45.7669 50.8432 46.1255 50.4368C46.4883 50.0304 47.1098 49.9938 47.512 50.3566L48.3684 51.1174L49.9434 47.8015C50.1741 47.3107 50.7605 47.0998 51.2513 47.3318C51.742 47.5624 51.953 48.1488 51.7209 48.6396L49.6003 53.1045C49.3092 53.7626 48.5245 53.8934 48.0422 53.4588L46.2098 51.8234ZM66.5991 42.604H62.5884C60.87 42.604 59.6353 41.0135 59.6353 39.2909V34.3676H44.0611C43.4705 34.3676 43.0767 35.0693 43.0767 35.7105V65.2882C43.0767 65.8788 43.4438 66.6312 44.0611 66.6312H65.6147C66.2053 66.6312 66.5991 65.9295 66.5991 65.2882V42.604ZM62.5898 40.6338H65.4642L61.6055 36.0691V39.2895C61.6055 39.9363 61.9992 40.6338 62.5898 40.6338ZM41.1952 66.087C41.1389 65.8324 41.108 65.5652 41.108 65.2896V41.7588C39.1266 40.714 37.1423 40.2724 34.8698 40.2724L35.6784 46.9296H35.6742C35.7614 47.651 35.033 48.2332 34.3355 47.9548L30.4134 46.3755L31.7691 60.8459C31.8253 61.2438 31.7297 61.428 31.5019 61.7149L28.7077 66.0884H37.5094V56.4935C37.5094 55.9479 37.9481 55.5091 38.4938 55.5091C39.0366 55.5091 39.4781 55.9479 39.4781 56.4935V66.0884H41.1952V66.087ZM27.8372 40.9334H25.988C25.6645 40.9334 25.3973 41.2005 25.3973 41.524V44.5249C25.4409 44.9398 25.3973 44.7724 25.3973 44.9679C25.3973 45.2941 25.6645 45.5613 25.988 45.5613H27.8372C28.1634 45.5613 28.4306 45.2941 28.4306 44.9679V41.524C28.432 41.2005 28.1648 40.9334 27.8372 40.9334ZM25.988 38.9646H27.8372C28.7864 38.9646 29.6316 39.4835 30.0731 40.2794L32.3808 38.6693L32.385 36.5402C30.6708 37.9155 28.7091 38.689 26.6123 38.689C24.3567 38.689 22.5145 38.0477 21.0197 37.0029V38.606L23.655 40.4679C24.067 39.5693 24.967 38.9646 25.988 38.9646ZM30.4008 42.4479V44.2535L33.5255 45.5093L32.9391 40.6816L30.4008 42.4479ZM28.5431 47.4302C28.3195 47.4935 28.0847 47.5301 27.8372 47.5301H25.988C25.7447 47.5301 25.5098 47.4935 25.2862 47.4302L24.0389 60.7488L26.9133 65.2488L29.7919 60.7488L28.5431 47.4302ZM23.4286 44.082V42.7066L20.4755 40.6184L19.882 45.5093L23.4286 44.082ZM25.1231 66.087L22.3162 61.698C22.1292 61.5026 22.0252 61.2284 22.0491 60.933L23.4286 46.1998L19.072 47.9534C18.3745 48.2318 17.6447 47.651 17.7333 46.9282H17.7291L18.5348 40.271H18.3C11.2041 40.271 5.39203 46.083 5.39203 53.179V66.087H13.9308V56.4921C13.9308 55.9465 14.3737 55.5077 14.9152 55.5077C15.4608 55.5077 15.8995 55.9465 15.8995 56.4921V66.087H25.1231Z" fill="#0B3D34"/>
</svg>
