<svg width="12" height="12" viewBox="0 0 12 12" fill="none" xmlns="http://www.w3.org/2000/svg">
<path fill-rule="evenodd" clip-rule="evenodd" d="M11.6343 0.323844C11.6372 0.326954 11.6405 0.329675 11.6433 0.332821C11.6598 0.351208 11.6753 0.370173 11.6902 0.389445C11.6965 0.397529 11.7022 0.406026 11.7082 0.414304C11.7207 0.431507 11.7335 0.448305 11.7448 0.466094C11.7484 0.471824 11.751 0.478241 11.7545 0.484048C11.8527 0.646418 11.9012 0.829963 11.8988 1.01369V8.07094C11.8988 8.62315 11.4511 9.07072 10.8989 9.07084C10.3466 9.07083 9.89901 8.62322 9.899 8.07094V3.41536L1.7072 11.6072C1.31676 11.9976 0.683517 11.9974 0.292985 11.6072C-0.0975254 11.2167 -0.0974974 10.5835 0.292985 10.193L8.48617 1.99977L3.82783 1.99977C3.27555 1.99976 2.82794 1.55215 2.82794 0.999877C2.82817 0.447793 3.27569 -1.00895e-05 3.82783 -1.59427e-05L10.8989 -1.60059e-05L10.961 0.00274613C11.1819 0.0163174 11.3985 0.102962 11.5729 0.262387C11.5741 0.263484 11.5751 0.264737 11.5763 0.26584C11.5862 0.274999 11.5971 0.283826 11.6067 0.293461C11.6164 0.30319 11.6251 0.313821 11.6343 0.323844Z" fill="#0B3D34"/>
</svg>
