<svg width="24" height="24" viewBox="0 0 24 24" fill="none" xmlns="http://www.w3.org/2000/svg">
<path fill-rule="evenodd" clip-rule="evenodd" d="M20 12.0001C20 11.4478 19.5523 11.0001 19 11.0001L7.41406 11.0001L11.707 6.70711C12.0975 6.31658 12.0975 5.68356 11.707 5.29304C11.3165 4.90257 10.6835 4.90257 10.293 5.29304L4.29297 11.293C4.24726 11.3387 4.20711 11.3896 4.1709 11.4434C4.14395 11.4835 4.12014 11.5248 4.09961 11.5675C4.07802 11.6123 4.05971 11.6588 4.04492 11.7071C4.03732 11.732 4.03102 11.757 4.02539 11.7823C4.02373 11.7898 4.022 11.7972 4.02051 11.8048C4.01697 11.8226 4.01428 11.8405 4.01172 11.8585C4.00514 11.9048 4.00001 11.9519 4 12.0001C4 12.0475 4.00532 12.094 4.01172 12.1397C4.01451 12.1596 4.01652 12.1796 4.02051 12.1993C4.02211 12.2072 4.02458 12.2149 4.02637 12.2227C4.03188 12.247 4.03758 12.2712 4.04492 12.295C4.0597 12.3429 4.07812 12.3891 4.09961 12.4337C4.11877 12.4735 4.1403 12.5124 4.16504 12.5499C4.20242 12.6065 4.24516 12.6593 4.29297 12.7071L10.293 18.7071C10.6835 19.0976 11.3165 19.0976 11.707 18.7071C12.0975 18.3166 12.0975 17.6836 11.707 17.293L7.41406 13.0001L19 13.0001C19.5523 13.0001 20 12.5524 20 12.0001Z" fill="#0B3D34"/>
</svg>
