<svg width="72" height="72" viewBox="0 0 72 72" fill="none" xmlns="http://www.w3.org/2000/svg">
<path fill-rule="evenodd" clip-rule="evenodd" d="M14.0312 15.9274V63.9143C14.0312 65.9505 15.6934 67.6141 17.7311 67.6141H56.3102C58.3478 67.6141 60.01 65.9519 60.01 63.9143V15.9274C60.01 13.8911 58.3478 12.2275 56.3102 12.2275H17.7311C15.6934 12.2289 14.0312 13.8911 14.0312 15.9274Z" fill="#B5D8D2"/>
<path fill-rule="evenodd" clip-rule="evenodd" d="M28.5173 10.2303H31.9528C31.9134 9.97855 31.8923 9.7198 31.8923 9.45684C31.8923 6.62605 34.1887 4.33105 37.0181 4.33105C39.8475 4.33105 42.1439 6.62746 42.1439 9.45684C42.1439 9.7198 42.1242 9.97855 42.0834 10.2303H45.5203C46.4133 10.2303 47.1431 10.9601 47.1431 11.8531V15.6246C47.1431 16.5218 46.4133 17.2517 45.5203 17.2517H28.5173C27.6244 17.2517 26.8945 16.5218 26.8945 15.6246V11.8531C26.8945 10.9601 27.6244 10.2303 28.5173 10.2303ZM37.0195 7.40512C38.1558 7.40512 39.0727 8.32621 39.0727 9.45824C39.0727 10.5945 38.1558 11.5114 37.0195 11.5114C35.8875 11.5114 34.9664 10.5945 34.9664 9.45824C34.9678 8.32621 35.8875 7.40512 37.0195 7.40512Z" fill="#B5D8D2"/>
<path fill-rule="evenodd" clip-rule="evenodd" d="M50.4624 62.7584C48.8523 62.7584 47.8074 59.8685 47.6527 56.3009L47.5613 54.1563H19.3379L19.5854 17.6543H53.656C54.0385 30.956 53.971 43.5729 53.4929 56.9182C53.3635 60.4493 51.6704 62.3027 50.4624 62.7584Z" fill="#B5D8D2"/>
<path fill-rule="evenodd" clip-rule="evenodd" d="M50.463 62.7584C48.8529 62.7584 47.8123 60.0682 47.6604 56.5005L47.5605 54.1563H23.1973L23.449 17.6543H53.6566C54.0391 30.956 53.9716 43.5729 53.4935 56.9182C53.3641 60.4493 51.671 62.3027 50.463 62.7584Z" fill="#E9EAE3"/>
<path fill-rule="evenodd" clip-rule="evenodd" d="M50.4622 62.7577H14.8616C14.8377 62.7577 14.8137 62.7577 14.7941 62.7577C13.0756 62.7577 11.9844 60.0268 11.9844 56.7938V54.1543H14.863H17.5897H47.6539V56.7938C47.6511 60.0268 48.748 62.7577 50.4622 62.7577Z" fill="#B5D8D2"/>
<path fill-rule="evenodd" clip-rule="evenodd" d="M50.4625 62.7581H23.3514C23.3275 62.7581 23.3078 62.7581 23.2839 62.7581H23.2797H23.2755C21.4459 62.7581 20.2773 59.6489 20.2773 56.4159V53.7764H23.3514H26.2567H47.4714V56.4159C47.4728 59.6489 48.633 62.7581 50.4625 62.7581Z" fill="#B5D8D2"/>
<path d="M40.0934 46.1831C39.5505 46.1831 39.109 45.7444 39.109 45.1988C39.109 44.6573 39.552 44.2144 40.0934 44.2144H48.5674C49.1102 44.2144 49.5518 44.6573 49.5518 45.1988C49.5518 45.7444 49.1088 46.1831 48.5674 46.1831H40.0934ZM32.7302 46.1831C32.1874 46.1831 31.7459 45.7444 31.7459 45.1988C31.7459 44.6573 32.1888 44.2144 32.7302 44.2144H36.5651C37.1079 44.2144 37.5495 44.6573 37.5495 45.1988C37.5495 45.7444 37.1065 46.1831 36.5651 46.1831H32.7302ZM40.0934 36.7964C39.5505 36.7964 39.109 36.3577 39.109 35.8162C39.109 35.2706 39.552 34.8319 40.0934 34.8319H48.5674C49.1102 34.8319 49.5518 35.2706 49.5518 35.8162C49.5518 36.3577 49.1088 36.7964 48.5674 36.7964H40.0934ZM32.7302 36.7964C32.1874 36.7964 31.7459 36.3577 31.7459 35.8162C31.7459 35.2706 32.1888 34.8319 32.7302 34.8319H36.5651C37.1079 34.8319 37.5495 35.2706 37.5495 35.8162C37.5495 36.3577 37.1065 36.7964 36.5651 36.7964H32.7302ZM40.0934 27.2409C39.5505 27.2409 39.109 26.798 39.109 26.2566C39.109 25.7109 39.552 25.2722 40.0934 25.2722H48.5674C49.1102 25.2722 49.5518 25.7109 49.5518 26.2566C49.5518 26.798 49.1088 27.2409 48.5674 27.2409H40.0934ZM32.7302 27.2409C32.1874 27.2409 31.7459 26.798 31.7459 26.2566C31.7459 25.7109 32.1888 25.2722 32.7302 25.2722H36.5651C37.1079 25.2722 37.5495 25.7109 37.5495 26.2566C37.5495 26.798 37.1065 27.2409 36.5651 27.2409H32.7302ZM23.6346 46.463C23.2395 46.0917 23.2198 45.4702 23.591 45.0764C23.9651 44.6784 24.5838 44.6616 24.9818 45.0328L26.4162 46.3884L29.1991 41.9559C29.4902 41.4975 30.0963 41.3625 30.5548 41.6494C31.0132 41.9363 31.1524 42.5466 30.8613 43.005C30.4662 43.6308 27.4934 48.4261 27.3288 48.5977C26.9548 48.9928 26.3318 49.0125 25.938 48.6413L23.6346 46.463ZM28.302 32.7225C28.6887 32.3358 29.3102 32.3358 29.697 32.7225C30.0795 33.105 30.0795 33.7308 29.697 34.1133L28.0826 35.7277L29.697 37.342C30.0795 37.7288 30.0795 38.3503 29.697 38.7328C29.3102 39.1195 28.6887 39.1195 28.302 38.7328L26.6876 37.1184L25.0732 38.7328C24.6907 39.1195 24.0691 39.1195 23.6824 38.7328C23.2999 38.3503 23.2999 37.7288 23.6824 37.342L25.2968 35.7277L23.6824 34.1133C23.2999 33.7308 23.2999 33.105 23.6824 32.7225C24.0691 32.3358 24.6907 32.3358 25.0732 32.7225L26.6876 34.3369L28.302 32.7225ZM23.8301 27.5166C23.4321 27.1453 23.4152 26.5238 23.7865 26.13C24.1577 25.7362 24.7793 25.7152 25.173 26.0864L26.6116 27.4462L29.3946 23.0095C29.6857 22.5511 30.2918 22.4161 30.7502 22.703C31.2087 22.9941 31.3437 23.6002 31.0568 24.0586C30.6616 24.6886 27.6846 29.4797 27.5215 29.6555C27.1502 30.0506 26.5287 30.0661 26.1349 29.6948L23.8301 27.5166ZM50.4616 63.7472H15.0157C15.0157 64.5923 15.2266 65.2463 15.813 65.8355C16.308 66.3263 16.9845 66.6328 17.7298 66.6328H56.3088C57.8037 66.6328 59.0229 65.4094 59.0229 63.9188V15.9277C59.0229 14.4328 57.8037 13.2136 56.3088 13.2136H48.1287V15.6295C48.1287 16.0008 48.0527 16.3509 47.9135 16.6702H53.6538C54.2121 16.6702 54.6466 17.1089 54.6382 17.7108C54.8252 24.3356 54.9054 30.7973 54.873 37.2745C54.8449 43.7841 54.7099 50.2852 54.4666 56.955C54.3668 59.8336 53.187 62.6278 50.8863 63.6473C50.7598 63.7106 50.6163 63.7472 50.4616 63.7472ZM13.047 63.0848C11.5198 61.7939 10.998 59.0152 10.998 56.7947V54.1594C10.998 53.6138 11.4368 53.175 11.9824 53.175H13.047V15.9277C13.047 13.3486 15.1521 11.2434 17.7312 11.2434H25.983C26.2615 10.0875 27.3021 9.24656 28.5185 9.24656H30.9148C31.0259 5.96578 33.7245 3.35156 37.0221 3.35156C40.3226 3.35156 43.017 5.96719 43.1295 9.24656H45.5257C46.7421 9.24656 47.7813 10.0875 48.0612 11.2434H56.313C58.8921 11.2434 60.9973 13.3486 60.9973 15.9277V63.9173C60.9973 66.4964 58.8921 68.6016 56.313 68.6016H17.7312C15.1521 68.6016 13.047 66.4964 13.047 63.9173V63.0848ZM15.0157 53.175H18.364L18.603 17.6503C18.6073 17.1089 19.046 16.6744 19.5832 16.6744V16.6702H26.1279C25.9887 16.3509 25.9085 16.0008 25.9085 15.6295V13.2136H17.7284C16.2377 13.2136 15.0143 14.4328 15.0143 15.9277V53.175H15.0157ZM47.5591 53.175H47.6506C48.1962 53.175 48.6349 53.6138 48.6349 54.1594V56.3433C48.7193 58.0378 49.0062 59.5481 49.4646 60.5972C49.736 61.223 50.0271 61.642 50.3182 61.7489C50.7724 61.5056 51.2984 60.9839 51.7287 60.15C52.1506 59.3372 52.4585 58.2572 52.5105 56.8847C52.9774 43.8741 53.0534 31.6158 52.7018 18.6375H20.5563L20.3257 53.1736H47.5591V53.175ZM14.9159 61.777H47.7068C47.0205 60.4861 46.6662 58.6763 46.6662 56.7947L46.6184 55.1438H12.9668C12.9668 57.1167 12.8951 59.0067 13.677 60.6647C13.968 61.282 14.2943 61.7728 14.861 61.7728C14.8807 61.7728 14.8962 61.7728 14.9159 61.777ZM31.954 11.2167H28.5185C28.1684 11.2167 27.8801 11.5078 27.8801 11.858V15.6295C27.8801 15.9797 28.167 16.268 28.5185 16.268H45.5243C45.8745 16.268 46.1627 15.9811 46.1627 15.6295V11.858C46.1627 11.5078 45.8759 11.2167 45.5243 11.2167H42.0874C41.494 11.2167 41.0271 10.6781 41.1143 10.0889C41.4926 7.58156 39.559 5.32172 37.0207 5.32172C34.609 5.32172 32.712 7.37484 32.8905 9.77391L32.9384 10.2323C32.9384 10.778 32.4954 11.2167 31.954 11.2167ZM37.0193 6.42141C39.7179 6.42141 41.0777 9.69797 39.168 11.6077C37.2584 13.5173 33.9818 12.1575 33.9818 9.45891C33.9818 7.77984 35.3416 6.42141 37.0193 6.42141ZM37.7773 8.70516C37.1037 8.03156 35.952 8.50969 35.952 9.45891C35.952 10.4109 37.1037 10.8905 37.7773 10.2169C38.1963 9.79781 38.1963 9.12 37.7773 8.70516Z" fill="#0B3D34"/>
</svg>
