<svg width="72" height="72" viewBox="0 0 72 72" fill="none" xmlns="http://www.w3.org/2000/svg">
<path fill-rule="evenodd" clip-rule="evenodd" d="M11.5154 58.2085H60.474V67.6121H11.5154V58.2085Z" fill="#B5D8D2"/>
<path fill-rule="evenodd" clip-rule="evenodd" d="M23.3877 25.8804H48.6045C51.9177 25.8804 54.6275 28.5916 54.6275 31.9033V58.2087H17.3633V31.9033C17.3633 28.5916 20.0745 25.8804 23.3877 25.8804Z" fill="#B5D8D2"/>
<path fill-rule="evenodd" clip-rule="evenodd" d="M9.39484 49.5718H62.5947C64.0094 49.5718 65.1653 50.7319 65.1653 52.1424V55.6383C65.1653 57.053 64.0094 58.209 62.5947 58.209H9.39484C7.98016 58.209 6.82422 57.053 6.82422 55.6383V52.1424C6.82422 50.7305 7.98016 49.5718 9.39484 49.5718Z" fill="#E9EAE3"/>
<path fill-rule="evenodd" clip-rule="evenodd" d="M26.2924 49.5718H62.471C63.9532 49.5718 65.1654 50.7319 65.1654 52.1424V55.6383C65.1654 57.053 63.9532 58.209 62.471 58.209H28.1937C27.0377 56.5622 26.2924 54.8326 26.0533 53.079C25.886 51.8513 25.9774 50.6799 26.2924 49.5718Z" fill="#E9EAE3"/>
<path fill-rule="evenodd" clip-rule="evenodd" d="M46.7893 50.1325L43.3454 50.5755C42.0221 50.747 41.0771 51.9747 41.2486 53.298C41.4202 54.6255 42.6436 55.5705 43.9711 55.3989L47.415 54.9531C48.7383 54.7816 49.6833 53.5581 49.5118 52.2306C49.3402 50.9017 48.1168 49.9609 46.7893 50.1325Z" fill="#E9EAE3"/>
<path fill-rule="evenodd" clip-rule="evenodd" d="M25.6939 50.1325L29.1335 50.5755C30.4611 50.747 31.4061 51.9747 31.2345 53.298C31.0629 54.6255 29.8353 55.5705 28.512 55.3989L25.0681 54.9531C23.7406 54.7816 22.7998 53.5581 22.9714 52.2306C23.1429 50.9017 24.3664 49.9609 25.6939 50.1325Z" fill="#E9EAE3"/>
<path fill-rule="evenodd" clip-rule="evenodd" d="M42.2658 29.5439H30.1397C26.6283 29.5439 21.7374 31.8207 18.8222 36.8789L13.2014 50.2721C12.5799 51.7627 13.2774 53.4727 14.768 54.0985C15.1182 54.2461 15.4782 54.3179 15.8368 54.3263L23.7849 55.1082C23.4136 54.5977 24.1913 50.0499 25.336 49.583H46.1682C47.9977 49.7869 49.5727 54.2025 47.8022 55.1475L56.1539 54.3263C56.5083 54.3179 56.8711 54.2461 57.2227 54.0985C58.7091 53.4727 59.4108 51.7627 58.7893 50.2721L53.1685 36.8789C51.5766 32.251 46.0557 29.5439 42.2658 29.5439Z" fill="#B5D8D2"/>
<path fill-rule="evenodd" clip-rule="evenodd" d="M42.266 29.5439H30.1399C27.8562 29.5439 24.986 30.5086 22.459 32.5772C25.0296 40.2708 33.5684 46.1222 42.9087 46.1222C47.8868 46.1222 52.1927 44.46 55.2063 41.7375L53.1701 36.8789C51.5768 32.251 46.0559 29.5439 42.266 29.5439Z" fill="#E9EAE3"/>
<path fill-rule="evenodd" clip-rule="evenodd" d="M41.011 23.6123H31.3965V28.9532C31.3965 31.5956 33.5607 33.7612 36.2045 33.7612C38.851 33.7612 41.0124 31.597 41.0124 28.9532V23.6123H41.011Z" fill="#E9EAE3"/>
<path fill-rule="evenodd" clip-rule="evenodd" d="M36.1388 28.4046C28.4129 28.4046 28.2146 16.7932 28.2146 16.7932C31.6304 11.0964 44.0321 15.5936 44.0405 15.5979C44.2079 15.7807 44.1924 15.7258 44.1924 16.0521C44.191 22.871 40.5868 28.4046 36.1388 28.4046Z" fill="#E9EAE3"/>
<path fill-rule="evenodd" clip-rule="evenodd" d="M42.4128 36.7198L41.6239 30.2173L35.9961 34.1365L42.4128 36.7198Z" fill="#B5D8D2"/>
<path fill-rule="evenodd" clip-rule="evenodd" d="M29.5781 36.7199L30.3755 30.1626L35.9963 34.1367L29.5781 36.7199Z" fill="#B5D8D2"/>
<path fill-rule="evenodd" clip-rule="evenodd" d="M37.9488 33.7104H34.3769L33.0452 47.9361H33.0606L34.1097 49.5715H38.2188L39.2636 47.9361H39.2791L37.9488 33.7104Z" fill="#B5D8D2"/>
<path fill-rule="evenodd" clip-rule="evenodd" d="M35.4892 33.7104H34.3769L33.0452 47.9361H33.0606L34.1097 49.5715H35.4288L36.7647 47.4819H36.7802L35.4892 33.7104Z" fill="#E9EAE3"/>
<path fill-rule="evenodd" clip-rule="evenodd" d="M36.9088 31.0273H35.4224C34.7291 31.0273 34.1582 31.5969 34.1582 32.2916V35.0577C34.1582 35.7509 34.7277 36.3219 35.4224 36.3219H36.9088C37.6021 36.3219 38.173 35.7523 38.173 35.0577V32.2916C38.1716 31.5969 37.6021 31.0273 36.9088 31.0273Z" fill="#B5D8D2"/>
<path fill-rule="evenodd" clip-rule="evenodd" d="M45.1805 18.4512C44.4549 18.0167 43.7096 17.0169 42.9446 15.4419C39.4374 17.0126 36.383 16.7694 33.7843 14.7162C33.1191 14.1903 32.2894 14.0708 31.5047 14.39C29.4319 15.2309 27.8977 17.1041 27.5265 19.385C26.2383 16.6344 25.0993 6.21405 30.5204 7.86921C32.288 1.0503 49.7874 3.84171 45.1805 18.4512Z" fill="#E9EAE3"/>
<path fill-rule="evenodd" clip-rule="evenodd" d="M45.1795 18.451C44.4539 18.0165 43.7086 17.0166 42.9436 15.4416C39.4364 17.0124 36.382 16.7691 33.7833 14.716C33.1181 14.1901 32.2884 14.0705 31.5038 14.3897C29.7783 15.0915 28.4227 16.5104 27.8039 18.2808C27.465 14.4741 28.1428 10.1204 31.7906 11.2327C33.0464 6.39803 42.2264 6.40084 45.8025 12.0343C46.1034 13.8385 45.96 15.9746 45.1795 18.451Z" fill="#B5D8D2"/>
<path fill-rule="evenodd" clip-rule="evenodd" d="M28.5958 20.6702C25 21.2805 23.7006 16.5246 26.2994 16.5401C26.8577 16.5443 27.3681 16.7876 27.6114 17.1616C27.6719 18.3795 28.0459 19.579 28.5958 20.6702Z" fill="#E9EAE3"/>
<path fill-rule="evenodd" clip-rule="evenodd" d="M43.457 21.1413C47.1006 21.2974 47.7981 16.4177 45.2233 16.7566C44.6692 16.8326 44.1953 17.1307 43.9998 17.5343C44.087 18.7535 43.8677 19.9896 43.457 21.1413Z" fill="#E9EAE3"/>
<path d="M45.7529 39.5211C45.5462 39.0233 45.781 38.4453 46.2788 38.233C46.7809 38.022 47.3588 38.2611 47.5698 38.7589L51.4004 47.8911C51.4088 47.915 51.4159 47.9389 51.4243 47.9628L51.9179 47.915C52.4607 47.8588 52.9388 48.2539 52.9909 48.7953C53.0471 49.3339 52.652 49.812 52.1134 49.8669L48.526 50.217C49.2235 51.2661 49.6777 52.7483 49.5301 53.9886L56.0551 53.3474C56.3659 53.3192 56.4854 53.3389 56.8398 53.1913C57.8368 52.7722 58.291 51.6444 57.8762 50.6516L52.2554 37.2585C52.247 37.2303 52.2357 37.2064 52.2273 37.1783C50.9602 33.3871 46.2957 30.7208 42.6479 30.5366L43.3848 36.6003H43.3805C43.4677 37.3217 42.7393 37.9081 42.0418 37.6283L39.1913 36.4808L40.2432 47.7533C40.2868 48.0725 40.2277 48.3425 40.0126 48.5858H46.6177C46.7527 48.5577 47.0199 48.3903 47.6823 48.327L49.3768 48.1597L45.7529 39.5211ZM24.8166 38.7603C25.0276 38.2625 25.6013 38.0235 26.1048 38.2344C26.6068 38.4453 26.8416 39.0233 26.6307 39.5225L22.9955 48.1878C23.6368 48.2511 24.6577 48.3074 25.2315 48.4874C25.3271 48.5197 25.4227 48.5506 25.5184 48.5914H32.3148C32.139 48.396 32.0434 48.1288 32.0673 47.8503L33.143 36.3458L29.9424 37.6339C29.2449 37.9124 28.5151 37.3274 28.6037 36.606H28.5995L29.3335 30.5745C27.7782 30.7335 26.0049 31.3396 24.3034 32.4435C22.5934 33.5516 20.9663 35.1547 19.7148 37.295L18.2832 40.7108C18.2748 40.7263 18.2677 40.746 18.2593 40.767L14.416 49.9274C14.1095 50.6853 13.7382 51.2633 14.0968 52.1436C14.3879 52.8495 15.098 53.3361 15.8546 53.3474C15.8785 53.3516 15.9066 53.3516 15.9305 53.3558V53.3516L22.7466 54.021C22.8226 52.8214 23.1488 51.3336 23.6523 50.2255L20.0241 49.8711C19.4855 49.8149 19.0918 49.3367 19.1438 48.7995C19.1959 48.2567 19.6782 47.863 20.2154 47.9192L20.9495 47.991C20.9579 47.9628 20.9691 47.9305 20.9818 47.9038L24.8166 38.7603ZM44.8318 19.8378C45.857 19.1966 46.0271 17.7045 45.473 17.7256C45.3015 17.7299 45.1384 17.765 44.9991 17.8536C45.0146 18.5188 44.9555 19.1839 44.8318 19.8378ZM47.2829 19.9855C46.733 21.0177 45.7009 21.9106 44.206 22.0949C43.8559 23.1116 43.4213 24.0566 42.9179 24.9017H48.602C52.4565 24.9017 55.6093 28.0503 55.6093 31.9049V40.161L59.1446 48.5914H62.5927C64.5502 48.5914 66.1477 50.1903 66.1477 52.1478V55.6395C66.1477 57.597 64.5488 59.196 62.5927 59.196H61.4565V67.6194C61.4565 68.1622 61.0135 68.6038 60.4721 68.6038H11.5149C10.9721 68.6038 10.5305 68.1608 10.5305 67.6194V59.196H9.3943C7.4368 59.196 5.83789 57.597 5.83789 55.6395V52.1478C5.83789 50.1903 7.4368 48.5914 9.3943 48.5914H12.8424L16.3777 40.161V31.9049C16.3777 28.0503 19.5305 24.9017 23.3851 24.9017H29.2084C28.667 23.8808 28.2718 22.7924 27.9765 21.7124C25.1218 21.7236 23.364 18.8788 24.1262 16.9494C24.3807 16.3039 24.8715 15.8174 25.6168 15.6374C25.3341 13.2172 25.3257 9.67064 26.912 7.85236C27.677 6.97486 28.7091 6.6008 29.8862 6.7358C32.956 0.182674 48.8368 3.0683 46.7443 16.1239C47.9691 16.9325 47.9565 18.7142 47.2829 19.9855ZM42.4763 21.0613C42.4918 20.8574 42.5874 20.6703 42.6479 20.4636C42.9066 19.5664 43.0866 18.5497 43.0191 17.6061L42.4848 16.6935C39.1562 17.9408 35.912 17.6947 33.129 15.4503C32.7859 15.1747 32.2923 15.1311 31.8732 15.3027C31.1237 15.605 30.4585 16.0677 29.9157 16.6456C29.6612 16.917 29.4334 17.211 29.2379 17.5302C29.3377 18.7297 29.6443 21.1344 30.609 23.2944C31.5821 25.4783 33.2598 27.4203 36.1384 27.4203C39.3741 27.4189 41.5637 24.0031 42.4763 21.0613ZM44.341 15.9917C44.4845 15.9285 44.6405 15.8806 44.7995 15.8399C46.5334 5.08064 34.0093 3.1358 31.7213 7.4572C33.9263 8.99142 35.1216 11.6028 34.839 14.2775C35.8557 14.9708 36.9399 15.366 38.1001 15.4574C39.4557 15.5656 40.9224 15.2661 42.5087 14.5602C43.0149 14.3211 43.5929 14.5278 43.8277 15.0144C44.0021 15.3814 44.1737 15.7077 44.341 15.9917ZM27.6348 15.8989C27.7191 15.9425 27.7937 15.9945 27.8696 16.0466C28.6909 14.9061 29.8187 14.0131 31.1307 13.4788C31.7129 13.2439 32.319 13.1764 32.9082 13.2749C32.8759 12.5408 32.6973 11.8278 32.3865 11.1739C31.9126 10.1811 31.1391 9.33595 30.1379 8.77767C29.7554 8.66939 29.432 8.64549 29.1577 8.6933C28.404 8.82549 28.013 9.59752 27.7909 10.3316C27.3198 11.877 27.3676 14.0385 27.6348 15.8989ZM26.2201 18.8127C26.4155 19.1122 26.7024 19.378 27.0737 19.5467C26.867 18.9167 26.7235 18.267 26.6588 17.6061C26.4521 17.5063 26.033 17.4711 25.9571 17.6652C25.8291 17.9802 26.0162 18.5061 26.2201 18.8127ZM36.9076 32.0117H35.4212C35.2693 32.0117 35.1427 32.1397 35.1427 32.2944V35.0563C35.1427 35.2081 35.2707 35.3347 35.4212 35.3347H36.9076C37.0595 35.3347 37.186 35.2067 37.186 35.0563V32.2944C37.186 32.1397 37.058 32.0117 36.9076 32.0117ZM35.4198 30.043H36.9062C37.6641 30.043 38.3448 30.4213 38.7554 31.0161L39.7805 30.306C39.8565 30.2061 39.9718 29.5958 39.9999 29.3975C40.0393 29.1022 40.0238 28.4244 40.0238 28.1094C38.8524 28.9306 37.532 29.3891 36.137 29.3891C34.6505 29.3891 33.4102 29.022 32.378 28.4089C32.378 28.9869 32.3541 29.382 32.5018 29.9361C32.5693 30.1878 32.6649 30.4339 32.7845 30.6702L33.4777 31.161C33.8771 30.4845 34.6027 30.043 35.4198 30.043ZM39.1548 33.1353V34.3517L41.2318 35.1885L40.8409 31.9597L39.1548 33.1353ZM37.2985 37.2697C36.9793 37.3288 35.3452 37.3288 35.0302 37.2697L34.0571 47.6703L34.6435 48.5914H37.6852L38.2716 47.6703L37.2985 37.2697ZM33.1726 34.2167V33.3392L31.1518 31.9119L30.7538 35.1885L33.1726 34.2167ZM30.4093 28.5594V26.8691H23.3851C20.6148 26.8691 18.3465 29.1374 18.3465 31.9035V35.7706C19.7176 33.6064 21.436 31.9597 23.2332 30.7953C25.5774 29.2766 28.0721 28.5594 30.1379 28.5594H30.4093ZM41.994 26.8691V28.5594H42.2654C44.4901 28.5594 47.252 29.413 49.5807 30.9795C51.2626 32.1116 52.7335 33.6219 53.642 35.4641V31.9049C53.642 29.1388 51.3737 26.8705 48.6034 26.8705H41.994V26.8691ZM59.904 50.5602C60.3709 52.6485 59.0476 54.7691 56.8988 55.2275C56.6837 55.2711 56.4559 55.2992 56.2252 55.3077L47.9691 56.1205C47.7146 56.1641 47.4587 56.105 47.2477 55.9644L44.0949 56.3708C41.1137 56.7575 39.0957 53.3206 40.9576 50.9061C41.0532 50.7866 41.153 50.6755 41.2599 50.5672H31.2221C32.6888 52.0227 32.5412 54.426 30.9029 55.6902C30.2138 56.2203 29.3166 56.4917 28.3871 56.3722L24.9432 55.9264C24.7759 55.9067 24.6127 55.8702 24.4524 55.8266C24.2527 56.0136 23.9785 56.1135 23.6874 56.0853L15.7632 55.3077C15.2415 55.2725 14.8745 55.2163 14.3837 55.0081C12.6343 54.2741 11.6766 52.3771 12.083 50.5602H9.3943C8.52523 50.5602 7.80805 51.2731 7.80805 52.1464V55.6381C7.80805 56.5114 8.52523 57.2244 9.3943 57.2244H62.5941C63.4632 57.2244 64.1804 56.5114 64.1804 55.6381V52.1464C64.1804 51.2731 63.4632 50.5602 62.5941 50.5602H59.904ZM47.5501 53.9197C47.7413 53.0788 47.2829 51.8342 46.7654 51.1255L43.4691 51.5516C42.2288 51.7105 41.731 53.3291 42.7759 54.1349C43.0712 54.3627 43.4537 54.478 43.8488 54.426C44.3888 54.3542 47.252 54.0195 47.5501 53.9197ZM25.3791 51.0931C25.0838 51.823 24.8209 53.0183 24.7055 53.8241L25.1921 53.9802L28.636 54.426C29.896 54.5891 30.7651 53.1378 29.972 52.1056C29.7413 51.8103 29.4066 51.5994 29.0115 51.5516L25.3791 51.0931ZM59.4891 59.1931H12.4993V66.6308H59.4891V59.1931Z" fill="#0B3D34"/>
</svg>
