<svg width="72" height="72" viewBox="0 0 72 72" fill="none" xmlns="http://www.w3.org/2000/svg">
<path fill-rule="evenodd" clip-rule="evenodd" d="M25.4578 11.1953H56.9283C58.5145 11.1953 59.8139 12.4905 59.8139 14.0767V64.7102C59.8139 66.2964 58.5145 67.5958 56.9283 67.5958H22.5764V14.0781C22.5764 12.4919 23.8716 11.1953 25.4578 11.1953Z" fill="#B5D8D2"/>
<path fill-rule="evenodd" clip-rule="evenodd" d="M59.8152 19.7344V64.7105C59.8152 66.2967 58.5158 67.5961 56.9295 67.5961H29.592V22.6214C29.592 21.0352 30.8914 19.7358 32.4777 19.7358H59.8152V19.7344Z" fill="#E9EAE3"/>
<path fill-rule="evenodd" clip-rule="evenodd" d="M28.3191 45.9082H15.1959C9.23204 45.9082 4.35376 50.7879 4.35376 56.7504V67.5968H39.1655V56.7504C39.1655 50.7865 34.2872 45.9082 28.3191 45.9082Z" fill="#B5D8D2"/>
<path fill-rule="evenodd" clip-rule="evenodd" d="M15.1965 45.9082H28.3196C34.2863 45.9082 39.166 50.7879 39.166 56.7504V65.6674C36.5982 66.0415 33.8251 66.102 30.9099 65.787C19.7401 64.5874 9.97087 58.3254 6.21899 50.6909C8.17228 47.8095 11.4727 45.9082 15.1965 45.9082Z" fill="#E9EAE3"/>
<path fill-rule="evenodd" clip-rule="evenodd" d="M26.9645 39.4902H16.5569V45.2657C16.5569 48.1316 18.8969 50.4716 21.7586 50.4716C24.6203 50.4716 26.9645 48.1316 26.9645 45.2657V39.4902Z" fill="#E9EAE3"/>
<path fill-rule="evenodd" clip-rule="evenodd" d="M21.6897 44.6724C13.3309 44.6724 13.1116 32.1075 13.1116 32.1075C16.8114 25.9411 30.2327 30.8082 30.2397 30.8124C30.4225 31.0121 30.407 30.9516 30.407 31.3032C30.4084 38.6888 26.5061 44.6724 21.6897 44.6724Z" fill="#B5D8D2"/>
<path fill-rule="evenodd" clip-rule="evenodd" d="M20.1883 28.9854C25.0159 28.9137 30.2373 30.8065 30.2415 30.8107C30.4243 31.0104 30.4047 30.9499 30.4047 31.3015C30.4047 37.4243 27.7258 42.5824 24.0667 44.1687C16.5573 41.3548 16.449 32.5094 17.6851 31.1257C18.2898 30.1146 19.1589 29.4284 20.1883 28.9854Z" fill="#E9EAE3"/>
<path fill-rule="evenodd" clip-rule="evenodd" d="M28.0046 51.962L27.2354 45.6367L21.7581 49.4477L28.0046 51.962Z" fill="#B5D8D2"/>
<path fill-rule="evenodd" clip-rule="evenodd" d="M15.5159 51.962L16.2893 45.5762L21.7582 49.4476L15.5159 51.962Z" fill="#B5D8D2"/>
<path fill-rule="evenodd" clip-rule="evenodd" d="M23.6623 49.0293H20.1874L18.8909 62.8738H18.9077L20.4138 65.2377L21.9256 67.5974L23.4317 65.2377L24.9392 62.8738H24.9588L23.6623 49.0293Z" fill="#B5D8D2"/>
<path fill-rule="evenodd" clip-rule="evenodd" d="M21.2674 49.0293H20.1874L18.8909 62.8738H18.9077L20.4138 65.2377L20.5657 65.4726L20.996 64.7948L22.5063 62.4351H22.5232L21.2674 49.0293Z" fill="#B5D8D2"/>
<path fill-rule="evenodd" clip-rule="evenodd" d="M22.6476 46.4219H21.2006C20.527 46.4219 19.9729 46.9759 19.9729 47.6538V50.3411C19.9729 51.0189 20.527 51.573 21.2006 51.573H22.6476C23.3254 51.573 23.8795 51.0189 23.8795 50.3411V47.6538C23.8795 46.9759 23.3254 46.4219 22.6476 46.4219Z" fill="#B5D8D2"/>
<path fill-rule="evenodd" clip-rule="evenodd" d="M31.4762 33.9018C30.6873 33.435 29.8815 32.3479 29.056 30.645C25.2577 32.3437 21.953 32.0793 19.1377 29.8561C18.4205 29.2893 17.5191 29.1628 16.6698 29.5059C14.4254 30.4186 12.7632 32.4436 12.3652 34.9115C10.9702 31.9345 9.73835 20.6564 15.6066 22.4465C17.5205 15.0707 36.4641 18.0886 31.4762 33.9018Z" fill="#B5D8D2"/>
<path fill-rule="evenodd" clip-rule="evenodd" d="M31.4766 33.9018C30.6877 33.435 29.8819 32.3479 29.0564 30.645C25.2582 32.3437 21.9535 32.0793 19.1382 29.8561C18.421 29.2893 17.5196 29.1628 16.6702 29.5059C14.8013 30.2667 13.3374 31.7981 12.668 33.7148C12.301 29.5973 13.035 24.885 16.981 26.0887C18.3408 20.8547 28.2774 20.8589 32.1488 26.9536C32.4778 28.9111 32.3218 31.2229 31.4766 33.9018Z" fill="#B5D8D2"/>
<path fill-rule="evenodd" clip-rule="evenodd" d="M13.5273 36.3051C9.63623 36.9632 8.22998 31.8163 11.0439 31.836C11.65 31.8402 12.1998 32.099 12.4628 32.5054C12.5261 33.8258 12.9339 35.121 13.5273 36.3051Z" fill="#E9EAE3"/>
<path fill-rule="evenodd" clip-rule="evenodd" d="M29.6113 36.8114C33.553 36.9829 34.311 31.7011 31.521 32.0681C30.9234 32.1482 30.4087 32.4745 30.1977 32.9132C30.2962 34.2281 30.0571 35.564 29.6113 36.8114Z" fill="#E9EAE3"/>
<path fill-rule="evenodd" clip-rule="evenodd" d="M50.6383 27.3794L47.9003 35.3796L46.2227 29.9866L41.26 32.5811L44.8839 22.428C44.9683 22.4646 45.0597 22.4913 45.1511 22.5152L46.757 22.9019C47.4025 23.058 47.9088 23.5164 48.2322 24.2336L49.0408 26.0196C49.3853 26.7902 49.9844 27.2725 50.6383 27.3794ZM57.6738 27.3471L60.4244 35.3796L62.102 29.9866L67.0647 32.5811L63.4099 22.3408C63.3663 22.3563 63.3184 22.3732 63.2749 22.3844L61.6689 22.795C61.0277 22.9582 60.5242 23.425 60.2092 24.1464L59.4161 25.9479C59.0491 26.7818 58.3825 27.2838 57.6738 27.3471Z" fill="#E9EAE3"/>
<path fill-rule="evenodd" clip-rule="evenodd" d="M59.5353 5.45916L60.3846 6.89494C60.7235 7.47291 61.2537 7.83994 61.9315 7.96369L63.6176 8.27869C64.782 8.49384 65.5751 9.53025 65.4429 10.6665L65.2474 12.309C65.1715 12.9671 65.3754 13.5648 65.8493 14.0471L67.0207 15.2509C67.8335 16.0876 67.842 17.3757 67.0362 18.2209L65.8803 19.4373C65.4134 19.9281 65.2151 20.5257 65.3023 21.1838L65.5132 22.8221C65.6609 23.9584 64.879 25.0032 63.716 25.2338L62.0342 25.5643C61.3606 25.6965 60.8346 26.0706 60.5028 26.6485L59.6731 28.0956C59.0993 29.0968 57.8281 29.5032 56.7439 29.0279L55.1815 28.3417C54.5557 28.0702 53.9018 28.0745 53.2803 28.3529L51.7263 29.0546C50.6506 29.5412 49.3751 29.1502 48.7887 28.1532L47.9435 26.7188C47.6004 26.1409 47.0703 25.7738 46.3967 25.6501L44.7106 25.3393C43.542 25.1199 42.7489 24.0835 42.8853 22.9473L43.0765 21.3048C43.1524 20.6467 42.9485 20.049 42.4789 19.5667L41.3032 18.3629C40.4946 17.5262 40.4862 16.2381 41.2878 15.3929L42.4479 14.1765C42.9106 13.6857 43.1103 13.0881 43.0259 12.4299L42.8107 10.7917C42.6631 9.65541 43.4449 8.61056 44.6079 8.37994L46.2898 8.04947C46.9634 7.91728 47.4893 7.54322 47.824 6.96525L48.6537 5.51822C49.2274 4.51838 50.4987 4.11056 51.5801 4.58588L53.1424 5.27213C53.7682 5.54353 54.4221 5.53931 55.0437 5.26087L56.599 4.55916C57.6748 4.07259 58.9503 4.46353 59.5353 5.45916Z" fill="#B5D8D2"/>
<path fill-rule="evenodd" clip-rule="evenodd" d="M54.1616 9.44629C58.3874 9.44629 61.8116 12.7425 61.8116 16.8052C61.8116 20.8707 58.3874 24.1683 54.1616 24.1683C49.9401 24.1683 46.5159 20.8721 46.5159 16.8052C46.5173 12.7425 49.9401 9.44629 54.1616 9.44629Z" fill="#E9EAE3"/>
<path fill-rule="evenodd" clip-rule="evenodd" d="M60.895 13.3134C61.4814 14.354 61.8119 15.5423 61.8119 16.8051C61.8119 20.8706 58.3877 24.1682 54.1619 24.1682C52.2044 24.1682 50.4142 23.4581 49.0642 22.2909C48.3428 21.1701 47.928 19.8468 47.928 18.4321C47.928 14.3667 51.3522 11.0732 55.578 11.0732C57.3639 11.0732 59.0106 11.6639 60.3142 12.6553C60.5209 12.862 60.715 13.0814 60.895 13.3134Z" fill="#E9EAE3"/>
<path fill-rule="evenodd" clip-rule="evenodd" d="M63.8526 11.1445C62.6123 11.1445 62.1862 10.658 62.1862 8.4375C62.1862 10.4864 61.9626 11.1445 60.5198 11.1445C61.9626 11.1445 62.1862 11.8575 62.1862 13.4086C62.1862 12.0291 62.4098 11.1445 63.8526 11.1445Z" fill="#E9EAE3"/>
<path fill-rule="evenodd" clip-rule="evenodd" d="M60.3877 15.2258C59.2796 15.2258 58.8971 14.7955 58.8971 12.8057C58.8971 14.6394 58.7017 15.2258 57.4065 15.2258C58.7017 15.2258 58.8971 15.8643 58.8971 17.2508C58.8971 16.0189 59.0968 15.2258 60.3877 15.2258Z" fill="#E9EAE3"/>
<path d="M44.4513 61.9415C43.9057 61.9415 43.467 61.4986 43.467 60.9572C43.467 60.4115 43.9057 59.9728 44.4513 59.9728H55.5495C56.0951 59.9728 56.5338 60.4115 56.5338 60.9572C56.5338 61.4986 56.0951 61.9415 55.5495 61.9415H44.4513ZM29.081 17.7937C28.5354 17.7937 28.0966 17.3508 28.0966 16.8094C28.0966 16.2637 28.5354 15.825 29.081 15.825H37.3807C37.9221 15.825 38.3651 16.2637 38.3651 16.8094C38.3651 17.3508 37.9221 17.7937 37.3807 17.7937H29.081ZM33.5852 23.4904C33.0438 23.4904 32.6009 23.0475 32.6009 22.5061C32.6009 21.9604 33.0438 21.5217 33.5852 21.5217H39.9232C40.4688 21.5217 40.9076 21.9604 40.9076 22.5061C40.9076 23.0489 40.4688 23.4904 39.9232 23.4904H33.5852ZM35.3304 29.7919C34.789 29.7919 34.3502 29.3489 34.3502 28.8075C34.3502 28.2619 34.789 27.8231 35.3304 27.8231H39.5041C40.047 27.8231 40.4885 28.2619 40.4885 28.8075C40.4885 29.3489 40.0456 29.7919 39.5041 29.7919H35.3304ZM35.7691 37.3026C35.2277 37.3026 34.7848 36.8639 34.7848 36.3183C34.7848 35.7769 35.2277 35.3339 35.7691 35.3339H44.8971C45.4427 35.3339 45.8815 35.7769 45.8815 36.3183C45.8815 36.8639 45.4427 37.3026 44.8971 37.3026H35.7691ZM51.0846 37.3026C50.5432 37.3026 50.1002 36.8639 50.1002 36.3183C50.1002 35.7769 50.5432 35.3339 51.0846 35.3339H55.9995C56.5409 35.3339 56.9838 35.7769 56.9838 36.3183C56.9838 36.8639 56.5409 37.3026 55.9995 37.3026H51.0846ZM49.646 43.4606C49.1004 43.4606 48.6616 43.0219 48.6616 42.4762C48.6616 41.9334 49.1004 41.4919 49.646 41.4919H55.9995C56.5409 41.4919 56.9838 41.9348 56.9838 42.4762C56.9838 43.0219 56.5409 43.4606 55.9995 43.4606H49.646ZM32.3688 43.4606C31.8232 43.4606 31.3845 43.0219 31.3845 42.4762C31.3845 41.9334 31.8232 41.4919 32.3688 41.4919H45.5271C46.0699 41.4919 46.5073 41.9348 46.5073 42.4762C46.5073 43.0219 46.0685 43.4606 45.5271 43.4606H32.3688ZM40.4252 49.62C39.8796 49.62 39.4409 49.1812 39.4409 48.6398C39.4409 48.0942 39.8796 47.6554 40.4252 47.6554H55.5495C56.0951 47.6554 56.5338 48.0942 56.5338 48.6398C56.5338 49.1826 56.0951 49.62 55.5495 49.62H40.4252ZM44.4513 55.7822C43.9057 55.7822 43.467 55.3392 43.467 54.7978C43.467 54.2522 43.9057 53.8134 44.4513 53.8134H55.5495C56.0951 53.8134 56.5338 54.2522 56.5338 54.7978C56.5338 55.3392 56.0951 55.7822 55.5495 55.7822H44.4513ZM50.0355 18.1875C49.6488 17.8008 49.6488 17.1792 50.0355 16.7967C50.418 16.41 51.0438 16.41 51.4263 16.7967L53.3402 18.7106L56.7448 12.8184C57.012 12.3487 57.6138 12.1842 58.0835 12.4556C58.5504 12.727 58.7135 13.3247 58.4421 13.7944L54.4441 20.7187C54.094 21.405 53.2995 21.4528 52.8537 21.0056L50.0355 18.1875ZM54.1615 8.46607C58.8527 8.46607 62.7959 12.1336 62.7959 16.8094C62.7959 21.4809 58.8541 25.1526 54.1615 25.1526C49.473 25.1526 45.5313 21.4809 45.5313 16.8094C45.5313 12.1336 49.4745 8.46607 54.1615 8.46607ZM58.8893 12.3122C56.2863 9.80482 52.0366 9.80482 49.4337 12.3122C46.8546 14.7956 46.8546 18.8217 49.4337 21.3051C52.0366 23.8083 56.2863 23.8083 58.8893 21.3051C61.4726 18.8217 61.4726 14.7956 58.8893 12.3122ZM60.3841 4.96591L61.2293 6.40029C61.4248 6.73498 61.7201 6.93045 62.1068 6.99795L63.7929 7.31295C65.4509 7.61951 66.6152 9.11013 66.4198 10.7765L66.2243 12.419C66.1849 12.7861 66.2918 13.0969 66.5505 13.3598L67.722 14.5678C68.9018 15.7758 68.9145 17.6686 67.7501 18.8962L66.5899 20.1154C66.3354 20.3784 66.2271 20.6976 66.2749 21.0604L66.4859 22.6987C66.618 23.7154 66.2426 24.6886 65.5338 25.3622L67.9934 32.25H67.9891C68.2845 33.0825 67.4027 33.8644 66.6096 33.4495L62.6918 31.4006L61.3643 35.6742C61.2799 35.9456 61.0774 36.1762 60.7976 36.2915V64.709C60.7976 66.8423 59.0552 68.579 56.9276 68.579H4.35352C3.81211 68.579 3.36914 68.1403 3.36914 67.5947V56.7525C3.36914 50.243 8.69039 44.9259 15.1957 44.9259H15.5543L15.5698 44.9062V42.8095C15.5374 42.7181 13.9273 41.0995 12.919 37.349C9.84211 37.4011 7.96055 34.3439 8.7607 32.3062C9.03633 31.6087 9.57352 31.0898 10.3905 30.9197C10.0755 28.3125 10.0516 24.4425 11.7659 22.4808C12.5913 21.5358 13.7037 21.149 14.9707 21.3094C16.0634 18.9061 18.7338 17.7262 21.5885 17.6461V14.0826C21.5885 11.9494 23.3266 10.2126 25.4557 10.2126H41.823C41.9623 8.82185 43.0184 7.69263 44.4176 7.41841L46.0995 7.08795C46.4974 7.01201 46.7688 6.8292 46.9685 6.48185L47.7982 5.03482C48.6237 3.58779 50.4448 3.02248 51.9677 3.69185L53.5343 4.37388C53.9084 4.53701 54.2641 4.53701 54.6382 4.36545L56.1935 3.66795C57.7137 2.98029 59.5348 3.5231 60.3841 4.96591ZM63.7521 26.2284L62.2221 26.5279C61.827 26.6081 61.557 26.7867 61.3573 27.1383L60.5276 28.5853C60.2688 29.0311 59.9173 29.3939 59.5066 29.6653L60.3799 32.2204L61.1646 29.6976C61.3474 29.1112 62.0182 28.8089 62.6201 29.152L65.2948 30.5512L63.7521 26.2284ZM57.6138 30.2067C57.192 30.1954 56.7645 30.1069 56.3538 29.9283L54.7915 29.242C54.4132 29.0789 54.0616 29.0831 53.6834 29.2504L52.128 29.9522C51.6654 30.1589 51.176 30.2545 50.6937 30.2475L48.8276 35.7009C48.521 36.6023 47.2413 36.5742 46.9615 35.677L45.6298 31.4034L41.712 33.4523C40.923 33.8629 40.0413 33.0895 40.3324 32.257L42.7835 25.3804C42.1338 24.7181 41.7907 23.7984 41.906 22.8379L42.0973 21.1954C42.1409 20.8284 42.0298 20.5219 41.771 20.2547L40.5996 19.0509C39.424 17.8387 39.4071 15.9501 40.5757 14.7225L41.7316 13.5033C42.1507 13.0603 42.0663 12.6904 41.9988 12.1842H25.4571C24.4165 12.1842 23.5601 13.0406 23.5601 14.0854V17.7642C25.4571 18.0356 27.3274 18.764 28.9095 19.9242C31.9273 22.132 33.9804 25.9317 33.0832 31.4203C35.2559 32.8279 34.076 37.3561 30.3607 37.7709C29.7701 39.5175 28.946 41.0601 27.949 42.299V44.9301H28.3202C34.8298 44.9301 40.151 50.2472 40.151 56.7567V66.6145H56.929C57.9738 66.6145 58.8302 65.7581 58.8302 64.7133V33.7504L57.6138 30.2067ZM48.8318 29.6245C48.4774 29.3728 48.1737 29.0423 47.943 28.6514L47.0937 27.2128C46.8982 26.8781 46.6029 26.6869 46.2162 26.6151L44.5413 26.3044L43.0268 30.5498L45.9293 29.0465C46.4482 28.8876 46.998 29.1787 47.157 29.6962L47.9416 32.2162L48.8318 29.6245ZM59.539 7.3931L58.6896 5.95873C58.3507 5.38498 57.6096 5.18529 57.0035 5.4567L55.4496 6.15841C54.5763 6.54935 53.6285 6.55638 52.751 6.17388L51.1887 5.48763C50.5741 5.22045 49.8415 5.42716 49.5068 6.00935L48.6771 7.45638C48.2032 8.28185 47.4129 8.8317 46.4763 9.01873L44.7987 9.34498C44.1602 9.47295 43.7032 10.034 43.782 10.6683L43.9971 12.3065C44.1209 13.2712 43.8256 14.1487 43.1562 14.8533L41.996 16.0697C41.5573 16.5323 41.5615 17.2172 42.0073 17.6756L43.1787 18.8836C43.8565 19.5769 44.163 20.4586 44.052 21.4148L43.8607 23.0573C43.7805 23.7154 44.2629 24.2569 44.8859 24.3722L46.572 24.6829C47.524 24.8587 48.2974 25.3889 48.7882 26.2172L49.6334 27.6558C49.9723 28.2295 50.7176 28.4292 51.3237 28.1578L52.879 27.4561C53.748 27.0609 54.7001 27.0581 55.5776 27.4406L57.1399 28.1269C57.746 28.3898 58.4829 28.1901 58.8176 27.6051L59.6473 26.1581C60.1212 25.3326 60.9115 24.7786 61.848 24.5958C62.239 24.5198 63.6059 24.2892 63.8773 24.1458C64.3315 23.9067 64.6113 23.4595 64.5424 22.942L64.3315 21.3037C64.2035 20.3433 64.5031 19.4615 65.1682 18.7612L66.3284 17.542C66.7671 17.0794 66.7671 16.3973 66.3171 15.9361L65.1457 14.7323C64.4721 14.039 64.1613 13.1531 64.2724 12.1969L64.4679 10.5544C64.5438 9.9131 64.077 9.35904 63.4399 9.24232L61.7538 8.93154C60.8032 8.75716 60.0298 8.22701 59.539 7.3931ZM30.9865 35.5603C31.6924 35.1933 32.1705 34.4564 32.2057 33.7181C32.2254 33.2836 32.134 32.9812 31.6474 33.0445C31.4801 33.0642 31.324 33.1289 31.1974 33.2161C31.2255 34.005 31.1454 34.7911 30.9865 35.5603ZM28.6296 36.7444C28.6451 36.5292 28.7491 36.314 28.8124 36.0947C29.0909 35.0822 29.2948 34.0458 29.2146 32.9812H29.2188C29.2146 32.9658 29.2146 32.9489 29.2146 32.9334C29.0909 32.7422 28.9601 32.5383 28.8279 32.3161C28.752 32.1811 28.6718 32.0404 28.593 31.897C25.0015 33.2639 21.4859 33.0206 18.4835 30.5934C18.0926 30.2742 17.523 30.2222 17.0407 30.4176C16.2195 30.7523 15.4896 31.2586 14.892 31.8928C14.6093 32.1951 14.3576 32.5312 14.1382 32.8856C14.2423 34.1808 14.577 36.8119 15.6288 39.1758C16.6934 41.5678 18.5313 43.6926 21.6884 43.6926C23.4377 43.6926 25.069 42.7125 26.336 41.1698C27.3021 40.0012 28.0924 38.4853 28.6296 36.7444ZM30.5351 31.3429C30.7221 31.2558 30.926 31.1869 31.137 31.1433C32.1171 25.2033 29.0796 21.1898 24.4798 19.9537C23.3913 19.6626 22.1876 19.5389 21.071 19.6387C19.1501 19.8187 17.5076 20.6273 16.8016 22.0265C19.2176 23.6733 20.5254 26.5195 20.1977 29.4248C21.3185 30.1983 22.5223 30.6412 23.8048 30.7397C25.2841 30.8592 26.8901 30.5329 28.6198 29.7637C29.126 29.5247 29.6998 29.7314 29.9346 30.2179L30.5351 31.3429ZM12.4141 31.1911C12.5379 31.2544 12.6532 31.3303 12.7615 31.4147C13.6418 30.1631 14.8709 29.1787 16.3052 28.5965C16.9465 28.3336 17.6285 28.2703 18.2782 28.4011C18.2585 27.5601 18.0588 26.7389 17.7045 25.9936C17.1827 24.9009 16.3334 23.9686 15.2295 23.3583C14.7991 23.2345 14.4321 23.2106 14.1213 23.2626C13.2677 23.4103 12.8304 24.2667 12.5787 25.0964C12.0598 26.7867 12.1146 29.1576 12.4141 31.1911ZM10.887 34.3397C11.1345 34.7179 11.517 35.0498 12.0105 35.2326C11.756 34.4873 11.5802 33.7181 11.5043 32.932C11.2287 32.7801 10.7027 32.745 10.5916 33.0192C10.4496 33.3919 10.6521 33.9853 10.887 34.3397ZM22.6474 47.4065H21.2004C21.0682 47.4065 20.9571 47.5219 20.9571 47.654V50.3442C20.9571 50.4764 21.0682 50.5917 21.2004 50.5917H22.6474C22.7796 50.5917 22.8949 50.4764 22.8949 50.3442V47.654C22.8935 47.5233 22.7782 47.4065 22.6474 47.4065ZM23.1565 45.4983C23.6824 45.6262 24.1451 45.9412 24.4516 46.3758L25.9788 45.3154V44.1989C25.107 44.8317 24.1577 45.2789 23.1565 45.4983ZM24.8595 48.4879V49.6397L26.824 50.4328L26.457 47.3798L24.8595 48.4879ZM23.006 52.5295C22.7107 52.5773 21.1371 52.5773 20.846 52.5295L19.901 62.6109L21.926 65.7764L23.9468 62.6109L23.006 52.5295ZM18.987 49.5075V48.6862L17.0702 47.3306L16.692 50.4314L18.987 49.5075ZM19.302 46.5136C19.5649 46.0833 19.9671 45.7486 20.4424 45.5728C19.3343 45.4167 18.3738 45.0511 17.5399 44.5364V45.2662L19.302 46.5136ZM24.903 51.7715L25.924 62.6981C25.9802 63.0806 25.8959 63.2676 25.6723 63.5545L23.7148 66.6117H29.9768V59.3372C29.9768 58.7958 30.4198 58.3528 30.9612 58.3528C31.5026 58.3528 31.9455 58.7958 31.9455 59.3372V66.6117H38.1795V56.7539C38.1795 51.3525 33.7751 46.9242 28.3779 46.8961L28.9798 51.8475H28.9755C29.0627 52.5689 28.3343 53.1553 27.6368 52.8754L24.903 51.7715ZM20.1316 66.6131L18.1671 63.5362C17.9871 63.3408 17.8887 63.0736 17.9154 62.7909L18.956 51.638L15.8834 52.8783C15.1859 53.1567 14.456 52.5717 14.5446 51.8503H14.5404L15.1423 46.8989C9.74508 46.927 5.3407 51.3553 5.3407 56.7567V66.6145H11.5732V59.34C11.5732 58.7986 12.012 58.3556 12.5576 58.3556C13.1004 58.3556 13.542 58.7986 13.542 59.34V66.6145H20.1316V66.6131Z" fill="#0B3D34"/>
</svg>
