<svg width="56" height="56" viewBox="0 0 56 56" fill="none" xmlns="http://www.w3.org/2000/svg">
<path d="M27.2606 22.6319C22.9491 22.6319 19.4414 26.1396 19.4414 30.4511C19.4414 34.7627 22.9491 38.2704 27.2606 38.2704C31.5733 38.2704 35.0831 34.7627 35.0831 30.4511C35.0831 26.1396 31.5733 22.6319 27.2606 22.6319ZM27.2606 36.5214C23.9138 36.5214 21.1903 33.798 21.1903 30.4511C21.1903 27.1032 23.9138 24.3808 27.2606 24.3808C30.6097 24.3808 33.3342 27.1032 33.3342 30.4511C33.3342 33.798 30.6097 36.5214 27.2606 36.5214ZM27.2606 22.6319C22.9491 22.6319 19.4414 26.1396 19.4414 30.4511C19.4414 34.7627 22.9491 38.2704 27.2606 38.2704C31.5733 38.2704 35.0831 34.7627 35.0831 30.4511C35.0831 26.1396 31.5733 22.6319 27.2606 22.6319ZM27.2606 36.5214C23.9138 36.5214 21.1903 33.798 21.1903 30.4511C21.1903 27.1032 23.9138 24.3808 27.2606 24.3808C30.6097 24.3808 33.3342 27.1032 33.3342 30.4511C33.3342 33.798 30.6097 36.5214 27.2606 36.5214ZM27.2606 22.6319C22.9491 22.6319 19.4414 26.1396 19.4414 30.4511C19.4414 34.7627 22.9491 38.2704 27.2606 38.2704C31.5733 38.2704 35.0831 34.7627 35.0831 30.4511C35.0831 26.1396 31.5733 22.6319 27.2606 22.6319ZM27.2606 36.5214C23.9138 36.5214 21.1903 33.798 21.1903 30.4511C21.1903 27.1032 23.9138 24.3808 27.2606 24.3808C30.6097 24.3808 33.3342 27.1032 33.3342 30.4511C33.3342 33.798 30.6097 36.5214 27.2606 36.5214ZM27.2606 22.6319C22.9491 22.6319 19.4414 26.1396 19.4414 30.4511C19.4414 34.7627 22.9491 38.2704 27.2606 38.2704C31.5733 38.2704 35.0831 34.7627 35.0831 30.4511C35.0831 26.1396 31.5733 22.6319 27.2606 22.6319ZM27.2606 36.5214C23.9138 36.5214 21.1903 33.798 21.1903 30.4511C21.1903 27.1032 23.9138 24.3808 27.2606 24.3808C30.6097 24.3808 33.3342 27.1032 33.3342 30.4511C33.3342 33.798 30.6097 36.5214 27.2606 36.5214ZM36.9863 12.8746H23.2334C22.7872 12.8746 22.3847 13.0419 22.0697 13.3569L16.3734 19.0521C16.0584 19.3682 15.8911 19.7707 15.8911 20.2169V40.2325C15.8911 41.1404 16.6305 41.8786 17.5383 41.8786H36.9863C37.8941 41.8786 38.6324 41.1404 38.6324 40.2325V14.5207C38.6324 13.6129 37.8941 12.8746 36.9863 12.8746ZM22.0391 15.8594V19.0225H18.877L22.0391 15.8594ZM36.8845 40.1297H17.64V20.7714H22.9141C23.3964 20.7714 23.788 20.3799 23.788 19.8975V14.6235H36.8845V40.1297ZM19.4414 30.4511C19.4414 34.7627 22.9491 38.2704 27.2606 38.2704C31.5733 38.2704 35.0831 34.7627 35.0831 30.4511C35.0831 26.1396 31.5733 22.6319 27.2606 22.6319C22.9491 22.6319 19.4414 26.1396 19.4414 30.4511ZM27.2606 24.3808C30.6097 24.3808 33.3342 27.1032 33.3342 30.4511C33.3342 33.798 30.6097 36.5214 27.2606 36.5214C23.9138 36.5214 21.1903 33.798 21.1903 30.4511C21.1903 27.1032 23.9138 24.3808 27.2606 24.3808ZM27.2606 22.6319C22.9491 22.6319 19.4414 26.1396 19.4414 30.4511C19.4414 34.7627 22.9491 38.2704 27.2606 38.2704C31.5733 38.2704 35.0831 34.7627 35.0831 30.4511C35.0831 26.1396 31.5733 22.6319 27.2606 22.6319ZM27.2606 36.5214C23.9138 36.5214 21.1903 33.798 21.1903 30.4511C21.1903 27.1032 23.9138 24.3808 27.2606 24.3808C30.6097 24.3808 33.3342 27.1032 33.3342 30.4511C33.3342 33.798 30.6097 36.5214 27.2606 36.5214ZM27.2606 22.6319C22.9491 22.6319 19.4414 26.1396 19.4414 30.4511C19.4414 34.7627 22.9491 38.2704 27.2606 38.2704C31.5733 38.2704 35.0831 34.7627 35.0831 30.4511C35.0831 26.1396 31.5733 22.6319 27.2606 22.6319ZM27.2606 36.5214C23.9138 36.5214 21.1903 33.798 21.1903 30.4511C21.1903 27.1032 23.9138 24.3808 27.2606 24.3808C30.6097 24.3808 33.3342 27.1032 33.3342 30.4511C33.3342 33.798 30.6097 36.5214 27.2606 36.5214ZM27.2606 22.6319C22.9491 22.6319 19.4414 26.1396 19.4414 30.4511C19.4414 34.7627 22.9491 38.2704 27.2606 38.2704C31.5733 38.2704 35.0831 34.7627 35.0831 30.4511C35.0831 26.1396 31.5733 22.6319 27.2606 22.6319ZM27.2606 36.5214C23.9138 36.5214 21.1903 33.798 21.1903 30.4511C21.1903 27.1032 23.9138 24.3808 27.2606 24.3808C30.6097 24.3808 33.3342 27.1032 33.3342 30.4511C33.3342 33.798 30.6097 36.5214 27.2606 36.5214ZM55.1239 32.0261H51.1295C51.4249 30.4993 51.5769 28.9407 51.5769 27.3755C51.5769 20.8808 49.0481 14.7755 44.4555 10.1839C39.8617 5.59129 33.7553 3.06144 27.2606 3.06144C23.1777 3.06144 19.1669 4.08629 15.6067 6.03098L16.2739 3.54269C16.3986 3.07566 16.1219 2.5966 15.6559 2.47191C15.1889 2.34723 14.7099 2.62394 14.5852 3.08988L13.3536 7.68473C13.2289 8.15066 13.5056 8.63082 13.9727 8.75551L18.5642 9.98598C18.6397 10.0068 18.7163 10.0166 18.7906 10.0166C19.1767 10.0166 19.53 9.75848 19.635 9.36801C19.7597 8.90207 19.483 8.42191 19.017 8.29723L16.3942 7.59395C19.7094 5.77176 23.4511 4.81035 27.2606 4.81035C39.7042 4.81035 49.828 14.933 49.828 27.3755C49.828 28.9428 49.6672 30.5036 49.3489 32.0261H42.4867C42.0033 32.0261 41.6128 32.4177 41.6128 32.9V45.5372C41.6128 46.0207 42.0033 46.4122 42.4867 46.4122H55.1239C55.6063 46.4122 55.9978 46.0207 55.9978 45.5372V32.9C55.9978 32.4177 55.6063 32.0261 55.1239 32.0261ZM47.7258 33.775H49.8838V36.8529L49.2308 36.4897C48.9661 36.3421 48.6445 36.3421 48.3799 36.4897L47.7258 36.8539V33.775ZM54.25 44.6633H43.3606V33.775H45.978V38.3414C45.978 38.651 46.142 38.9386 46.4089 39.095C46.6758 39.2525 47.0061 39.2558 47.2774 39.1049L48.8053 38.2539L50.3333 39.1049C50.4656 39.1793 50.6122 39.2154 50.7588 39.2154C50.9119 39.2154 51.065 39.176 51.2017 39.095C51.4686 38.9386 51.6327 38.651 51.6327 38.3414V33.775H54.25V44.6633ZM38.78 47.8647C38.6838 47.6536 38.5066 47.4896 38.29 47.4086L33.8308 45.7505C33.3791 45.5821 32.8749 45.8129 32.7075 46.2646C32.5391 46.7174 32.7688 47.2205 33.2216 47.3889L35.7022 48.3121C33.0269 49.3949 30.1941 49.9429 27.2606 49.9429C14.817 49.9429 4.69329 39.8191 4.69329 27.3755C4.69329 25.5719 4.90767 23.7825 5.32985 22.0435C5.92485 22.2043 6.54939 22.2907 7.1947 22.2907C11.1628 22.2907 14.3905 19.063 14.3905 15.0949C14.3905 11.1289 11.1628 7.90129 7.1947 7.90129C3.22876 7.90129 0.00219727 11.1289 0.00219727 15.0949C0.00219727 17.791 1.49298 20.1447 3.6936 21.3774C3.19704 23.3308 2.94438 25.3444 2.94438 27.3755C2.94438 40.7838 13.8524 51.6918 27.2606 51.6918C30.4467 51.6918 33.5245 51.0902 36.4284 49.9035L35.5064 52.3786C35.338 52.8314 35.5688 53.3346 36.0216 53.503C36.1211 53.5402 36.225 53.5588 36.3256 53.5588C36.6811 53.5588 37.0147 53.3411 37.1459 52.9889L38.8041 48.533C38.885 48.3164 38.8763 48.0758 38.78 47.8647ZM1.75001 15.0949C1.75001 12.0925 4.19235 9.65019 7.1947 9.65019C10.1981 9.65019 12.6427 12.0925 12.6427 15.0949C12.6427 18.0983 10.1981 20.5418 7.1947 20.5418C4.19235 20.5418 1.75001 18.0983 1.75001 15.0949ZM27.2606 22.6319C22.9491 22.6319 19.4414 26.1396 19.4414 30.4511C19.4414 34.7627 22.9491 38.2704 27.2606 38.2704C31.5733 38.2704 35.0831 34.7627 35.0831 30.4511C35.0831 26.1396 31.5733 22.6319 27.2606 22.6319ZM27.2606 36.5214C23.9138 36.5214 21.1903 33.798 21.1903 30.4511C21.1903 27.1032 23.9138 24.3808 27.2606 24.3808C30.6097 24.3808 33.3342 27.1032 33.3342 30.4511C33.3342 33.798 30.6097 36.5214 27.2606 36.5214Z" fill="#0B3D34"/>
<path d="M49.8837 33.775V36.8528L49.2308 36.4897C48.9661 36.342 48.6445 36.342 48.3798 36.4897L47.7258 36.8539V33.775H49.8837ZM33.3342 30.4511C33.3342 33.798 30.6097 36.5214 27.2606 36.5214C23.9138 36.5214 21.1903 33.798 21.1903 30.4511C21.1903 27.1031 23.9138 24.3808 27.2606 24.3808C30.6097 24.3808 33.3342 27.1031 33.3342 30.4511ZM22.0391 15.8594L18.877 19.0225H22.0391V15.8594ZM12.6427 15.0948C12.6427 18.0983 10.1981 20.5417 7.19469 20.5417C4.19234 20.5417 1.75 18.0983 1.75 15.0948C1.75 12.0925 4.19234 9.65015 7.19469 9.65015C10.1981 9.65015 12.6427 12.0925 12.6427 15.0948Z" fill="#B5D8D2"/>
<path d="M5.96964 18.3168V12.3168H8.69691C9.05857 12.3168 9.40542 12.4522 9.66115 12.6933C9.91688 12.9345 10.0605 13.2615 10.0605 13.6025C10.0605 13.9435 9.91688 14.2705 9.66115 14.5116C9.40542 14.7527 9.05857 14.8882 8.69691 14.8882H5.06055" stroke="#0B3D34" stroke-width="1.5" stroke-linecap="round" stroke-linejoin="round"/>
<path d="M7.56055 17.087L5.06055 17.0786" stroke="#0B3D34" stroke-width="1.5" stroke-linecap="round" stroke-linejoin="round"/>
<path d="M30.1415 33.1396L25.002 28" stroke="#0B3D34" stroke-width="1.5" stroke-linecap="round" stroke-linejoin="round"/>
<path d="M25.0011 33.1396L30.1406 28" stroke="#0B3D34" stroke-width="1.5" stroke-linecap="round" stroke-linejoin="round"/>
</svg>
