<svg width="72" height="72" viewBox="0 0 72 72" fill="none" xmlns="http://www.w3.org/2000/svg">
<path fill-rule="evenodd" clip-rule="evenodd" d="M20.8741 23.4873C20.8741 27.3503 17.7452 30.4792 13.8822 30.4792C10.0234 30.4792 6.89453 27.3503 6.89453 23.4873H20.8741Z" fill="#B5D8D2"/>
<path fill-rule="evenodd" clip-rule="evenodd" d="M27.2399 36.5266L23.8073 42.3499L19.9851 36.3227C18.5507 34.0586 14.4796 36.9443 16.3781 38.8385L22.927 48.2941C23.0788 48.446 23.2574 48.5768 23.4613 48.6766C24.4654 49.1786 25.6902 48.768 26.1923 47.7597L28.6476 42.8294V52.3525C28.6476 53.0261 29.2649 53.2807 29.871 53.5718L35.9981 56.546L41.9971 53.5718C42.6032 53.2722 43.2206 53.0261 43.2206 52.3525V42.8294L45.6801 47.7597C46.1821 48.768 47.4027 49.1786 48.411 48.6766C48.6149 48.5768 48.7893 48.446 48.9454 48.2941L54.7659 39.2055C56.6629 37.3085 53.1599 33.963 51.8845 36.3241L48.0651 43.4116L44.6324 36.528C44.046 35.3594 39.9918 34.7744 35.9348 34.7744C31.8806 34.773 27.8221 35.3594 27.2399 36.5266Z" fill="#B5D8D2"/>
<path fill-rule="evenodd" clip-rule="evenodd" d="M43.2392 26.7793L44.4191 26.8426C45.0645 26.8749 45.3598 27.4248 45.0687 28.059L44.4908 29.319C44.2039 29.9532 43.4347 30.4426 42.7892 30.4116L41.6094 30.3484L43.2392 26.7793Z" fill="#E9EAE3"/>
<path fill-rule="evenodd" clip-rule="evenodd" d="M44.6313 36.5267L48.064 43.4103L51.8834 36.3228C52.0226 36.0682 52.3291 35.9642 52.5809 35.8643C53.4612 37.04 54.0996 38.2845 54.4301 39.5403L48.9457 48.2942C48.7896 48.4461 48.6152 48.5768 48.4113 48.6767C47.403 49.1787 46.1824 48.7681 45.6804 47.7598L43.2209 42.8295V49.7581C43.0493 49.7257 42.8777 49.6948 42.7062 49.6582C34.9409 48.0678 28.6465 42.364 28.6465 36.9218C28.6465 36.455 28.6943 36.005 28.7857 35.5747C32.9229 34.25 43.654 34.565 44.6313 36.5267Z" fill="#E9EAE3"/>
<path fill-rule="evenodd" clip-rule="evenodd" d="M32.7517 32.2607H39.0742V35.0676C39.0742 36.6103 39.5088 37.3036 38.073 37.8745C36.6653 38.4328 35.2549 38.6479 33.8472 37.8745C32.4958 37.1334 32.7517 36.6103 32.7517 35.0676V32.2607Z" fill="#E9EAE3"/>
<path fill-rule="evenodd" clip-rule="evenodd" d="M30.4434 41.3413L31.1493 35.4941L36.1795 39.0182L30.4434 41.3413Z" fill="#B5D8D2"/>
<path fill-rule="evenodd" clip-rule="evenodd" d="M41.92 41.3416L41.207 35.4424L36.1797 39.0185L41.92 41.3416Z" fill="#B5D8D2"/>
<path fill-rule="evenodd" clip-rule="evenodd" d="M34.6015 38.3125H37.4871L38.5671 49.817H38.5516L37.3001 51.7816L36.0443 53.7433L34.7885 51.7816L33.537 49.817H33.5215L34.6015 38.3125Z" fill="#B5D8D2"/>
<path fill-rule="evenodd" clip-rule="evenodd" d="M36.5903 38.3125H37.4875L38.5675 49.817H38.552L37.3005 51.7816L37.1725 51.977L36.8139 51.4145L35.5623 49.4542H35.5469L36.5903 38.3125Z" fill="#B5D8D2"/>
<path fill-rule="evenodd" clip-rule="evenodd" d="M35.4428 36.6299H36.6466C37.2091 36.6299 37.6675 37.0925 37.6675 37.6536V39.8896C37.6675 40.4521 37.2091 40.9105 36.6466 40.9105H35.4428C34.8803 40.9105 34.4219 40.4521 34.4219 39.8896V37.6536C34.4219 37.0925 34.8803 36.6299 35.4428 36.6299Z" fill="#B5D8D2"/>
<path fill-rule="evenodd" clip-rule="evenodd" d="M36.1246 19.3184C39.5123 19.3184 42.2587 22.069 42.2587 25.4566C42.2587 28.8485 39.5123 33.326 36.1246 33.326C32.7327 33.326 29.9863 28.8499 29.9863 25.4566C29.9849 22.069 32.7313 19.3184 36.1246 19.3184Z" fill="#B5D8D2"/>
<path fill-rule="evenodd" clip-rule="evenodd" d="M36.1245 19.3184C39.5122 19.3184 42.2586 22.069 42.2586 25.4566C42.2586 27.8402 40.903 30.7624 38.9188 32.2854C38.8597 32.2896 38.7992 32.2938 38.7359 32.2938C35.3483 32.2938 32.5977 27.8135 32.5977 24.4216C32.5977 22.3362 33.6383 20.4954 35.2288 19.3873C35.5227 19.3423 35.8208 19.3184 36.1245 19.3184Z" fill="#E9EAE3"/>
<path fill-rule="evenodd" clip-rule="evenodd" d="M14.2095 34.7598H18.5422C19.663 34.7598 20.5784 35.6809 20.5784 36.8002C20.5784 37.921 19.6616 38.8379 18.5422 38.8379H14.2095C13.0887 38.8379 12.1719 37.921 12.1719 36.8002C12.1719 35.6809 13.0887 34.7598 14.2095 34.7598Z" fill="#E9EAE3"/>
<path fill-rule="evenodd" clip-rule="evenodd" d="M57.7824 35.542H53.4498C52.329 35.542 51.4121 36.4589 51.4121 37.5796C51.4121 38.7032 52.329 39.6201 53.4498 39.6201H57.7824C58.9032 39.6201 59.8187 38.7032 59.8187 37.5796C59.8201 36.4589 58.9032 35.542 57.7824 35.542Z" fill="#E9EAE3"/>
<path fill-rule="evenodd" clip-rule="evenodd" d="M29.0141 26.7793L27.8342 26.8426C27.1888 26.8749 26.8935 27.4248 27.1846 28.059L27.7625 29.319C28.0494 29.9532 28.8186 30.4426 29.4641 30.4116L30.6439 30.3484L29.0141 26.7793Z" fill="#E9EAE3"/>
<path fill-rule="evenodd" clip-rule="evenodd" d="M42.3783 26.1297C41.8481 25.8147 41.3025 25.0807 40.7442 23.9332C38.189 25.0779 35.9601 24.9021 34.0631 23.403C33.5765 23.0205 32.9704 22.9333 32.4009 23.1682C30.8864 23.7827 29.7656 25.1454 29.4956 26.8075C28.559 24.8022 27.7251 17.2014 31.6795 18.408C32.9704 13.4341 45.7392 15.4704 42.3783 26.1297Z" fill="#B5D8D2"/>
<path fill-rule="evenodd" clip-rule="evenodd" d="M41.9489 25.7836C41.5538 25.3884 41.1516 24.7753 40.7452 23.9343C38.19 25.079 35.9611 24.9032 34.0641 23.4042C33.5775 23.0217 32.9714 22.9345 32.4019 23.1693C31.4808 23.5406 30.7032 24.1945 30.1772 25.0228C29.986 22.3158 30.5358 19.3781 33.1064 20.16C33.8996 17.0986 39.0464 16.6964 42.0994 19.3275C43.0121 20.9784 43.2877 23.2256 42.3863 26.1084C42.3146 25.9762 42.2429 25.837 42.1711 25.6893C42.0966 25.7189 42.0207 25.7512 41.9489 25.7836Z" fill="#B5D8D2"/>
<path fill-rule="evenodd" clip-rule="evenodd" d="M41.8883 63.3186C48.0027 58.9663 56.1308 56.4983 64.6217 56.4224V48.6767C54.3167 47.7641 43.355 51.3992 35.9961 56.5461V63.3186H41.8883Z" fill="#B5D8D2"/>
<path fill-rule="evenodd" clip-rule="evenodd" d="M64.6224 48.6761C57.0287 48.0025 49.0848 49.7997 42.4824 52.8499C42.6259 55.5963 45.1852 58.1599 48.8879 59.4944L50.3448 58.9361C54.8771 57.2936 59.7765 56.4654 64.6238 56.4204V48.6761H64.6224Z" fill="#E9EAE3"/>
<path fill-rule="evenodd" clip-rule="evenodd" d="M30.1006 63.3186C23.9862 58.9663 15.8581 56.4983 7.36719 56.4224V48.6767C17.6722 47.7641 28.6339 51.3992 35.9956 56.5461V63.3186H30.1006Z" fill="#B5D8D2"/>
<path fill-rule="evenodd" clip-rule="evenodd" d="M7.36719 48.6761C14.9609 48.0025 22.9048 49.7997 29.5072 52.8499C29.3638 55.5963 26.8044 58.1599 23.1017 59.4944L21.6505 58.9361C17.1139 57.2936 12.2145 56.4654 7.36719 56.4204V48.6761Z" fill="#E9EAE3"/>
<path fill-rule="evenodd" clip-rule="evenodd" d="M35.9974 63.3184H41.8896C48.5665 57.3474 58.046 54.0948 67.4173 55.3379V59.9377C59.4213 59.1488 49.5874 61.8671 44.816 67.6159H40.3596H35.9988H32.427H27.1774C22.406 61.8671 12.5721 59.1488 4.57617 59.9377V55.3379C13.9474 54.0948 23.427 57.3474 30.1038 63.3184H35.9974Z" fill="#B5D8D2"/>
<path fill-rule="evenodd" clip-rule="evenodd" d="M16.5977 5.57324H33.8453C33.467 6.07949 33.2434 6.71371 33.2434 7.39434C33.2434 8.08059 33.467 8.70918 33.8453 9.21965H16.5977C16.9717 8.70918 17.1995 8.07918 17.1995 7.39434C17.1995 6.71371 16.9717 6.07949 16.5977 5.57324ZM38.7644 5.57324H56.8178C56.4395 6.07949 56.2159 6.71371 56.2159 7.39434C56.2159 8.08059 56.4395 8.70918 56.8178 9.21965H38.7644C39.1427 8.70918 39.3705 8.07918 39.3705 7.39434C39.3705 6.71371 39.1427 6.07949 38.7644 5.57324Z" fill="#B5D8D2"/>
<path fill-rule="evenodd" clip-rule="evenodd" d="M14.1337 4.33301C15.8282 4.33301 17.1993 5.7041 17.1993 7.39441C17.1993 9.08473 15.8282 10.4558 14.1337 10.4558C12.4434 10.4558 11.0723 9.08473 11.0723 7.39441C11.0723 5.70551 12.4434 4.33301 14.1337 4.33301Z" fill="#B5D8D2"/>
<path fill-rule="evenodd" clip-rule="evenodd" d="M59.2765 4.33301C60.9668 4.33301 62.3379 5.7041 62.3379 7.39441C62.3379 9.08473 60.9668 10.4558 59.2765 10.4558C57.5862 10.4558 56.2151 9.08473 56.2151 7.39441C56.2151 5.70551 57.5862 4.33301 59.2765 4.33301Z" fill="#B5D8D2"/>
<path fill-rule="evenodd" clip-rule="evenodd" d="M36.3036 4.33301C37.9981 4.33301 39.3692 5.7041 39.3692 7.39441C39.3692 9.08473 37.9981 10.4558 36.3036 10.4558C34.6133 10.4558 33.2422 9.08473 33.2422 7.39441C33.2422 5.70551 34.6133 4.33301 36.3036 4.33301Z" fill="#B5D8D2"/>
<path fill-rule="evenodd" clip-rule="evenodd" d="M66.0342 23.4873C66.0342 27.3503 62.9053 30.4792 59.0466 30.4792C55.1836 30.4792 52.0547 27.3503 52.0547 23.4873H66.0342Z" fill="#B5D8D2"/>
<path d="M60.0727 17.0296C60.4595 16.6471 61.081 16.6471 61.4677 17.0296C61.8502 17.4163 61.8502 18.0379 61.4677 18.4204L60.6029 19.2852L61.4677 20.1501C61.8502 20.5368 61.8502 21.1584 61.4677 21.5409C61.081 21.9276 60.4595 21.9276 60.0727 21.5409L59.2079 20.676L58.3473 21.5409C57.9606 21.9276 57.339 21.9276 56.9523 21.5409C56.5698 21.1584 56.5698 20.5368 56.9523 20.1501L57.8171 19.2852L56.9523 18.4204C56.5698 18.0379 56.5698 17.4163 56.9523 17.0296C57.339 16.6471 57.9606 16.6471 58.3473 17.0296L59.2079 17.8945L60.0727 17.0296ZM67.0168 23.4913C67.0168 27.8915 63.4449 31.4634 59.0448 31.4634C54.6404 31.4634 51.0685 27.8915 51.0685 23.4913C51.0685 22.9457 51.5115 22.507 52.0529 22.507H52.6027L55.8877 10.2051H39.2166C37.6262 11.856 34.9838 11.856 33.3934 10.2051H17.0457L16.9416 10.3134L20.3138 22.507H20.8721C21.4135 22.507 21.8565 22.9457 21.8565 23.4913C21.8565 27.8915 18.2846 31.4634 13.8845 31.4634C9.48008 31.4634 5.9082 27.8915 5.9082 23.4913C5.9082 22.9457 6.35117 22.507 6.89258 22.507H7.45086L10.9341 9.87883C8.88102 7.23227 10.771 3.34961 14.1305 3.34961C15.2752 3.34961 16.3074 3.82352 17.0443 4.58992H33.392C34.9824 2.93898 37.6248 2.93898 39.2152 4.58992H56.3616C57.9324 2.96008 60.5354 2.93617 62.1371 4.53789C63.6165 6.01305 63.7234 8.37695 62.3888 9.98289L65.4938 22.507H66.0324C66.5738 22.507 67.0168 22.9443 67.0168 23.4913ZM54.6362 22.507H63.4731L60.6662 11.1979C59.6973 11.5523 58.6215 11.5213 57.6765 11.1135L54.6362 22.507ZM63.2902 27.7368C64.1551 26.8677 64.757 25.7399 64.9679 24.4757H53.1202C53.5913 27.3416 56.0818 29.4946 59.0434 29.4946C60.7027 29.4946 62.2018 28.821 63.2902 27.7368ZM11.3574 20.2907C10.9355 19.9518 10.8666 19.3345 11.2055 18.9112C11.5487 18.4893 12.166 18.4204 12.5893 18.7593L13.239 19.2852L14.1755 16.8693C14.371 16.363 14.9363 16.1113 15.4426 16.3068C15.9488 16.5023 16.2005 17.0718 16.0051 17.578L14.5974 21.202C14.3499 21.8798 13.5652 22.0668 13.0505 21.652L11.3574 20.2907ZM40.2657 6.55727C40.381 7.10711 40.381 7.68508 40.2657 8.23492H55.3182C55.2029 7.68508 55.2029 7.10711 55.3182 6.55727H40.2657ZM32.3443 8.23633C32.229 7.68648 32.229 7.10852 32.3443 6.55867H18.0934C18.2087 7.10852 18.2087 7.68648 18.0934 8.23633H32.3443ZM37.7738 5.92727C36.4379 4.58852 34.1584 5.60102 34.2301 7.47836C34.3018 9.40352 36.781 10.229 37.9805 8.62305C38.5909 7.80883 38.491 6.64586 37.7738 5.92727ZM60.7463 5.92727C59.4076 4.58852 57.1266 5.60102 57.1984 7.47836C57.2659 9.27977 59.4624 10.1446 60.7463 8.86492C61.5563 8.05211 61.5563 6.73727 60.7463 5.92727ZM15.1796 11.3048C14.3302 11.5326 13.426 11.4763 12.6202 11.1487L9.48711 22.5055H18.2762L15.1796 11.3048ZM15.6029 5.92727C14.2993 4.61945 12.0549 5.54899 12.0549 7.39399C12.0549 8.54149 12.983 9.47523 14.132 9.47523C14.4624 9.47523 14.7774 9.39508 15.0573 9.26008C15.1684 9.12086 15.3245 9.01258 15.5073 8.95774L15.8096 8.62305C16.4157 7.80461 16.3285 6.65289 15.6029 5.92727ZM36.9765 59.4351C42.5537 55.6804 46.8231 53.7313 54.2607 51.6107C54.7824 51.4588 55.3295 51.7626 55.4771 52.2885C55.6248 52.8102 55.321 53.3531 54.7993 53.5007C50.1868 54.8198 46.9341 56.0685 44.192 57.4312C41.5974 58.7193 39.429 60.1298 36.9765 61.8116V62.3334H41.5201C44.9682 59.324 49.1096 57.0079 53.5829 55.6129C56.8032 54.6046 60.2007 54.0702 63.6362 54.0941V49.5899C54.5757 49.0232 44.4352 52.0016 36.9765 57.0599V59.4351ZM65.6063 54.1687C66.2518 54.2123 66.8973 54.2798 67.5442 54.3641C68.0391 54.4274 68.4006 54.8507 68.3977 55.3373H68.402V59.9413C68.402 60.532 67.8999 60.9974 67.246 60.9102C63.2438 60.5277 58.7635 61.0495 54.7332 62.4163C51.0334 63.6721 47.7329 65.6338 45.5687 68.2396C45.3732 68.4745 45.0948 68.594 44.8149 68.594V68.5982H27.1749C26.8402 68.5982 26.5449 68.4309 26.3691 68.1763C24.2007 65.6015 20.9241 63.6637 17.2566 62.4163C13.2024 61.041 8.68977 60.5193 4.66789 60.9173C4.08992 60.9735 3.59211 60.5151 3.59211 59.9413H3.58789V55.3373C3.58789 54.8113 4.00273 54.381 4.52445 54.3571C5.1418 54.2727 5.76477 54.2137 6.38211 54.1701V48.6773C6.38211 48.1555 6.78852 47.7281 7.29898 47.6971C12.3291 47.2541 17.5112 47.8687 22.3754 49.2046C22.4232 49.2201 22.471 49.2327 22.5146 49.244L22.1166 48.8531L15.8616 39.8249H14.2079C11.5445 39.8249 10.1621 36.5807 12.0746 34.6668C12.6202 34.1212 13.3782 33.7823 14.2079 33.7823H18.5405C20.2027 33.7823 21.5626 35.1421 21.5626 36.8043C21.5626 36.8605 21.5626 36.9154 21.5584 36.9716L23.7746 40.4718L26.3691 36.0716C27.1665 34.6288 29.9691 34.2098 31.7663 34.0115V32.189L31.0056 31.2609C30.7468 31.3649 29.858 31.372 29.5149 31.3931C28.4462 31.4493 27.3141 30.7068 26.8684 29.7309L26.2904 28.4666C25.7124 27.2024 26.4423 25.9354 27.7852 25.8637L28.1565 25.844C27.594 23.5082 27.0849 18.0196 30.3207 17.3573C30.5555 17.3095 30.803 17.2898 31.0618 17.3052C32.3654 14.8302 35.8332 14.4027 38.4882 15.2605C39.4923 15.584 40.4612 16.0973 41.2979 16.8159C43.3834 18.6018 44.6377 21.5788 43.4945 25.813C44.4395 25.8651 45.3915 25.7765 45.9343 26.7173C46.2451 27.2516 46.2254 27.8929 45.9624 28.4666L45.3845 29.7309C44.9387 30.7068 43.8052 31.4493 42.7379 31.3931C42.3906 31.3734 41.506 31.3649 41.2431 31.2609C40.8929 31.7474 40.4977 32.2016 40.059 32.608V33.9988C41.8168 34.1943 44.7868 34.6401 45.5082 36.0913L48.0957 41.2776L50.551 36.7256C50.5749 36.6412 50.6073 36.5582 50.6382 36.4738C50.7662 36.1476 50.9532 35.8481 51.1838 35.5851C51.4623 35.1745 51.8096 34.8918 52.1879 34.7245C52.6027 34.5374 53.0415 34.4938 53.4718 34.5571H57.7806C60.444 34.5571 61.8263 37.8055 59.9138 39.7152C59.3682 40.2651 58.6102 40.604 57.7806 40.604H55.0341L49.7677 48.8277C49.6595 48.9909 49.4373 49.1779 49.277 49.2974C49.3881 49.2651 49.5006 49.2341 49.6116 49.2018C54.4745 47.8659 59.6565 47.2527 64.6881 47.6943C65.1985 47.7266 65.6049 48.1527 65.6049 48.6745V54.1687H65.6063ZM8.35227 54.0927C11.7877 54.0731 15.1852 54.6032 18.4055 55.6115C22.8774 57.0065 27.0202 59.3226 30.4684 62.332H35.012V61.8102C32.333 59.9723 30.1604 58.5576 27.6095 57.3018C24.9305 55.9827 21.8059 54.8226 17.1891 53.4993C16.6674 53.3516 16.3637 52.8102 16.5113 52.2871C16.659 51.7612 17.2046 51.4574 17.7277 51.6093C22.4555 52.9607 25.6843 54.1602 28.4785 55.5398C30.7665 56.6676 32.7479 57.9037 35.012 59.4337V57.0585C27.5026 51.9637 17.3452 49.026 8.35227 49.5885V54.0927ZM29.3827 63.9913C23.0054 58.3227 14.139 55.333 5.55664 56.2106V58.8768C13.0913 58.4268 22.5582 60.8934 27.6249 66.6295H44.3635C49.4302 60.8934 58.8971 58.4254 66.4318 58.8768V56.2106C62.3185 55.7887 58.0731 56.2668 54.1707 57.486C49.862 58.8332 45.8879 61.0776 42.6071 63.9913C42.4004 64.191 42.1852 64.2979 41.8899 64.3021H30.1027C29.8173 64.3021 29.5627 64.1826 29.3827 63.9913ZM24.579 49.8684C25.628 50.2073 26.656 50.5813 27.6643 50.9891V47.0109C27.0737 48.1949 26.7277 49.2468 25.3243 49.7179C25.0852 49.7966 24.8349 49.8473 24.579 49.8684ZM29.6302 51.8287C31.9309 52.8693 34.0712 54.0646 35.9963 55.357C37.8821 54.0857 39.9831 52.9129 42.2345 51.8849V42.8315C42.2345 41.7993 43.6534 41.4449 44.1202 42.4293L46.5601 47.3245C46.8554 47.9151 47.581 48.1021 48.1632 47.6788L52.7546 40.5238C52.157 40.3804 51.6268 40.0612 51.2204 39.6196L48.9282 43.8763C48.5457 44.5865 47.5332 44.5541 47.1816 43.8524L43.749 36.9688C43.6491 36.7691 42.8602 36.5146 42.3104 36.3754L42.8968 41.227C42.9812 41.9526 42.2471 42.539 41.5496 42.2549L38.7357 41.1145L39.5443 49.7291C39.5682 50.0118 39.4726 50.2748 39.301 50.4702L36.8696 54.2685C36.4871 54.8746 35.5984 54.8788 35.2074 54.2573L32.7999 50.4857C32.5805 50.2031 32.5046 50.016 32.5566 49.6406L33.3413 41.2298L30.8143 42.2535C30.1126 42.5362 29.3785 41.9512 29.4671 41.2256L30.0648 36.2545C29.5304 36.3655 28.2507 36.7002 28.1199 36.9674C28.1045 36.9998 28.0848 37.0349 28.0609 37.0673L24.6521 42.8512C24.278 43.4854 23.364 43.4896 22.9773 42.8751L20.5501 39.0529C20.0157 39.531 19.3098 39.8221 18.5405 39.8221H18.2495L23.6705 47.6465C23.9532 47.9573 24.9137 48.1162 25.3088 47.323L27.7684 42.3927C28.2268 41.4646 29.6302 41.7993 29.6302 42.8315V51.8287ZM44.2032 51.0356C45.2396 50.6165 46.3041 50.227 47.3926 49.8712C46.3084 49.8276 45.3001 49.2088 44.7981 48.2006L44.2046 47.008V51.0356H44.2032ZM32.911 18.0379C34.4298 19.1938 35.2595 21.043 35.1118 22.9527C36.7065 23.9737 38.5121 23.878 40.3093 23.0526C40.8198 22.8177 41.3935 23.0202 41.6284 23.5068C41.7085 23.6741 41.7873 23.8302 41.8674 23.9737C42.8645 16.7498 34.6927 15.4504 32.911 18.0379ZM33.5171 24.2212C33.3062 24.082 33.1304 23.9343 32.7676 24.082C32.1615 24.3252 31.6398 24.7232 31.2404 25.2224C31.1406 25.3462 31.0534 25.4741 30.969 25.6049C31.0126 27.1673 31.6946 28.9687 32.7634 30.3412C36.4899 35.1168 40.5877 30.3215 41.1981 26.4234C40.8915 26.0999 40.5877 25.6865 40.2896 25.176C37.8695 26.0226 35.5576 25.8032 33.5171 24.2212ZM33.1346 22.0598C33.0826 21.6688 32.9715 21.2906 32.8041 20.9362C32.4849 20.271 31.9716 19.7001 31.3051 19.3218C31.066 19.2585 30.8705 19.2459 30.7145 19.2782C29.8974 19.4455 29.7216 21.2315 29.702 22.033C29.6865 22.6546 29.7216 23.2931 29.7891 23.8907C30.5345 23.0005 31.8985 22.012 33.1346 22.0598ZM28.3984 27.7959L28.1466 27.8085L28.6487 28.9124C28.733 29.0924 28.9116 29.2513 29.1071 29.3512L28.3984 27.7959ZM52.8066 36.689C52.6716 36.9196 52.396 37.0841 52.396 37.582C52.396 38.1599 52.8699 38.6338 53.4479 38.6338H57.7806C58.6974 38.6338 59.1952 37.5102 58.5216 36.8366C58.3304 36.6454 58.0674 36.5259 57.7806 36.5259H53.4479C53.1371 36.5259 53.0134 36.3824 52.8066 36.689ZM18.5405 35.7482H14.2079C13.291 35.7482 12.7932 36.8718 13.4668 37.5454C13.658 37.7366 13.921 37.8562 14.2079 37.8562H18.5405C19.4574 37.8562 19.9552 36.7284 19.2816 36.059C19.0904 35.8677 18.8274 35.7482 18.5405 35.7482ZM38.0888 33.9074C36.6376 34.5135 35.1357 34.4291 33.7365 33.7077L33.7126 36.0913L33.984 36.2826C33.9995 36.2671 34.0121 36.2545 34.0276 36.239C34.3904 35.872 34.8924 35.6484 35.4423 35.6484H36.646C37.2521 35.6484 37.7696 35.9071 38.1493 36.3346L38.0888 35.0676V33.9074ZM36.8373 41.8879H35.251L34.5338 49.5576L36.0441 51.9215L37.5545 49.5576L36.8373 41.8879ZM36.646 37.6185L35.4184 37.6298L35.4141 37.6255L35.4184 39.9177H36.6741L36.6826 37.9602C36.6812 37.7971 36.7135 37.6185 36.646 37.6185ZM40.7438 39.8066L40.4288 37.1995L38.6513 38.4637V38.9573L40.7438 39.8066ZM31.9309 37.2388L31.6201 39.8066L33.4384 39.0698V38.2963L31.9309 37.2388ZM44.1048 27.8085L43.8531 27.7959L43.1429 29.3512C43.3384 29.2513 43.517 29.0924 43.5971 28.9124L44.1048 27.8085ZM18.1299 27.7368C18.9948 26.8677 19.5966 25.7399 19.8076 24.4757H7.95711C8.43102 27.3416 10.9229 29.4946 13.8845 29.4946C15.5382 29.4946 17.0415 28.821 18.1299 27.7368Z" fill="#0B3D34"/>
</svg>
