<svg width="72" height="72" viewBox="0 0 72 72" fill="none" xmlns="http://www.w3.org/2000/svg">
<path fill-rule="evenodd" clip-rule="evenodd" d="M33.4912 37.2461H17.6624C10.4666 37.2461 4.58008 43.1341 4.58008 50.3284V63.4066H46.5707V50.3284C46.5707 43.1327 40.6827 37.2461 33.4912 37.2461Z" fill="#B5D8D2"/>
<path fill-rule="evenodd" clip-rule="evenodd" d="M17.663 37.2461H33.4917C40.6833 37.2461 46.5698 43.1341 46.5698 50.3284V61.0792C43.4719 61.5334 40.1236 61.6009 36.6164 61.2269C23.1403 59.7798 11.3517 52.2255 6.83203 43.0173C9.1875 39.5411 13.17 37.2461 17.663 37.2461Z" fill="#E9EAE3"/>
<path fill-rule="evenodd" clip-rule="evenodd" d="M31.8533 29.5049H19.2969V36.4771C19.2969 39.9294 22.1234 42.7518 25.5758 42.7518C29.0281 42.7518 31.8547 39.9294 31.8547 36.4771V29.5049H31.8533Z" fill="#E9EAE3"/>
<path fill-rule="evenodd" clip-rule="evenodd" d="M23.676 16.8353C29.4993 16.7509 35.7979 19.0361 35.8021 19.0361C36.0214 19.2751 36.0018 19.2034 36.0018 19.6295C36.0018 27.0123 32.7688 33.235 28.356 35.1475C19.2955 31.7556 19.1675 21.0836 20.6582 19.4172C21.3922 18.1994 22.4399 17.3697 23.676 16.8353Z" fill="#E9EAE3"/>
<path fill-rule="evenodd" clip-rule="evenodd" d="M37.2946 22.763C36.3454 22.1962 35.3736 20.8898 34.3766 18.8367C29.7965 20.8814 25.8097 20.5664 22.4136 17.8847C21.5488 17.2027 20.4604 17.048 19.4394 17.4628C16.7324 18.5625 14.7271 21.0066 14.2447 23.9808C12.5643 20.3878 11.0779 6.79078 18.1527 8.94375C20.4646 0.0492167 43.3105 3.69281 37.2946 22.763Z" fill="#E9EAE3"/>
<path fill-rule="evenodd" clip-rule="evenodd" d="M36.5238 22.146C35.8178 21.4401 35.1006 20.3362 34.375 18.8371C29.7949 20.8818 25.8081 20.5668 22.412 17.8851C21.5472 17.203 20.4588 17.0483 19.4378 17.4632C17.7911 18.1326 16.4045 19.3012 15.4595 20.7791C15.1206 15.9402 16.1008 10.678 20.702 12.0815C22.1252 6.60413 31.3333 5.88272 36.798 10.5908C38.425 13.5412 38.9228 17.5673 37.3042 22.7254C37.1805 22.4863 37.0525 22.2346 36.9259 21.9716C36.7909 22.0307 36.6559 22.0898 36.5238 22.146Z" fill="#B5D8D2"/>
<path fill-rule="evenodd" clip-rule="evenodd" d="M36.4652 21.0659C36.4328 21.0547 36.4019 21.042 36.3738 21.0336C36.3302 22.5566 35.9308 24.1316 35.2656 25.5856C35.3767 25.6011 35.4963 25.6137 35.613 25.618C39.0048 26.4434 40.2648 20.232 37.7378 20.2559C37.1936 20.2601 36.7 20.5751 36.4652 21.0659Z" fill="#E9EAE3"/>
<path fill-rule="evenodd" clip-rule="evenodd" d="M15.6444 25.6613C12.1485 26.4586 10.8843 20.2486 13.4127 20.2725C13.9583 20.2767 14.4533 20.5917 14.6882 21.0811C14.7486 22.6716 15.1114 24.2382 15.6444 25.6613Z" fill="#E9EAE3"/>
<path fill-rule="evenodd" clip-rule="evenodd" d="M16.25 49.0293H23.9548V53.1116C23.9548 55.2323 22.2209 56.9662 20.1045 56.9662C17.9839 56.9662 16.25 55.2323 16.25 53.1116V49.0293Z" fill="#B5D8D2"/>
<path fill-rule="evenodd" clip-rule="evenodd" d="M48.6018 30.002C58.9898 30.002 67.409 38.4212 67.409 48.8091C67.409 59.1929 58.9898 67.6121 48.6018 67.6121C38.218 67.6121 29.7988 59.1929 29.7988 48.8091C29.7988 38.4212 38.218 30.002 48.6018 30.002Z" fill="#B5D8D2"/>
<path fill-rule="evenodd" clip-rule="evenodd" d="M58.2854 32.6853C63.7501 35.9745 67.4105 41.9652 67.4105 48.8094C67.4105 59.1931 58.9913 67.6123 48.6034 67.6123C47.4798 67.6123 46.3745 67.5167 45.3029 67.3255C39.8382 64.0363 36.1777 58.0456 36.1777 51.2014C36.1777 40.8177 44.597 32.3984 54.9849 32.3984C56.1085 32.3984 57.2124 32.4941 58.2854 32.6853Z" fill="#E9EAE3"/>
<path fill-rule="evenodd" clip-rule="evenodd" d="M49.7676 42.1914H61.5351C62.563 42.1914 63.404 43.0323 63.404 44.0603C63.404 45.0925 62.563 45.9334 61.5351 45.9334H49.7676V42.1914Z" fill="#B5D8D2"/>
<path fill-rule="evenodd" clip-rule="evenodd" d="M39.8853 56.1641H55.9334C57.4958 56.1641 58.7755 57.4437 58.7755 59.0061C58.7755 60.5727 57.4958 61.8523 55.9334 61.8523H39.8853C38.323 61.8523 37.0391 60.5727 37.0391 59.0061C37.0391 57.4437 38.323 56.1641 39.8853 56.1641Z" fill="#B5D8D2"/>
<path fill-rule="evenodd" clip-rule="evenodd" d="M45.8457 39.1387H49.7677V48.9852H45.8457V39.1387Z" fill="#E9EAE3"/>
<path fill-rule="evenodd" clip-rule="evenodd" d="M41.9023 35.1172H49.7871C50.808 35.1172 51.6405 35.9497 51.6405 36.9706C51.6405 37.9916 50.808 38.8283 49.7871 38.8283H41.9023C40.8813 38.8283 40.0488 37.9916 40.0488 36.9706C40.0488 35.9497 40.8827 35.1172 41.9023 35.1172Z" fill="#B5D8D2"/>
<path fill-rule="evenodd" clip-rule="evenodd" d="M41.9023 48.9854H49.7871C50.808 48.9854 51.6405 49.8221 51.6405 50.843C51.6405 51.8639 50.808 52.6964 49.7871 52.6964H41.9023C40.8813 52.6964 40.0488 51.8639 40.0488 50.843C40.0488 49.8221 40.8827 48.9854 41.9023 48.9854Z" fill="#B5D8D2"/>
<path d="M50.7506 48.1712C52.6884 48.8772 53.2734 51.3648 51.7912 52.847C51.2766 53.3617 50.5678 53.6837 49.7859 53.6837H41.9011C39.398 53.6837 38.1028 50.6308 39.8958 48.8364C40.1869 48.5453 40.5412 48.3147 40.9364 48.1712V39.6409C38.9986 38.9392 38.4136 36.4473 39.8958 34.9651C40.4105 34.4504 41.1192 34.1326 41.9011 34.1326H49.7859C52.2891 34.1326 53.5842 37.1856 51.7912 38.98C51.5002 39.2711 51.1458 39.4989 50.7506 39.6423V41.2089H61.5337C64.0523 41.2089 65.3559 44.2787 63.5503 46.0843C63.0328 46.6033 62.3184 46.9211 61.5337 46.9211H50.7506V48.1712ZM49.7859 49.974H41.9011C41.1431 49.974 40.7297 50.9022 41.2866 51.4562C41.4455 51.6151 41.6606 51.715 41.9011 51.715H49.7859C50.5439 51.715 50.9573 50.7868 50.4005 50.2286C50.2402 50.0697 50.025 49.974 49.7859 49.974ZM49.7859 36.1014H41.9011C41.1431 36.1014 40.7297 37.0295 41.2866 37.5878C41.4455 37.7439 41.6606 37.8423 41.9011 37.8423H49.7859C50.5439 37.8423 50.9573 36.9142 50.4005 36.3559C50.2402 36.2012 50.025 36.1014 49.7859 36.1014ZM48.7819 40.1275H42.9066V48.0039H48.7819V40.1275ZM39.8845 55.18H55.9327C59.3048 55.18 61.0584 59.2904 58.6355 61.7134C57.9464 62.4067 56.9845 62.837 55.9327 62.837H39.8845C36.5081 62.837 34.7588 58.7237 37.1775 56.3036C37.8708 55.6103 38.8327 55.18 39.8845 55.18ZM55.9327 57.1487H39.8845C38.2575 57.1487 37.3898 59.1386 38.5725 60.3212C38.9072 60.6559 39.3741 60.8668 39.8845 60.8668H55.9327C57.5597 60.8668 58.4273 58.8784 57.2447 57.6943C56.91 57.3554 56.4431 57.1487 55.9327 57.1487ZM61.5337 43.1776H50.7506V44.9551H61.5337C62.3072 44.9551 62.7262 44.0059 62.1595 43.4406C61.9964 43.2761 61.777 43.1776 61.5337 43.1776ZM48.6019 29.0223C59.5327 29.0223 68.3934 37.8803 68.3934 48.8097C68.3934 59.7404 59.5327 68.6012 48.6019 68.6012C43.9978 68.6012 39.765 67.0262 36.3998 64.3923H4.57781C4.035 64.3923 3.59766 63.9493 3.59766 63.4079V50.3298C3.59766 42.5926 9.92437 36.2659 17.6616 36.2659H18.1917C18.2283 36.2139 18.2677 36.1703 18.3113 36.1309V33.4365C18.2677 33.3086 16.2947 31.3876 15.067 26.7231C11.4516 26.7836 9.92016 21.2064 12.1378 19.6595C11.692 16.4898 11.5683 11.5314 13.6805 9.11966C14.6733 7.98763 16.0008 7.56435 17.5111 7.79638C21.1392 -0.698779 41.7309 2.84497 39.0492 19.6679C40.4878 20.717 40.2052 23.244 39.2925 24.7656C38.595 25.9342 37.4672 26.7906 35.9794 26.6711C34.7869 30.6254 32.8505 32.7897 32.8378 32.8262V36.2111C32.8575 36.2265 32.8772 36.2476 32.8941 36.2673H33.3005C36.9581 31.8039 42.4791 29.0223 48.6019 29.0223ZM34.2398 62.4222C30.0816 58.0375 28.0692 51.8992 29.062 45.6681L25.5745 43.8864L18.4913 47.5103C17.798 47.8647 16.9964 47.3064 17.0681 46.5456L17.8612 38.2347H17.6616C11.0086 38.2347 5.56359 43.6797 5.56359 50.3284V62.4222H12.0534V53.4447C12.0534 52.9018 12.4922 52.4603 13.0378 52.4603C13.5806 52.4603 14.0222 52.9033 14.0222 53.4447V62.4222H34.2398ZM29.4839 43.6825C29.9227 42.0358 30.5681 40.4776 31.3936 39.0306L31.3852 38.9462L27.2986 42.5659L29.4839 43.6825ZM61.2033 36.2097C54.248 29.2501 42.9628 29.2501 36.0019 36.2097C29.0409 43.1692 29.0423 54.4543 36.0019 61.4111C42.9614 68.3706 54.2466 68.3706 61.2033 61.4111C68.1628 54.4543 68.1628 43.1692 61.2033 36.2097ZM16.2497 48.0475H23.9545C24.4973 48.0475 24.9389 48.4862 24.9389 49.0318V53.1142C24.9389 55.7734 22.762 57.9489 20.1042 57.9489C17.4408 57.9489 15.2653 55.772 15.2653 53.1142V49.0318C15.2653 48.4862 15.7083 48.0475 16.2497 48.0475ZM22.9702 50.0176H17.2341V53.1156C17.2341 55.6272 20.3039 56.9589 22.125 55.1364C22.6467 54.6175 22.9702 53.9003 22.9702 53.1156V50.0176ZM14.0813 19.3909C14.3878 19.4781 14.6719 19.63 14.918 19.8297C15.9586 18.3742 17.3972 17.2309 19.0678 16.5531C19.8848 16.2184 20.7581 16.1622 21.5794 16.3858C21.592 15.2495 21.3403 14.1414 20.8664 13.1373C20.2167 11.7775 19.1522 10.6173 17.7727 9.85653C17.2144 9.69763 16.7405 9.66528 16.3341 9.73278C15.2133 9.92403 14.6325 10.9998 14.3048 12.084C13.6833 14.1175 13.7353 16.944 14.0813 19.3909ZM13.5356 23.7278C13.7156 24.0343 13.9547 24.3058 14.2373 24.4928C14.1502 24.1862 14.0784 23.8712 14.0095 23.5562C13.8619 22.8503 13.762 22.1289 13.7184 21.392C13.71 21.3765 13.2923 21.0095 13.132 21.5397C12.9408 22.1851 13.1812 23.1189 13.5356 23.7278ZM36.0848 19.9408C36.3675 19.6693 36.7148 19.4711 37.1016 19.3628C39.4134 4.83341 22.1531 2.25435 19.3392 8.51216C22.3092 10.4612 23.9152 13.929 23.4764 17.4573C24.8869 18.4572 26.4028 19.0239 28.0242 19.1561C29.8453 19.2995 31.8197 18.9015 33.9403 17.9565C34.4466 17.7175 35.0203 17.92 35.2552 18.4108C35.5392 18.9845 35.8148 19.4992 36.0848 19.9408ZM37.3294 21.5312C37.2577 22.5761 37.0383 23.604 36.7078 24.6011C38.2702 23.9514 38.4614 20.7072 37.5136 21.309C37.4123 21.3723 37.3772 21.4356 37.3294 21.5312ZM21.8663 18.7061C21.5161 18.4712 21.3473 18.3081 20.8453 18.2364C20.5106 18.1886 20.1562 18.2322 19.8047 18.3756C18.8681 18.7581 18.0272 19.3206 17.3255 20.0181C16.8825 20.4611 16.4958 20.9504 16.178 21.489C16.2975 23.0401 16.6969 26.2886 17.9963 29.2065C19.3111 32.1568 21.5794 34.7753 25.4902 34.7753C27.9891 34.7753 30.142 33.2129 31.6931 31.0923C33.4116 28.7411 34.5956 25.4673 34.9261 21.7562C34.7911 21.565 34.6547 21.3611 34.5197 21.1417C34.3158 20.8225 34.1133 20.4723 33.9136 20.0926C29.6119 21.7787 25.5056 21.5439 21.8663 18.7061ZM20.2603 36.6836L25.5816 41.4676L30.907 36.7553C30.8311 36.4965 30.8677 35.1367 30.8677 34.7823C29.2688 36.0339 27.4392 36.744 25.4902 36.744C23.3892 36.744 21.6792 36.1618 20.28 35.2168C20.28 35.4798 20.2997 36.4881 20.2603 36.6836ZM19.7695 38.8843L19.1916 44.9509L23.8561 42.5631L19.7695 38.8843Z" fill="#0B3D34"/>
</svg>
