<svg width="72" height="72" viewBox="0 0 72 72" fill="none" xmlns="http://www.w3.org/2000/svg">
<path fill-rule="evenodd" clip-rule="evenodd" d="M58.6566 6.00488C63.6151 6.00488 67.6341 10.0225 67.6341 14.9782C67.6341 19.9366 63.6165 23.9557 58.6566 23.9557C53.7024 23.9557 49.6833 19.938 49.6833 14.9782C49.6848 10.0239 53.7024 6.00488 58.6566 6.00488Z" fill="#B5D8D2"/>
<path fill-rule="evenodd" clip-rule="evenodd" d="M65.7005 9.41828C66.9127 10.9455 67.6341 12.8777 67.6341 14.9786C67.6341 19.937 63.6164 23.9561 58.6566 23.9561C57.3248 23.9561 56.062 23.665 54.9258 23.1433C53.7136 21.6161 52.9922 19.6839 52.9922 17.583C52.9922 12.6245 57.0098 8.60547 61.9697 8.60547C63.3014 8.60547 64.5642 8.89656 65.7005 9.41828Z" fill="#E9EAE3"/>
<path fill-rule="evenodd" clip-rule="evenodd" d="M42.9628 26.67L46.6626 23.887C49.2698 21.9225 51.0909 24.2934 47.5514 26.6939C46.9368 27.1129 48.6243 27.9103 48.1898 28.515C47.5486 29.4121 44.6854 31.146 44.2551 30.5484L42.5128 28.1212C42.0783 27.5193 42.3693 27.1214 42.9628 26.67Z" fill="#E9EAE3"/>
<path fill-rule="evenodd" clip-rule="evenodd" d="M20.5768 27.0736H27.3493C32.7029 27.0736 35.8121 29.6414 37.8174 30.0394L43.3707 26.5195L45.6151 30.3867L39.1618 35.0147C38.6879 35.3339 38.0888 35.4689 37.4841 35.3494L32.828 33.3441V49.0294H15.1037L10.6191 49.0927L10.6276 41.3709C10.539 33.4622 11.162 27.0736 20.5768 27.0736Z" fill="#B5D8D2"/>
<path fill-rule="evenodd" clip-rule="evenodd" d="M20.5768 27.0736H27.3493C32.7029 27.0736 35.8121 29.6414 37.8174 30.0394L43.3707 26.5195L45.6151 30.3867L39.1618 35.0147C38.6879 35.3339 38.0888 35.4689 37.4842 35.3494L32.8281 33.3441V38.9452C32.0223 39.0323 31.201 39.0802 30.3685 39.0802C22.907 39.0802 16.4045 35.3367 13.0042 29.8045C14.4737 28.0861 16.8306 27.0736 20.5768 27.0736Z" fill="#B5D8D2"/>
<path fill-rule="evenodd" clip-rule="evenodd" d="M29.5367 9.39844C31.7291 12.308 35.5077 26.5266 27.2923 24.7575L27.4878 29.2617L24.3941 32.7253L21.0781 29.1942C21.1105 25.8656 21.4648 24.0403 19.918 23.2345C19.9264 17.0442 22.8275 14.3414 25.9297 13.7072C28.0067 12.7987 29.2063 11.3911 29.5367 9.39844Z" fill="#E9EAE3"/>
<path fill-rule="evenodd" clip-rule="evenodd" d="M19.9186 23.2345C13.7283 19.5234 16.486 9.44621 22.2699 7.72355C23.2824 7.42121 24.0643 6.85027 24.6577 5.97418C27.1847 2.24762 31.7213 5.63949 29.5374 9.3984C29.2069 11.3911 28.0074 12.7987 25.9304 13.7071C22.8296 14.3414 19.9271 17.0442 19.9186 23.2345Z" fill="#B5D8D2"/>
<path fill-rule="evenodd" clip-rule="evenodd" d="M29.8924 6.20866C30.2467 7.10585 30.2158 8.23366 29.538 9.39804C29.2061 11.3907 28.0066 12.7983 25.9296 13.7068C22.8555 14.3368 19.9783 16.996 19.9221 23.0668C16.7496 18.5823 19.4791 11.0082 24.4221 9.53304C25.4346 9.23351 26.2164 8.65975 26.8099 7.78647C27.7155 6.45616 28.8756 6.03288 29.8924 6.20866Z" fill="#B5D8D2"/>
<path fill-rule="evenodd" clip-rule="evenodd" d="M31.9948 62.9001C33.6613 64.5665 30.32 67.4718 28.6072 65.9179C28.3836 65.7267 27.5989 65.0095 27.3837 64.845C28.34 66.4439 25.2955 68.9428 23.0427 66.6871C18.6144 62.2631 17.8452 61.2576 13.4605 56.9489L9.51172 54.0984L13.6011 41.3662L25.9142 44.0887C28.25 46.6242 31.6025 49.9767 32.9216 51.2873L38.4748 56.8082C39.8895 58.2159 36.8717 61.3996 35.1828 59.7107C36.8731 61.4011 33.6838 64.5904 31.9948 62.9001Z" fill="#B5D8D2"/>
<path fill-rule="evenodd" clip-rule="evenodd" d="M14.107 41.4795L25.9138 44.0909C28.2496 46.6264 31.6021 49.9789 32.9212 51.2895L34.7395 53.0951C33.651 53.2062 32.5274 53.2667 31.3785 53.2667C21.5601 53.2667 13.6035 48.9973 13.6035 43.7323C13.6049 42.9547 13.7807 42.2009 14.107 41.4795Z" fill="#E9EAE3"/>
<path fill-rule="evenodd" clip-rule="evenodd" d="M38.527 41.7178L44.6456 53.8045L38.61 56.9461L32.9217 51.2901C30.6689 49.0542 28.9083 49.0654 27.173 50.2411C21.9586 53.7721 17.7497 48.9853 20.1937 47.5298L25.6908 44.2617C25.7541 44.2223 25.8187 44.1506 25.9144 44.0901C27.0534 43.3687 36.7172 42.2001 38.527 41.7178Z" fill="#B5D8D2"/>
<path fill-rule="evenodd" clip-rule="evenodd" d="M38.5277 41.7178L42.3387 49.244C42.3148 49.244 42.2909 49.244 42.267 49.244C35.2666 49.244 29.2127 47.0714 26.3145 43.9186C28.4745 43.1929 36.8571 42.165 38.5277 41.7178Z" fill="#E9EAE3"/>
<path fill-rule="evenodd" clip-rule="evenodd" d="M11.0256 38.5222L14.9912 39.9129C15.7013 40.1647 16.0796 40.9493 15.8321 41.6595L10.9806 55.4998C10.7331 56.2128 9.94836 56.5882 9.23399 56.3407L5.26836 54.95C4.55821 54.7025 4.17993 53.9178 4.42743 53.2034L9.28039 39.3631C9.52649 38.6529 10.3126 38.2747 11.0256 38.5222Z" fill="#B5D8D2"/>
<path fill-rule="evenodd" clip-rule="evenodd" d="M11.0252 38.5222L14.9909 39.9129C15.701 40.1647 16.0793 40.9493 15.8318 41.6595L13.4355 48.4953C10.8368 47.9932 8.68383 46.355 7.59961 44.1584L9.28008 39.3631C9.52617 38.6529 10.3123 38.2747 11.0252 38.5222Z" fill="#B5D8D2"/>
<path fill-rule="evenodd" clip-rule="evenodd" d="M42.6366 38.5222L38.671 39.9129C37.958 40.1647 37.5826 40.9493 37.8301 41.6595L42.6816 55.4998C42.9291 56.2128 43.7138 56.5882 44.424 56.3407L48.3938 54.95C49.104 54.7025 49.4822 53.9178 49.2305 53.2034L44.3832 39.3631C44.1315 38.6529 43.3468 38.2747 42.6366 38.5222Z" fill="#B5D8D2"/>
<path fill-rule="evenodd" clip-rule="evenodd" d="M42.6366 38.5222L38.671 39.9129C37.958 40.1647 37.5826 40.9493 37.8301 41.6595L39.2968 45.8375C40.5202 46.5068 41.9476 46.8936 43.4705 46.8936C44.6504 46.8936 45.774 46.6587 46.7949 46.2439L44.3832 39.3631C44.1315 38.6529 43.3468 38.2747 42.6366 38.5222Z" fill="#B5D8D2"/>
<path d="M42.961 39.4495L38.9953 40.8403C38.5974 40.9795 38.776 41.362 38.8477 41.5898L43.3842 54.5414C43.5192 54.9042 43.6233 55.582 44.1014 55.4147L48.0713 54.0239C48.2752 53.9522 48.3778 53.7286 48.3061 53.5303L43.4546 39.6858C43.3871 39.4861 43.1592 39.382 42.961 39.4495ZM38.3485 38.9869L42.3141 37.5961C43.5333 37.17 44.8819 37.8197 45.308 39.0389L50.1596 52.8834C50.5857 54.1026 49.936 55.4512 48.7167 55.8773L44.7511 57.2681C43.7063 57.6309 42.563 57.2119 41.985 56.2992L39.8208 57.427C40.0163 59.1089 38.3541 60.9469 36.6314 61.1662C36.4402 62.7328 34.9777 64.1883 33.4027 64.3556C33.0314 66.5044 30.1022 68.2579 28.1686 66.8264C27.6736 67.6715 26.761 68.2931 25.7724 68.497C24.6797 68.7206 23.4324 68.4731 22.3439 67.3847C20.423 65.4637 19.1152 64.1039 17.8833 62.8242C16.4728 61.3617 15.1692 60.0061 12.8166 57.6984L11.3935 56.6662C10.7635 57.3244 9.79878 57.5747 8.91425 57.2681L4.94862 55.8773C3.7294 55.4512 3.07972 54.104 3.50581 52.8834L8.35737 39.0389C8.58519 38.3808 9.08722 37.8872 9.69612 37.6397C9.84378 34.5347 10.3542 31.8079 11.7971 29.7548C13.3636 27.5386 15.9314 26.1745 20.1516 26.0915C20.1361 25.0354 19.9927 24.3815 19.4696 24.1059C19.426 24.0862 19.3894 24.0623 19.3542 24.0342C17.4966 22.9022 16.3603 21.2639 15.8105 19.4301C14.3719 14.5983 17.1338 8.22935 21.9938 6.78232C22.7869 6.54326 23.3846 6.10873 23.8472 5.42248C24.9314 3.82357 26.3546 3.26248 27.6624 3.39326C30.2414 3.66045 31.9233 6.5306 30.6717 9.33607C32.2946 12.0712 34.0833 18.5569 32.9752 22.4269C32.3171 24.7345 30.6985 25.9945 28.3275 25.8834L28.336 26.1183C31.7039 26.3053 34.1353 27.4261 35.9691 28.2712C36.6188 28.5708 37.1855 28.8295 37.651 28.9814L41.9316 26.2631L42.3746 25.889L46.0702 23.1061C49.5225 20.5031 52.5642 23.9428 48.6971 27.0689C49.1836 27.6272 49.5985 28.2445 48.9924 29.0897C48.7378 29.444 48.2583 29.8715 47.7042 30.2653C47.2458 30.5915 46.7199 30.915 46.2178 31.1625C46.1939 31.1779 46.17 31.199 46.1461 31.2145L39.7364 35.8101L39.7083 35.8298C38.9981 36.3037 38.1375 36.4837 37.2882 36.3164C37.0603 36.2686 34.2619 35.0325 33.8119 34.837V41.5336L36.7777 41.0597C36.8382 40.1358 37.4428 39.3018 38.3485 38.9869ZM41.2749 54.45L37.253 42.9736C35.0649 43.3448 26.941 44.4965 26.4178 44.9381C26.3546 44.9944 26.2941 45.0464 26.19 45.1054L20.6972 48.375C20.2669 48.6295 20.5341 49.1245 20.7971 49.4395C21.001 49.6828 21.2752 49.9092 21.6099 50.0934C22.7616 50.7192 24.5757 50.8148 26.6246 49.4283C29.1192 47.7379 31.3524 48.3792 33.6164 50.5969L38.7942 55.7437L41.2749 54.45ZM11.6564 37.7043L15.2199 38.9517V37.7958C15.2199 37.2543 15.6586 36.8114 16.2 36.8114C16.7457 36.8114 17.1844 37.2543 17.1844 37.7958V41.1567L25.8146 43.0664C26.9114 42.6684 29.3583 42.2367 31.8417 41.8429V33.3422C31.8417 32.6489 32.5632 32.1581 33.2171 32.4379L37.7607 34.3997C37.98 34.4601 38.4019 34.3476 38.6142 34.2042L44.318 30.1106L43.0341 27.8986L38.3667 30.8559C38.16 30.9994 37.8928 31.0598 37.6214 31.0078C35.5008 30.5817 32.9457 28.409 28.4217 28.0898L28.4696 29.2219C28.4822 29.5003 28.3739 29.7647 28.1911 29.9517L25.1255 33.3801C24.743 33.8104 24.0764 33.8147 23.6827 33.3998L20.3625 29.8687C20.1713 29.662 20.0841 29.3948 20.0996 29.1347C20.1038 28.7479 20.1122 28.3978 20.1192 28.0617C13.4621 28.2248 11.9391 31.8923 11.6564 37.7043ZM16.3885 42.989C14.9541 46.9153 13.6814 50.9414 12.2583 54.8719L14.1441 56.2514C18.6877 60.7162 19.3064 61.5656 23.7347 65.9939C25.2492 67.5084 26.9002 65.8111 26.5289 65.3358L23.0569 62.0114C22.666 61.6373 22.6547 61.0144 23.0288 60.6248C23.4028 60.2339 24.0258 60.2226 24.4153 60.5967C25.9946 62.1112 27.6244 63.7101 29.2388 65.1684C30.1317 65.9503 31.981 64.2797 31.3074 63.6061L27.3094 59.7797C26.9185 59.4014 26.9072 58.7826 27.2813 58.3889C27.6553 57.9979 28.2783 57.9867 28.6678 58.365L32.67 62.1956C33.4913 62.9803 35.2378 61.155 34.4841 60.4097C34.4714 60.3984 34.4602 60.3858 34.4475 60.3703L30.4692 56.5594C30.0783 56.1853 30.0671 55.5623 30.4411 55.1728C30.8152 54.7819 31.4382 54.7706 31.8277 55.1447L35.806 58.9556C35.8299 58.9753 35.8538 58.995 35.8735 59.0189C36.6624 59.8036 38.2332 57.967 37.7874 57.5128L32.2299 51.9876C30.6549 50.4253 29.3724 49.9345 27.7214 51.0511C24.9427 52.9326 22.3594 52.7372 20.6705 51.8161C18.4219 50.5969 17.5964 47.9334 19.6946 46.6861L23.3255 44.5261L16.3885 42.989ZM14.67 40.8403L10.7044 39.4495C10.5047 39.382 10.2783 39.4861 10.2108 39.6844L5.35925 53.5289C5.28753 53.7286 5.39159 53.9508 5.59409 54.0225L9.55972 55.4133C9.76362 55.4808 9.98581 55.3767 10.0575 55.1784L14.9049 41.3339C14.9766 41.1356 14.8739 40.912 14.67 40.8403ZM29.7057 11.797C28.9519 13.0528 27.7847 13.9654 26.3208 14.6067C26.2491 14.639 26.1732 14.6587 26.0972 14.6742C24.6628 14.9737 23.2791 15.795 22.306 17.3334C21.5086 18.6004 20.9827 20.3512 20.911 22.6983C22.1991 23.6826 22.1583 25.2337 22.0908 27.7003C22.0796 28.0504 22.0711 28.4259 22.0627 28.8084L24.3788 31.2722L26.491 28.904L26.3349 25.3603C25.238 24.7542 24.0905 24.0047 23.3775 23.1398C23.0344 22.7208 23.0949 22.1034 23.5125 21.7603C23.9316 21.4129 24.5489 21.4734 24.8921 21.8925C25.1227 22.1751 25.4658 22.4789 25.9242 22.8009C26.3827 23.1272 26.9494 23.4661 27.623 23.8218C28.4597 23.985 29.1178 23.9498 29.6199 23.7586C31.4733 23.0526 31.4621 19.8886 31.2708 18.0506C31.0458 15.7992 30.3919 13.455 29.7057 11.797ZM17.6963 18.869C17.9592 19.7494 18.4022 20.5706 19.0435 21.2723C19.2671 19.2037 19.845 17.5612 20.6494 16.29C21.9164 14.2734 23.7347 13.185 25.6247 12.7701C26.4853 12.3792 27.1561 11.9053 27.6371 11.3273C28.5863 10.2037 28.426 9.32623 28.7058 8.87623C30.2288 6.34076 27.3263 3.7856 25.4686 6.52498C24.7472 7.59373 23.7825 8.29826 22.5549 8.66529C18.7721 9.7917 16.5516 15.0258 17.6963 18.869ZM44.5992 26.6737L45.9788 29.0531C46.4372 28.7775 47.2627 28.2037 47.4497 27.8578L47.0757 28.1883C46.4414 27.4753 45.9113 26.6259 47.0039 25.8848C48.053 25.1719 48.4988 24.5573 48.5353 24.1467C48.2724 24.0947 47.8252 24.2423 47.2557 24.6726L44.5992 26.6737ZM47.4483 27.8578C47.468 27.8184 47.4117 27.8775 47.3372 27.9534L47.4483 27.8578ZM54.09 16.8314C53.6682 16.4925 53.5992 15.8794 53.9381 15.4561C54.2728 15.0342 54.8902 14.9625 55.3135 15.3L58.2511 17.6512L62.2013 10.8112C62.4727 10.3415 63.0746 10.1812 63.54 10.4526C64.0097 10.724 64.17 11.3259 63.8986 11.7956L59.3789 19.62C59.0794 20.1304 58.3861 20.2654 57.9207 19.8914L54.09 16.8314ZM58.6575 5.02029C64.1588 5.02029 68.6194 9.48092 68.6194 14.9822C68.6194 20.4792 64.1588 24.9398 58.6575 24.9398C53.1605 24.9398 48.6999 20.4792 48.6999 14.9822C48.7013 9.48092 53.1605 5.02029 58.6575 5.02029ZM64.3106 9.33045C62.8636 7.88341 60.8667 6.99045 58.6575 6.99045C54.2447 6.99045 50.6686 10.5665 50.6686 14.9822C50.6686 19.395 54.2447 22.9711 58.6575 22.9711C63.0746 22.9711 66.6492 19.395 66.6492 14.9822C66.6507 12.7744 65.7577 10.7775 64.3106 9.33045Z" fill="#0B3D34"/>
</svg>
