<svg width="56" height="56" viewBox="0 0 56 56" fill="none" xmlns="http://www.w3.org/2000/svg">
<path d="M52.7341 31.2933C52.4661 30.8919 51.9225 30.7836 51.5211 31.0527L49.9756 32.0884C50.225 30.7431 50.3519 29.3727 50.3519 28C50.3519 15.6745 40.3255 5.64594 28.0011 5.64594C26.1505 5.64594 24.3086 5.87453 22.5258 6.32406C22.0577 6.44219 21.7744 6.91687 21.8925 7.385C22.0106 7.85422 22.4864 8.1375 22.9545 8.01937C24.5963 7.60484 26.2949 7.39484 28.0011 7.39484C39.3619 7.39484 48.6041 16.6381 48.6041 28C48.6041 29.3158 48.4761 30.6294 48.2289 31.9156L47.0608 30.1711C46.7917 29.7697 46.2492 29.6614 45.8478 29.9305C45.4464 30.1995 45.3392 30.742 45.6083 31.1434L47.8833 34.5417C48.0517 34.7933 48.3284 34.9289 48.6106 34.9289C48.778 34.9289 48.9475 34.8819 49.0963 34.7812L52.4945 32.5063C52.896 32.2372 53.0031 31.6936 52.7341 31.2933ZM34.895 48.3623C34.7594 47.8986 34.2738 47.6339 33.81 47.7695C31.9288 48.3219 29.9742 48.6019 28.0011 48.6019C16.6403 48.6019 7.39595 39.3597 7.39595 28C7.39595 26.9937 7.47142 25.9798 7.61907 24.9758L8.72267 26.623C8.8911 26.8745 9.16782 27.0113 9.45001 27.0113C9.61626 27.0113 9.78579 26.9631 9.93563 26.8636C10.3359 26.5945 10.4442 26.052 10.1752 25.6506L7.89907 22.2523C7.77001 22.0598 7.56985 21.9253 7.34235 21.8805C7.11485 21.8356 6.8786 21.8837 6.6861 22.0128L3.28782 24.2911C2.88751 24.5602 2.78032 25.1038 3.04938 25.5041C3.31735 25.9055 3.86095 26.0127 4.26235 25.7436L5.8997 24.6455C5.73235 25.7589 5.64813 26.8833 5.64813 28C5.64813 40.3244 15.6756 50.3508 28.0011 50.3508C30.1405 50.3508 32.2613 50.0467 34.3033 49.4473C34.7659 49.3117 35.0317 48.825 34.895 48.3623ZM9.93563 0C4.45813 0 0.00219727 4.45703 0.00219727 9.93453C0.00219727 15.4109 4.45813 19.868 9.93563 19.868C15.4131 19.868 19.8691 15.4109 19.8691 9.93453C19.8691 4.45703 15.4131 0 9.93563 0ZM9.93563 18.1191C5.42282 18.1191 1.75001 14.4473 1.75001 9.93453C1.75001 5.42062 5.42282 1.74891 9.93563 1.74891C14.4484 1.74891 18.1202 5.42062 18.1202 9.93453C18.1202 14.4473 14.4484 18.1191 9.93563 18.1191ZM33.7302 18.6036C33.8986 18.2962 33.9949 17.9441 33.9949 17.57C33.9949 16.4948 33.203 15.6034 32.1727 15.4416L32.7994 13.9913C33.1877 13.1009 32.9645 12.0673 32.2492 11.4242C31.6061 10.8391 30.683 10.7603 29.9491 11.2284L29.5706 11.4702C29.5127 11.5073 29.4634 11.5073 29.4077 11.4712L29.0249 11.2252C28.3959 10.8227 27.6117 10.8216 26.9741 11.2262L26.5945 11.4702C26.5377 11.5063 26.4863 11.5063 26.4294 11.4702L26.0499 11.2273C25.3203 10.7625 24.3972 10.8402 23.7552 11.4198C23.0388 12.0652 22.8156 13.0966 23.1995 13.9891L23.8274 15.4416C22.797 15.6034 22.0052 16.4948 22.0052 17.57C22.0052 17.9441 22.1014 18.2962 22.2699 18.6036C18.7141 21.2778 16.543 25.1672 16.543 28.9669C16.543 34.965 21.6836 39.8431 28.0011 39.8431C34.3186 39.8431 39.457 34.965 39.457 28.9669C39.457 25.1672 37.2859 21.2778 33.7302 18.6036ZM24.9255 12.7192C24.9834 12.6678 25.0469 12.6612 25.1092 12.7017L25.4877 12.9434C26.1188 13.347 26.9041 13.347 27.5374 12.9423L27.9147 12.6995C27.9759 12.6613 28.0241 12.6613 28.0809 12.6973L28.467 12.9445C29.0992 13.3459 29.8834 13.3459 30.5124 12.9434L30.8897 12.7017C30.9531 12.6623 31.0166 12.6667 31.0756 12.7203C31.2375 12.8658 31.2845 13.0911 31.1959 13.2945L30.2794 15.412H25.7206L24.8052 13.2967C24.7166 13.0911 24.7636 12.8647 24.9255 12.7192ZM24.1631 17.1609H31.8369C32.0589 17.1609 32.2459 17.348 32.2459 17.57C32.2459 17.792 32.0589 17.9791 31.8369 17.9791H24.1631C23.9411 17.9791 23.7541 17.792 23.7541 17.57C23.7541 17.348 23.9411 17.1609 24.1631 17.1609ZM28.0011 38.0953C22.6472 38.0953 18.2908 34.0003 18.2908 28.9669C18.2908 25.5642 20.3733 22.0413 23.7508 19.6875C23.8853 19.7138 24.022 19.728 24.1631 19.728H25.6025C25.3663 20.1512 25.0655 20.5538 24.6827 20.965C24.3534 21.3183 24.3742 21.8717 24.7275 22.2009C24.8959 22.3573 25.1092 22.435 25.3225 22.435C25.5566 22.435 25.7906 22.3409 25.9624 22.1561C26.6799 21.3861 27.1884 20.6019 27.533 19.728H28.467C28.8127 20.6041 29.3224 21.3894 30.042 22.1583C30.2138 22.342 30.4467 22.435 30.6808 22.435C30.8941 22.435 31.1084 22.3563 31.278 22.1988C31.6302 21.8695 31.6488 21.3161 31.3184 20.9628C30.9356 20.5537 30.6349 20.1512 30.3975 19.728H31.8369C31.978 19.728 32.1158 19.7138 32.2492 19.6875C35.6267 22.0413 37.7092 25.5642 37.7092 28.9669C37.7092 34.0003 33.3539 38.0953 28.0011 38.0953Z" fill="#0B3D34"/>
<path d="M31.8369 17.1609H24.1631C23.9411 17.1609 23.7541 17.348 23.7541 17.57C23.7541 17.792 23.9411 17.9791 24.1631 17.9791H31.8369C32.0589 17.9791 32.2459 17.792 32.2459 17.57C32.2459 17.348 32.0589 17.1609 31.8369 17.1609ZM18.1202 9.93453C18.1202 14.4473 14.4484 18.1191 9.93563 18.1191C5.42281 18.1191 1.75 14.4473 1.75 9.93453C1.75 5.42062 5.42281 1.7489 9.93563 1.7489C14.4484 1.7489 18.1202 5.42062 18.1202 9.93453Z" fill="#B5D8D2"/>
<path d="M12.4775 12.5037L7.33789 7.36414" stroke="#0B3D34" stroke-width="1.5" stroke-linecap="round" stroke-linejoin="round"/>
<path d="M7.33699 12.5037L12.4766 7.36414" stroke="#0B3D34" stroke-width="1.5" stroke-linecap="round" stroke-linejoin="round"/>
<path d="M43.3893 35.2786C38.9151 35.2786 35.2754 38.9192 35.2754 43.3934C35.2754 47.8666 38.9151 51.5073 43.3893 51.5073C47.8635 51.5073 51.5032 47.8666 51.5032 43.3934C51.5032 38.9192 47.8635 35.2786 43.3893 35.2786ZM43.3893 50.0787C39.7031 50.0787 36.7031 47.0796 36.7031 43.3934C36.7031 39.7063 39.7031 36.7071 43.3893 36.7071C47.0755 36.7071 50.0747 39.7063 50.0747 43.3934C50.0747 47.0796 47.0755 50.0787 43.3893 50.0787Z" fill="#0B3D34"/>
<path d="M50.0747 43.3934C50.0747 47.0796 47.0756 50.0788 43.3894 50.0788C39.7032 50.0788 36.7031 47.0796 36.7031 43.3934C36.7031 39.7063 39.7032 36.7072 43.3894 36.7072C47.0756 36.7072 50.0747 39.7063 50.0747 43.3934Z" fill="#B5D8D2"/>
<path d="M41.5396 46.8817V39.9042H44.7112C45.1318 39.9042 45.5352 40.0617 45.8326 40.3421C46.13 40.6225 46.297 41.0028 46.297 41.3994C46.297 41.7959 46.13 42.1762 45.8326 42.4566C45.5352 42.737 45.1318 42.8945 44.7112 42.8945H40.4824" stroke="#0B3D34" stroke-width="1.5" stroke-linecap="round" stroke-linejoin="round"/>
<path d="M43.3897 45.4516L40.4824 45.4418" stroke="#0B3D34" stroke-width="1.5" stroke-linecap="round" stroke-linejoin="round"/>
</svg>
