<svg width="72" height="72" viewBox="0 0 72 72" fill="none" xmlns="http://www.w3.org/2000/svg">
<path fill-rule="evenodd" clip-rule="evenodd" d="M42.43 4.33252H16.8348L4.42188 13.9077V56.3652C4.42188 58.6616 6.00109 60.5389 7.93047 60.5389H42.4314C44.365 60.5389 45.9428 58.6616 45.9428 56.3652V8.51049C45.9414 6.20986 44.3636 4.33252 42.43 4.33252Z" fill="#B5D8D2"/>
<path fill-rule="evenodd" clip-rule="evenodd" d="M37.0764 4.33252H16.8348L4.42188 13.9077V54.5399H33.565C35.4944 54.5399 37.0764 52.6625 37.0764 50.3661V4.33252Z" fill="#E9EAE3"/>
<path fill-rule="evenodd" clip-rule="evenodd" d="M4.42188 13.9077L11.8441 15.0917C13.7495 15.3983 15.8941 13.9991 16.1177 11.7153L16.8348 4.33252L4.42188 13.9077Z" fill="#B5D8D2"/>
<path fill-rule="evenodd" clip-rule="evenodd" d="M9.75391 46.921H18.5163V55.6834H9.75391V46.921ZM9.75391 17.8384H18.5163V26.6007H9.75391V17.8384ZM9.75391 32.5112H18.5163V41.2735H9.75391V32.5112Z" fill="#B5D8D2"/>
<path fill-rule="evenodd" clip-rule="evenodd" d="M18.5175 21.0952V26.6007H12.5859V21.0952H18.5175ZM12.5859 50.1779H18.5175V55.6833H12.5859V50.1779ZM12.5859 35.768H18.5175V41.2735H12.5859V35.768Z" fill="#E9EAE3"/>
<path fill-rule="evenodd" clip-rule="evenodd" d="M30.1805 60.4504L25.8633 52.9762C37.2961 43.8595 53.8223 43.8595 65.2552 52.9762L60.9422 60.4504C52.9814 50.9639 38.137 50.9639 30.1805 60.4504Z" fill="#E9EAE3"/>
<path fill-rule="evenodd" clip-rule="evenodd" d="M30.1797 67.6138C38.8942 59.6657 52.2269 59.6657 60.9414 67.6138V60.4504C57.1066 55.9335 51.4816 53.3306 45.5584 53.3306C39.6353 53.3306 34.0103 55.9335 30.1797 60.4504V67.6138Z" fill="#B5D8D2"/>
<path fill-rule="evenodd" clip-rule="evenodd" d="M60.9414 60.4503V67.6137L65.5173 60.778L65.2544 52.9761L60.9414 60.4503Z" fill="#B5D8D2"/>
<path fill-rule="evenodd" clip-rule="evenodd" d="M45.447 30.7139C47.6759 30.7139 49.4843 32.5195 49.4843 34.7512C49.4843 36.9801 47.6745 38.79 45.447 38.79C43.2152 38.79 41.4082 36.9801 41.4082 34.7512C41.4082 32.5195 43.2138 30.7139 45.447 30.7139Z" fill="#E9EAE3"/>
<path fill-rule="evenodd" clip-rule="evenodd" d="M47.3251 38.3271C49.502 39.0007 51.0924 41.0384 51.0924 43.4262V46.5551C47.3574 45.949 43.538 45.949 39.7988 46.5551V43.4262C39.7988 41.0384 41.3935 39.0021 43.5704 38.3271C44.1329 38.6225 44.7699 38.7898 45.4477 38.7898C46.1255 38.7898 46.7626 38.6225 47.3251 38.3271Z" fill="#E9EAE3"/>
<path fill-rule="evenodd" clip-rule="evenodd" d="M26.3206 42.9553C24.6064 44.6302 23.9764 47.2922 25.0775 49.5605L26.3248 52.1283C29.8011 49.8038 33.5952 48.1345 37.5341 47.1136L36.3219 44.4389C35.3727 42.3464 33.3167 41.0864 31.1511 41.0273C30.0992 42.608 28.1783 43.3786 26.3206 42.9553Z" fill="#E9EAE3"/>
<path fill-rule="evenodd" clip-rule="evenodd" d="M25.6909 34.9112C23.5309 35.8956 22.5774 38.4395 23.5618 40.5995C24.1074 41.7991 25.141 42.6287 26.3209 42.955C28.1785 43.3769 30.0995 42.6077 31.1527 41.0256C31.8502 39.857 31.9852 38.3748 31.3763 37.0389C30.3948 34.8831 27.848 33.9297 25.6909 34.9112Z" fill="#E9EAE3"/>
<path fill-rule="evenodd" clip-rule="evenodd" d="M30.1798 60.4503V67.6137L25.5996 60.778L25.8626 52.9761L30.1798 60.4503Z" fill="#B5D8D2"/>
<path fill-rule="evenodd" clip-rule="evenodd" d="M64.6442 42.7511C66.2389 44.3064 66.8253 46.7772 65.8002 48.8823L64.4136 51.7398C61.2242 49.5278 57.7325 47.9205 54.1016 46.9164L55.3616 44.1264C56.2419 42.1858 58.1558 41.013 60.1653 40.9609C61.1412 42.4291 62.923 43.142 64.6442 42.7511Z" fill="#E9EAE3"/>
<path fill-rule="evenodd" clip-rule="evenodd" d="M65.2351 35.2854C67.2361 36.1938 68.1207 38.5577 67.208 40.563C66.7018 41.6796 65.7413 42.4488 64.6444 42.7512C62.9218 43.1421 61.14 42.4277 60.1641 40.961C59.5144 39.8726 59.3907 38.4972 59.9532 37.2583C60.8658 35.2544 63.2297 34.3727 65.2351 35.2854Z" fill="#E9EAE3"/>
<path d="M65.641 34.3925C69.2565 36.0392 69.5434 41.0455 66.2148 43.1225C67.4185 44.9478 67.666 47.2878 66.6845 49.3128L65.4371 51.8764C65.8716 52.2111 66.2302 52.4108 66.2345 52.9972L66.4974 60.7259C66.5087 60.9299 66.458 61.1408 66.3343 61.3236L61.667 68.2761C61.2999 68.6783 60.6784 68.7064 60.2804 68.3436C56.1109 64.5411 50.8374 62.6399 45.5598 62.6399C40.3018 62.6399 35.0438 64.5299 30.8785 68.3084C30.4004 68.7669 29.679 68.6825 29.3204 68.0933L24.9202 61.5275H7.92852C6.66148 61.5275 5.5168 60.9214 4.69977 59.9455C3.92211 59.0174 3.43555 57.7489 3.43555 56.3652V13.9077H3.43977C3.43977 13.6124 3.57195 13.3255 3.82227 13.13L16.1762 3.60268C16.3477 3.44377 16.5784 3.34814 16.8343 3.34814H42.4295C43.7007 3.34814 44.8454 3.95424 45.6624 4.93018C46.4401 5.8583 46.9266 7.12674 46.9266 8.51049V29.9488C50.4141 31.0217 51.646 35.3853 49.1752 38.1205C50.9527 39.2722 52.0777 41.2578 52.0777 43.4305V45.8056C52.5207 45.8928 52.958 45.9927 53.3926 46.101L54.4684 43.7258C55.2896 41.9117 56.8885 40.6278 58.7729 40.1666C58.1316 37.7113 59.4549 35.1561 61.8427 34.2631C63.0338 33.8145 64.3937 33.823 65.641 34.3925ZM64.2854 43.8088C62.5515 44.0042 60.8288 43.318 59.701 41.9835C58.2104 42.1874 56.8913 43.131 56.2571 44.5344L55.3079 46.6311C58.2891 47.5564 61.1635 48.9149 63.8227 50.7092L64.9154 48.4564C65.6649 46.9138 65.3499 45.0955 64.2854 43.8088ZM66.3948 37.8575C65.4624 35.3628 61.9538 35.2349 60.8457 37.6705C60.4505 38.5395 60.4955 39.6392 60.9849 40.4253C61.6627 41.5095 63.166 42.1156 64.4049 41.8049C65.9996 41.4013 67.029 39.5506 66.3948 37.8575ZM24.6587 59.5574L24.8823 52.948C24.8935 52.6456 25.0341 52.3813 25.2535 52.2111V52.2069L25.269 52.1956L24.1974 49.9878C23.1371 47.811 23.4198 45.2839 24.7388 43.3349C21.143 41.1622 21.4102 35.7847 25.2816 34.0227C28.9013 32.3717 32.9598 35.187 32.7404 39.1133C32.7165 39.4874 32.656 39.8628 32.5534 40.2256C34.598 40.6995 36.332 42.0791 37.2207 44.0366L38.1137 46.0095C38.3443 45.9533 38.5805 45.9013 38.8196 45.8535V43.4305C38.8196 41.2578 39.9432 39.2722 41.7221 38.1205C38.956 35.0591 40.877 30.1485 44.9593 29.7533V8.51049C44.9593 7.57393 44.657 6.79627 44.162 6.19018H44.1577C43.7077 5.65158 43.0932 5.31689 42.4323 5.31689H17.723L17.093 11.8067C16.8259 14.5728 14.2426 16.4713 11.6874 16.0635L5.4057 15.0594V56.3652C5.4057 57.3017 5.70805 58.0794 6.20305 58.6855H6.20727C6.65727 59.2241 7.2718 59.5588 7.92992 59.5588H24.6587V59.5574ZM26.7273 56.4369L26.588 60.4953L29.1952 64.3822V60.7063L26.7273 56.4369ZM26.0973 35.8044C23.8852 36.8127 23.4859 39.7742 25.3154 41.3366C25.6782 41.6474 26.1043 41.8752 26.5585 42.006C27.9254 42.3491 29.5805 41.6825 30.3301 40.4872C30.8729 39.6181 30.9207 38.4102 30.482 37.4497C29.7254 35.7805 27.7609 35.0464 26.0973 35.8044ZM31.6154 42.0467C30.4116 43.4938 28.5498 44.2391 26.6809 44.0113C25.4926 45.4217 25.1382 47.4313 25.9637 49.1342L26.8721 51.0003C29.7577 48.9838 32.9077 47.4889 36.1843 46.5158L35.4263 44.8452C34.7246 43.2941 33.2649 42.2577 31.6154 42.0467ZM43.5137 39.3917C41.8866 40.0499 40.7827 41.6319 40.7827 43.4291V45.5019C43.8765 45.0519 47.0138 45.0435 50.1062 45.4695V43.4291C50.1062 42.4644 49.7912 41.5714 49.261 40.8542C48.7829 40.2045 48.1332 39.6941 47.3795 39.3917C47.3359 39.3917 45.5949 40.2566 43.5137 39.3917ZM47.6073 32.5911C45.6863 30.6744 42.3929 32.037 42.3929 34.7511C42.3929 37.4652 45.6849 38.8292 47.6073 36.9111C48.7998 35.72 48.7998 33.7836 47.6073 32.5911ZM61.9257 64.3808L64.5287 60.4939L64.3895 56.4355L61.9257 60.7049V64.3808ZM31.1598 65.517C39.6577 59.0553 51.4618 59.0553 59.9555 65.517V60.8131C58.1738 58.7966 56.0138 57.1977 53.6218 56.0938C48.5115 53.7256 42.6038 53.7256 37.4977 56.0938C35.1057 57.1977 32.9415 58.7966 31.1598 60.8131V65.517ZM30.3554 58.7966C38.6663 50.2058 52.4504 50.2058 60.7627 58.7966L63.976 53.232C53.162 45.0927 37.9618 45.0927 27.1435 53.232L30.3554 58.7966ZM9.75383 45.9364H18.5162C19.0576 45.9364 19.5005 46.3794 19.5005 46.9208V55.6831C19.5005 56.2288 19.0576 56.6675 18.5162 56.6675H9.75383C9.21242 56.6675 8.76945 56.2288 8.76945 55.6831V46.9208C8.76945 46.3794 9.21242 45.9364 9.75383 45.9364ZM17.5318 47.9066H10.7396V54.6988H17.5318V47.9066ZM9.75383 16.8538H18.5162C19.0576 16.8538 19.5005 17.2967 19.5005 17.8381V26.6005C19.5005 27.1433 19.0576 27.5849 18.5162 27.5849H9.75383C9.21242 27.5849 8.76945 27.1419 8.76945 26.6005V17.8381C8.76945 17.2953 9.21242 16.8538 9.75383 16.8538ZM17.5318 18.8225H10.7396V25.6147H17.5318V18.8225ZM9.75383 31.5266H18.5162C19.0576 31.5266 19.5005 31.9695 19.5005 32.511V41.2733C19.5005 41.8189 19.0576 42.2577 18.5162 42.2577H9.75383C9.21242 42.2577 8.76945 41.8189 8.76945 41.2733V32.511C8.76945 31.9695 9.21242 31.5266 9.75383 31.5266ZM17.5318 33.4953H10.7396V40.2875H17.5318V33.4953ZM23.4352 22.5224C22.8938 22.5224 22.4509 22.0794 22.4509 21.538C22.4509 20.9924 22.8938 20.5536 23.4352 20.5536H29.7493C30.2949 20.5536 30.7337 20.9924 30.7337 21.538C30.7337 22.0808 30.2949 22.5224 29.7493 22.5224H23.4352ZM23.4352 26.9703C22.8938 26.9703 22.4509 26.5274 22.4509 25.986C22.4509 25.4403 22.8938 25.0016 23.4352 25.0016H35.4812C36.0268 25.0016 36.4655 25.4403 36.4655 25.986C36.4655 26.5274 36.0268 26.9703 35.4812 26.9703H23.4352ZM6.82039 13.2974L11.994 14.1228C13.4495 14.3577 14.9795 13.2425 15.1398 11.6239L15.6376 6.49814L6.82039 13.2974Z" fill="#0B3D34"/>
</svg>
