<svg width="265" height="326" viewBox="0 0 265 326" fill="none" xmlns="http://www.w3.org/2000/svg">
<path d="M99.7142 -12.4892C95.3059 -11.0531 92.9649 -7.37073 92.9649 -1.95769C92.9649 3.05029 94.2418 7.21134 98.3765 15.7175C101.113 21.3147 101.113 21.2779 99.1062 26.3227C96.9476 31.7726 92.5697 36.1914 87.2189 38.3271C84.9083 39.2845 83.4794 39.5423 83.6922 38.9899C83.753 38.8426 84.3003 37.517 84.9083 36.0441C88.2526 27.9429 86.398 21.4988 80.3784 20.3205L79.1319 20.0995L75.3924 24.1501L71.6833 28.2007L70.5584 27.0223C69.9504 26.3595 68.2782 24.5552 66.8493 22.9718C65.4204 21.4252 63.9915 20.1364 63.6571 20.1364C62.4714 20.1364 59.9176 21.2779 59.0055 22.2353C57.0294 24.2238 56.3605 27.3537 57.0294 31.257C57.5766 34.4607 58.2455 36.3018 60.252 39.9842L61.8937 43.0037L74.3587 42.8564C85.0299 42.7459 87.1277 42.6355 88.9214 42.0463C97.6165 39.3582 103.393 32.9877 106.433 22.7876L107.132 20.5046H115.28H123.398L123.945 22.4194C126.286 31.1097 131.485 37.7379 138.295 40.7575C142.825 42.7459 144.618 42.9669 157.175 42.9669H168.636L170.278 39.9473C174.899 31.4411 174.899 24.1133 170.248 21.3515C169.518 20.9096 168.302 20.4678 167.542 20.3573L166.174 20.1364L162.556 24.1501L158.908 28.2007L157.844 27.1328C157.235 26.5436 155.594 24.7393 154.165 23.1191L151.581 20.1364L150.213 20.3573C144.71 21.2042 142.673 26.2859 144.771 33.8715C145.105 35.0498 145.713 36.6701 146.108 37.4802C146.534 38.2535 146.868 38.9899 146.868 39.1004C146.868 39.9842 141.669 37.9221 138.812 35.8968C134.586 32.8773 130.573 26.5068 129.995 21.9039C129.813 20.4309 129.934 20.0259 131.819 16.2699C136.015 7.83733 137.535 3.05029 137.535 -1.95769C137.565 -8.40179 134.16 -12.4524 128.353 -12.8942L126.043 -13.0784L122.698 -8.18085C120.874 -5.49274 119.202 -3.13604 119.05 -2.9151C118.868 -2.69416 117.986 -1.47899 117.104 -0.22699C116.192 1.06183 115.341 2.09288 115.219 2.09288C114.976 2.09288 105.278 -11.495 104.822 -12.4892C104.518 -13.152 101.69 -13.152 99.7142 -12.4892Z" fill="#0B3D34" fill-opacity="0.07"/>
<path d="M69.0688 1.69044C67.7007 3.71573 66.6062 5.44643 66.6062 5.59372C66.6062 5.74102 67.6703 7.36125 68.9472 9.20242C70.2241 11.0804 71.349 12.7006 71.4706 12.8479C71.653 13.1425 76.639 6.10925 76.639 5.59372C76.639 5.29914 72.1395 -1.51319 71.7746 -1.77096C71.6226 -1.88143 70.4369 -0.29802 69.0688 1.69044Z" fill="#0B3D34" fill-opacity="0.07"/>
<path d="M156.377 1.54046C155.069 3.4921 154.005 5.29644 154.005 5.55421C154.005 6.1802 158.474 12.7716 158.87 12.7348C159.174 12.7348 163.886 6.06973 163.886 5.62785C163.886 5.37009 159.022 -1.95777 158.839 -1.95777C158.778 -1.95777 157.684 -0.374361 156.377 1.54046Z" fill="#0B3D34" fill-opacity="0.07"/>
<path d="M39.5434 5.10505C38.6617 5.62057 36.4727 7.97727 33.4021 11.7333C27.656 18.7665 27.3216 18.9506 20.7243 20.2763C14.0054 21.6388 12.4549 22.7435 12.4245 26.0944C12.3941 28.1933 13.0021 29.5558 15.4343 32.7594C16.62 34.306 17.8361 36.3681 18.3529 37.7674C19.1738 39.8295 19.265 40.4923 19.265 43.2909C19.2346 45.353 19.0218 47.2678 18.6265 48.704L18.0489 50.9502L20.9675 49.1458C26.592 45.6476 28.9633 46.8996 28.5377 53.0859C28.4465 54.1907 28.4769 55.1112 28.5681 55.1112C29.1458 55.1112 30.8483 53.4542 31.6084 52.1285C32.7636 50.2137 33.0069 48.6303 32.5508 46.3104C32.0948 43.9169 30.8787 41.7443 27.7777 37.7306C24.6766 33.7168 23.7341 31.8388 23.5213 29.1876C23.0653 23.9218 25.8015 19.9817 31.1827 18.0669C33.2805 17.3304 37.8104 17.1463 38.3273 17.7723C38.6009 18.1037 38.6009 18.5824 38.3577 19.6135C38.1753 20.4236 38.0232 22.3016 38.0232 23.8482C38.0232 30.4396 40.8507 36.2208 45.7758 39.6822C47.752 41.0815 51.4611 42.5176 53.9541 42.8122L55.9606 43.07V41.7075C55.9606 40.4555 55.8998 40.3819 54.9574 40.3819C53.5892 40.3819 50.7314 39.4613 49.2113 38.5039C46.1103 36.5891 43.5869 32.3912 42.918 28.046C42.2492 23.7745 43.6173 18.5456 46.3535 14.7528L47.6912 12.9116L46.9919 10.7758C45.0158 4.92093 42.766 3.19023 39.5434 5.10505Z" fill="#0B3D34" fill-opacity="0.07"/>
<path d="M186.79 5.0314C185.605 5.87834 184.48 7.90363 183.507 10.7758L182.808 12.9116L184.115 14.7528C187.763 19.7608 188.736 26.389 186.608 31.8757C185.817 33.9378 183.02 37.436 181.287 38.5039C179.767 39.4613 176.91 40.3819 175.541 40.3819C174.599 40.3819 174.538 40.4555 174.538 41.7075V43.07L176.514 42.8122C181.044 42.2599 185.361 39.9032 188.128 36.4786C190.135 33.9746 191.199 31.8388 191.989 28.6352C192.536 26.3522 192.628 21.7124 192.141 19.6135C191.685 17.625 192.02 17.3672 194.999 17.4041C202.387 17.5145 207.433 22.3384 206.977 28.8561C206.795 31.7652 206.065 33.3118 202.812 37.6201C199.59 41.8916 198.343 44.101 197.918 46.5314C197.462 48.9617 197.857 50.8765 199.225 52.7545C199.985 53.7856 201.505 55.1112 201.961 55.1112C202.022 55.1112 202.052 53.6751 202.052 51.9444C202.052 49.0722 202.113 48.7408 202.782 48.078C204.302 46.605 208.194 47.5993 211.325 50.3242C211.811 50.7293 212.237 51.0607 212.328 51.0607C212.419 51.0607 212.207 50.0296 211.872 48.7408C211.507 47.3047 211.264 45.3162 211.234 43.3277C211.203 40.5292 211.295 39.94 212.146 37.8042C212.663 36.4418 213.94 34.2692 215.095 32.7226C217.497 29.519 218.074 28.267 218.074 26.2049C218.074 22.8171 216.402 21.6019 209.866 20.3131C202.782 18.877 203.177 19.1716 196.732 11.2914C191.077 4.4054 189.222 3.22705 186.79 5.0314Z" fill="#0B3D34" fill-opacity="0.07"/>
<path d="M-15.3006 23.8905C-17.3376 26.6522 -19.4657 31.4393 -20.4082 35.453C-20.9859 37.9202 -21.1075 39.209 -21.1075 44.0697C-21.1075 49.1513 -21.0163 50.1824 -20.2562 53.4228C-18.4929 61.1926 -15.4222 67.3053 -10.1626 73.7125C-4.02135 81.2245 5.55539 89.5466 18.0812 98.3842L21.6686 100.925L21.4862 103.134C21.395 104.313 21.3038 105.602 21.3038 105.97C21.3038 106.559 21.1822 106.559 19.4189 106.08C18.3548 105.786 15.7402 104.865 13.5512 104.055C-1.80198 98.2001 -15.9999 87.6318 -27.7352 73.3075C-31.9003 68.2258 -31.6571 68.2258 -32.9948 73.3443C-36.0958 85.091 -31.8091 99.3784 -23.0532 106.485C-15.9695 112.23 -1.40675 117.09 17.8683 120.147C22.3071 120.846 21.9727 120.515 22.3679 124.013L22.5807 125.707L20.939 125.965C17.2907 126.48 6.43705 126.628 2.45435 126.223C-8.00406 125.155 -18.3409 122.062 -27.5528 117.348C-29.5289 116.317 -31.2315 115.507 -31.3531 115.507C-31.5051 115.507 -31.5963 117.127 -31.5963 119.116C-31.5963 128.874 -27.6744 136.644 -20.6514 140.915C-16.5167 143.419 -12.8076 144.303 -6.45354 144.266C0.812618 144.266 9.29487 142.977 20.6349 140.179L26.229 138.816L26.9586 140.842C27.3539 141.946 27.5971 143.014 27.4755 143.198C27.1411 143.898 21.1822 147.102 17.4427 148.611C8.59562 152.146 -0.920315 153.803 -12.5036 153.803H-18.5233V155.645C-18.5233 157.928 -17.5504 161.5 -16.3951 163.598C-14.4494 166.949 -11.1051 169.601 -7.12239 170.889C-4.23417 171.847 1.17745 172.031 4.73452 171.331C11.8487 169.895 22.9151 164.114 30.7285 157.707L34.5288 154.577L35.8665 156.234C37.1434 157.817 37.1738 157.928 36.7786 158.848C36.1401 160.248 32.8871 164.777 30.9109 166.949C27.3843 170.853 19.9053 176.155 14.4633 178.586C10.1461 180.537 4.97774 182.157 3.06239 182.157C2.57595 182.157 2.15032 182.378 2.05912 182.599C1.8767 183.262 3.42722 185.913 4.94734 187.497C11.0582 193.867 20.939 193.536 29.5124 186.65C34.0728 182.968 40.1228 175.345 43.9231 168.385C45.2608 165.992 45.8385 165.219 46.2033 165.403C48.7875 166.544 49.274 166.913 49.274 167.723C49.274 169.159 47.8146 174.019 46.2945 177.518C42.8591 185.582 36.4138 193.794 28.6612 199.98L26.4418 201.748L27.2931 202.852C27.7491 203.441 29.1476 204.509 30.3637 205.246C32.3094 206.424 32.8871 206.608 35.5321 206.755C38.9676 206.94 41.2781 206.35 44.3792 204.509C46.933 202.999 50.5509 198.728 52.2838 195.193C54.716 190.148 57.2698 181.311 58.5467 173.32C59.2763 168.717 59.1851 168.901 60.462 168.901C62.2254 168.901 66.8465 170.19 69.0051 171.258C73.4438 173.43 77.2745 177.518 79.0987 181.973C79.6459 183.299 80.2235 184.33 80.406 184.256C80.8012 184.109 81.0444 149.79 80.6796 149.348C80.5276 149.201 79.1595 149.495 77.5785 149.974C71.6805 151.815 64.8096 151.925 60.1276 150.232C55.4456 148.575 50.6117 143.787 48.5443 138.779C46.9026 134.803 46.4161 132.188 46.629 128.027C46.8722 122.614 48.6051 117.864 51.6757 114.218C52.8614 112.856 53.1959 111.751 52.679 110.867C52.5574 110.646 51.4629 109.689 50.2164 108.732C41.947 102.324 30.7285 90.2462 21.5774 77.9104C10.6934 63.3283 -2.13641 42.6336 -11.4699 24.6269C-12.3212 22.9699 -13.1725 21.6074 -13.3245 21.6074C-13.4765 21.6074 -14.3886 22.6385 -15.3006 23.8905Z" fill="#0B3D34" fill-opacity="0.07"/>
<path d="M242.119 24.2559C230.718 45.8344 218.314 65.7927 207.552 79.7856C205.332 82.6579 197.762 91.8269 195.664 94.1836C191.195 99.1179 184.051 105.857 179.855 109.06C178.852 109.834 177.94 110.644 177.818 110.865C177.301 111.785 177.666 112.743 179.247 114.842C183.2 119.997 184.78 127.214 183.504 133.879C182.075 141.17 177.089 147.504 170.735 150.045C166.144 151.923 159.06 151.886 152.919 149.971C151.338 149.492 149.97 149.198 149.818 149.345C149.483 149.75 149.696 184.106 150.061 184.254C150.243 184.29 150.821 183.259 151.399 181.934C153.344 177.404 157.479 173.022 161.705 171.108C163.772 170.15 168.454 168.898 170.035 168.898C170.978 168.898 171.221 169.046 171.343 169.708C171.434 170.187 171.768 172.212 172.133 174.238C175.386 193.202 181.071 203.475 189.888 206.274C194.6 207.747 200.59 206.2 203.204 202.849L204.086 201.745L202.292 200.345C196.911 196.184 191.256 189.924 187.729 184.254C185.176 180.166 182.47 173.759 181.558 169.708L180.95 167.02L181.619 166.726C181.983 166.542 182.835 166.137 183.504 165.805C184.659 165.216 184.75 165.216 185.115 165.842C190.952 175.821 194.874 181.197 199.313 185.211C202.019 187.641 206.244 190.256 209.042 191.176C211.899 192.097 216.247 192.281 218.709 191.581C222.692 190.44 226.432 187.384 227.982 184.07L228.681 182.56L227.982 182.376C227.587 182.302 226.067 181.934 224.547 181.602C215.274 179.503 204.755 173.022 198.309 165.437C196.637 163.485 193.384 158.661 193.384 158.146C193.384 158.035 193.992 157.225 194.722 156.341L196.06 154.721L200.103 157.962C210.562 166.394 222.814 171.844 231.235 171.844C241.055 171.844 248.291 165.511 248.929 156.452L249.112 153.801H243.062C228.317 153.801 215.943 150.928 205.91 145.147L202.475 143.159L203.387 140.986L204.299 138.814L209.984 140.213C220.959 142.938 229.715 144.227 236.89 144.263C239.535 144.263 242.545 144.079 243.609 143.858C252.882 141.907 259.479 135.168 261.486 125.594C262.185 122.39 262.337 115.504 261.759 115.504C261.577 115.504 260.239 116.13 258.78 116.94C247.47 123.09 233.637 126.551 220.351 126.551C216.064 126.551 208.312 125.962 208.008 125.594C207.947 125.52 208.069 124.416 208.281 123.09L208.646 120.733L210.349 120.475C228.864 117.861 244.43 113.037 252.182 107.55C261.85 100.701 266.776 85.7878 263.492 73.3415C262.154 68.2599 262.367 68.2599 258.385 73.1206C249.081 84.499 237.772 93.8522 225.368 100.37C222.449 101.916 214.848 104.973 211.747 105.857L209.254 106.556L209.042 103.831C208.92 102.322 208.889 101.033 208.95 100.959C209.011 100.849 211.656 98.9338 214.848 96.6139C226.28 88.3287 234.731 80.8535 240.508 73.8939C245.92 67.3393 248.96 61.3003 250.754 53.4201C251.514 50.1428 251.574 49.1854 251.574 44.0669C251.574 37.5492 251.058 34.5665 249.173 30.0004C247.744 26.5758 244.551 21.6046 243.791 21.6046C243.639 21.6046 242.91 22.8198 242.119 24.2559Z" fill="#0B3D34" fill-opacity="0.07"/>
<path d="M104.604 49.2608C103.236 49.9236 98.4323 50.9915 94.8448 51.4334C92.899 51.6543 84.4168 51.9857 75.9953 52.1698C59.9125 52.5381 57.4803 52.759 53.4368 54.4161C49.8189 55.889 47.4171 58.2457 46.1706 61.5598C44.9241 64.9107 45.441 71.0971 47.3259 74.6689C48.0556 76.105 48.6636 76.5101 48.6636 75.6263C48.6636 74.7426 50.7006 72.2386 52.1903 71.2444C54.3489 69.8451 56.9331 69.3295 60.7638 69.5873C64.7161 69.8451 67.6347 70.7656 71.3134 72.9751C80.6773 78.609 88.3083 90.3189 91.4397 103.907C92.2302 107.294 92.291 108.105 92.291 114.033C92.291 120.146 92.2606 120.625 91.4397 123.423C90.2844 127.4 88.6123 130.714 86.3929 133.439C85.3593 134.654 84.5384 135.796 84.5384 135.906C84.5384 136.017 98.4323 136.127 115.397 136.127C132.361 136.127 146.255 136.017 146.255 135.833C146.255 135.685 145.465 134.654 144.492 133.476C141.664 130.125 139.688 125.522 138.746 120.183C138.077 116.279 138.351 108.694 139.354 104.091C141.695 93.4489 147.228 83.3961 154.312 76.8783C156.896 74.5216 162.338 71.2444 165.257 70.3238C168.236 69.4032 174.925 69.4032 177.174 70.3238C178.998 71.0971 181.309 73.4169 182.1 75.2949L182.647 76.5837L183.407 74.9635C185.413 70.7288 185.961 64.7634 184.653 61.3389C182.799 56.4413 177.843 53.5691 169.391 52.5381C167.658 52.354 162.399 52.1698 157.686 52.1698C140.114 52.133 130.081 51.1388 125.43 49.003C125.065 48.8189 124.974 49.0767 124.974 50.1814C124.974 51.9121 126.311 55.4471 127.953 58.1352C129.534 60.7129 133.091 64.7634 134.915 66.0154C135.706 66.5678 136.435 67.0833 136.496 67.157C136.587 67.2306 135.614 68.5562 134.368 70.1396C130.142 75.4422 127.132 80.7816 123.909 88.8091C119.957 98.6041 117.434 108.546 116.066 119.925L115.366 125.633L115.154 123.239C113.36 102.839 106.367 82.7701 96.8209 70.5815L94.2672 67.3779L96.2433 65.8313C100.348 62.5909 104.391 56.6623 105.577 52.0594C106.428 48.7453 106.306 48.4507 104.604 49.2608Z" fill="#0B3D34" fill-opacity="0.07"/>
<path d="M64.2399 74.7782C62.8718 76.2143 61.2605 79.3443 60.6829 81.7747C60.1356 84.0945 60.2268 84.6469 61.0781 83.7263C62.2334 82.4743 65.608 80.8909 68.101 80.449C70.0164 80.1176 71.1413 80.1176 72.9046 80.449C74.1815 80.7068 75.276 80.8173 75.3368 80.7436C75.6104 80.4122 71.4453 76.9876 69.1955 75.6988C65.7905 73.7103 65.3648 73.6367 64.2399 74.7782Z" fill="#0B3D34" fill-opacity="0.07"/>
<path d="M162.613 74.9664C160.394 76.1079 156.746 78.9065 155.834 80.1953L155.226 81.0054L155.986 80.7845C160.272 79.4589 166.262 80.7477 169.636 83.7304L170.366 84.3932L170.184 82.8098C170.092 81.926 169.667 80.3426 169.241 79.2747C168.359 77.1022 165.927 73.8985 165.167 73.8985C164.863 73.8985 163.738 74.3772 162.613 74.9664Z" fill="#0B3D34" fill-opacity="0.07"/>
<path d="M100.563 139.647C100.168 140.125 100.35 140.972 102.357 147.785C103.451 151.504 104.333 154.597 104.272 154.671C104.212 154.707 103.269 155.149 102.175 155.628C98.4351 157.211 95.7901 159.789 95.334 162.219C95.03 163.913 96.1549 166.454 97.8878 167.964C99.7424 169.621 103.087 171.094 105.549 171.352L107.556 171.573L107.89 173.082C108.255 174.813 108.164 174.96 106.37 175.292C105.701 175.439 104.576 175.844 103.907 176.249L102.661 176.986L101.597 176.139C100.107 174.96 98.6783 174.408 97.0974 174.408C93.5099 174.408 92.2938 177.98 94.3916 182.251C94.9692 183.43 95.5469 184.719 95.6685 185.197C95.9725 186.302 95.8813 188.254 95.486 189.137C95.2124 189.763 95.2428 189.874 95.9117 189.874C97.4622 189.874 99.4384 186.523 99.4384 183.945C99.4384 183.061 100.077 181.404 100.411 181.404C100.533 181.404 100.654 182.067 100.654 182.914C100.654 183.724 100.867 185.418 101.141 186.67L101.658 188.953L100.107 192.82C98.2223 197.57 97.067 202.21 96.7933 206.297C96.6109 209.353 96.6109 209.39 95.7901 209.39C94.8172 209.39 94.574 208.875 94.574 206.592C94.574 205.45 94.4524 204.971 94.1483 204.971C93.4491 204.971 92.6282 207.586 92.5066 210.311C92.3546 213.588 93.0539 214.987 95.486 216.497C96.8846 217.381 97.4622 217.528 99.1343 217.418C100.898 217.344 101.262 217.455 102.175 218.301C105.336 221.211 109.806 222.72 115.4 222.72C119.869 222.683 125.828 221.321 126.101 220.216C126.132 220.032 120.72 201.805 114.092 179.747C103.786 145.538 101.931 139.61 101.384 139.499C101.05 139.426 100.685 139.499 100.563 139.647ZM107.161 194.624C106.917 196.907 107.495 201.068 108.285 202.725C108.62 203.388 108.833 204.051 108.741 204.124C108.65 204.235 107.556 204.456 106.279 204.64C103.786 204.971 100.442 206.002 100.168 206.481C100.077 206.665 99.864 206.813 99.6816 206.813C99.1951 206.813 99.6816 204.235 100.563 202.394C101.84 199.742 106.492 192.967 107.13 192.856C107.252 192.856 107.282 193.63 107.161 194.624Z" fill="#0B3D34" fill-opacity="0.07"/>
<path d="M114.907 147.723C113.873 148.386 113.326 150.043 113.478 151.958L113.6 153.431H112.171C110.256 153.431 108.857 153.799 108.857 154.315C108.857 154.793 127.919 218.24 128.132 218.535C128.436 218.866 131.78 216.178 133.635 214.116C137.861 209.366 139.138 202.332 135.946 201.485C134.669 201.154 132.054 202.148 130.473 203.511C129.744 204.173 129.135 204.615 129.075 204.542C128.831 204.247 126.46 187.492 126.551 186.646C126.673 185.209 127.98 184.547 130.747 184.547C134.243 184.547 136.128 186.24 136.432 189.702C136.736 192.942 138.347 192.059 138.347 188.634C138.347 185.725 137.8 183.994 136.402 182.3C134.973 180.533 133.574 179.944 130.838 179.944H128.953L128.619 178.36C128.436 177.513 127.95 175.304 127.524 173.463C126.46 168.602 126.642 165.914 128.041 165.398C129.075 164.993 129.257 165.546 129.196 168.86C129.166 170.627 129.227 172.284 129.348 172.505C129.47 172.763 129.926 172.947 130.352 172.947C131.294 172.947 132.632 171.29 133.726 168.749C134.395 167.166 134.517 166.393 134.547 163.852C134.547 161.053 134.486 160.759 133.605 159.433C132.358 157.592 131.324 157.003 128.862 156.819C126.278 156.634 123.116 157.739 121.2 159.507C119.924 160.685 119.832 160.722 119.65 160.059C119.528 159.654 118.951 158.549 118.312 157.555C117.674 156.598 117.096 155.567 117.005 155.272C116.914 154.977 117.37 154.02 118.008 153.136C119.255 151.406 119.498 150.448 119.103 148.975C118.677 147.281 116.518 146.655 114.907 147.723Z" fill="#0B3D34" fill-opacity="0.07"/>
<path d="M-7.40354 186.867L-7.19073 190.586L-8.98447 189.702C-14.0921 187.161 -18.8044 187.714 -20.2333 191.065C-21.3582 193.716 -20.963 198.098 -19.1388 202.48L-18.2876 204.616H-21.2974C-23.608 204.616 -24.3072 204.726 -24.3072 205.094C-24.3072 206.273 -22.3615 210.176 -21.0846 211.612C-18.2268 214.779 -13.94 216.105 -10.6262 214.779L-9.07567 214.153L-8.43722 215.147C-7.09952 217.172 -4.48492 217.688 -2.14394 216.399L-0.806236 215.663L0.744284 217.393C1.59555 218.314 3.87572 220.928 5.79107 223.175C10.5642 228.735 19.6849 239.23 24.5797 244.79C27.1639 247.736 28.5624 249.54 28.4712 249.908C28.38 250.203 28.0152 251.455 27.6504 252.67C25.9782 258.341 28.38 264.454 33.3964 267.326C35.1901 268.357 35.7374 268.504 38.0176 268.467C39.9329 268.467 41.0274 268.246 42.2739 267.657C44.25 266.7 43.7636 266.405 48.4456 271.708C50.3609 273.917 52.3979 275.906 52.9755 276.2C55.1949 277.342 57.475 275.501 57.475 272.628C57.475 271.008 57.0494 270.456 51.0298 263.644L48.6888 260.992L49.9657 260.072C56.259 255.616 65.6533 252.449 74.3483 251.897C78.5743 251.602 79.2127 251.197 78.9695 249.025C78.8479 248.215 78.5743 246.594 78.3006 245.49C76.2637 236.689 81.6145 229.177 88.8199 230.723C93.7754 231.828 98.6702 236.689 102.319 244.201C104.082 247.809 106.21 253.554 105.997 254.18C105.936 254.401 105.389 254.732 104.842 254.88C100.738 255.947 92.4681 259.777 86.6309 263.386C76.5069 269.609 68.9975 277.342 65.9573 284.67C64.8324 287.358 64.7412 287.837 64.8628 289.751C65.0452 292.439 66.2309 295.017 68.3287 297.447C69.9096 299.252 72.8586 301.24 74.6524 301.682L75.5948 301.903L76.3853 298.368C77.5102 293.581 78.9391 289.935 81.7057 284.927C85.9012 277.268 93.3802 269.241 100.342 264.859C103.565 262.833 107.274 260.955 108.065 260.955C108.277 260.955 108.581 261.545 108.764 262.244L109.098 263.496L106.909 264.969C96.4204 271.929 87.9686 284.338 85.1108 296.932C83.9859 301.829 84.7459 305.033 87.8774 308.826C89.7319 311.072 94.1707 314.092 95.326 313.907C95.8732 313.797 95.9644 313.429 96.1468 310.667C96.4813 306.027 97.7885 298.552 99.1871 293.544C101.437 285.296 105.572 276.09 109.25 271.082L110.588 269.241L110.831 271.524C111.014 273.586 110.922 274.249 109.949 277.784C106.757 289.457 104.568 302.713 104.477 310.851C104.447 314.018 104.538 314.791 105.146 316.227C106.362 319.247 110.406 323.482 114.054 325.58C115.118 326.206 115.179 326.17 116.79 325.212C120.773 322.745 123.843 319.541 125.211 316.375C125.972 314.718 126.032 314.202 125.972 310.851C125.88 302.603 123.813 290.193 120.53 277.857C119.557 274.249 119.465 273.512 119.648 271.487L119.891 269.241L121.229 271.082C127.917 280.214 133.268 296.49 134.332 310.851C134.606 314.533 134.819 314.607 138.315 312.471C141.264 310.704 143.939 307.684 145.064 304.959C146.524 301.277 145.824 296.306 142.723 288.757C138.923 279.478 131.566 270.345 123.6 265.006L121.381 263.533L121.715 262.244C121.898 261.545 122.202 260.955 122.384 260.955C123.144 260.955 126.367 262.465 128.89 264.012C141.477 271.745 151.479 285.664 154.337 299.362L154.854 301.903L155.796 301.682C157.468 301.277 160.478 299.252 162.15 297.411C165.586 293.618 166.498 289.162 164.674 284.891C161.238 276.789 153.82 269.351 142.45 262.612C137.19 259.482 131.383 256.758 127.005 255.358C125.698 254.916 124.543 254.364 124.451 254.143C124.299 253.554 126.458 247.552 127.887 244.679C131.839 236.689 136.704 231.828 141.781 230.76C148.925 229.25 154.154 236.652 152.178 245.49C151.874 246.815 151.57 248.472 151.509 249.209C151.297 251.087 152.148 251.75 154.671 251.75C158.593 251.75 166.255 253.296 171.028 255.101C177.625 257.531 181.061 259.924 185.165 265.006C189.877 270.787 193.556 272.849 199.302 272.849C205.109 272.886 210.034 270.198 213.682 264.896C217.817 258.967 218.577 250.755 215.658 243.722C214.442 240.776 210.247 235.547 209.092 235.547C209 235.547 206.842 237.536 204.288 239.966C201.734 242.396 199.545 244.385 199.393 244.385C199.272 244.385 197.143 242.47 194.681 240.113C192.218 237.757 190.029 235.731 189.816 235.658C189.239 235.363 186.32 238.235 184.891 240.482C184.222 241.513 183.31 243.391 182.885 244.569C181.577 248.141 181.942 247.883 178.598 247.773C172.852 247.589 164.005 245.085 162.242 243.096L161.451 242.212L163.093 239.156C166.619 232.565 169.021 225.494 169.66 219.713C170.845 209.034 166.498 200.123 158.441 196.735C156.1 195.778 151.783 194.894 150.476 195.115L149.746 195.226L149.594 206.825C149.473 217.062 149.381 218.572 148.895 219.75C147.952 222.033 146.402 223.948 144.365 225.274L142.45 226.526L134.089 226.71C126.519 226.894 125.576 227.004 124.117 227.704C121.198 229.14 118.675 231.46 116.212 234.921L115.209 236.357L114.571 235.29C112.686 232.307 109.22 229.103 106.392 227.741C104.903 227.004 104.021 226.931 96.39 226.71L88.0294 226.526L86.3573 225.494C84.0771 224.058 82.8002 222.512 81.7665 219.897L80.8848 217.688V206.53C80.8848 196.625 80.824 195.373 80.3984 195.152C79.5776 194.784 74.3788 195.704 72.0378 196.699C69.4536 197.73 66.1397 200.344 64.5892 202.554C64.0115 203.364 63.0083 205.315 62.3698 206.862C58.904 215.221 60.6673 226.636 67.295 239.009L69.0279 242.212L68.2679 243.059C66.2917 245.269 55.5597 248.067 48.932 248.067C46.743 248.067 46.5302 247.994 45.2837 246.778C42.7299 244.311 39.264 243.28 36.0414 244.017L34.0957 244.459L32.8796 243.243C32.2411 242.544 26.7991 236.357 20.8098 229.435C14.7902 222.549 8.43608 215.258 6.64234 213.269L3.41969 209.66L3.87572 208.151C4.60538 205.683 3.69331 202.296 2.05158 201.412C1.32193 201.007 1.32193 201.007 1.77796 198.834C2.59883 194.821 1.32193 189.96 -1.44468 186.904C-2.72158 185.431 -5.06256 183.921 -6.76509 183.442L-7.58596 183.184L-7.40354 186.867Z" fill="#0B3D34" fill-opacity="0.07"/>
<path d="M196.137 222.136C194.435 224.309 193.067 226.224 193.067 226.408C193.067 226.592 193.857 227.623 194.83 228.691C195.773 229.759 197.171 231.342 197.931 232.152C198.691 232.999 199.36 233.699 199.451 233.662C199.542 233.662 201.032 232.042 202.765 230.053L205.957 226.445L202.765 222.321C201.032 220.074 199.512 218.233 199.39 218.233C199.299 218.233 197.81 220.001 196.137 222.136Z" fill="#0B3D34" fill-opacity="0.07"/>
</svg>
