<svg width="631" height="768" viewBox="0 0 631 768" fill="none" xmlns="http://www.w3.org/2000/svg">
<path d="M307.447 10.9754L300.056 21.9507L303.141 26.6989C304.812 29.3455 308.218 34.5607 310.66 38.297C313.038 42.1111 315.223 45.1469 315.48 45.1469C315.93 45.1469 317.601 42.656 323.192 33.8602C324.091 32.459 326.148 29.1898 327.819 26.5432L330.839 21.8729L323.449 10.8975C319.336 4.90388 315.801 0 315.48 0C315.158 0 311.56 4.90388 307.447 10.9754Z" fill="#0B3D34" fill-opacity="0.07"/>
<path d="M282.652 52.4825C273.334 55.5182 268.385 63.3021 268.385 74.7445C268.385 85.3307 271.084 94.1265 279.825 112.107C285.609 123.939 285.609 123.861 281.367 134.525C276.804 146.045 267.55 155.386 256.239 159.901C251.355 161.925 248.334 162.47 248.784 161.302C248.913 160.991 250.069 158.188 251.355 155.075C258.424 137.95 254.504 124.328 241.779 121.837L239.144 121.37L231.239 129.933L223.399 138.495L221.021 136.004C219.736 134.603 216.201 130.789 213.181 127.442C210.16 124.173 207.14 121.448 206.433 121.448C203.926 121.448 198.528 123.861 196.6 125.885C192.423 130.088 191.009 136.705 192.423 144.956C193.579 151.728 194.993 155.62 199.235 163.404L202.705 169.786L229.054 169.475C251.612 169.242 256.046 169.008 259.838 167.763C278.218 162.08 290.429 148.614 296.855 127.053L298.333 122.227H315.557H332.716L333.872 126.274C338.821 144.644 349.81 158.655 364.206 165.038C373.782 169.242 377.573 169.709 404.115 169.709H428.344L431.814 163.326C441.583 145.345 441.583 129.855 431.75 124.017C430.208 123.083 427.637 122.149 426.03 121.915L423.138 121.448L415.491 129.933L407.779 138.495L405.529 136.238C404.244 134.992 400.774 131.178 397.753 127.753L392.29 121.448L389.398 121.915C377.766 123.706 373.46 134.447 377.895 150.482C378.602 152.973 379.887 156.398 380.723 158.111C381.622 159.745 382.329 161.302 382.329 161.535C382.329 163.404 371.34 159.045 365.299 154.763C356.366 148.381 347.883 134.914 346.661 125.184C346.276 122.071 346.533 121.215 350.517 113.275C359.386 95.4498 362.599 85.3307 362.599 74.7445C362.664 61.1226 355.466 52.5603 343.191 51.6262L338.307 51.237L331.238 61.5897C327.382 67.2719 323.847 72.2537 323.526 72.7207C323.14 73.1877 321.276 75.7564 319.413 78.403C317.485 81.1274 315.685 83.3069 315.428 83.3069C314.914 83.3069 294.413 54.5841 293.449 52.4825C292.806 51.0813 286.83 51.0813 282.652 52.4825Z" fill="#0B3D34" fill-opacity="0.07"/>
<path d="M217.872 82.4561C214.98 86.7373 212.667 90.3958 212.667 90.7071C212.667 91.0185 214.916 94.4434 217.615 98.3354C220.314 102.305 222.692 105.73 222.949 106.041C223.335 106.664 233.875 91.7969 233.875 90.7071C233.875 90.0844 224.363 75.6841 223.592 75.1392C223.271 74.9057 220.764 78.2528 217.872 82.4561Z" fill="#0B3D34" fill-opacity="0.07"/>
<path d="M402.429 82.1391C399.665 86.2646 397.416 90.0787 397.416 90.6236C397.416 91.9469 406.863 105.88 407.698 105.802C408.341 105.802 418.302 91.7134 418.302 90.7793C418.302 90.2344 408.02 74.7444 407.634 74.7444C407.506 74.7444 405.192 78.0915 402.429 82.1391Z" fill="#0B3D34" fill-opacity="0.07"/>
<path d="M155.46 89.6741C153.596 90.7638 148.969 95.7456 142.478 103.685C130.331 118.553 129.625 118.942 115.679 121.744C101.476 124.624 98.1984 126.959 98.1341 134.043C98.0698 138.479 99.3552 141.359 104.496 148.131C107.003 151.401 109.573 155.76 110.666 158.718C112.401 163.077 112.594 164.478 112.594 170.394C112.53 174.753 112.08 178.8 111.244 181.836L110.023 186.584L116.193 182.77C128.082 175.375 133.095 178.022 132.195 191.099C132.002 193.434 132.067 195.38 132.259 195.38C133.481 195.38 137.079 191.877 138.686 189.075C141.128 185.027 141.642 181.68 140.678 176.776C139.714 171.717 137.144 167.124 130.589 158.64C124.033 150.155 122.041 146.186 121.591 140.581C120.627 129.45 126.411 121.121 137.786 117.074C142.221 115.517 151.796 115.128 152.889 116.451C153.467 117.151 153.467 118.163 152.953 120.343C152.568 122.055 152.246 126.025 152.246 129.294C152.246 143.228 158.223 155.448 168.634 162.765C172.811 165.723 180.652 168.759 185.922 169.382L190.163 169.927V167.046C190.163 164.4 190.035 164.244 188.043 164.244C185.151 164.244 179.11 162.298 175.896 160.274C169.341 156.227 164.007 147.353 162.593 138.168C161.179 129.139 164.071 118.085 169.855 110.068L172.683 106.176L171.205 101.661C167.027 89.2849 162.272 85.6264 155.46 89.6741Z" fill="#0B3D34" fill-opacity="0.07"/>
<path d="M466.719 89.5184C464.212 91.3087 461.835 95.5899 459.778 101.661L458.3 106.176L461.063 110.068C468.775 120.654 470.832 134.665 466.333 146.263C464.662 150.622 458.75 158.017 455.087 160.274C451.873 162.298 445.832 164.244 442.94 164.244C440.948 164.244 440.82 164.4 440.82 167.046V169.927L444.997 169.382C454.573 168.214 463.698 163.232 469.547 155.993C473.788 150.7 476.037 146.186 477.708 139.413C478.865 134.587 479.058 124.78 478.03 120.343C477.066 116.139 477.773 115.595 484.071 115.672C499.687 115.906 510.356 126.103 509.392 139.881C509.006 146.03 507.464 149.299 500.587 158.406C493.775 167.436 491.14 172.106 490.24 177.243C489.276 182.381 490.112 186.428 493.004 190.398C494.61 192.578 497.824 195.38 498.788 195.38C498.916 195.38 498.981 192.344 498.981 188.686C498.981 182.614 499.109 181.914 500.523 180.513C503.736 177.399 511.962 179.501 518.582 185.261C519.61 186.117 520.51 186.818 520.702 186.818C520.895 186.818 520.445 184.638 519.738 181.914C518.967 178.878 518.453 174.675 518.389 170.471C518.325 164.556 518.517 163.31 520.317 158.795C521.409 155.915 524.109 151.323 526.551 148.054C531.628 141.282 532.849 138.635 532.849 134.276C532.849 127.115 529.314 124.546 515.497 121.822C500.523 118.786 501.358 119.409 487.734 102.751C475.78 88.1951 471.86 85.7043 466.719 89.5184Z" fill="#0B3D34" fill-opacity="0.07"/>
<path d="M39.5275 129.384C35.2217 135.222 30.723 145.341 28.7308 153.825C27.5097 159.041 27.2527 161.765 27.2527 172.04C27.2527 182.782 27.4455 184.961 29.0521 191.811C32.7796 208.235 39.2704 221.156 50.3885 234.7C63.3703 250.58 83.6141 268.171 110.092 286.853L117.675 292.224L117.29 296.894C117.097 299.385 116.904 302.109 116.904 302.888C116.904 304.133 116.647 304.133 112.92 303.121C110.67 302.499 105.143 300.553 100.516 298.84C68.0617 286.464 38.0494 264.124 13.2426 233.844C4.43815 223.102 4.95228 223.102 2.12457 233.922C-4.43059 258.753 4.63095 288.955 23.1396 303.978C38.1136 316.12 68.8972 326.395 109.642 332.856C119.025 334.335 118.318 333.634 119.153 341.029L119.603 344.61L116.133 345.155C108.421 346.244 85.4778 346.556 77.059 345.699C54.9514 343.442 33.1009 336.904 13.6282 326.94C9.45092 324.761 5.85201 323.048 5.59494 323.048C5.27361 323.048 5.08081 326.473 5.08081 330.676C5.08081 351.304 13.3712 367.728 28.2167 376.757C36.9569 382.05 44.7973 383.919 58.229 383.841C73.5886 383.841 91.5189 381.116 115.49 375.201L127.315 372.321L128.858 376.602C129.693 378.937 130.207 381.194 129.95 381.583C129.243 383.062 116.647 389.834 108.742 393.026C90.0407 400.498 69.9254 404.001 45.44 404.001H32.7153V407.893C32.7153 412.719 34.7718 420.27 37.2139 424.706C41.327 431.79 48.3962 437.394 56.8151 440.119C62.9204 442.143 74.3598 442.532 81.8789 441.053C96.9172 438.017 120.31 425.796 136.827 412.252L144.86 405.636L147.688 409.139C150.387 412.486 150.451 412.719 149.616 414.665C148.266 417.623 141.389 427.197 137.212 431.79C129.757 440.041 113.948 451.25 102.444 456.387C93.3183 460.513 82.3931 463.938 78.3443 463.938C77.316 463.938 76.4163 464.405 76.2235 464.872C75.8379 466.273 79.1155 471.877 82.3288 475.224C95.2463 488.69 116.133 487.99 134.256 473.434C143.896 465.65 156.685 449.537 164.718 434.826C167.546 429.766 168.767 428.131 169.538 428.521C175.001 430.934 176.029 431.712 176.029 433.424C176.029 436.46 172.944 446.735 169.731 454.13C162.469 471.177 148.844 488.535 132.456 501.612L127.765 505.348L129.564 507.683C130.528 508.929 133.485 511.186 136.055 512.743C140.168 515.234 141.389 515.623 146.981 515.934C154.243 516.323 159.127 515.078 165.682 511.186C171.08 507.995 178.728 498.965 182.391 491.493C187.533 480.829 192.931 462.147 195.63 445.256C197.173 435.526 196.98 435.915 199.679 435.915C203.406 435.915 213.175 438.64 217.738 440.897C227.121 445.49 235.218 454.13 239.074 463.548C240.231 466.351 241.452 468.53 241.838 468.374C242.673 468.063 243.187 395.517 242.416 394.583C242.095 394.271 239.203 394.894 235.861 395.906C223.393 399.798 208.869 400.031 198.972 396.451C189.075 392.948 178.857 382.829 174.487 372.243C171.016 363.836 169.988 358.309 170.438 349.514C170.952 338.071 174.615 328.03 181.106 320.324C183.612 317.444 184.319 315.109 183.227 313.24C182.97 312.773 180.656 310.75 178.021 308.726C160.541 295.182 136.827 269.65 117.482 243.574C94.4751 212.75 67.3548 169.004 47.625 130.941C45.8256 127.438 44.0261 124.558 43.7048 124.558C43.3835 124.558 41.4555 126.737 39.5275 129.384Z" fill="#0B3D34" fill-opacity="0.07"/>
<path d="M583.676 130.156C559.576 175.77 533.356 217.959 510.605 247.538C505.914 253.61 489.912 272.992 485.477 277.973C476.03 288.404 460.928 302.648 452.059 309.42C449.938 311.055 448.01 312.768 447.753 313.235C446.661 315.181 447.432 317.204 450.774 321.641C459.128 332.539 462.47 347.795 459.771 361.884C456.75 377.296 446.211 390.685 432.779 396.056C423.075 400.026 408.101 399.948 395.119 395.9C391.777 394.888 388.885 394.265 388.564 394.577C387.857 395.433 388.307 468.057 389.078 468.369C389.464 468.446 390.685 466.267 391.906 463.465C396.019 453.89 404.759 444.628 413.692 440.58C418.062 438.556 427.959 435.91 431.301 435.91C433.293 435.91 433.807 436.221 434.064 437.622C434.257 438.634 434.964 442.915 435.735 447.196C442.612 487.284 454.63 509.001 473.267 514.917C483.228 518.03 495.888 514.761 501.415 507.677L503.279 505.342L499.487 502.384C488.112 493.589 476.159 480.356 468.704 468.369C463.306 459.728 457.586 446.184 455.658 437.622L454.373 431.94L455.786 431.317C456.558 430.928 458.357 430.072 459.771 429.371C462.213 428.126 462.406 428.126 463.177 429.449C475.516 450.543 483.806 461.908 493.189 470.392C498.909 475.53 507.842 481.056 513.754 483.002C519.796 484.948 528.986 485.338 534.191 483.859C542.61 481.446 550.515 474.985 553.792 467.979L555.27 464.788L553.792 464.399C552.957 464.243 549.744 463.465 546.53 462.764C526.929 458.327 504.693 444.628 491.069 428.593C487.534 424.467 480.657 414.27 480.657 413.18C480.657 412.947 481.943 411.234 483.485 409.366L486.313 405.941L494.86 412.791C516.968 430.616 542.867 442.137 560.669 442.137C581.427 442.137 596.722 428.748 598.072 409.6L598.457 403.995H585.668C554.499 403.995 528.343 397.924 507.135 385.703L499.873 381.5L501.801 376.907L503.729 372.315L515.747 375.273C538.947 381.033 557.456 383.757 572.622 383.835C578.214 383.835 584.576 383.446 586.825 382.979C606.426 378.853 620.372 364.609 624.614 344.37C626.092 337.598 626.413 323.042 625.192 323.042C624.807 323.042 621.979 324.366 618.894 326.078C594.987 339.077 565.746 346.394 537.662 346.394C528.6 346.394 512.212 345.149 511.569 344.37C511.441 344.215 511.698 341.88 512.148 339.077L512.919 334.096L516.518 333.551C555.656 328.024 588.56 317.827 604.948 306.229C625.385 291.751 635.796 260.226 628.855 233.916C626.028 223.174 626.477 223.174 618.059 233.449C598.393 257.502 574.486 277.273 548.265 291.05C542.096 294.32 526.029 300.78 519.474 302.648L514.204 304.127L513.754 298.367C513.497 295.176 513.433 292.451 513.562 292.296C513.69 292.062 519.281 288.015 526.029 283.111C550.193 265.597 568.059 249.795 580.27 235.084C591.709 221.228 598.136 208.463 601.928 191.805C603.534 184.877 603.663 182.854 603.663 172.034C603.663 158.256 602.57 151.951 598.586 142.299C595.565 135.06 588.817 124.552 587.211 124.552C586.889 124.552 585.347 127.121 583.676 130.156Z" fill="#0B3D34" fill-opacity="0.07"/>
<path d="M292.989 183.013C290.097 184.414 279.943 186.672 272.359 187.606C268.246 188.073 250.316 188.773 232.514 189.162C198.518 189.941 193.376 190.408 184.829 193.911C177.181 197.024 172.104 202.006 169.469 209.011C166.834 216.095 167.927 229.172 171.911 236.722C173.454 239.758 174.739 240.614 174.739 238.746C174.739 236.878 179.045 231.585 182.194 229.483C186.757 226.525 192.219 225.436 200.317 225.98C208.672 226.525 214.841 228.471 222.617 233.142C242.411 245.051 258.542 269.804 265.162 298.527C266.833 305.688 266.961 307.4 266.961 319.933C266.961 332.854 266.897 333.866 265.162 339.782C262.719 348.188 259.185 355.194 254.493 360.954C252.308 363.523 250.573 365.936 250.573 366.169C250.573 366.403 279.943 366.636 315.803 366.636C351.664 366.636 381.034 366.403 381.034 366.014C381.034 365.702 379.363 363.523 377.306 361.032C371.329 353.948 367.152 344.219 365.16 332.932C363.746 324.681 364.324 308.646 366.445 298.916C371.394 276.42 383.09 255.17 398.064 241.393C403.527 236.411 415.03 229.483 421.2 227.537C427.498 225.591 441.637 225.591 446.392 227.537C450.248 229.172 455.133 234.076 456.803 238.046L457.96 240.77L459.567 237.345C463.808 228.393 464.965 215.783 462.202 208.544C458.282 198.192 447.806 192.12 429.94 189.941C426.277 189.552 415.159 189.162 405.198 189.162C368.052 189.085 346.844 186.983 337.011 182.468C336.24 182.079 336.047 182.624 336.047 184.959C336.047 188.618 338.875 196.09 342.345 201.772C345.687 207.221 353.206 215.783 357.062 218.43C358.733 219.598 360.276 220.687 360.404 220.843C360.597 220.999 358.54 223.801 355.905 227.148C346.972 238.357 340.61 249.644 333.798 266.613C325.443 287.318 320.109 308.335 317.217 332.387L315.739 344.452L315.289 339.392C311.498 296.269 296.716 253.847 276.537 228.082L271.138 221.31L275.316 218.041C283.992 211.191 292.539 198.659 295.045 188.929C296.845 181.923 296.588 181.301 292.989 183.013Z" fill="#0B3D34" fill-opacity="0.07"/>
<path d="M207.665 236.953C204.773 239.989 201.367 246.605 200.146 251.743C198.989 256.647 199.182 257.814 200.981 255.868C203.423 253.222 210.557 249.875 215.827 248.941C219.875 248.24 222.253 248.24 225.981 248.941C228.68 249.485 230.993 249.719 231.122 249.563C231.7 248.863 222.896 241.624 218.14 238.899C210.942 234.696 210.043 234.54 207.665 236.953Z" fill="#0B3D34" fill-opacity="0.07"/>
<path d="M415.613 237.351C410.921 239.764 403.209 245.68 401.281 248.404L399.996 250.117L401.603 249.65C410.664 246.847 423.324 249.572 430.458 255.877L432 257.278L431.615 253.931C431.422 252.063 430.522 248.716 429.623 246.458C427.759 241.866 422.618 235.094 421.011 235.094C420.368 235.094 417.99 236.106 415.613 237.351Z" fill="#0B3D34" fill-opacity="0.07"/>
<path d="M284.447 374.076C283.611 375.088 283.997 376.878 288.239 391.278C290.552 399.14 292.416 405.679 292.287 405.834C292.159 405.912 290.167 406.846 287.853 407.858C279.948 411.205 274.357 416.654 273.393 421.791C272.75 425.372 275.128 430.743 278.791 433.934C282.712 437.437 289.781 440.551 294.987 441.096L299.228 441.563L299.935 444.754C300.706 448.413 300.513 448.724 296.722 449.424C295.308 449.736 292.93 450.592 291.516 451.448L288.881 453.005L286.632 451.215C283.483 448.724 280.462 447.556 277.121 447.556C269.537 447.556 266.966 455.107 271.401 464.136C272.622 466.627 273.843 469.351 274.1 470.363C274.743 472.698 274.55 476.824 273.714 478.692C273.136 480.015 273.2 480.249 274.614 480.249C277.892 480.249 282.069 473.165 282.069 467.717C282.069 465.849 283.419 462.346 284.126 462.346C284.383 462.346 284.64 463.747 284.64 465.537C284.64 467.25 285.09 470.83 285.668 473.477L286.76 478.303L283.483 486.476C279.498 496.517 277.056 506.325 276.478 514.965C276.092 521.426 276.092 521.504 274.357 521.504C272.301 521.504 271.786 520.414 271.786 515.588C271.786 513.175 271.529 512.163 270.887 512.163C269.409 512.163 267.673 517.69 267.416 523.45C267.095 530.377 268.573 533.335 273.714 536.527C276.671 538.395 277.892 538.706 281.426 538.473C285.154 538.317 285.925 538.551 287.853 540.341C294.537 546.49 303.984 549.682 315.809 549.682C325.256 549.604 337.852 546.724 338.43 544.389C338.495 543.999 327.055 505.469 313.045 458.843C291.259 386.53 287.339 373.998 286.182 373.765C285.475 373.609 284.704 373.765 284.447 374.076ZM298.393 490.29C297.878 495.116 299.1 503.912 300.77 507.415C301.477 508.816 301.927 510.217 301.734 510.373C301.542 510.606 299.228 511.073 296.529 511.462C291.259 512.163 284.19 514.343 283.611 515.354C283.419 515.744 282.969 516.055 282.583 516.055C281.555 516.055 282.583 510.606 284.447 506.714C287.146 501.11 296.979 486.787 298.328 486.554C298.585 486.554 298.65 488.188 298.393 490.29Z" fill="#0B3D34" fill-opacity="0.07"/>
<path d="M314.768 391.148C312.583 392.55 311.426 396.052 311.748 400.1L312.005 403.214H308.984C304.935 403.214 301.979 403.992 301.979 405.082C301.979 406.094 342.274 540.211 342.724 540.834C343.367 541.534 350.436 535.852 354.356 531.493C363.289 521.452 365.988 506.584 359.24 504.794C356.541 504.093 351.014 506.195 347.673 509.075C346.13 510.476 344.845 511.41 344.716 511.255C344.202 510.632 339.189 475.215 339.382 473.425C339.639 470.389 342.403 468.988 348.251 468.988C355.642 468.988 359.626 472.568 360.269 479.885C360.911 486.735 364.317 484.867 364.317 477.628C364.317 471.479 363.161 467.82 360.204 464.24C357.184 460.503 354.228 459.258 348.444 459.258H344.459L343.752 455.911C343.367 454.12 342.338 449.45 341.439 445.558C339.189 435.283 339.575 429.601 342.531 428.511C344.716 427.655 345.102 428.823 344.973 435.828C344.909 439.565 345.038 443.067 345.295 443.534C345.552 444.079 346.516 444.468 347.415 444.468C349.408 444.468 352.235 440.966 354.549 435.595C355.963 432.248 356.22 430.613 356.284 425.242C356.284 419.326 356.156 418.704 354.292 415.901C351.657 412.009 349.472 410.764 344.266 410.375C338.804 409.986 332.12 412.321 328.071 416.057C325.372 418.548 325.179 418.626 324.794 417.225C324.537 416.368 323.316 414.033 321.966 411.932C320.616 409.908 319.395 407.728 319.203 407.105C319.01 406.483 319.974 404.459 321.323 402.591C323.958 398.932 324.472 396.909 323.637 393.795C322.737 390.214 318.174 388.891 314.768 391.148Z" fill="#0B3D34" fill-opacity="0.07"/>
<path d="M56.221 473.892L56.6709 481.754L52.8792 479.886C42.0825 474.515 32.1212 475.683 29.1007 482.766C26.7228 488.37 27.5583 497.633 31.4143 506.896L33.2137 511.411H26.8514C21.9671 511.411 20.489 511.644 20.489 512.423C20.489 514.914 24.6021 523.165 27.3012 526.2C33.3423 532.895 42.4038 535.697 49.4088 532.895L52.6864 531.571L54.036 533.673C56.8637 537.954 62.3906 539.044 67.3391 536.32L70.1668 534.763L73.4444 538.421C75.2438 540.367 80.0638 545.894 84.1126 550.642C94.2023 562.396 113.482 584.58 123.829 596.334C129.292 602.561 132.248 606.375 132.055 607.153C131.862 607.776 131.091 610.423 130.32 612.991C126.785 624.979 131.862 637.9 142.466 643.971C146.258 646.151 147.415 646.462 152.235 646.384C156.284 646.384 158.597 645.917 161.232 644.672C165.409 642.648 164.381 642.025 174.278 653.234C178.327 657.905 182.633 662.108 183.854 662.731C188.545 665.144 193.365 661.252 193.365 655.18C193.365 651.755 192.465 650.588 179.741 636.187L174.792 630.583L177.491 628.637C190.794 619.218 210.653 612.524 229.033 611.357C237.966 610.734 239.315 609.878 238.801 605.285C238.544 603.573 237.966 600.148 237.387 597.813C233.082 579.209 244.392 563.33 259.624 566.599C270.099 568.934 280.446 579.209 288.158 595.088C291.885 602.717 296.384 614.859 295.934 616.183C295.805 616.65 294.649 617.35 293.492 617.662C284.816 619.919 267.336 628.014 254.996 635.643C233.596 648.797 217.722 665.144 211.295 680.634C208.918 686.316 208.725 687.328 208.982 691.376C209.367 697.058 211.874 702.507 216.308 707.644C219.65 711.458 225.884 715.662 229.676 716.596L231.668 717.063L233.339 709.59C235.717 699.471 238.737 691.765 244.585 681.179C253.454 664.988 269.263 648.019 283.98 638.756C290.793 634.475 298.633 630.505 300.304 630.505C300.754 630.505 301.397 631.751 301.782 633.23L302.489 635.876L297.862 638.99C275.69 653.701 257.824 679.933 251.783 706.554C249.405 716.907 251.012 723.679 257.631 731.696C261.552 736.445 270.934 742.827 273.377 742.438C274.533 742.205 274.726 741.426 275.112 735.588C275.819 725.781 278.582 709.979 281.538 699.393C286.294 681.957 295.034 662.497 302.81 651.911L305.638 648.019L306.152 652.845C306.538 657.204 306.345 658.605 304.289 666.078C297.541 690.753 292.913 718.775 292.721 735.978C292.656 742.672 292.849 744.306 294.135 747.342C296.705 753.725 305.253 762.677 312.965 767.113C315.214 768.437 315.342 768.359 318.748 766.335C327.167 761.12 333.658 754.348 336.55 747.654C338.157 744.151 338.285 743.061 338.157 735.978C337.964 718.542 333.594 692.31 326.653 666.234C324.597 658.605 324.404 657.048 324.789 652.767L325.304 648.019L328.131 651.911C342.27 671.215 353.581 705.62 355.83 735.978C356.408 743.762 356.858 743.917 364.249 739.403C370.483 735.666 376.138 729.283 378.516 723.523C381.601 715.739 380.123 705.231 373.568 689.274C365.534 669.658 349.982 650.354 333.144 639.068L328.453 635.954L329.16 633.23C329.545 631.751 330.188 630.505 330.573 630.505C332.18 630.505 338.992 633.697 344.326 636.966C370.933 653.312 392.076 682.735 398.117 711.692L399.21 717.063L401.202 716.596C404.737 715.739 411.099 711.458 414.634 707.566C421.896 699.549 423.824 690.13 419.968 681.101C412.706 663.976 397.025 648.253 372.989 634.008C361.871 627.392 349.596 621.632 340.342 618.674C337.578 617.74 335.136 616.572 334.944 616.105C334.622 614.859 339.185 602.172 342.206 596.1C350.56 579.209 360.843 568.934 371.575 566.677C386.678 563.485 397.732 579.131 393.554 597.813C392.912 600.615 392.269 604.118 392.14 605.674C391.691 609.644 393.49 611.045 398.824 611.045C407.115 611.045 423.31 614.315 433.399 618.129C447.345 623.266 454.607 628.326 463.283 639.068C473.244 651.288 481.021 655.647 493.167 655.647C505.442 655.725 515.853 650.043 523.565 638.834C532.305 626.302 533.912 608.944 527.742 594.076C525.172 587.849 516.303 576.796 513.861 576.796C513.668 576.796 509.105 580.999 503.707 586.137C498.308 591.274 493.681 595.477 493.36 595.477C493.103 595.477 488.604 591.43 483.398 586.448C478.193 581.466 473.566 577.185 473.116 577.03C471.895 576.407 465.725 582.478 462.705 587.227C461.291 589.406 459.363 593.376 458.463 595.867C455.7 603.417 456.471 602.872 449.402 602.639C437.255 602.25 418.554 596.956 414.826 592.753L413.156 590.885L416.626 584.424C424.081 570.491 429.158 555.546 430.507 543.325C433.014 520.752 423.824 501.915 406.793 494.753C401.845 492.729 392.719 490.861 389.955 491.328L388.413 491.562L388.092 516.081C387.835 537.721 387.642 540.912 386.614 543.403C384.621 548.229 381.344 552.277 377.038 555.079L372.989 557.725L355.316 558.115C339.314 558.504 337.321 558.737 334.237 560.216C328.067 563.252 322.733 568.156 317.527 575.473L315.407 578.508L314.057 576.251C310.073 569.946 302.746 563.174 296.769 560.294C293.62 558.737 291.757 558.582 275.626 558.115L257.953 557.725L254.418 555.546C249.598 552.51 246.899 549.241 244.714 543.714L242.85 539.044V515.459C242.85 494.52 242.722 491.873 241.822 491.406C240.087 490.628 229.097 492.574 224.149 494.675C218.686 496.855 211.681 502.382 208.403 507.052C207.182 508.764 205.062 512.89 203.712 516.159C196.386 533.829 200.113 557.959 214.123 584.113L217.786 590.885L216.18 592.675C212.002 597.346 189.316 603.261 175.306 603.261C170.679 603.261 170.229 603.106 167.594 600.537C162.196 595.322 154.87 593.142 148.057 594.699L143.944 595.633L141.374 593.064C140.024 591.586 128.521 578.508 115.86 563.875C103.135 549.319 89.7037 533.907 85.912 529.703L79.0998 522.075L80.0638 518.883C81.6062 513.668 79.6782 506.507 76.2078 504.639C74.6654 503.783 74.6654 503.783 75.6294 499.19C77.3646 490.706 74.6654 480.431 68.8172 473.97C66.118 470.857 61.1695 467.665 57.5706 466.653L55.8354 466.108L56.221 473.892Z" fill="#0B3D34" fill-opacity="0.07"/>
<path d="M486.477 548.448C482.879 553.04 479.987 557.088 479.987 557.477C479.987 557.866 481.657 560.046 483.714 562.303C485.706 564.56 488.663 567.907 490.269 569.62C491.876 571.41 493.29 572.889 493.482 572.811C493.675 572.811 496.824 569.386 500.487 565.183L507.235 557.555L500.487 548.837C496.824 544.089 493.611 540.197 493.354 540.197C493.161 540.197 490.012 543.933 486.477 548.448Z" fill="#0B3D34" fill-opacity="0.07"/>
</svg>
