<svg width="72" height="72" viewBox="0 0 72 72" fill="none" xmlns="http://www.w3.org/2000/svg">
<path fill-rule="evenodd" clip-rule="evenodd" d="M20.8516 36.3008H30.5547V40.4352H20.8516V36.3008ZM36.9123 36.3008H46.6155V40.4352H36.9123V36.3008ZM52.9731 36.3008H62.6763V40.4352H52.9731V36.3008Z" fill="#B5D8D2"/>
<path fill-rule="evenodd" clip-rule="evenodd" d="M52.6819 57.2154H62.963V53.0811H52.6819V57.2154ZM36.6211 57.2154H46.9022V53.0811H36.6211V57.2154Z" fill="#B5D8D2"/>
<path fill-rule="evenodd" clip-rule="evenodd" d="M39.5879 40.4336H43.9374V53.0814H39.5879V40.4336ZM55.6487 40.4336H59.9982V53.0814H55.6487V40.4336Z" fill="#B5D8D2"/>
<path fill-rule="evenodd" clip-rule="evenodd" d="M41.4258 4.39844H44.5828V16.8002H41.4258V4.39844Z" fill="#B5D8D2"/>
<path fill-rule="evenodd" clip-rule="evenodd" d="M31.4041 4.39844H41.425V11.9922H31.4041L34.9675 8.22484L31.4041 4.39844Z" fill="#B5D8D2"/>
<path fill-rule="evenodd" clip-rule="evenodd" d="M41.4244 4.45898V11.9923H34.7672L38.2758 8.28117L34.7109 4.45898H41.4244Z" fill="#E9EAE3"/>
<path fill-rule="evenodd" clip-rule="evenodd" d="M43.0047 15.9551L54.0016 24.1268L64.9998 32.2985H43.0047H21.0039L32.0064 24.1268L43.0047 15.9551Z" fill="#B5D8D2"/>
<path fill-rule="evenodd" clip-rule="evenodd" d="M43.0034 15.9551L54.0017 24.1268L64.6091 32.0074C64.4853 32.1073 64.3616 32.2029 64.2308 32.2985H46.0564C40.8786 29.7476 37.1436 25.4627 36.8286 21.0809C36.8131 20.9051 36.8089 20.7307 36.8047 20.5591L43.0034 15.9551Z" fill="#B5D8D2"/>
<path fill-rule="evenodd" clip-rule="evenodd" d="M43.0591 21.4395L50.3659 26.869L57.6728 32.2985H43.0591H28.4453L35.7522 26.869L43.0591 21.4395Z" fill="#B5D8D2"/>
<path fill-rule="evenodd" clip-rule="evenodd" d="M43.0582 21.4395L50.3651 26.869L57.672 32.2985H46.0563C42.5084 30.5491 39.6382 27.9855 38.0801 25.1393L43.0582 21.4395Z" fill="#E9EAE3"/>
<path fill-rule="evenodd" clip-rule="evenodd" d="M18.3691 32.2988H67.6343V36.301H18.3691V32.2988Z" fill="#B5D8D2"/>
<path fill-rule="evenodd" clip-rule="evenodd" d="M67.6356 32.2988H42.1797C42.8209 33.7416 44.2089 35.117 46.1144 36.301H67.6356V32.2988Z" fill="#E9EAE3"/>
<path fill-rule="evenodd" clip-rule="evenodd" d="M25.8223 57.3555H65.7359V62.4503H25.8223V57.3555Z" fill="#B5D8D2"/>
<path fill-rule="evenodd" clip-rule="evenodd" d="M43.3226 57.3555H65.7368V62.4503H43.1918C43.0526 61.9638 42.9485 61.4659 42.8923 60.9709C42.7446 59.6716 42.9007 58.4566 43.3226 57.3555Z" fill="#E9EAE3"/>
<path fill-rule="evenodd" clip-rule="evenodd" d="M25.8223 62.4502H67.6343V67.5493H25.8223V62.4502Z" fill="#B5D8D2"/>
<path fill-rule="evenodd" clip-rule="evenodd" d="M46.2289 67.5493H67.6348V62.4502H43.1914C43.7089 64.2474 44.7692 65.9827 46.2289 67.5493Z" fill="#B5D8D2"/>
<path fill-rule="evenodd" clip-rule="evenodd" d="M43.0478 25.5615C44.2431 25.5615 45.2078 26.5304 45.2078 27.7215C45.2078 28.9168 44.2431 29.8815 43.0478 29.8815C41.8553 29.8815 40.8906 28.9168 40.8906 27.7215C40.8906 26.5304 41.8553 25.5615 43.0478 25.5615Z" fill="#B5D8D2"/>
<path fill-rule="evenodd" clip-rule="evenodd" d="M22.6938 42.0645H15.0199C12.6476 42.0645 4.40133 42.873 4.35352 49.2434V58.6905C4.35352 60.0462 5.55727 60.7676 6.91711 60.7591V67.5471H30.8023V60.7634C32.0932 60.6241 33.3448 60.0377 33.3448 58.6905V49.2434C33.3448 43.3709 25.0774 42.0645 22.6938 42.0645Z" fill="#B5D8D2"/>
<path fill-rule="evenodd" clip-rule="evenodd" d="M22.6929 42.0645H15.019C12.7788 42.0645 5.28914 42.7859 4.43555 48.2435C7.32117 55.6376 14.7082 61.4496 23.3665 62.351C25.9891 62.6266 28.5007 62.4227 30.8013 61.8209V60.7648C32.0923 60.6255 33.3438 60.0391 33.3438 58.6919V49.2448C33.3438 43.3709 25.0765 42.0645 22.6929 42.0645Z" fill="#E9EAE3"/>
<path fill-rule="evenodd" clip-rule="evenodd" d="M23.1881 37.2656H14.5312V43.8862L18.6319 47.9925H19.0833L23.1881 43.8862V37.2656Z" fill="#E9EAE3"/>
<path fill-rule="evenodd" clip-rule="evenodd" d="M18.5604 40.2551C11.5207 40.2551 11.3379 29.6717 11.3379 29.6717C14.4555 24.4812 25.7562 28.579 25.7604 28.579C25.9165 28.7506 25.8996 28.6986 25.8996 28.9939C25.8996 35.2123 22.6146 40.2551 18.5604 40.2551Z" fill="#B5D8D2"/>
<path fill-rule="evenodd" clip-rule="evenodd" d="M17.2973 27.0446C21.36 26.9842 25.7559 28.5789 25.7601 28.5789C25.9162 28.7504 25.8994 28.6984 25.8994 28.9937C25.8994 34.1476 23.6437 38.4929 20.5612 39.8289C14.2345 37.4607 14.1431 30.0146 15.188 28.8475C15.6984 27.9967 16.4325 27.4187 17.2973 27.0446Z" fill="#E9EAE3"/>
<path fill-rule="evenodd" clip-rule="evenodd" d="M26.801 31.1822C26.1386 30.7871 25.458 29.8744 24.7633 28.44C21.5669 29.8716 18.7839 29.648 16.4116 27.7777C15.8055 27.2996 15.0489 27.1913 14.3346 27.4824C12.4446 28.2474 11.0453 29.9532 10.7064 32.0302C9.53504 29.5228 8.49863 20.0321 13.4374 21.5339C15.0489 15.3253 31.0014 17.8678 26.801 31.1822Z" fill="#B5D8D2"/>
<path fill-rule="evenodd" clip-rule="evenodd" d="M26.8008 31.1821C26.1385 30.787 25.4579 29.8743 24.7632 28.4399C21.5668 29.8715 18.7838 29.6479 16.4115 27.7776C15.8054 27.2995 15.0488 27.1912 14.3344 27.4823C12.7594 28.1207 11.5275 29.4117 10.9622 31.026C10.6557 27.5582 11.273 23.5912 14.5932 24.6037C15.7407 20.1951 24.1079 20.1993 27.3647 25.3335C27.646 26.9803 27.5138 28.9265 26.8008 31.1821Z" fill="#B5D8D2"/>
<path fill-rule="evenodd" clip-rule="evenodd" d="M26.1465 34.4262C30.6901 34.6259 31.5591 28.5382 28.3515 28.9615C27.6582 29.0529 27.0676 29.4312 26.8243 29.9304C26.9354 31.4492 26.6598 32.9918 26.1465 34.4262Z" fill="#E9EAE3"/>
<path fill-rule="evenodd" clip-rule="evenodd" d="M11.5715 34.4262C7.02367 34.6259 6.1546 28.5382 9.36648 28.9615C10.0598 29.0529 10.6504 29.4312 10.8937 29.9304C10.7826 31.4492 11.0582 32.9918 11.5715 34.4262Z" fill="#E9EAE3"/>
<path fill-rule="evenodd" clip-rule="evenodd" d="M25.5481 49.952L25.4553 42.9883L19.0625 46.4927L25.5481 49.952Z" fill="#B5D8D2"/>
<path fill-rule="evenodd" clip-rule="evenodd" d="M15.0371 60.3056L14.8613 62.1717H14.8768L16.5952 64.8619L18.3137 67.5492L20.0321 64.8619L21.7505 62.1717H21.766L21.3638 57.8672C20.0799 58.2778 18.9085 58.6758 18.2701 59.0597C17.2013 59.6911 16.1241 60.075 15.0371 60.3056Z" fill="#B5D8D2"/>
<path fill-rule="evenodd" clip-rule="evenodd" d="M20.2901 46.4131H16.3357L15.6621 54.0392C17.3637 53.7607 19.2059 53.5203 20.9074 53.4654L20.2901 46.4131Z" fill="#B5D8D2"/>
<path fill-rule="evenodd" clip-rule="evenodd" d="M11.9199 49.8895L12.0155 42.9258L18.4098 46.4302L11.9199 49.8895Z" fill="#B5D8D2"/>
<path fill-rule="evenodd" clip-rule="evenodd" d="M19.2659 44.5508H17.6867C16.9498 44.5508 16.3438 45.1527 16.3438 45.8937V48.8314C16.3438 49.5725 16.9498 50.1744 17.6867 50.1744H19.2659C20.007 50.1744 20.6131 49.5725 20.6131 48.8314V45.8937C20.6131 45.1527 20.007 44.5508 19.2659 44.5508Z" fill="#B5D8D2"/>
<path d="M19.2648 45.537H17.6856C17.4902 45.537 17.327 45.7001 17.327 45.8956V48.8332C17.327 49.0329 17.4902 49.1961 17.6856 49.1961H19.2648C19.4645 49.1961 19.6277 49.0329 19.6277 48.8332V45.8956C19.6277 45.7001 19.4645 45.537 19.2648 45.537ZM17.687 43.5668H19.2648C19.9427 43.5668 20.553 43.8579 20.9833 44.3248L21.8158 43.8664L22.2025 43.4796V40.0231C21.1056 40.805 19.8709 41.2395 18.5589 41.2395C17.3833 41.2395 16.3778 40.992 15.513 40.5659V43.4796L16.0558 44.0211L16.2034 44.1054C16.6056 43.7707 17.1245 43.5668 17.687 43.5668ZM21.5964 46.2261V46.7365L24.5467 48.3073L24.4947 44.6356L21.5964 46.2261ZM21.5936 48.957C21.5852 49.092 21.5655 49.2242 21.5373 49.355L21.813 52.5007C23.6748 52.5246 25.3609 52.7876 26.5802 53.45V49.0737C26.5802 48.5281 27.0231 48.0893 27.5645 48.0893C28.1073 48.0893 28.5489 48.5281 28.5489 49.0737V55.1248C28.5489 55.5312 28.3014 55.8828 27.947 56.0332C27.8148 56.2329 27.6208 56.4242 27.3775 56.607C26.3608 57.3762 23.8816 58.1018 21.9283 58.7192C22.9605 59.1171 23.9772 59.4209 25.0094 59.6206C26.7517 59.9637 28.5616 60.027 30.6344 59.7964C31.3403 59.6965 32.3598 59.525 32.3598 58.6967V49.2495C32.3598 45.9603 29.1423 44.3501 26.4438 43.6175L26.5281 49.9357C26.5436 50.6853 25.7463 51.1718 25.0895 50.8203L21.5936 48.957ZM19.7148 51.1212C19.3281 51.1971 18.1356 51.1648 17.6856 51.1648C17.4142 51.1648 17.1555 51.117 16.9164 51.0326L16.7533 52.8621L19.8386 52.5387L19.7148 51.1212ZM15.3583 46.9432V45.8745L12.9705 44.5709L12.9227 48.2426L15.3583 46.9432ZM15.0911 49.3071L12.3798 50.7542C11.7217 51.1043 10.9244 50.6192 10.937 49.8654L11.0242 43.5626C8.23 44.2728 5.35984 45.8351 5.33172 49.2467H5.33594V58.6939H5.33172C5.33594 59.4912 6.205 59.802 6.84203 59.7823C7.87422 59.6979 8.95422 59.6951 10.023 59.6909C12.8214 59.6825 15.3681 59.6431 17.7644 58.2157C19.487 57.192 24.0461 56.195 25.8278 55.2584C24.8758 54.5651 23.1573 54.357 21.1633 54.4132C21.0916 54.4329 21.0156 54.4456 20.9355 54.4498C20.1297 54.4737 19.2691 54.5454 18.393 54.6495C17.5323 54.7451 16.6914 54.8689 15.8898 54.9996L15.5636 55.0193L9.90766 56.06C9.23828 56.1992 8.69547 55.7168 8.69547 55.1037V49.0329C8.69547 48.4915 9.13422 48.0485 9.67562 48.0485C10.2212 48.0485 10.66 48.4915 10.66 49.0329V53.9239L14.7494 53.1701L15.0911 49.3071ZM22.6455 61.0465L22.7495 62.1743C22.7495 62.4415 22.6455 62.6806 22.4739 62.8606L20.1058 66.5632H29.8159V61.8439C27.258 62.0239 24.9728 61.7679 22.6455 61.0465ZM16.5184 66.5632L14.1433 62.8395C13.7763 62.3698 13.8803 62.1293 13.9394 61.4839C11.8989 61.7314 9.93719 61.5992 7.90094 61.6878V66.5632H16.5184ZM19.21 59.6754C18.4408 60.0228 18.3016 60.2492 17.0894 60.7203L15.9447 61.0986L15.8687 61.9043L18.3128 65.7265L20.7569 61.9043L20.605 60.3054C20.1466 60.1142 19.6797 59.9032 19.21 59.6754ZM11.4278 35.4148C7.45375 35.4668 5.62422 31.4492 6.82797 29.2442C7.22312 28.5228 7.88828 28.0278 8.81641 27.9645C8.60547 25.4332 8.76437 20.9093 11.9453 20.4312C12.2167 20.3876 12.5036 20.3834 12.8059 20.4115C15.4005 15.0579 27.2763 16.6442 28.3998 25.5781L40.4388 16.6371V12.9767H31.4022C30.5697 12.9767 30.0269 11.9487 30.7609 11.247L33.6227 8.22074L30.6808 5.06793C30.0944 4.44215 30.5486 3.41699 31.4022 3.41699H44.5802C45.123 3.41699 45.5645 3.85574 45.5645 4.39715V16.6343L65.3209 31.3114H67.6328C68.1784 31.3114 68.6172 31.7543 68.6172 32.2957V36.3021C68.6172 36.845 68.1784 37.2823 67.6328 37.2823H63.6602V40.4309C63.6602 40.9765 63.2172 41.4153 62.6758 41.4153H60.9812V52.0943H62.9627C63.5083 52.0943 63.947 52.5373 63.947 53.0787V56.3679H65.7372C66.2828 56.3679 66.7216 56.8109 66.7216 57.3523V61.4656H67.6342C68.1798 61.4656 68.6186 61.9043 68.6186 62.45V67.5448C68.6186 68.0862 68.1798 68.5292 67.6342 68.5292H6.91516C6.36953 68.5292 5.93078 68.0862 5.93078 67.5448V61.6371C4.49641 61.3221 3.37562 60.2857 3.37141 58.691H3.36719V49.2439H3.37141V49.2396C3.39109 46.5256 4.68344 44.6876 6.44547 43.4431C8.64203 41.8962 11.5755 41.3309 13.5456 41.1509V39.0739C12.8116 38.2807 12.2463 37.34 11.8075 36.3556C11.6669 36.049 11.5403 35.7298 11.4278 35.4148ZM10.8498 28.4792C10.9539 28.5467 11.0495 28.6184 11.1409 28.6943C11.8863 27.7536 12.8355 27.0279 13.9675 26.5695C14.478 26.3628 15.0081 26.2981 15.5228 26.3656C15.4834 25.744 15.3273 25.1421 15.0644 24.5923C14.6425 23.7036 13.952 22.9456 13.0591 22.4478C12.7398 22.3606 12.4684 22.3395 12.242 22.3761C11.5769 22.4759 11.2295 23.1692 11.0341 23.8104C10.6431 25.0986 10.6516 26.8803 10.8498 28.4792ZM8.70109 31.8711C8.97953 32.4406 9.48297 32.9679 10.1959 33.2421C9.96531 32.2493 9.85281 31.2326 9.89359 30.2131C9.55891 29.9136 8.78125 29.7631 8.55484 30.1807C8.30312 30.6406 8.46203 31.3859 8.70109 31.8711ZM27.5209 33.2435C28.5053 32.861 29.2352 31.8921 29.2872 30.8712C29.3153 30.3017 29.1592 29.8475 28.4786 29.9389C28.2438 29.967 27.9963 30.0668 27.8247 30.2173C27.8641 31.234 27.7473 32.2507 27.5209 33.2435ZM30.4628 33.2829C29.8216 34.2476 28.7964 35.0492 27.4056 35.3192H66.6498V33.2829H30.4628ZM25.7223 35.3192L25.7027 35.3079L25.6984 35.3192H25.7223ZM26.2131 29.0698C26.2567 29.0178 26.3003 28.9657 26.3481 28.9137C27.0133 25.0071 25.6141 22.3521 23.5413 20.8503C21.9466 19.6986 19.8695 19.1403 17.9641 19.34C16.4931 19.4918 15.2331 20.1007 14.6481 21.1371C16.6295 22.5476 17.7053 24.9115 17.4662 27.3359C19.5588 28.7464 21.9466 28.6507 24.3259 27.5637C24.8322 27.3246 25.4059 27.5271 25.645 28.0137C25.8391 28.4117 26.0261 28.7618 26.2131 29.0698ZM28.4814 27.9645C29.6416 27.8928 30.4431 28.4229 30.8931 29.2554L42.4736 20.6534C42.8364 20.382 43.323 20.4017 43.6619 20.6646L57.9958 31.3114H62.0303L43.0037 17.1757L28.4814 27.9645ZM15.8645 28.5945C15.6733 28.4665 15.5819 28.3596 15.2739 28.3161C14.5398 28.212 13.3684 29.1415 12.91 29.6393C12.7989 29.7631 12.3841 30.2693 12.3602 30.365C12.4516 31.4618 12.7342 33.6218 13.6005 35.5596C14.4738 37.5256 15.9798 39.2707 18.5589 39.2707C20.162 39.2707 21.5964 38.2625 22.6483 36.8239C22.9633 36.3935 23.0589 36.1939 23.3177 35.7636C24.1066 34.3207 24.6494 32.5348 24.8406 30.5618C24.6606 30.2989 24.482 30.012 24.302 29.6886C21.2898 30.7995 18.4127 30.5717 15.8645 28.5945ZM24.7028 37.2851L24.1727 38.067V39.4536H29.5698V37.2851H24.7028ZM25.6591 41.4181C29.5811 42.2028 34.3286 44.3796 34.3286 49.2467V56.3707H35.6406V53.0815C35.6406 52.5387 36.0794 52.0971 36.6208 52.0971H38.6022V41.4181H36.9119C36.3662 41.4181 35.9275 40.9793 35.9275 40.4337V37.2851H31.5386V40.4337C31.5386 40.9793 31.0998 41.4181 30.5542 41.4181H25.6591ZM34.3286 58.3395V58.6939C34.3286 60.1282 33.3836 61.0381 32.1559 61.4684H64.7514V58.3395H34.3286ZM31.7861 63.4385V66.5632H66.6498V63.4385C55.03 63.4385 43.4059 63.4385 31.7861 63.4385ZM43.0516 24.5811C45.8416 24.5811 47.2492 27.9729 45.272 29.9459C43.2948 31.9231 39.9072 30.5154 39.9072 27.7254C39.9058 25.9887 41.3134 24.5811 43.0516 24.5811ZM43.8798 26.8929C43.143 26.1561 41.8703 26.6778 41.8703 27.7254C41.8703 28.7703 43.1416 29.2962 43.8798 28.5551C44.3383 28.0967 44.3383 27.3514 43.8798 26.8929ZM47.8862 56.3707H51.7014V53.0815C51.7014 52.5387 52.1402 52.0971 52.6816 52.0971H54.663V41.4181H52.9727C52.427 41.4181 51.9883 40.9793 51.9883 40.4337V37.2851H47.5994V40.4337C47.5994 40.9793 47.1564 41.4181 46.615 41.4181H44.9205V52.0971H46.9019C47.4475 52.0971 47.8862 52.5401 47.8862 53.0815V56.3707ZM31.4148 31.3142H54.7023L43.0586 22.6643L31.4148 31.3142ZM42.4089 15.1732C42.7759 14.9018 43.2541 14.9145 43.5972 15.1732V5.38293H42.4089V15.1732ZM40.4402 5.38293H33.6634L35.6842 7.55559V7.5598C36.0344 7.93387 36.0344 8.52027 35.6758 8.89855L33.6789 11.0079H40.4402V5.38293ZM40.5709 41.4181V52.0971H42.9503V41.4181H40.5709ZM56.6317 41.4181V52.0971H59.0111V41.4181H56.6317ZM53.6659 56.2315H61.9769V54.0673H53.6659V56.2315ZM37.6052 56.2315H45.9161V54.0673H37.6052V56.2315ZM45.6306 37.2851H37.8977V39.4536H45.6306V37.2851ZM61.69 37.2851H53.957V39.4536H61.69V37.2851Z" fill="#0B3D34"/>
</svg>
