<svg width="72" height="72" viewBox="0 0 72 72" fill="none" xmlns="http://www.w3.org/2000/svg">
<path fill-rule="evenodd" clip-rule="evenodd" d="M53.4142 5.29199H23.5975L11.0608 19.0198V58.4792C11.0608 60.6153 12.6555 62.3618 14.6045 62.3618H53.4142C55.3633 62.3618 56.958 60.6153 56.958 58.4792V9.17043C56.958 7.03855 55.3633 5.29199 53.4142 5.29199Z" fill="#B5D8D2"/>
<path fill-rule="evenodd" clip-rule="evenodd" d="M43.5606 5.29199H23.5975L11.0608 19.0198V40.4651C14.4091 42.1709 18.1877 43.1314 22.1941 43.1314C35.8952 43.1314 47.0003 31.8982 47.0003 18.0382C47.0003 13.3836 45.7445 9.02699 43.5606 5.29199Z" fill="#E9EAE3"/>
<path fill-rule="evenodd" clip-rule="evenodd" d="M11.0608 19.0212H20.0538C22.0028 19.0212 23.5975 17.2746 23.5975 15.1386V5.29199L11.0608 19.0212Z" fill="#B5D8D2"/>
<path fill-rule="evenodd" clip-rule="evenodd" d="M47.9177 26.9414L60.8762 37.3814C61.9042 38.2111 62.0688 39.7327 61.2391 40.7663C60.4094 41.7984 58.8878 41.9616 57.8542 41.1291L44.8984 30.6891L47.9177 26.9414Z" fill="#B5D8D2"/>
<path fill-rule="evenodd" clip-rule="evenodd" d="M42.1904 16.5859L50.7249 23.4611L42.0948 34.1683L33.5645 27.2959L42.1904 16.5859Z" fill="#E9EAE3"/>
<path fill-rule="evenodd" clip-rule="evenodd" d="M46.4541 20.0254L50.7234 23.4609L42.0933 34.168L37.8281 30.7326L46.4541 20.0254Z" fill="#B5D8D2"/>
<path fill-rule="evenodd" clip-rule="evenodd" d="M45.6958 12.1927L54.2655 19.1002C55.3778 19.9973 55.5536 21.6356 54.6606 22.7437C53.7676 23.8561 52.1251 24.0319 51.017 23.1389L42.4431 16.2314C41.335 15.3342 41.155 13.6959 42.0522 12.5878C42.9466 11.4755 44.5848 11.2997 45.6958 12.1927Z" fill="#B5D8D2"/>
<path fill-rule="evenodd" clip-rule="evenodd" d="M45.6973 12.1922L54.267 19.0997C55.0123 19.7016 55.3357 20.6311 55.1993 21.5157C54.3668 21.8349 53.3852 21.7196 52.6441 21.1177L44.0702 14.2102C43.3249 13.6126 43.0015 12.6788 43.1379 11.7985C43.9718 11.4751 44.952 11.5946 45.6973 12.1922Z" fill="#B5D8D2"/>
<path fill-rule="evenodd" clip-rule="evenodd" d="M33.5434 27.2757L42.1173 34.1874C43.2255 35.0803 43.4012 36.7186 42.5083 37.8268C41.6153 38.9391 39.9728 39.1149 38.8647 38.2219L30.2908 31.3144C29.1826 30.4172 29.0026 28.7789 29.8998 27.6708C30.7928 26.5585 32.4311 26.3827 33.5434 27.2757Z" fill="#B5D8D2"/>
<path fill-rule="evenodd" clip-rule="evenodd" d="M33.5447 27.2757L42.1186 34.1874C42.8597 34.7851 43.1831 35.7188 43.0467 36.5991C42.2142 36.9226 41.2327 36.8031 40.4916 36.204L31.9177 29.2965C31.1766 28.6946 30.8489 27.7651 30.9853 26.8805C31.8178 26.5627 32.7994 26.6781 33.5447 27.2757Z" fill="#B5D8D2"/>
<path fill-rule="evenodd" clip-rule="evenodd" d="M49.4602 34.5873L52.6974 30.5739C53.4146 29.6809 54.7337 29.5375 55.6266 30.2589L66.8598 39.3081C67.7527 40.0295 67.8962 41.3486 67.1748 42.2415L63.9418 46.2522C63.2204 47.1451 61.9013 47.2886 61.0084 46.5714L49.7752 37.5193C48.8823 36.7993 48.7431 35.4803 49.4602 34.5873Z" fill="#B5D8D2"/>
<path fill-rule="evenodd" clip-rule="evenodd" d="M51.0781 32.5772L52.6967 30.5719C53.4139 29.679 54.733 29.5355 55.6259 30.2569L66.8591 39.3062C67.752 40.0276 67.8955 41.3466 67.1741 42.2396L65.5597 44.2449L51.0781 32.5772Z" fill="#B5D8D2"/>
<path fill-rule="evenodd" clip-rule="evenodd" d="M22.5801 41.2441H45.4373V45.079H22.5801V41.2441Z" fill="#B5D8D2"/>
<path fill-rule="evenodd" clip-rule="evenodd" d="M26.377 41.2441H45.4387V45.079H28.3345C27.4288 43.8513 26.7552 42.5548 26.377 41.2441Z" fill="#E9EAE3"/>
<path fill-rule="evenodd" clip-rule="evenodd" d="M34.0091 53.5723C39.4189 50.6782 44.2902 49.0484 49.1052 49.9287V45.0771H18.9102V49.9287C23.7252 49.0484 28.6006 50.6782 34.0091 53.5723Z" fill="#B5D8D2"/>
<path fill-rule="evenodd" clip-rule="evenodd" d="M37.5013 51.8623C41.5555 50.0806 45.3468 49.2396 49.1057 49.9287V45.0771H28.334C30.4068 47.8967 33.703 50.3604 37.5013 51.8623Z" fill="#B5D8D2"/>
<path fill-rule="evenodd" clip-rule="evenodd" d="M4.35156 58.8389H63.663V63.4471H37.7725V64.7184C37.7725 65.7871 36.9034 66.6562 35.8347 66.6562H32.1827C31.1139 66.6562 30.242 65.7871 30.242 64.7184V63.4471H4.35156V58.8389Z" fill="#B5D8D2"/>
<path fill-rule="evenodd" clip-rule="evenodd" d="M9.15039 51.5804C17.4332 50.9982 27.0407 46.2071 34.0087 53.573V58.8394H9.15039V51.5804Z" fill="#B5D8D2"/>
<path fill-rule="evenodd" clip-rule="evenodd" d="M9.15039 51.5799C14.8626 51.1777 21.2048 48.7772 26.8776 49.7377V49.7729C26.8776 53.4361 21.2934 56.4061 14.4041 56.4061C12.5268 56.4061 10.7451 56.1868 9.15039 55.7916V51.5799Z" fill="#E9EAE3"/>
<path fill-rule="evenodd" clip-rule="evenodd" d="M58.868 51.5804C50.581 50.9982 40.9777 46.2071 34.0098 53.573V58.8394H58.868V51.5804Z" fill="#B5D8D2"/>
<path fill-rule="evenodd" clip-rule="evenodd" d="M58.8667 51.5799C53.1503 51.1777 46.8081 48.7772 41.1367 49.7377V49.7729C41.1367 53.4361 46.7209 56.4061 53.6102 56.4061C55.4875 56.4061 57.2692 56.1868 58.8681 55.7916V51.5799H58.8667Z" fill="#E9EAE3"/>
<path d="M15.0236 38.7368C14.478 38.7368 14.0392 38.2939 14.0392 37.7525C14.0392 37.2068 14.478 36.7681 15.0236 36.7681H29.3027C29.8483 36.7681 30.287 37.2068 30.287 37.7525C30.287 38.2939 29.8483 38.7368 29.3027 38.7368H15.0236ZM22.9 31.534C22.3572 31.534 21.9156 31.0911 21.9156 30.5496C21.9156 30.004 22.3586 29.5653 22.9 29.5653H26.8895C27.4323 29.5653 27.8739 30.004 27.8739 30.5496C27.8739 31.0911 27.4309 31.534 26.8895 31.534H22.9ZM15.0236 31.534C14.478 31.534 14.0392 31.0911 14.0392 30.5496C14.0392 30.004 14.478 29.5653 15.0236 29.5653H20.1255C20.6711 29.5653 21.1098 30.004 21.1098 30.5496C21.1098 31.0911 20.6711 31.534 20.1255 31.534H15.0236ZM25.6113 24.3256C25.0698 24.3256 24.6311 23.8868 24.6311 23.3412C24.6311 22.7998 25.0698 22.3568 25.6113 22.3568H31.682C32.2277 22.3568 32.6664 22.7998 32.6664 23.3412C32.6664 23.8868 32.2277 24.3256 31.682 24.3256H25.6113ZM15.0236 24.3256C14.478 24.3256 14.0392 23.8868 14.0392 23.3412C14.0392 22.7998 14.478 22.3568 15.0236 22.3568H22.4064C22.9478 22.3568 23.3908 22.7998 23.3908 23.3412C23.3908 23.8868 22.9478 24.3256 22.4064 24.3256H15.0236ZM57.8833 57.8548V52.4857C55.9694 52.2861 54.1159 51.9275 52.195 51.5604C46.0764 50.389 39.7905 49.1881 34.9952 53.9679V57.8548H57.8833ZM33.025 57.8548V53.9679C28.2255 49.1881 21.9438 50.3876 15.8252 51.5604C13.9042 51.9275 12.0466 52.2861 10.1369 52.4857V57.8548H33.025ZM34.0094 52.1975C38.2113 48.2796 43.1261 48.1432 48.1211 48.8534V46.0634C38.7133 46.0634 29.3027 46.0634 19.8948 46.0634V48.8534C24.8927 48.1432 29.8047 48.2796 34.0094 52.1975ZM50.0898 49.1684C52.0389 49.5115 54.0358 49.9376 55.9736 50.2442V43.7712L49.1617 38.2826C48.0775 37.4093 47.7302 35.9187 48.273 34.6714L45.0484 32.0726L43.3947 34.1257C44.9697 36.3265 43.6183 39.4596 40.8719 39.755C39.9634 39.8548 39.0184 39.6073 38.2534 38.99C35.3875 36.6978 32.5286 34.3901 29.6795 32.0825C27.22 30.094 28.3717 26.0918 31.5372 25.7487C32.1433 25.6854 32.7606 25.7726 33.3344 26.0201L41.1672 16.2973C39.5922 14.0965 40.9478 10.9592 43.69 10.6653C44.5984 10.5696 45.5477 10.8171 46.3127 11.4345L54.8866 18.342C55.3886 18.7484 55.7556 19.2631 55.975 19.8284V9.17043C55.975 7.66293 54.8908 6.27637 53.4156 6.27637H24.5819V15.1414C24.5819 17.7289 22.6244 20.0042 20.0538 20.0042H12.0452V50.2442C13.9788 49.9376 15.9756 49.5101 17.9247 49.1684V45.079C17.9247 44.5376 18.3677 44.0989 18.9091 44.0989H21.5964V41.2442C21.5964 40.6986 22.0352 40.2598 22.5808 40.2598H45.438C45.9808 40.2598 46.4223 40.6986 46.4223 41.2442V44.0989H49.1055C49.6511 44.0989 50.0898 44.5376 50.0898 45.079V49.1684ZM57.9423 50.5114C58.2574 50.5479 58.5723 50.5746 58.8831 50.5986C59.4175 50.607 59.852 51.0443 59.852 51.5829V57.8534H63.663C64.2058 57.8534 64.6474 58.2964 64.6474 58.8378V63.4461C64.6474 63.9917 64.2044 64.4304 63.663 64.4304H38.7569V64.7173C38.7569 66.3275 37.4448 67.6437 35.8347 67.6437H32.1827C30.5725 67.6437 29.2563 66.3289 29.2563 64.7173V64.4304H4.35156C3.80875 64.4304 3.36719 63.9917 3.36719 63.4461V58.8378C3.36719 58.2964 3.81016 57.8534 4.35156 57.8534H8.16672V51.5829C8.16672 51.0443 8.59703 50.607 9.13563 50.5986C9.44641 50.5746 9.76141 50.5465 10.0764 50.5114V19.0212C10.0764 18.7456 10.1875 18.4953 10.3759 18.3153L22.8325 4.67043C23.0364 4.4398 23.2867 4.30762 23.5975 4.30762H53.4142C55.9806 4.30762 57.9423 6.58434 57.9423 9.17043V30.859L67.4739 38.54C68.7888 39.6003 69.0011 41.5381 67.9408 42.8529L64.7078 46.8664C63.6475 48.1812 61.7097 48.3936 60.3948 47.3332L57.9438 45.3561V50.5114H57.9423ZM62.6786 59.8236C43.5648 59.8236 24.4511 59.8236 5.33734 59.8236V62.4631H30.2434C30.7891 62.4631 31.2278 62.9061 31.2278 63.4475V64.7187C31.2278 65.2446 31.6581 65.675 32.1841 65.675H35.8361C36.3578 65.675 36.7881 65.2446 36.7881 64.7187V63.4475C36.7881 62.9046 37.2311 62.4631 37.7725 62.4631H62.6786V59.8236ZM23.5652 44.0975H44.4536V42.2286H23.5652V44.0975ZM49.4205 33.0725L51.2064 30.8562L48.0691 28.325L46.2789 30.5412L49.4205 33.0725ZM52.5255 29.3923C53.538 28.6667 54.9091 28.6146 55.9736 29.2967V22.4159C55.2395 24.3017 53.0753 25.1946 51.2261 24.4015L49.3009 26.7936L52.5255 29.3923ZM53.4184 31.2429L50.2248 35.2015C49.8466 35.6712 49.9225 36.3729 50.3922 36.7526L61.6253 45.8061C62.095 46.1843 62.7967 46.1084 63.1764 45.6387L66.4094 41.6281C66.7877 41.1584 66.7159 40.4525 66.2463 40.0728L54.9738 30.9926C54.5589 30.6579 53.8263 30.7339 53.4944 31.1515C53.4705 31.1825 53.4466 31.2106 53.4184 31.2429ZM34.9431 27.1479L41.9477 32.7884L49.6173 23.2737C47.2773 21.3964 44.9458 19.5148 42.6128 17.629L34.9431 27.1479ZM41.5005 34.954L32.9266 28.0465C31.8311 27.162 30.1675 28.0353 30.3194 29.4696C30.3756 29.9717 30.5908 30.2754 30.9606 30.5932L39.4277 37.4136C39.8186 37.7089 40.1575 37.8565 40.6638 37.8003C42.0981 37.6484 42.5959 35.8386 41.5005 34.954ZM53.6533 19.8692L45.0794 12.9617C43.9825 12.0771 42.3203 12.949 42.4722 14.3848C42.5284 14.8868 42.7436 15.1906 43.1134 15.5084L51.5805 22.3287C51.9714 22.624 52.3103 22.7717 52.8166 22.7154C54.2481 22.565 54.7502 20.7509 53.6533 19.8692ZM13.2897 18.0354H20.0538C21.5331 18.0354 22.6131 16.6489 22.6131 15.1414V7.82746L13.2897 18.0354Z" fill="#0B3D34"/>
</svg>
