<svg width="1239" height="100" viewBox="0 0 1239 100" fill="none" xmlns="http://www.w3.org/2000/svg">
<path d="M37.2623 15.2578H17.5088L16.7606 17.8008H17.2843C18.9304 17.8008 23.1206 18.1748 23.1206 21.8397C23.1206 23.0364 22.6716 25.5046 22.4472 26.1778L10.625 71.8771C9.05369 78.2346 7.55721 80.2541 1.72095 80.2541H0.673415L0 82.7971H20.0528L20.801 80.2541H19.6787C16.6857 80.2541 13.9921 79.8053 13.9921 76.5144C13.9921 75.4672 14.5158 73.1486 14.89 71.8771L26.338 27.4493H26.4877L33.0722 82.7971H34.7931L68.6135 27.4493H68.838L57.4648 71.8771C56.0431 77.1127 54.8459 80.2541 48.9348 80.2541H47.2887L46.6901 82.7971H75.2728L76.0211 80.2541H74.8239C70.7834 80.2541 69.3618 79.1322 69.3618 76.5144C69.3618 75.8412 69.4366 74.8689 70.1848 71.8771L81.7825 26.1778C83.279 20.1194 85.2244 17.8008 90.3873 17.8008H91.9586L92.7068 15.2578H71.7561L42.8741 62.5278L37.2623 15.2578Z" fill="#2D2D2D" fill-opacity="0.3"/>
<path d="M102.556 84.0686C124.48 84.0686 138.996 61.4059 138.996 39.94C138.996 14.8091 121.636 13.9863 118.569 13.9863C99.1144 13.9863 82.1294 33.5824 82.1294 58.115C82.1294 72.0267 88.1901 84.0686 102.556 84.0686ZM103.679 80.2541C97.7676 80.2541 94.9243 75.0933 94.9243 66.9407C94.9243 46.9706 103.529 17.8008 117.371 17.8008C125.378 17.8008 126.201 26.6266 126.201 31.1142C126.201 51.0843 117.596 80.2541 103.679 80.2541Z" fill="#2D2D2D" fill-opacity="0.3"/>
<path d="M199.079 13.9863H197.134C196.46 15.8562 195.039 16.8285 193.093 16.8285C191.447 16.8285 189.951 15.7066 187.407 14.9587C185.387 14.2855 183.591 13.9863 180.523 13.9863C159.722 13.9863 140.492 32.0118 140.492 56.0955C140.492 70.6056 147.675 84.0686 163.837 84.0686C169.823 84.0686 180.448 82.7223 188.828 68.5114L186.958 67.0903C182.693 74.121 175.21 78.6834 168.551 78.6834C158.151 78.6834 154.559 68.5114 154.559 58.5637C154.559 35.8263 167.878 17.8008 180.149 17.8008C188.08 17.8008 191.971 26.7762 191.971 34.3304H193.767L199.079 13.9863Z" fill="#2D2D2D" fill-opacity="0.3"/>
<path d="M218.562 46.0731L223.725 26.1778C225.296 20.1194 226.942 17.8008 232.105 17.8008L232.853 15.2578H205.992L205.243 17.8008H206.291C211.155 17.8008 211.753 19.5211 211.753 21.5405C211.753 23.3356 211.454 24.6819 211.08 26.1778L199.258 71.8771C198.135 75.916 197.088 80.2541 190.728 80.2541H189.082L188.483 82.7971H216.317L216.991 80.2541H216.542C212.501 80.2541 211.08 79.1322 211.08 76.5144C211.08 75.8412 211.155 74.7193 211.903 71.8771L217.589 49.8128H217.889L226.942 72.7746C228.289 76.3648 227.541 80.2541 223.426 80.2541H222.752L221.929 82.7971H247.743L248.417 80.2541C243.553 80.0297 242.206 76.0656 240.635 72.1015L228.514 41.5106L244.077 25.1307C250.138 18.9227 253.43 17.8008 256.199 17.8008L256.797 15.2578H236.894L236.295 17.8008H236.894C239.588 17.8008 239.887 20.8674 239.887 21.3162C239.887 24.3079 237.717 26.1778 236.37 27.5989L219.011 46.0731H218.562Z" fill="#2D2D2D" fill-opacity="0.3"/>
<path d="M268.946 84.0686C290.87 84.0686 305.386 61.4059 305.386 39.94C305.386 14.8091 288.027 13.9863 284.959 13.9863C265.505 13.9863 248.52 33.5824 248.52 58.115C248.52 72.0267 254.58 84.0686 268.946 84.0686ZM270.069 80.2541C264.158 80.2541 261.314 75.0933 261.314 66.9407C261.314 46.9706 269.919 17.8008 283.762 17.8008C291.768 17.8008 292.591 26.6266 292.591 31.1142C292.591 51.0843 283.986 80.2541 270.069 80.2541Z" fill="#2D2D2D" fill-opacity="0.3"/>
<path d="M316.356 15.2578L315.757 17.8008H316.805C321.668 17.8008 322.267 19.5211 322.267 21.5405C322.267 22.5877 321.818 25.1307 321.518 26.1778L309.621 71.8771C308.499 75.916 307.452 80.2541 301.092 80.2541H299.445L298.772 82.7971H330.348C343.292 82.7971 352.346 74.7193 352.346 62.6026C352.346 51.4583 344.34 48.3169 341.272 47.569V46.8958C352.645 45.3251 358.182 35.9758 358.182 28.646C358.182 16.3049 347.707 15.2578 337.456 15.2578H316.356ZM328.103 48.9153C328.477 48.8405 328.851 48.8405 329.225 48.8405H330.348C336.708 48.8405 339.177 53.7769 339.177 59.91C339.177 68.7357 334.687 78.9078 324.511 78.9078C323.314 78.9078 321.967 78.7582 320.546 78.459L328.103 48.9153ZM335.81 19.2967C336.483 19.2219 337.231 19.1471 337.905 19.1471C338.952 19.1471 345.462 18.9975 345.462 27.6737C345.462 35.0035 342.02 45.1755 331.844 45.1755H330.422C329.974 45.1755 329.525 45.1755 329.15 45.1007L335.81 19.2967Z" fill="#2D2D2D" fill-opacity="0.3"/>
<path d="M415.83 13.9863H413.885C413.211 15.8562 411.79 16.8285 409.844 16.8285C408.198 16.8285 406.702 15.7066 404.158 14.9587C402.138 14.2855 400.342 13.9863 397.274 13.9863C376.473 13.9863 357.243 32.0118 357.243 56.0955C357.243 70.6056 364.426 84.0686 380.588 84.0686C386.574 84.0686 397.199 82.7223 405.579 68.5114L403.709 67.0903C399.444 74.121 391.961 78.6834 385.302 78.6834C374.902 78.6834 371.31 68.5114 371.31 58.5637C371.31 35.8263 384.629 17.8008 396.9 17.8008C404.831 17.8008 408.722 26.7762 408.722 34.3304H410.518L415.83 13.9863Z" fill="#2D2D2D" fill-opacity="0.3"/>
<path d="M435.313 46.0731L440.476 26.1778C442.047 20.1194 443.693 17.8008 448.856 17.8008L449.604 15.2578H422.743L421.994 17.8008H423.042C427.906 17.8008 428.504 19.5211 428.504 21.5405C428.504 23.3356 428.205 24.6819 427.831 26.1778L416.009 71.8771C414.886 75.916 413.839 80.2541 407.479 80.2541H405.832L405.234 82.7971H433.068L433.742 80.2541H433.293C429.252 80.2541 427.831 79.1322 427.831 76.5144C427.831 75.8412 427.906 74.7193 428.654 71.8771L434.34 49.8128H434.64L443.693 72.7746C445.04 76.3648 444.292 80.2541 440.177 80.2541H439.503L438.68 82.7971H464.494L465.168 80.2541C460.304 80.0297 458.957 76.0656 457.386 72.1015L445.265 41.5106L460.828 25.1307C466.889 18.9227 470.181 17.8008 472.95 17.8008L473.548 15.2578H453.645L453.046 17.8008H453.645C456.339 17.8008 456.638 20.8674 456.638 21.3162C456.638 24.3079 454.468 26.1778 453.121 27.5989L435.762 46.0731H435.313Z" fill="#2D2D2D" fill-opacity="0.3"/>
<path d="M492.902 62.7522L502.255 26.1778C503.751 20.1194 505.697 17.8008 510.785 17.8008H511.832L512.431 15.2578H484.522L483.848 17.8008H484.896C489.759 17.8008 490.358 19.5211 490.358 21.5405C490.358 23.3356 490.059 24.6819 489.685 26.1778L477.937 71.8771C476.665 77.1875 475.094 80.2541 469.407 80.2541H467.761L467.163 82.7971H495.072L495.745 80.2541H495.222C491.181 80.2541 489.685 79.1322 489.685 76.5144C489.685 75.0933 489.909 73.1486 490.358 71.7275L521.41 33.2084H521.784L511.832 71.8771C510.186 78.085 508.465 80.2541 503.303 80.2541H502.255L501.656 82.7971H529.566L530.314 80.2541H529.266C524.403 80.2541 523.729 78.5338 523.729 76.5144C523.729 74.7193 524.104 73.373 524.478 71.8771L536.225 26.1778C537.572 21.017 538.994 17.8008 544.755 17.8008H546.401L547 15.2578H519.09L518.342 17.8008H518.866C522.383 17.8008 524.403 18.5488 524.403 21.5405C524.403 22.2885 524.253 23.186 524.029 24.4575L493.276 62.7522H492.902Z" fill="#2D2D2D" fill-opacity="0.3"/>
<path d="M559.876 62.7524L569.229 26.178C570.725 20.1197 572.671 17.801 577.759 17.801H578.806L579.405 15.258H551.495L550.822 17.801H551.869C556.733 17.801 557.332 19.5213 557.332 21.5408C557.332 23.3358 557.032 24.6821 556.658 26.178L544.911 71.8773C543.639 77.1877 542.068 80.2543 536.381 80.2543H534.735L534.136 82.7973H562.046L562.719 80.2543H562.195C558.155 80.2543 556.658 79.1324 556.658 76.5146C556.658 75.0935 556.883 73.1488 557.332 71.7277L588.384 33.2087H588.758L578.806 71.8773C577.16 78.0853 575.439 80.2543 570.276 80.2543H569.229L568.63 82.7973H596.539L597.288 80.2543H596.24C591.377 80.2543 590.703 78.534 590.703 76.5146C590.703 74.7195 591.077 73.3732 591.451 71.8773L603.199 26.178C604.546 21.0172 605.967 17.801 611.729 17.801H613.375L613.973 15.258H586.064L585.316 17.801H585.84C589.356 17.801 591.377 18.549 591.377 21.5408C591.377 22.2887 591.227 23.1862 591.002 24.4577L560.25 62.7524H559.876ZM596.016 0C594.968 2.24383 593.546 4.48766 592.05 5.90875C589.88 8.15258 587.635 9.1997 585.241 9.1997C583.595 9.1997 582.547 8.52655 582.547 7.32984C582.547 6.65669 582.772 6.35752 582.847 5.68437C582.921 5.38519 582.921 5.01122 582.921 4.56245C582.921 1.57068 581.2 0 578.282 0C575.289 0 573.419 2.54301 573.419 5.60957C573.419 9.34929 576.487 12.9394 582.398 12.9394C585.84 12.9394 590.179 11.9671 593.921 8.15258C596.016 5.90875 597.587 3.36574 598.56 1.57068L596.016 0Z" fill="#2D2D2D" fill-opacity="0.3"/>
<path d="M650.063 46.0731L655.226 26.1778C656.797 20.1194 658.443 17.8008 663.606 17.8008L664.354 15.2578H637.493L636.744 17.8008H637.792C642.656 17.8008 643.254 19.5211 643.254 21.5405C643.254 23.3356 642.955 24.6819 642.581 26.1778L630.759 71.8771C629.636 75.916 628.589 80.2541 622.229 80.2541H620.582L619.984 82.7971H647.818L648.492 80.2541H648.043C644.002 80.2541 642.581 79.1322 642.581 76.5144C642.581 75.8412 642.656 74.7193 643.404 71.8771L649.09 49.8128H649.39L658.443 72.7746C659.79 76.3648 659.042 80.2541 654.927 80.2541H654.253L653.43 82.7971H679.244L679.918 80.2541C675.054 80.0297 673.707 76.0656 672.136 72.1015L660.015 41.5106L675.578 25.1307C681.639 18.9227 684.931 17.8008 687.7 17.8008L688.298 15.2578H668.395L667.796 17.8008H668.395C671.089 17.8008 671.388 20.8674 671.388 21.3162C671.388 24.3079 669.218 26.1778 667.871 27.5989L650.512 46.0731H650.063Z" fill="#2D2D2D" fill-opacity="0.3"/>
<path d="M700.361 84.0686C722.284 84.0686 736.8 61.4059 736.8 39.94C736.8 14.8091 719.441 13.9863 716.373 13.9863C696.919 13.9863 679.934 33.5824 679.934 58.115C679.934 72.0267 685.995 84.0686 700.361 84.0686ZM701.483 80.2541C695.572 80.2541 692.729 75.0933 692.729 66.9407C692.729 46.9706 701.334 17.8008 715.176 17.8008C723.182 17.8008 724.005 26.6266 724.005 31.1142C724.005 51.0843 715.401 80.2541 701.483 80.2541Z" fill="#2D2D2D" fill-opacity="0.3"/>
<path d="M767.448 15.2578H747.695L746.947 17.8008H747.47C749.116 17.8008 753.307 18.1748 753.307 21.8397C753.307 23.0364 752.858 25.5046 752.633 26.1778L740.811 71.8771C739.24 78.2346 737.743 80.2541 731.907 80.2541H730.859L730.186 82.7971H750.239L750.987 80.2541H749.865C746.872 80.2541 744.178 79.8053 744.178 76.5144C744.178 75.4672 744.702 73.1486 745.076 71.8771L756.524 27.4493H756.674L763.258 82.7971H764.979L798.8 27.4493H799.024L787.651 71.8771C786.229 77.1127 785.032 80.2541 779.121 80.2541H777.475L776.876 82.7971H805.459L806.207 80.2541H805.01C800.969 80.2541 799.548 79.1322 799.548 76.5144C799.548 75.8412 799.623 74.8689 800.371 71.8771L811.969 26.1778C813.465 20.1194 815.41 17.8008 820.573 17.8008H822.145L822.893 15.2578H801.942L773.06 62.5278L767.448 15.2578Z" fill="#2D2D2D" fill-opacity="0.3"/>
<path d="M870.989 13.9863H869.044C868.371 15.8562 866.949 16.8285 865.004 16.8285C863.357 16.8285 861.861 15.7066 859.317 14.9587C857.297 14.2855 855.501 13.9863 852.433 13.9863C831.632 13.9863 812.402 32.0118 812.402 56.0955C812.402 70.6056 819.585 84.0686 835.747 84.0686C841.733 84.0686 852.358 82.7223 860.739 68.5114L858.868 67.0903C854.603 74.121 847.121 78.6834 840.461 78.6834C830.061 78.6834 826.469 68.5114 826.469 58.5637C826.469 35.8263 839.788 17.8008 852.059 17.8008C859.99 17.8008 863.881 26.7762 863.881 34.3304H865.677L870.989 13.9863Z" fill="#2D2D2D" fill-opacity="0.3"/>
<path d="M885.712 84.0686C907.635 84.0686 922.151 61.4059 922.151 39.94C922.151 14.8091 904.792 13.9863 901.724 13.9863C882.27 13.9863 865.285 33.5824 865.285 58.115C865.285 72.0267 871.346 84.0686 885.712 84.0686ZM886.834 80.2541C880.923 80.2541 878.08 75.0933 878.08 66.9407C878.08 46.9706 886.685 17.8008 900.527 17.8008C908.533 17.8008 909.356 26.6266 909.356 31.1142C909.356 51.0843 900.752 80.2541 886.834 80.2541Z" fill="#2D2D2D" fill-opacity="0.3"/>
<path d="M952.8 15.2578H933.046L932.298 17.8008H932.822C934.468 17.8008 938.658 18.1748 938.658 21.8397C938.658 23.0364 938.209 25.5046 937.985 26.1778L926.163 71.8771C924.591 78.2346 923.095 80.2541 917.259 80.2541H916.211L915.538 82.7971H935.59L936.339 80.2541H935.216C932.223 80.2541 929.53 79.8053 929.53 76.5144C929.53 75.4672 930.053 73.1486 930.428 71.8771L941.876 27.4493H942.025L948.61 82.7971H950.331L984.151 27.4493H984.376L973.002 71.8771C971.581 77.1127 970.384 80.2541 964.472 80.2541H962.826L962.228 82.7971H990.81L991.559 80.2541H990.361C986.321 80.2541 984.899 79.1322 984.899 76.5144C984.899 75.8412 984.974 74.8689 985.722 71.8771L997.32 26.1778C998.817 20.1194 1000.76 17.8008 1005.92 17.8008H1007.5L1008.24 15.2578H987.294L958.412 62.5278L952.8 15.2578Z" fill="#2D2D2D" fill-opacity="0.3"/>
<path d="M1018.18 84.0686C1040.1 84.0686 1054.62 61.4059 1054.62 39.94C1054.62 14.8091 1037.26 13.9863 1034.19 13.9863C1014.74 13.9863 997.754 33.5824 997.754 58.115C997.754 72.0267 1003.81 84.0686 1018.18 84.0686ZM1019.3 80.2541C1013.39 80.2541 1010.55 75.0933 1010.55 66.9407C1010.55 46.9706 1019.15 17.8008 1033 17.8008C1041 17.8008 1041.83 26.6266 1041.83 31.1142C1041.83 51.0843 1033.22 80.2541 1019.3 80.2541Z" fill="#2D2D2D" fill-opacity="0.3"/>
<path d="M1099.85 19.1471L1086.15 71.8771C1085.03 75.916 1083.98 80.2541 1077.62 80.2541H1075.98L1075.38 82.7971H1104.04L1104.63 80.2541H1103.59C1100.44 80.2541 1098.12 79.7305 1098.12 76.5144C1098.12 75.4672 1098.5 73.0738 1098.8 71.8771L1110.62 26.1778C1111.59 21.9893 1112.94 17.8008 1119.15 17.8008H1120.8L1121.47 15.2578H1073.73L1072.98 17.8008H1074.18C1077.32 17.8008 1080.02 19.8203 1080.02 23.934C1080.02 26.5518 1079.34 27.8233 1078.67 29.7679L1076.35 39.1172C1072.39 55.1232 1066.17 78.0102 1060.71 78.0102C1059.22 78.0102 1059.14 76.4396 1059.14 75.6916C1059.22 71.4283 1057.05 69.4837 1053.98 69.4837C1050.24 69.4837 1048.29 72.8494 1048.29 76.0656C1048.29 79.5061 1050.16 84.0686 1056.82 84.0686C1067.07 84.0686 1071.04 75.6916 1080.54 39.1172L1085.63 19.1471H1099.85Z" fill="#2D2D2D" fill-opacity="0.3"/>
<path d="M1169.67 15.2578H1126.13L1125.38 17.8008H1126.58C1130.62 17.8008 1132.04 18.9227 1132.04 21.5405C1132.04 22.2137 1131.96 23.3356 1131.21 26.1778L1119.39 71.8771C1117.75 78.085 1116.03 80.2541 1110.86 80.2541H1109.22L1108.54 82.7971H1153.44L1160.02 65.4448H1158.23C1147.53 78.2346 1140.72 78.9078 1136.3 78.9078C1135.26 78.9078 1131.66 79.1322 1131.66 74.1957C1131.66 73.8966 1131.74 72.8494 1132.56 69.7829L1137.95 49.0648H1141.32C1144.53 49.0648 1150 49.1396 1150 58.115V59.3865H1151.87L1158 35.4523H1156.13C1153.96 41.5854 1148.35 45.1755 1141.76 45.1755H1138.92L1145.66 19.1471H1149.17C1152.99 19.1471 1162.94 19.5211 1163.39 31.8622H1165.33L1169.67 15.2578Z" fill="#2D2D2D" fill-opacity="0.3"/>
<path d="M1177.2 15.2578L1176.52 17.8008H1177.57C1181.76 17.8008 1183.11 18.9227 1183.11 21.5405C1183.11 22.3633 1182.58 25.2803 1182.28 26.1778L1170.54 71.8771C1169.26 77.1875 1167.69 80.2541 1162.01 80.2541H1160.36L1159.69 82.7971H1201.51C1208.47 82.7971 1216.25 83.545 1216.03 99.9998H1218.27L1223.66 78.9078H1217.6C1216.18 78.9078 1215.51 78.6834 1215.51 77.1127V76.2152C1215.51 75.7664 1215.51 75.4672 1215.58 75.1681L1228.3 26.0282C1229.8 20.269 1231.67 17.8008 1237.35 17.8008H1238.25L1239 15.2578H1211.02L1210.27 17.8008H1210.79C1215.65 17.8008 1216.25 19.5211 1216.25 21.5405C1216.25 22.5877 1215.88 25.1307 1215.58 26.1778L1201.96 78.9078H1181.24L1194.93 26.1778C1195.83 21.9893 1197.25 17.8008 1203.38 17.8008H1204.43L1205.18 15.2578H1177.2Z" fill="#2D2D2D" fill-opacity="0.3"/>
</svg>
