<svg width="72" height="72" viewBox="0 0 72 72" fill="none" xmlns="http://www.w3.org/2000/svg">
<path fill-rule="evenodd" clip-rule="evenodd" d="M20.9375 8.59766H51.0537V30.1231H20.9375V8.59766Z" fill="#B5D8D2"/>
<path fill-rule="evenodd" clip-rule="evenodd" d="M28.4264 8.59766H51.0516V24.7695C49.4217 25.2434 47.6878 25.4994 45.8892 25.4994C36.2381 25.4994 28.418 18.1405 28.418 9.06031C28.418 8.90422 28.4222 8.74953 28.4264 8.59766Z" fill="#E9EAE3"/>
<path fill-rule="evenodd" clip-rule="evenodd" d="M20.4145 4.33252H51.5742C52.7456 4.33252 53.7075 5.29299 53.7075 6.4658C53.7075 7.63721 52.747 8.59908 51.5742 8.59908H20.4145C19.2431 8.59908 18.2812 7.63861 18.2812 6.4658C18.2827 5.29299 19.2431 4.33252 20.4145 4.33252Z" fill="#B5D8D2"/>
<path fill-rule="evenodd" clip-rule="evenodd" d="M34.398 25.5991H37.5916C40.788 25.5991 43.4036 28.2176 43.4036 31.4154V37.2274H28.5859V31.4154C28.5859 28.2176 31.2016 25.5991 34.398 25.5991Z" fill="#B5D8D2"/>
<path fill-rule="evenodd" clip-rule="evenodd" d="M34.3966 25.6343H37.5902C40.7866 25.6343 43.4023 28.2499 43.4023 31.4463V32.3308C42.1985 33.7933 39.9063 34.5668 37.1473 34.2124C33.6316 33.7624 30.431 31.6207 29.1035 29.0585C30.0162 27.0462 32.0524 25.6343 34.3966 25.6343Z" fill="#E9EAE3"/>
<path fill-rule="evenodd" clip-rule="evenodd" d="M36.3079 26.9378C31.9077 26.9378 31.791 20.3214 31.791 20.3214C33.7401 17.0772 40.8037 19.6394 40.8079 19.6394C40.9035 19.7435 40.8951 19.7111 40.8951 19.8982C40.8965 23.785 38.8434 26.9378 36.3079 26.9378Z" fill="#B5D8D2"/>
<path fill-rule="evenodd" clip-rule="evenodd" d="M35.5133 18.6792C38.0572 18.6426 40.8064 19.6397 40.8064 19.6397C40.902 19.7437 40.8936 19.7114 40.8936 19.8984C40.8936 23.1187 39.4831 25.8384 37.5566 26.6709C33.6022 25.1887 33.5431 20.5326 34.1956 19.807C34.5163 19.2726 34.9747 18.9098 35.5133 18.6792Z" fill="#E9EAE3"/>
<path fill-rule="evenodd" clip-rule="evenodd" d="M34.525 19.4243C34.6009 18.2205 34.2972 17.0252 33.6602 16.0001C38.8183 13.0821 41.8473 14.6402 42.7361 20.6843C41.6997 19.8307 40.3637 19.4285 39.0292 19.5677C37.3544 20.1499 35.8525 20.1021 34.525 19.4243Z" fill="#E9EAE3"/>
<path fill-rule="evenodd" clip-rule="evenodd" d="M34.5245 19.4245C34.5723 18.675 34.5962 18.3487 34.3613 17.6428C37.877 16.0875 40.1129 16.3308 41.3166 19.8633C40.591 19.5919 39.8105 19.485 39.0287 19.568C37.3538 20.1502 35.852 20.1023 34.5245 19.4245Z" fill="#B5D8D2"/>
<path fill-rule="evenodd" clip-rule="evenodd" d="M33.6614 16C30.8152 16.3023 30.9628 18.4356 31.7799 20.6912C32.6293 20.1372 33.5532 19.7111 34.5263 19.4242C34.6022 18.2205 34.2985 17.0252 33.6614 16Z" fill="#B5D8D2"/>
<path fill-rule="evenodd" clip-rule="evenodd" d="M21.8884 35.1899H50.0992L50.7644 44.6371L51.1159 48.9346L51.933 63.3332H20.0547L20.8759 48.9346L21.2233 44.6371L21.8884 35.1899Z" fill="#B5D8D2"/>
<path fill-rule="evenodd" clip-rule="evenodd" d="M50.4338 39.9302L50.7643 44.6369L51.1159 48.9344L51.9329 63.333H25.2324L25.7865 53.6735L26.1338 49.3802L26.799 39.9302H50.4338Z" fill="#E9EAE3"/>
<path fill-rule="evenodd" clip-rule="evenodd" d="M16.1161 38.3667H14.7056C11.6316 38.3667 9.11719 40.8825 9.11719 43.9551V51.5362C9.11719 53.2589 10.5206 54.6609 12.2391 54.6609H19.8722L20.1 51.5883H26.7178C27.7936 51.5883 28.6669 50.715 28.6669 49.6392C28.6669 48.7111 28.0214 47.9334 27.1566 47.7337C28.1887 47.7661 28.8145 47.0714 28.958 46.1953C29.0423 45.7045 28.9186 45.2461 28.5994 44.8636C28.2802 44.4811 27.8583 44.2772 27.3591 44.2659L21.6947 44.1661L20.3236 41.4633C19.4053 39.0487 17.3086 38.3667 16.1161 38.3667Z" fill="#B5D8D2"/>
<path fill-rule="evenodd" clip-rule="evenodd" d="M16.1161 38.3667H14.7056C11.6316 38.3667 9.11719 40.8825 9.11719 43.9551V51.5362V51.5644C15.2723 51.2255 21.81 46.6734 19.4967 40.0205C18.532 39.2358 17.4478 38.3667 16.1161 38.3667Z" fill="#E9EAE3"/>
<path fill-rule="evenodd" clip-rule="evenodd" d="M14.7056 38.3664C9.93845 38.3664 9.8147 31.2029 9.8147 31.2029C11.9241 27.6873 19.5769 30.4619 19.5811 30.4661C19.6852 30.5772 19.6725 30.5462 19.6725 30.7445C19.6725 34.9548 17.4478 38.3664 14.7056 38.3664Z" fill="#B5D8D2"/>
<path fill-rule="evenodd" clip-rule="evenodd" d="M13.8501 29.4259C16.6007 29.3865 19.5778 30.4623 19.582 30.4665C19.6861 30.5776 19.6734 30.5466 19.6734 30.7449C19.6734 34.2324 18.1462 37.1743 16.0621 38.0799C11.7773 36.4768 11.7168 31.4354 12.4228 30.6451C12.7687 30.0685 13.2637 29.6776 13.8501 29.4259Z" fill="#E9EAE3"/>
<path fill-rule="evenodd" clip-rule="evenodd" d="M11.8401 26.5244C8.75474 26.8507 8.91787 29.1639 9.79958 31.6024C10.7207 31.0047 11.7205 30.5421 12.7738 30.2313C12.8568 28.9277 12.5291 27.6325 11.8401 26.5244Z" fill="#B5D8D2"/>
<path fill-rule="evenodd" clip-rule="evenodd" d="M12.7719 30.2316C12.8563 28.928 12.5287 27.6328 11.8396 26.5247C17.4238 23.3635 20.7046 25.0538 21.6693 31.5999C20.5457 30.6746 19.0987 30.2372 17.6516 30.3877C15.8376 31.0163 14.2105 30.9643 12.7719 30.2316Z" fill="#E9EAE3"/>
<path fill-rule="evenodd" clip-rule="evenodd" d="M12.7714 30.2313C12.8234 29.4227 12.7194 28.6127 12.4648 27.8519C16.2716 26.17 18.8267 27.1221 20.1303 30.7066C19.3456 30.4113 18.5005 30.3002 17.6511 30.3874C15.837 31.016 14.21 30.9639 12.7714 30.2313Z" fill="#B5D8D2"/>
<path fill-rule="evenodd" clip-rule="evenodd" d="M55.1191 38.1445H56.6856C60.0902 38.1445 62.8717 40.9275 62.8717 44.3306V52.7302C62.8717 54.6356 61.3206 56.1895 59.4152 56.1895H50.9566L50.7091 52.785H43.3783C42.1858 52.785 41.2183 51.8161 41.2183 50.625C41.2183 49.597 41.9355 48.7392 42.8959 48.5156C41.7484 48.5522 41.058 47.7816 40.8949 46.8098C40.8077 46.2684 40.9427 45.7608 41.2928 45.3389C41.6472 44.917 42.1183 44.685 42.6681 44.6766L48.9428 44.5613L50.4616 41.5673C51.4755 38.8969 53.7986 38.1445 55.1191 38.1445Z" fill="#B5D8D2"/>
<path fill-rule="evenodd" clip-rule="evenodd" d="M55.1179 38.1445H56.6845C60.089 38.1445 62.8706 40.9275 62.8706 44.3306V52.7302V52.7583C56.0545 52.3842 48.8151 47.3456 51.3745 39.9741C52.4432 39.105 53.6428 38.1445 55.1179 38.1445Z" fill="#E9EAE3"/>
<path fill-rule="evenodd" clip-rule="evenodd" d="M56.0713 38.1443C61.0298 38.1443 61.1577 30.6898 61.1577 30.6898C58.9654 27.035 51.0088 29.9206 51.0004 29.9206C50.8921 30.0401 50.9048 30.005 50.9048 30.2159C50.9048 34.5922 53.2166 38.1443 56.0713 38.1443Z" fill="#B5D8D2"/>
<path fill-rule="evenodd" clip-rule="evenodd" d="M56.9643 28.8409C54.1026 28.8015 51.0046 29.9209 51.0004 29.9209C50.8921 30.0404 50.9048 30.0052 50.9048 30.2162C50.9048 33.8443 52.4952 36.9057 54.6637 37.8465C59.1158 36.1759 59.1805 30.9305 58.4465 30.1093C58.0879 29.5102 57.5746 29.1038 56.9643 28.8409Z" fill="#E9EAE3"/>
<path fill-rule="evenodd" clip-rule="evenodd" d="M59.0509 25.8228C62.2599 26.1617 62.0926 28.5692 61.1715 31.1088C60.2153 30.4831 59.1746 30.0007 58.0778 29.6815C57.9906 28.3259 58.3337 26.9745 59.0509 25.8228Z" fill="#B5D8D2"/>
<path fill-rule="evenodd" clip-rule="evenodd" d="M58.0801 29.6817C57.9929 28.3261 58.3346 26.9747 59.0532 25.823C53.2412 22.5338 49.8324 24.2958 48.8284 31.1006C49.997 30.1402 51.5031 29.6859 53.0063 29.8406C54.8907 30.4988 56.5852 30.4425 58.0801 29.6817Z" fill="#E9EAE3"/>
<path fill-rule="evenodd" clip-rule="evenodd" d="M58.08 29.6818C58.028 28.8367 58.1405 27.9999 58.4034 27.2068C54.4406 25.4574 51.7828 26.446 50.4314 30.1768C51.2442 29.8703 52.1259 29.7507 53.0062 29.8421C54.8906 30.4988 56.5851 30.4426 58.08 29.6818Z" fill="#B5D8D2"/>
<path fill-rule="evenodd" clip-rule="evenodd" d="M34.2693 55.0337H37.7174C41.1768 55.0337 44.0118 57.8645 44.0118 61.3238V67.614H27.9763V61.3238C27.9763 57.8645 30.8099 55.0337 34.2693 55.0337Z" fill="#B5D8D2"/>
<path fill-rule="evenodd" clip-rule="evenodd" d="M34.269 55.0337H37.7171C41.1765 55.0337 44.0115 57.8645 44.0115 61.3238V62.2801C42.7037 63.8621 40.2245 64.7003 37.239 64.3178C33.4365 63.827 29.9757 61.5109 28.5371 58.7363C29.5257 56.5567 31.7307 55.0337 34.269 55.0337Z" fill="#E9EAE3"/>
<path fill-rule="evenodd" clip-rule="evenodd" d="M34.9357 55.0051C39.5398 55.9375 41.0543 49.0454 41.0543 49.0454C39.7029 45.2387 31.7744 46.427 31.7702 46.427C31.6507 46.5142 31.6662 46.4875 31.6268 46.6787C30.8055 50.7442 32.2891 54.4708 34.9357 55.0051Z" fill="#B5D8D2"/>
<path fill-rule="evenodd" clip-rule="evenodd" d="M37.5072 46.5383C34.8606 45.9646 31.7753 46.4273 31.7711 46.4273C31.6516 46.5144 31.667 46.4877 31.6276 46.679C30.9456 50.0469 31.847 53.1885 33.685 54.4682C38.133 53.7552 39.1778 48.8952 38.6476 47.998C38.4283 47.3723 38.0261 46.8983 37.5072 46.5383Z" fill="#E9EAE3"/>
<path fill-rule="evenodd" clip-rule="evenodd" d="M40.014 44.1309C42.9277 45.0477 42.3174 47.2485 40.9899 49.4324C40.2207 48.6745 39.3432 48.0332 38.387 47.527C38.5627 46.2557 39.1295 45.0674 40.014 44.1309Z" fill="#B5D8D2"/>
<path fill-rule="evenodd" clip-rule="evenodd" d="M38.3875 47.5268C38.5633 46.2556 39.1286 45.0673 40.0145 44.1307C35.2347 39.9893 31.743 40.9821 29.5352 47.112C30.7994 46.4384 32.2816 46.2992 33.6484 46.7253C35.2741 47.6914 36.8519 47.9585 38.3875 47.5268Z" fill="#E9EAE3"/>
<path fill-rule="evenodd" clip-rule="evenodd" d="M38.3891 47.5267C38.4974 46.7378 38.7562 45.9756 39.1499 45.2907C35.8016 42.9226 33.1509 43.3459 31.1934 46.5507C32.0062 46.4185 32.8471 46.479 33.6487 46.7265C35.2757 47.6912 36.8535 47.9584 38.3891 47.5267Z" fill="#B5D8D2"/>
<path d="M38.6391 44.2742C35.3823 41.7556 33.0788 42.0256 31.2648 45.5539C32.162 45.4428 33.0704 45.5174 33.9395 45.7888C34.0238 45.8169 34.0984 45.8521 34.1673 45.8928C35.2191 46.5313 36.3962 46.8617 37.5437 46.7056C37.7546 45.8338 38.1259 45.0083 38.6391 44.2742ZM38.2482 48.576C37.4705 48.7391 36.6859 48.756 35.8927 48.6195C35.0152 48.4719 34.1349 48.1456 33.2532 47.6352C32.9987 47.5635 32.7385 47.5156 32.4798 47.4875C32.252 49.1019 32.4165 50.6164 32.8904 51.8047C33.3685 53.0085 34.1546 53.8494 35.1305 54.0491C37.8052 54.575 39.241 51.546 39.8457 49.7122C39.3535 49.2819 38.8149 48.898 38.2482 48.576ZM30.4759 47.7589C30.0062 47.9389 29.694 48.237 29.1638 48.0219C30.452 49.9625 29.0555 52.5739 26.717 52.5739H21.6502L21.0962 62.3488H26.9954V61.3236C26.9954 58.0949 29.1357 55.2922 32.1423 54.3683C30.7234 52.6696 30.248 50.1228 30.4759 47.7589ZM29.5787 44.5541C30.6587 42.5136 31.9777 41.2691 33.5443 40.8275C35.589 40.2453 37.9093 41.0581 40.5038 43.2631C40.9904 43.4305 41.3968 43.6344 41.7357 43.865C42.0352 43.761 42.3263 43.7061 42.6526 43.6977L48.3324 43.5936L49.5362 41.2185L49.1818 36.1756H22.8062L22.3126 43.1999L27.3751 43.2913C28.299 43.3053 29.0921 43.768 29.5787 44.5541ZM42.9929 45.6538C43.1363 46.2711 43.0927 46.8969 42.9254 47.5353C45.8195 47.5353 48.781 47.5677 51.6666 47.503L53.0293 43.896C53.2205 43.3855 53.7873 43.131 54.2935 43.3222C54.804 43.5135 55.0585 44.0802 54.8673 44.5864L53.2684 48.8108C53.1334 49.1736 52.786 49.4366 52.3754 49.445L50.2505 49.5055H43.0168C42.7932 49.5772 42.602 49.7122 42.4585 49.8922C41.8524 50.653 42.391 51.8061 43.3796 51.8061H50.7104H53.9715C54.4693 51.8061 54.908 51.4996 55.0796 51.0172L57.0919 45.3528C57.2719 44.8381 57.833 44.571 58.3435 44.751C58.8582 44.931 59.1254 45.4921 58.9454 46.0067L56.933 51.6711C56.4873 52.9311 55.2905 53.7678 53.9715 53.7678H51.7665L51.8748 55.2064H59.4165C60.7763 55.2064 61.8873 54.0941 61.8873 52.7314V44.3361C61.8873 41.4744 59.543 39.1302 56.6855 39.1302H55.119C53.6846 39.1302 52.0899 40.1342 51.4599 41.7219L51.3404 42.0172L49.8216 45.0111L49.8174 45.0069C49.6585 45.3219 49.3351 45.5413 48.9568 45.5483L42.9929 45.6538ZM41.1141 46.3555C41.0945 45.9533 40.8596 45.5947 40.3084 45.3064C39.9301 45.8253 39.6502 46.4061 39.4871 47.0249L40.719 47.8813C40.9552 47.368 41.1352 46.8097 41.1141 46.3555ZM40.8118 52.4389C40.4729 53.0731 40.051 53.7186 39.5405 54.2811C42.7018 55.1024 44.9982 57.981 44.9982 61.325V62.3502H50.8974L50.5979 57.1077C50.2393 56.9642 49.9834 56.6169 49.9763 56.2105L49.7963 53.7706H43.3782C42.3305 53.7692 41.3855 53.256 40.8118 52.4389ZM36.5466 56.0178C36.0727 56.0938 35.5623 56.1022 35.0152 56.0178H34.2699C31.352 56.0178 28.9599 58.4056 28.9599 61.3236V66.6294H31.6191V62.7706C31.6191 62.2292 32.0621 61.7863 32.6035 61.7863C33.1491 61.7863 33.5879 62.2292 33.5879 62.7706V66.6294H38.3987V62.7706C38.3987 62.2292 38.8416 61.7863 39.383 61.7863C39.9259 61.7863 40.3674 62.2292 40.3674 62.7706V66.6294H43.0266V61.3236C43.0266 58.4056 40.6346 56.0178 37.7166 56.0178H36.5466ZM44.9968 64.3175V67.6138C44.9968 68.1594 44.5538 68.5981 44.0124 68.5981H27.977C27.4341 68.5981 26.9968 68.1594 26.9968 67.6138V64.3175H20.057C19.4748 64.3175 19.0205 63.8352 19.081 63.2094L19.5113 55.648H12.241C9.97695 55.648 8.13477 53.803 8.13477 51.5417V43.9564C8.13477 41.525 9.47773 39.3524 11.5224 38.2119C11.1751 37.9124 10.8685 37.5664 10.5971 37.191C9.35398 35.4571 8.98695 33.0974 8.87867 31.9372C8.37664 30.5535 8.08977 29.1781 8.38086 28.0349C8.7043 26.751 9.63242 25.8299 11.5295 25.5753C14.5515 23.9047 17.0223 23.563 18.9362 24.5502C19.3032 24.7372 19.6421 24.9692 19.9529 25.2477V9.5469C17.4582 9.17564 16.3895 6.09033 18.2148 4.26502C18.7773 3.6983 19.5577 3.34814 20.4155 3.34814H51.5752C54.3259 3.34814 55.749 6.69643 53.7802 8.66939C53.3176 9.12783 52.7115 9.44705 52.0379 9.5469V23.6417C53.9673 22.8289 56.4113 23.2396 59.3645 24.8736C61.3262 25.1366 62.2824 26.0858 62.6171 27.4049C62.9166 28.5847 62.6171 30.0078 62.0982 31.4422L62.094 31.4464C61.9829 32.6417 61.6032 35.0985 60.3123 36.8956C60.0887 37.2064 59.8384 37.5017 59.5627 37.7647C62.1221 38.8925 63.856 41.4435 63.856 44.3347V52.73C63.856 55.1811 61.8634 57.1752 59.4151 57.1752H52.5666L52.914 63.2825C52.9463 63.845 52.4949 64.3147 51.9338 64.3147V64.3189H44.9968V64.3175ZM57.729 26.2292C53.5918 24.1677 51.3151 25.2013 50.2196 29.2035C51.0732 28.88 52.1841 28.7731 53.1095 28.8688C53.1966 28.8772 53.281 28.8969 53.3612 28.9292C54.5888 29.375 55.9248 29.4636 57.0877 29.0445C57.1159 28.07 57.3352 27.118 57.729 26.2292ZM58.1523 30.7292C57.383 31.0639 56.5702 31.2481 55.7209 31.2749C54.7927 31.303 53.8154 31.1469 52.8029 30.808C52.5034 30.7841 52.201 30.7883 51.9057 30.8235C51.9971 32.5728 52.4921 34.1366 53.2416 35.2841C53.9954 36.44 54.9995 37.1572 56.0724 37.1572C59.0143 37.1572 59.8679 33.6331 60.1027 31.6011C59.484 31.2481 58.8259 30.9571 58.1523 30.7292ZM49.9805 31.483C49.4616 31.798 49.2465 32.1566 48.6854 32.0736C48.1988 32.0019 47.8487 31.5871 47.8445 31.1089H44.3809C44.3851 31.213 44.3893 31.3128 44.3893 31.4155V34.2055H50.1015C50.2885 34.2055 50.4643 34.2575 50.6162 34.3489C50.2998 33.4714 50.0804 32.5039 49.9805 31.483ZM48.2059 29.1388C48.6277 27.4288 49.2465 26.0858 50.0677 25.1169V9.58205H21.9216V28.4131C22.006 28.648 22.0805 28.8871 22.1523 29.1388H27.9966C28.6618 27.2853 30.113 25.7947 31.9552 25.0761C31.8948 24.9608 31.8357 24.8413 31.7837 24.726C31.1537 23.3464 30.9301 21.8474 30.8513 21.0149C30.3887 19.7267 30.1215 18.4471 30.3929 17.3755C30.6995 16.1633 31.5727 15.2942 33.3502 15.051C36.1599 13.4999 38.4605 13.1849 40.2507 14.1102C42.0648 15.0467 43.2165 17.1871 43.7143 20.5438C43.838 21.4044 42.8255 22.0583 42.0676 21.4044C41.9832 21.3369 41.896 21.2722 41.8046 21.2131C41.633 22.7558 41.1549 24.155 40.4687 25.2631C42.1027 26.0366 43.3782 27.44 43.9927 29.1374H48.2059V29.1388ZM60.7074 27.8788C60.5963 27.44 60.2574 27.0969 59.5796 26.9141C59.273 27.5553 59.0973 28.2528 59.0579 28.9672L60.6048 29.6408C60.7707 28.9672 60.8312 28.3583 60.7074 27.8788ZM52.727 37.7169C52.0688 37.1024 51.5274 36.3374 51.1084 35.5049L51.3277 38.6225C51.758 38.2471 52.2277 37.9489 52.727 37.7169ZM11.7966 29.5213C11.7573 28.8631 11.5927 28.2135 11.3143 27.6158C10.697 27.7916 10.389 28.1066 10.2863 28.5088C10.1752 28.9546 10.2259 29.5171 10.3735 30.1358L11.7966 29.5213ZM22.591 31.1075C22.6065 31.2228 22.6276 31.3381 22.643 31.4549C22.771 32.3155 21.7585 32.9694 21.0005 32.3155C20.8684 32.2114 20.7334 32.1158 20.5941 32.0286C20.3663 34.2294 19.5423 36.381 18.1262 37.8125C19.0993 38.2231 19.9473 38.901 20.5773 39.8291L20.9077 35.121C20.9471 34.6021 21.3774 34.2041 21.8879 34.2041H27.6001V31.4155C27.6001 31.3114 27.6043 31.2116 27.6085 31.1089H22.591V31.1075ZM18.6718 31.3677C18.4004 31.3353 18.129 31.3353 17.8548 31.3564C16.8788 31.6827 15.9409 31.8345 15.0409 31.8022C14.2238 31.7783 13.4462 31.6025 12.7051 31.2833C12.3465 31.4028 11.9949 31.5421 11.649 31.7024C11.386 31.8219 11.1273 31.9569 10.8713 32.1003C11.102 34.0381 11.9162 37.3864 14.7062 37.3864C15.7229 37.3864 16.6791 36.7044 17.3963 35.6005C18.1065 34.5078 18.5762 33.0299 18.6718 31.3677ZM13.5502 28.0672C13.6782 28.565 13.7499 29.0755 13.7654 29.5944C14.8693 29.9853 16.1377 29.8967 17.3007 29.4749C17.3766 29.4425 17.4638 29.4228 17.5524 29.4116C18.4848 29.316 19.4101 29.4228 20.2791 29.7181C19.2385 26.0155 17.1263 24.9706 13.1635 26.9352C13.3224 27.3008 13.4546 27.6805 13.5502 28.0672ZM20.514 48.7236L18.593 48.6716C18.1824 48.6603 17.8351 48.396 17.7001 48.0331H17.6959L16.2573 44.218C16.066 43.7117 16.3205 43.145 16.8268 42.9538C17.3373 42.7625 17.9026 43.0171 18.0938 43.5275L19.3018 46.7239C21.8893 46.7802 24.5598 46.752 27.1543 46.752C27.6324 46.752 27.9038 46.5566 27.9868 46.0391C28.0585 45.62 27.752 45.2572 27.3413 45.2502L21.677 45.1461C21.3029 45.1377 20.9752 44.9225 20.8163 44.6075L19.4059 41.8105C18.8363 40.3044 17.4962 39.351 16.1166 39.351H14.7062C12.1749 39.351 10.1021 41.428 10.1021 43.955V51.5403C10.1021 52.716 11.0626 53.6764 12.2382 53.6764H18.9587L19.043 52.5683H17.153C15.9254 52.5683 14.8046 51.7864 14.3912 50.6108L12.5729 45.4963C12.3929 44.9816 12.6601 44.4205 13.1748 44.2405C13.6852 44.0605 14.2477 44.3277 14.4263 44.8424L16.2446 49.9569C16.3838 50.3549 16.7466 50.6066 17.153 50.6066H20.0991V50.6024H26.717C27.534 50.6024 27.9727 49.6574 27.4749 49.0358C27.3596 48.8881 27.2077 48.7813 27.0291 48.7208H20.514V48.7236ZM29.5702 34.2055H31.8905V31.7896C31.8905 31.2439 32.3335 30.8052 32.8749 30.8052C33.4205 30.8052 33.8593 31.2439 33.8593 31.7896V34.2055H38.1287V31.7896C38.1287 31.2439 38.5674 30.8052 39.113 30.8052C39.6559 30.8052 40.0974 31.2439 40.0974 31.7896V34.2055H42.4177V31.4155C42.4177 29.3539 41.1029 27.5047 39.1285 26.8396C38.3073 27.5286 37.3426 27.9238 36.3062 27.9238C34.9702 27.9238 33.9577 27.4541 33.1843 26.7397C31.051 27.298 29.5688 29.2344 29.5688 31.4155V34.2055H29.5702ZM33.1351 17.1013C32.6373 17.2574 32.3855 17.5231 32.2984 17.855C32.207 18.2291 32.2421 18.7044 32.3616 19.2261L33.5415 18.7156C33.5007 18.1574 33.3657 17.6103 33.1351 17.1013ZM34.9801 16.415C35.2993 17.1646 35.4779 17.9661 35.5145 18.7789C36.4552 19.0981 37.5071 19.0546 38.6799 18.651C38.7559 18.6228 38.8388 18.5989 38.9274 18.5905C39.7571 18.5061 40.5699 18.5947 41.3434 18.8338C40.3337 15.4025 38.3241 14.7767 34.9801 16.415ZM34.4584 20.4763C33.9043 20.6633 33.3587 20.9024 32.8482 21.1892C33.0718 22.9864 33.841 25.9522 36.3076 25.9522C37.3243 25.9522 38.1695 25.1985 38.7277 24.3421C39.369 23.3577 39.7965 22.0302 39.8921 20.5396C39.6727 20.5199 39.4534 20.5199 39.234 20.5353C37.4959 21.1147 35.9054 21.095 34.4584 20.4763ZM51.5752 5.31689H20.4141C19.4143 5.31689 18.8715 6.54455 19.6055 7.27439C20.0035 7.67658 20.4226 7.6133 20.9373 7.6133H51.5752C52.5751 7.6133 53.1179 6.38986 52.3838 5.6558C52.1771 5.44908 51.8902 5.31689 51.5752 5.31689Z" fill="#0B3D34"/>
</svg>
