<svg width="72" height="72" viewBox="0 0 72 72" fill="none" xmlns="http://www.w3.org/2000/svg">
<path fill-rule="evenodd" clip-rule="evenodd" d="M51.4629 8.35449C55.9474 8.84949 60.252 10.3753 64.0474 12.8151C58.1355 18.6989 54.4877 26.4754 53.7466 34.7836H51.4629V8.35449Z" fill="#B5D8D2"/>
<path fill-rule="evenodd" clip-rule="evenodd" d="M60.8777 16.4307C63.281 17.3869 65.5535 18.6596 67.6348 20.2261C61.308 25.6599 57.1034 33.1496 55.752 41.3775L51.4629 41.2102V34.785H53.7466C54.3443 28.0829 56.8362 21.7252 60.8777 16.4307Z" fill="#B5D8D2"/>
<path fill-rule="evenodd" clip-rule="evenodd" d="M19.232 4.42871H48.5705C50.1652 4.42871 51.4646 5.7323 51.4646 7.32277V52.0556C51.4646 53.6461 50.1652 54.9496 48.5705 54.9496H19.232C17.6373 54.9496 16.3379 53.6461 16.3379 52.0556V7.32277C16.3379 5.7323 17.6373 4.42871 19.232 4.42871Z" fill="#B5D8D2"/>
<path fill-rule="evenodd" clip-rule="evenodd" d="M25.2182 4.42871H48.569C50.1637 4.42871 51.463 5.7323 51.463 7.32277V48.4612H28.1151C26.5204 48.4612 25.2168 47.1618 25.2168 45.5672V4.42871H25.2182Z" fill="#E9EAE3"/>
<path fill-rule="evenodd" clip-rule="evenodd" d="M54.6214 63.8114C40.1595 56.2331 41.6065 55.3204 41.8371 37.3542C46.8279 36.5484 51.3603 34.0692 54.6214 30.3623C57.8825 34.0692 62.4106 36.5484 67.4056 37.3542C67.632 55.3204 69.0832 56.2331 54.6214 63.8114Z" fill="#B5D8D2"/>
<path fill-rule="evenodd" clip-rule="evenodd" d="M54.6207 59.842C43.5914 54.0623 44.6954 53.3648 44.8697 39.6679C48.6764 39.0505 52.133 37.1605 54.6207 34.334C57.1083 37.1605 60.5607 39.0491 64.3716 39.6679C64.5418 53.3634 65.6499 54.0609 54.6207 59.842Z" fill="#B5D8D2"/>
<path fill-rule="evenodd" clip-rule="evenodd" d="M54.6207 59.8423C43.5914 54.0626 44.6954 53.3651 44.8697 39.6682C47.6077 39.2253 50.1629 38.1214 52.3074 36.4873C54.7669 39.1029 58.08 40.8523 61.711 41.4387C61.8389 51.5243 62.4718 54.5618 58.3979 57.7709C57.3305 58.3981 56.0832 59.0759 54.6207 59.8423Z" fill="#E9EAE3"/>
<path fill-rule="evenodd" clip-rule="evenodd" d="M23.636 31.3879C16.557 28.6176 8.57651 32.1093 5.8062 39.1884C3.43385 45.2352 5.64307 51.9487 10.7576 55.4995L7.54432 61.2595L9.93213 62.5912L13.1454 56.827C13.2973 56.8945 13.4478 56.9592 13.6039 57.0182C20.6829 59.7885 28.6676 56.2968 31.4379 49.2177C34.2082 42.1429 30.7165 34.1582 23.636 31.3879Z" fill="#B5D8D2"/>
<path fill-rule="evenodd" clip-rule="evenodd" d="M15.6007 30.7734C11.2962 31.7466 7.53307 34.7672 5.8062 39.1884C3.43385 45.2353 5.64307 51.9488 10.7576 55.4995L9.80135 57.2138C10.9179 57.2503 12.0218 57.1505 13.0934 56.9227L13.1454 56.827C13.189 56.8467 13.2298 56.8636 13.2734 56.8833C17.5779 55.9102 21.341 52.8895 23.0679 48.4725C25.7932 41.5045 22.4562 33.6605 15.6007 30.7734Z" fill="#E9EAE3"/>
<path fill-rule="evenodd" clip-rule="evenodd" d="M9.79231 57.3133L12.1042 58.6043C12.6104 58.8869 12.7932 59.5324 12.5148 60.0387L8.6434 66.9799C8.36075 67.4862 7.71528 67.669 7.20903 67.3863L4.89293 66.0954C4.38668 65.8127 4.20387 65.1672 4.48653 64.661L8.35653 57.7212C8.63919 57.2149 9.28606 57.0307 9.79231 57.3133Z" fill="#B5D8D2"/>
<path fill-rule="evenodd" clip-rule="evenodd" d="M9.79231 57.3133L10.9482 57.9588L6.05309 66.7408L4.89293 66.0954C4.38668 65.8127 4.20387 65.1672 4.48653 64.661L8.35653 57.7212C8.63918 57.2149 9.28606 57.0307 9.79231 57.3133Z" fill="#B5D8D2"/>
<path fill-rule="evenodd" clip-rule="evenodd" d="M22.6665 33.8628C16.9543 31.6269 10.5123 34.445 8.28058 40.1572C6.04465 45.8651 8.86277 52.3072 14.5707 54.5431C20.2829 56.7791 26.725 53.9609 28.9609 48.2487C31.1982 42.5408 28.3787 36.0959 22.6665 33.8628Z" fill="#B5D8D2"/>
<path fill-rule="evenodd" clip-rule="evenodd" d="M19.3466 33.1171C14.6469 32.8106 10.0864 35.5373 8.27656 40.1568C6.04484 45.8648 8.86297 52.3068 14.5709 54.5428C15.492 54.9014 16.4244 55.1292 17.3609 55.236C19.8683 53.7257 21.9172 51.4054 23.0647 48.472C25.2345 42.9314 23.5681 36.8367 19.3466 33.1171Z" fill="#E9EAE3"/>
<path fill-rule="evenodd" clip-rule="evenodd" d="M22.0962 10.002H35.3698C35.9041 10.002 36.3429 10.4407 36.3429 10.9751V15.8266C36.3429 16.361 35.9041 16.7998 35.3698 16.7998H22.0962C21.5618 16.7998 21.123 16.361 21.123 15.8266V10.9751C21.123 10.4407 21.5618 10.002 22.0962 10.002Z" fill="#B5D8D2"/>
<path fill-rule="evenodd" clip-rule="evenodd" d="M24.3574 10.002H35.3712C35.9055 10.002 36.3443 10.4407 36.3443 10.9751V15.8266C36.3443 16.361 35.9055 16.7998 35.3712 16.7998H33.581C29.2455 15.7338 25.8171 13.2026 24.3574 10.002Z" fill="#B5D8D2"/>
<path d="M33.3623 37.3434C32.8209 37.3434 32.378 36.9046 32.378 36.359C32.378 35.8162 32.8209 35.3747 33.3623 35.3747H39.322C39.8648 35.3747 40.3064 35.8176 40.3064 36.359C40.3064 36.9046 39.8634 37.3434 39.322 37.3434H33.3623ZM39.6004 16.1807C39.059 16.1807 38.6203 15.742 38.6203 15.1964C38.6203 14.6536 39.059 14.212 39.6004 14.212H47.6048C48.1462 14.212 48.585 14.655 48.585 15.1964C48.585 15.742 48.1462 16.1807 47.6048 16.1807H39.6004ZM39.6004 11.7989C39.059 11.7989 38.6203 11.3559 38.6203 10.8145C38.6203 10.2689 39.059 9.83012 39.6004 9.83012H47.6048C48.1462 9.83012 48.585 10.2689 48.585 10.8145C48.585 11.3573 48.1462 11.7989 47.6048 11.7989H39.6004ZM21.0253 24.2245C20.4825 24.2245 20.0409 23.7815 20.0409 23.2401C20.0409 22.6987 20.4839 22.2557 21.0253 22.2557H34.244C34.7855 22.2557 35.2284 22.6987 35.2284 23.2401C35.2284 23.7829 34.7855 24.2245 34.244 24.2245H21.0253ZM38.3601 24.2245C37.8187 24.2245 37.3758 23.7815 37.3758 23.2401C37.3758 22.6987 37.8187 22.2557 38.3601 22.2557H46.8862C47.4276 22.2557 47.8706 22.6987 47.8706 23.2401C47.8706 23.7829 47.4276 24.2245 46.8862 24.2245H38.3601ZM27.6459 30.7861C27.1031 30.7861 26.6615 30.3431 26.6615 29.8017C26.6615 29.2561 27.1045 28.8173 27.6459 28.8173H37.7273C38.273 28.8173 38.7117 29.2561 38.7117 29.8017C38.7117 30.3445 38.273 30.7861 37.7273 30.7861H27.6459ZM40.8675 30.7861C40.3261 30.7861 39.8831 30.3431 39.8831 29.8017C39.8831 29.2561 40.3261 28.8173 40.8675 28.8173H47.3728C47.9142 28.8173 48.353 29.2561 48.353 29.8017C48.353 30.3445 47.9142 30.7861 47.3728 30.7861H40.8675ZM22.0969 9.01731H35.3705C36.4434 9.01731 37.328 9.90184 37.328 10.9748V15.8264C37.328 16.8993 36.4434 17.7839 35.3705 17.7839H22.0969C21.0253 17.7839 20.1394 16.8993 20.1394 15.8264V10.9748C20.1394 9.90184 21.0253 9.01731 22.0969 9.01731ZM35.3592 10.9861H22.1095V15.8137H35.3592V10.9861ZM22.3078 34.7756C19.7048 33.7589 16.9345 33.8911 14.5622 34.9317C9.4392 37.1676 7.10342 43.1428 9.34358 48.2615C11.5837 53.3845 17.5547 55.7203 22.6776 53.4801C27.7964 51.24 30.1322 45.2648 27.892 40.1461C26.8556 37.7737 24.915 35.7965 22.3078 34.7812V34.7756ZM13.7775 33.1303C19.8919 30.4556 27.0201 33.2456 29.6948 39.3614C32.3695 45.48 29.5795 52.604 23.4637 55.2787C17.3451 57.9534 10.2211 55.1634 7.54639 49.0476C4.87311 42.9318 7.66311 35.805 13.7775 33.1303ZM11.0915 56.9156L11.7651 57.2897L12.2869 56.3531C12.5386 55.8989 13.0997 55.7231 13.5623 55.9425C16.8909 57.4007 20.6456 57.27 23.7436 55.9143C30.142 53.1159 33.1823 45.6065 30.329 39.0801C29.0212 36.0862 26.5659 33.5873 23.2767 32.3034C16.763 29.7525 9.31686 32.9095 6.71811 39.547C4.55389 45.0764 6.48748 51.3342 11.3137 54.6951C11.7525 54.9975 11.8678 55.5965 11.5767 56.0381L11.0915 56.9156ZM13.3429 58.4906C13.7058 59.1009 13.7297 59.8701 13.3711 60.5198L9.50108 67.4597C8.95545 68.4398 7.71514 68.7956 6.73076 68.2443L4.41889 66.9562C3.43873 66.4064 3.08295 65.1703 3.62998 64.1859L7.49998 57.2461C7.85858 56.6006 8.53217 56.2139 9.24233 56.2012L9.47717 55.7793C4.42733 51.7898 2.5092 44.909 4.88858 38.8298C6.71389 34.1625 10.6922 30.8887 15.3525 29.8256V7.32277C15.3525 5.18949 17.0948 3.44434 19.2309 3.44434H48.5695C50.7056 3.44434 52.4479 5.18668 52.4479 7.32277V7.49012C56.7764 8.09621 60.8981 9.62621 64.5783 11.9901C65.1042 12.329 65.1998 13.0743 64.7104 13.5454C63.9131 14.3386 63.1594 15.1682 62.4506 16.0331C64.5122 16.9584 66.405 18.0778 68.2233 19.4447C68.7253 19.8187 68.7422 20.5725 68.2753 20.9718V20.9761C64.3969 24.3047 61.3115 28.4615 59.243 33.1176C61.7137 34.7798 64.5811 35.9118 67.5581 36.3857C68.0489 36.4659 68.399 36.892 68.3878 37.3743C68.4075 38.9451 68.4398 40.4076 68.4679 41.7506C68.759 56.0648 68.7914 57.4964 55.0776 64.6795C54.7753 64.8384 54.4322 64.8229 54.1565 64.6753C47.3447 61.1034 43.9233 58.9547 42.2498 55.934H27.5545C26.618 56.647 25.6012 57.2461 24.5297 57.7115C21.173 59.1783 17.2748 59.4061 13.5792 58.0617L13.3429 58.4906ZM11.6287 59.4623L9.31264 58.1742L9.21279 58.1981L5.34279 65.1393L5.37092 65.2434L7.68279 66.5315L7.78686 66.5034L11.654 59.5636L11.6287 59.4623ZM17.3212 29.5148C23.6508 28.9481 29.6034 32.52 32.1305 38.2968C34.41 43.5112 33.5058 49.634 29.6751 53.9709H41.423C40.5862 51.1683 40.6622 47.5007 40.7775 41.7534C40.8056 40.402 40.8379 38.9268 40.8576 37.3448C40.8619 36.8625 41.2205 36.4645 41.6831 36.3886C44.8683 35.8739 47.8903 34.642 50.4806 32.7886V7.32277C50.4806 6.27371 49.62 5.41309 48.5709 5.41309H19.2309C18.1819 5.41309 17.3212 6.27371 17.3212 7.32277V29.5148ZM49.0279 48.3726C48.6454 47.9901 48.6454 47.3686 49.0279 46.9818C49.4147 46.5993 50.0362 46.5993 50.4187 46.9818L53.7431 50.3062L58.6664 41.7759C58.9378 41.309 59.5397 41.1459 60.0094 41.4215C60.4762 41.6929 60.6351 42.2948 60.3637 42.7603L54.8344 52.3397C54.4912 52.9851 53.7065 53.0526 53.2551 52.6026L49.0279 48.3726ZM54.1537 60.7068C43.583 55.1662 43.6026 54.0581 43.829 43.0162C43.8529 41.984 43.8726 40.8562 43.8895 39.6553C43.8979 39.1687 44.2523 38.7707 44.7192 38.699C48.263 38.1253 51.5156 36.3745 53.8837 33.6843C54.2789 33.2343 54.9764 33.2414 55.3631 33.6886C57.7031 36.3675 61.0078 38.1365 64.5234 38.699C65.0142 38.775 65.3601 39.2053 65.3531 39.6876C65.3686 40.8759 65.3897 41.9911 65.4136 43.0162C65.6414 54.0623 65.6611 55.1662 55.0776 60.7111C54.7725 60.87 54.4294 60.8545 54.1537 60.7068ZM45.7908 43.0556C45.5911 52.8375 45.5672 53.9582 54.6206 58.7339C63.674 53.9582 63.6487 52.8389 63.4504 43.0556C63.435 42.2583 63.4139 41.4089 63.3984 40.485C60.0783 39.7917 57.0084 38.1576 54.6206 35.7698C52.2328 38.1576 49.1629 39.7917 45.8386 40.485C45.8273 41.4089 45.8076 42.2583 45.7908 43.0556ZM52.4479 31.184C52.7981 30.8578 53.137 30.5217 53.4647 30.1715C54.1987 26.8078 55.4053 23.5706 57.045 20.557C58.5201 17.8345 60.3455 15.299 62.49 13.0153C59.3962 11.2097 55.9889 10.0059 52.4494 9.47574V31.184H52.4479ZM55.5375 29.9128C56.1872 30.63 56.8847 31.2993 57.6258 31.9139C59.6423 27.525 62.5054 23.5861 66.0689 20.3095C64.5459 19.2647 62.8964 18.3562 61.2103 17.6306C58.5272 21.3065 56.5978 25.4761 55.5375 29.9128ZM42.7378 41.7914C42.4706 54.8428 42.4425 56.2898 54.6206 62.7037C66.7987 56.2898 66.7706 54.8428 66.5034 41.7914C66.4795 40.6748 66.4556 39.4795 66.4359 38.1801C61.9429 37.2872 57.7973 35.0793 54.6206 31.8098C51.4397 35.0779 47.2983 37.2872 42.8053 38.1801C42.7856 39.4795 42.7617 40.6762 42.7378 41.7914Z" fill="#0B3D34"/>
</svg>
