<svg width="56" height="56" viewBox="0 0 56 56" fill="none" xmlns="http://www.w3.org/2000/svg">
<path d="M28.5104 33.9904C28.8965 33.3232 28.9993 32.5489 28.8002 31.8095C28.6023 31.0679 28.1254 30.4478 27.4571 30.0617C26.7888 29.6778 26.0144 29.575 25.2751 29.7729L24.9448 29.8615L23.3501 23.9126C23.0012 22.61 21.6569 21.8323 20.3521 22.1801C20.351 22.1812 20.3499 22.1812 20.3488 22.1812C19.1424 22.5072 18.3888 23.6884 18.5627 24.897L10.3421 30.7693L4.5332 32.3257C3.30601 32.6539 2.49226 33.7597 2.47804 34.9726C0.663509 35.6343 -0.379929 37.59 0.128665 39.4876C0.57929 41.1709 2.10726 42.2843 3.77523 42.2843C3.98851 42.2843 4.20507 42.2636 4.42054 42.2264C4.66116 42.6311 5.00132 42.9701 5.42132 43.2129C5.77788 43.4186 6.16507 43.5389 6.5621 43.575L10.8813 49.9472C11.2652 50.5126 11.8263 50.8681 12.511 50.9753C12.6379 50.9939 12.7637 51.0037 12.8873 51.0037C13.4265 51.0037 13.9329 50.8254 14.3693 50.4776L15.2541 49.7732C16.2768 48.9562 16.4638 47.4961 15.6807 46.4493C15.6774 46.445 15.6741 46.4406 15.6709 46.4362L15.6544 46.4143C14.5115 44.8886 13.7021 43.5979 13.234 41.9628L13.3335 41.9365L23.3916 42.9122C23.5951 43.4207 23.9582 43.844 24.4405 44.1218C24.819 44.3406 25.2379 44.4511 25.6612 44.4511C25.8734 44.4511 26.0866 44.4237 26.2966 44.3668C26.9266 44.1984 27.4549 43.7926 27.783 43.225C28.1101 42.6573 28.1976 41.9989 28.0291 41.3678L26.4344 35.4211L26.7659 35.3314C27.5052 35.1334 28.1254 34.6576 28.5104 33.9904ZM1.81741 39.0359C1.56804 38.104 2.01648 37.147 2.83898 36.7193L3.86054 40.5332C2.93413 40.5726 2.06788 39.9678 1.81741 39.0359ZM6.29632 41.6981C6.05788 41.5603 5.88726 41.3404 5.81726 41.079L5.79429 40.9915C5.7921 40.9839 5.79101 40.9751 5.78882 40.9675C5.78663 40.9598 5.78445 40.9532 5.78226 40.9467L4.26085 35.269C4.11538 34.7232 4.44023 34.16 4.98492 34.0145L10.1026 32.644L12.1905 40.4326L7.07179 41.8031C6.81038 41.8731 6.53476 41.8359 6.29632 41.6981ZM14.2599 47.4687C14.2632 47.4731 14.2665 47.4775 14.2687 47.4818L14.2851 47.5015C14.494 47.7881 14.4415 48.184 14.1637 48.4061L13.281 49.1093C13.1246 49.2329 12.9671 49.2756 12.7746 49.2461C12.5766 49.2154 12.4388 49.129 12.3284 48.9661L8.44991 43.2447L11.5452 42.4156C12.0855 44.3187 13.0229 45.8193 14.2599 47.4687ZM13.9493 40.239L11.7213 31.9331L19.0298 26.7115L22.8885 41.1064L13.9493 40.239ZM26.2682 42.3511C26.1741 42.514 26.0243 42.63 25.8427 42.6781C25.6644 42.7262 25.4774 42.7011 25.3144 42.607C25.1515 42.5129 25.0355 42.3631 24.9874 42.1826L20.3094 24.7286C20.2099 24.3556 20.4319 23.9717 20.8038 23.87C21.1713 23.7726 21.5629 23.999 21.6613 24.3643L23.478 31.1423C23.4791 31.1467 23.4791 31.1522 23.4813 31.1565C23.4824 31.1609 23.4835 31.1664 23.4857 31.1707L24.5193 35.0295C24.5193 35.0306 24.5204 35.0306 24.5204 35.0306V35.0317L26.3393 41.8184C26.3874 41.9989 26.3623 42.1881 26.2682 42.3511ZM26.3119 33.6426L25.9816 33.7323L25.3976 31.5503L25.7268 31.4628C26.0166 31.3851 26.3207 31.4256 26.5832 31.5776C26.8468 31.7286 27.0338 31.9714 27.1115 32.2612C27.1891 32.55 27.1476 32.8529 26.9966 33.1154C26.8446 33.3779 26.6018 33.565 26.3119 33.6426ZM55.1246 31.22H32.1602C31.6779 31.22 31.2863 31.6115 31.2863 32.0939C31.2863 34.1807 31.8059 36.1473 32.7235 37.8722C32.7432 37.9214 32.7684 37.9673 32.7979 38.0122C34.899 41.8468 38.9721 44.4522 43.6446 44.4522C46.3407 44.4522 48.8388 43.5826 50.8721 42.1104C50.9224 42.0809 50.9684 42.047 51.011 42.0087C54.0363 39.7545 55.9996 36.1495 55.9996 32.0939C55.9996 31.6115 55.608 31.22 55.1246 31.22ZM39.6163 41.9092C37.5294 41.0495 35.7751 39.5434 34.6037 37.6414C35.168 37.0103 35.7291 36.377 36.276 35.7601L36.7299 35.2482C36.743 35.2329 36.7562 35.2198 36.7671 35.2078C36.7682 35.2078 36.7693 35.2089 36.7704 35.21C36.8754 35.3029 37.0001 35.4309 37.1324 35.5654C37.7788 36.225 38.7544 37.2203 40.3644 37.3275C42.0871 37.4817 42.7959 37.9279 42.8779 38.2648C43.0146 38.8226 42.0948 40.0793 40.3163 41.2234C40.0724 41.3612 39.8449 41.5822 39.6163 41.9092ZM43.6446 42.7032C42.9304 42.7032 42.2337 42.6321 41.5588 42.4976C43.7977 40.9773 44.9221 39.2557 44.5765 37.8481C44.2593 36.5564 42.891 35.7951 40.5088 35.5851C40.5023 35.5851 40.4946 35.584 40.488 35.584C39.5398 35.5228 38.9502 34.9223 38.3815 34.3415C38.2273 34.184 38.0807 34.0353 37.9309 33.9018C37.5393 33.554 36.5101 32.8737 35.4251 34.0845L34.9679 34.6007C34.5719 35.0459 34.1684 35.5009 33.7626 35.957C33.3951 35.0186 33.1555 34.0145 33.0702 32.9678H42.856C43.3154 34.7068 44.9166 36.1593 45.9699 36.7357C47.5493 37.6031 48.2416 36.7467 48.6901 36.0686C48.7601 36.6001 48.7819 37.0956 48.8049 37.6151C48.8509 38.6531 48.9001 39.7228 49.3594 41.0276C47.709 42.0875 45.7468 42.7032 43.6446 42.7032ZM50.8349 39.8857C50.6205 39.0687 50.5877 38.3414 50.5516 37.5375C50.5221 36.8506 50.4904 36.1407 50.3427 35.3226C50.2541 34.8261 50.0693 33.7947 49.2052 33.6043C48.3871 33.4239 47.8632 34.1731 47.5799 34.5778C47.4782 34.7232 47.3896 34.86 47.3119 34.9814C47.2376 35.0951 47.1446 35.2384 47.0757 35.3281C47.0199 35.3073 46.9335 35.2701 46.811 35.2023C46.0848 34.8053 45.1365 33.9128 44.7066 32.9678H54.2146C53.9915 35.6945 52.7337 38.1314 50.8349 39.8857ZM49.4415 16.3931H46.3604V11.4417H48.3412C48.6944 11.4417 49.0138 11.2295 49.1483 10.9025C49.284 10.5754 49.2096 10.2003 48.9591 9.94981L44.2626 5.25215C44.0985 5.08918 43.8765 4.99622 43.6446 4.99622C43.4127 4.99622 43.1896 5.08918 43.0255 5.25215L38.329 9.94981C38.0785 10.2003 38.0041 10.5754 38.1398 10.9025C38.2743 11.2295 38.5937 11.4417 38.9469 11.4417H40.9277V16.3931H37.8466C37.3632 16.3931 36.9716 16.7847 36.9716 17.2681V28.8629C36.9716 29.3464 37.3632 29.7379 37.8466 29.7379H49.4415C49.9249 29.7379 50.3165 29.3464 50.3165 28.8629V17.2681C50.3165 16.7847 49.9249 16.3931 49.4415 16.3931ZM43.6446 7.10715L46.2302 9.69387H45.4854C45.003 9.69387 44.6115 10.0854 44.6115 10.5678V16.3931H42.6766V10.5678C42.6766 10.0854 42.2851 9.69387 41.8027 9.69387H41.0579L43.6446 7.10715ZM44.6115 18.142V20.5089L44.1368 20.1851C43.8393 19.9828 43.4488 19.9828 43.1513 20.1851L42.6766 20.5089V18.142H44.6115ZM48.5676 27.989H38.7205V18.142H40.9277V22.1637C40.9277 22.4875 41.1071 22.785 41.3937 22.9359C41.6802 23.0879 42.0269 23.0682 42.2949 22.8856L43.6446 21.9657L44.9932 22.8856C45.1409 22.9862 45.3137 23.0376 45.4854 23.0376C45.6254 23.0376 45.7665 23.0037 45.8944 22.9359C46.181 22.785 46.3604 22.4875 46.3604 22.1637V18.142H48.5676V27.989Z" fill="#0B3D34"/>
<path d="M44.6119 10.5678V16.3931H42.6771V10.5678C42.6771 10.0855 42.2855 9.6939 41.8032 9.6939H41.0583L43.6451 7.10718L46.2307 9.6939H45.4858C45.0035 9.6939 44.6119 10.0855 44.6119 10.5678ZM42.6771 20.5089L43.1518 20.1851C43.4493 19.9828 43.8397 19.9828 44.1372 20.1851L44.6119 20.5089V18.142H42.6771V20.5089ZM44.7071 32.9678C45.1369 33.9128 46.0852 34.8053 46.8115 35.2023C46.934 35.2701 47.0204 35.3073 47.0761 35.3281C47.145 35.2384 47.238 35.0951 47.3124 34.9814C47.39 34.86 47.4786 34.7233 47.5804 34.5778C47.8636 34.1731 48.3875 33.4239 49.2057 33.6044C50.0697 33.7947 50.2546 34.8261 50.3432 35.3226C50.4908 36.1408 50.5225 36.8506 50.5521 37.5375C50.5882 38.3414 50.621 39.0687 50.8354 39.8858C52.7341 38.1314 53.9919 35.6945 54.215 32.9678H44.7071ZM40.3649 37.3275C38.7549 37.2203 37.7793 36.225 37.1329 35.5655C37.0005 35.4309 36.8758 35.303 36.7708 35.21C36.7697 35.2089 36.7686 35.2078 36.7675 35.2078C36.7566 35.2198 36.7435 35.233 36.7304 35.2483L36.2765 35.7601C35.7296 36.377 35.1685 37.0103 34.6041 37.6414C35.7755 39.5434 37.5299 41.0495 39.6168 41.9092C39.8454 41.5822 40.0729 41.3612 40.3168 41.2234C42.0952 40.0794 43.015 38.8226 42.8783 38.2648C42.7963 37.928 42.0875 37.4817 40.3649 37.3275ZM24.5208 35.0317C24.5208 35.0317 24.5208 35.0317 24.5208 35.0306C24.5208 35.0306 24.5197 35.0306 24.5197 35.0295L23.4861 31.1708C23.484 31.1664 23.4829 31.1609 23.4818 31.1565C23.4796 31.1522 23.4796 31.1467 23.4785 31.1423L21.6618 24.3644C21.5633 23.9991 21.1718 23.7726 20.8043 23.87C20.4324 23.9717 20.2104 24.3556 20.3099 24.7286L24.9879 42.1826C25.036 42.3631 25.1519 42.513 25.3149 42.607C25.4779 42.7011 25.6649 42.7262 25.8432 42.6781C26.0247 42.63 26.1746 42.514 26.2686 42.3511C26.3627 42.1881 26.3879 41.9989 26.3397 41.8184L24.5208 35.0317ZM4.98536 34.0145C4.44067 34.16 4.11583 34.7233 4.2613 35.2691L5.7827 40.9467C5.78489 40.9533 5.78708 40.9598 5.78927 40.9675C5.79145 40.9751 5.79255 40.9839 5.79473 40.9916L5.8177 41.079C5.8877 41.3405 6.05833 41.5603 6.29677 41.6981C6.5352 41.8359 6.81083 41.8731 7.07223 41.8031L12.191 40.4326L10.103 32.6441L4.98536 34.0145Z" fill="#B5D8D2"/>
</svg>
