<svg width="72" height="72" viewBox="0 0 72 72" fill="none" xmlns="http://www.w3.org/2000/svg">
<path fill-rule="evenodd" clip-rule="evenodd" d="M57.6516 32.5997H45.7083C45.3891 32.5997 39.9048 32.5238 36.6521 36.2433L24.0563 49.1302C22.5812 50.6447 22.6135 53.0691 24.128 54.5428C25.6468 56.018 28.0698 55.9814 29.5449 54.4669L40.9173 42.8316V56.8435H67.5207V42.4688C67.5221 37.0393 63.0812 32.5997 57.6516 32.5997Z" fill="#B5D8D2"/>
<path fill-rule="evenodd" clip-rule="evenodd" d="M57.6501 32.5997H45.7068C45.4523 32.5997 41.8677 32.5519 38.7754 34.4574V34.5291C38.7754 41.7882 46.732 48.541 56.5462 49.6125C60.6876 50.0667 64.4985 49.4325 67.5205 48.0066V42.4688C67.5205 37.0392 63.0796 32.5997 57.6501 32.5997Z" fill="#E9EAE3"/>
<path fill-rule="evenodd" clip-rule="evenodd" d="M56.4145 26.7559H46.9434V32.018C46.9434 34.6252 49.0766 36.7543 51.6796 36.7543C54.2868 36.7543 56.4159 34.6252 56.4159 32.018V26.7559H56.4145Z" fill="#E9EAE3"/>
<path fill-rule="evenodd" clip-rule="evenodd" d="M51.6152 31.4752C44.0102 31.4752 43.8105 20.0381 43.8105 20.0381C47.1743 14.4258 59.3932 18.8583 59.4002 18.8583C59.5634 19.0411 59.5479 18.9862 59.5479 19.3041C59.5479 26.0259 55.9971 31.4752 51.6152 31.4752Z" fill="#B5D8D2"/>
<path fill-rule="evenodd" clip-rule="evenodd" d="M50.248 17.2002C54.6412 17.1327 59.3971 18.8581 59.3999 18.8581C59.563 19.041 59.5476 18.9861 59.5476 19.3039C59.5476 24.8769 57.1077 29.5724 53.7791 31.0152C46.9433 28.4558 46.8435 20.4036 47.9713 19.1436C48.5226 18.2295 49.3157 17.6038 50.248 17.2002Z" fill="#E9EAE3"/>
<path fill-rule="evenodd" clip-rule="evenodd" d="M58.0255 38.9341L57.245 32.4766L51.6523 36.3663L58.0255 38.9341Z" fill="#B5D8D2"/>
<path fill-rule="evenodd" clip-rule="evenodd" d="M45.2773 38.934L46.0662 32.416L51.6519 36.3662L45.2773 38.934Z" fill="#B5D8D2"/>
<path fill-rule="evenodd" clip-rule="evenodd" d="M53.592 35.9443H50.044L48.7207 50.0757H48.7376L50.2802 52.4875L51.8187 54.8992L53.3571 52.4875L54.8998 50.0757H54.9152L53.592 35.9443Z" fill="#B5D8D2"/>
<path fill-rule="evenodd" clip-rule="evenodd" d="M51.1493 35.9443H50.044L48.7207 50.0757H48.7376L50.2802 52.4875L50.4307 52.7265L50.8737 52.0361L52.4121 49.6286H52.429L51.1493 35.9443Z" fill="#B5D8D2"/>
<path fill-rule="evenodd" clip-rule="evenodd" d="M52.5552 33.2783H51.08C50.3909 33.2783 49.8242 33.845 49.8242 34.5383V37.2805C49.8242 37.9738 50.3909 38.5405 51.08 38.5405H52.5552C53.2442 38.5405 53.8109 37.9738 53.8109 37.2805V34.5383C53.8109 33.8436 53.2456 33.2783 52.5552 33.2783Z" fill="#B5D8D2"/>
<path fill-rule="evenodd" clip-rule="evenodd" d="M60.5245 21.6731C59.8073 21.247 59.0733 20.2584 58.3195 18.7073C54.8629 20.2542 51.8578 20.0151 49.2942 17.9901C48.6403 17.4754 47.819 17.3559 47.0498 17.6709C45.0051 18.5006 43.4934 20.3456 43.1278 22.59C41.8608 19.8787 40.74 9.6187 46.0781 11.2457C47.8247 4.5323 65.0639 7.2787 60.5245 21.6731Z" fill="#B5D8D2"/>
<path fill-rule="evenodd" clip-rule="evenodd" d="M60.5253 21.6733C59.8081 21.2472 59.074 20.2587 58.3203 18.7076C54.8637 20.2544 51.8585 20.0154 49.295 17.9904C48.641 17.4757 47.8198 17.3562 47.0506 17.6712C45.349 18.3602 44.0131 19.7594 43.407 21.5018C43.0723 17.7541 43.7374 13.4651 47.329 14.5619C48.5693 9.79475 57.6129 9.80178 61.1328 15.3508C61.4337 17.1283 61.2945 19.2335 60.5253 21.6733Z" fill="#B5D8D2"/>
<path fill-rule="evenodd" clip-rule="evenodd" d="M44.1891 23.8575C40.6454 24.4594 39.3657 19.7752 41.9251 19.792C42.4749 19.7963 42.9769 20.0311 43.216 20.4023C43.2765 21.6019 43.6435 22.7859 44.1891 23.8575Z" fill="#E9EAE3"/>
<path fill-rule="evenodd" clip-rule="evenodd" d="M58.8262 24.3202C62.4135 24.4763 63.104 19.6683 60.5643 20.003C60.0187 20.079 59.5518 20.3743 59.3605 20.7722C59.4477 21.969 59.2326 23.1882 58.8262 24.3202Z" fill="#E9EAE3"/>
<path fill-rule="evenodd" clip-rule="evenodd" d="M15.9992 38.623H34.4788C35.6867 38.623 36.6711 39.6074 36.6711 40.8112V65.422C36.6711 66.6299 35.6867 67.6143 34.4788 67.6143H15.9992C14.7955 67.6143 13.8069 66.6299 13.8069 65.422V40.8112C13.8069 39.6074 14.7955 38.623 15.9992 38.623Z" fill="#B5D8D2"/>
<path fill-rule="evenodd" clip-rule="evenodd" d="M15.9984 38.623H34.478C35.6859 38.623 36.6703 39.6074 36.6703 40.8112V58.6579C34.1742 59.7027 31.1733 60.0248 27.9403 59.4313C21.7092 58.2796 16.3289 54.0257 13.8047 48.8366V40.8126C13.8061 39.6074 14.7947 38.623 15.9984 38.623Z" fill="#E9EAE3"/>
<path fill-rule="evenodd" clip-rule="evenodd" d="M28.4227 42.8755C28.3228 44.9877 25.6397 44.9877 25.5441 42.8755C25.4442 44.9877 22.7611 44.9877 22.6627 42.8755C22.5586 45.0439 19.7812 44.9567 19.7812 42.7798V38.3234C19.7812 34.573 31.3097 34.4562 31.3097 38.2039V41.5367C31.3097 44.4659 28.4789 44.0047 28.4227 42.8755Z" fill="#E9EAE3"/>
<path fill-rule="evenodd" clip-rule="evenodd" d="M19.0563 4.33301C27.1085 4.33301 33.642 10.8622 33.642 18.9186C33.642 26.975 27.1085 33.5043 19.0563 33.5043C10.9999 33.5043 4.4707 26.975 4.4707 18.9186C4.4707 10.8622 10.9999 4.33301 19.0563 4.33301Z" fill="#B5D8D2"/>
<path fill-rule="evenodd" clip-rule="evenodd" d="M30.7245 10.1685C32.554 12.6041 33.6424 15.6332 33.6424 18.9182C33.6424 26.9746 27.109 33.5038 19.0568 33.5038C16.4384 33.5038 13.9859 32.8148 11.861 31.611C10.0315 29.1712 8.94727 26.1421 8.94727 22.8571C8.94727 14.8007 15.4765 8.27148 23.5329 8.27148C26.1485 8.27148 28.5996 8.96055 30.7245 10.1685Z" fill="#E9EAE3"/>
<path fill-rule="evenodd" clip-rule="evenodd" d="M11.8416 23.1532C13.7907 23.1532 15.3699 21.5711 15.3699 19.6221H8.31055C8.31055 21.5697 9.88836 23.1532 11.8416 23.1532Z" fill="#B5D8D2"/>
<path fill-rule="evenodd" clip-rule="evenodd" d="M26.2727 23.1532C28.2218 23.1532 29.8038 21.5711 29.8038 19.6221H22.7402C22.7402 21.5697 24.3195 23.1532 26.2727 23.1532Z" fill="#B5D8D2"/>
<path d="M26.2718 22.1671C27.3124 22.1671 28.2293 21.5371 28.6202 20.6047H23.9205C24.3101 21.5371 25.227 22.1671 26.2718 22.1671ZM29.464 22.8139C27.6977 24.576 24.8402 24.576 23.0782 22.8139C22.2612 21.9969 21.7549 20.8691 21.7549 19.6204C21.7549 19.0747 22.1937 18.636 22.7477 18.636L24.7966 13.7057H20.0407V26.2747H23.5451C24.0865 26.2747 24.5295 26.7135 24.5295 27.2591C24.5295 27.8019 24.0865 28.2393 23.5451 28.2393H14.5676C14.022 28.2393 13.5832 27.8005 13.5832 27.2591C13.5832 26.7135 14.022 26.2747 14.5676 26.2747H18.072V13.7043H13.4074C14.0895 15.2511 14.7701 17.1285 15.372 18.6346C15.9148 18.6346 16.3521 19.0775 16.3521 19.6189C16.3521 22.1136 14.3313 24.1358 11.8395 24.1358C9.34336 24.1358 7.32258 22.115 7.32258 19.6189C7.32258 19.0733 7.76133 18.6346 8.31117 18.6346L10.9057 12.4035C11.0379 12.0168 11.4035 11.7383 11.838 11.7383H26.2676C26.6627 11.7383 27.0045 11.9689 27.1606 12.3079C28.0535 13.97 29.0027 16.6293 29.8001 18.6346C30.3429 18.6346 30.7802 19.0775 30.7802 19.6189C30.783 20.8677 30.281 21.9955 29.464 22.8139ZM24.8726 18.636H27.6668L26.2718 15.2793L24.8726 18.636ZM11.8409 22.1671C12.8815 22.1671 13.7984 21.5371 14.1893 20.6047H9.48961C9.88055 21.5371 10.7974 22.1671 11.8409 22.1671ZM10.4416 18.636H13.2359L11.8409 15.2793L10.4416 18.636ZM27.4432 42.8882L27.439 39.6229C27.439 39.0815 27.882 38.6427 28.4234 38.6427C28.969 38.6427 29.4077 39.0815 29.4077 39.6229V42.8474C29.4162 42.8361 29.4316 42.7279 29.4556 42.7363C30.0012 42.9191 30.3246 42.3932 30.3246 41.5368V38.2082C30.3246 37.4474 29.2249 36.913 27.8046 36.6289C26.4209 36.3575 24.8515 36.366 23.4635 36.6402C21.9574 36.9425 20.7649 37.5177 20.7649 38.3221V42.7785C20.7649 43.6799 21.6382 43.7277 21.6818 42.8305C21.686 42.7265 21.7057 42.6266 21.7423 42.531V39.6214C21.7423 39.08 22.181 38.6413 22.7266 38.6413C23.2695 38.6413 23.711 39.08 23.711 39.6214V42.8741C23.711 42.95 23.6998 43.026 23.6829 43.0977C23.6871 43.206 23.8418 43.4802 24.102 43.4802V43.476C24.393 43.476 24.5604 43.1694 24.5604 42.8741V39.6214C24.5604 39.08 24.9991 38.6413 25.5448 38.6413C26.0862 38.6413 26.5291 39.08 26.5291 39.6214V42.8741C26.5221 43.6011 27.3673 43.7615 27.4432 42.8882ZM19.0563 3.34863C27.6541 3.34863 34.6263 10.3208 34.6263 18.9186C34.6263 27.5207 27.6541 34.4886 19.0563 34.4886C10.4543 34.4886 3.48633 27.5207 3.48633 18.9186C3.48633 10.3208 10.4543 3.34863 19.0563 3.34863ZM28.6709 9.3041C23.3609 3.98988 14.7476 3.98988 9.43758 9.3041C4.12336 14.6141 4.12336 23.2274 9.43758 28.5374C14.7476 33.8516 23.3609 33.8516 28.6709 28.5374C33.9851 23.2274 33.9851 14.6141 28.6709 9.3041ZM28.803 44.5855C27.986 45.5657 26.5502 45.726 25.5462 44.9483C25.1271 45.2675 24.618 45.4461 24.1034 45.4461V45.4419C23.5845 45.4419 23.0824 45.2704 22.6648 44.9469C21.1699 46.0986 18.8018 45.1621 18.8018 42.7785V39.606H15.9991C15.3368 39.606 14.7912 40.1516 14.7912 40.8139V65.4247C14.7912 66.0871 15.3368 66.6285 15.9991 66.6285H34.4787C35.141 66.6285 35.6866 66.0857 35.6866 65.4247V40.8154C35.6866 40.153 35.141 39.6074 34.4787 39.6074H32.2948V41.5368C32.2948 44.0005 30.5046 45.1761 28.803 44.5855ZM18.8848 37.6386C19.4993 35.2185 23.1302 34.4774 25.6418 34.4689C28.121 34.4647 31.7295 35.1707 32.2385 37.6386H33.9134L35.9468 35.5616C39.184 31.8983 44.3337 31.6396 45.4896 31.6227C45.6246 31.5229 45.7891 31.4596 45.9593 31.4399V29.8129C45.9312 29.7411 44.4799 28.2505 43.5673 24.898C40.7576 24.9022 39.0195 22.0954 39.769 20.1857C40.0207 19.5472 40.5059 19.0649 41.2399 18.8863C40.9615 16.5027 40.9573 13.0152 42.5196 11.2208C43.2776 10.356 44.2901 9.98473 45.4488 10.1127C48.4906 3.65942 64.1281 6.5127 62.0791 19.3686C64.0437 20.6807 62.9918 24.846 59.576 25.2721C59.0374 26.8386 58.2963 28.2224 57.3991 29.346V31.506C57.5145 31.5214 57.6227 31.5622 57.7226 31.6171C60.6799 31.6368 63.3673 32.8532 65.3206 34.8022C67.2865 36.771 68.5057 39.4822 68.5057 42.4719V56.8424C68.5057 57.388 68.067 57.8268 67.5213 57.8268H40.9165C40.3709 57.8268 39.9321 57.388 39.9321 56.8424V45.2464L37.6554 47.5738V65.4247C37.6554 67.1713 36.228 68.5972 34.4787 68.5972H15.9991C14.2498 68.5972 12.8266 67.1699 12.8266 65.4247V40.8154C12.8266 39.066 14.2498 37.6386 15.9991 37.6386H18.8848ZM17.6093 62.6122C17.2226 62.2255 17.2226 61.604 17.6093 61.2215C17.9918 60.8347 18.6176 60.8347 19.0001 61.2215L19.9324 62.1538L22.212 58.1994C22.4876 57.7325 23.0852 57.5694 23.5549 57.845C24.026 58.1165 24.1849 58.7141 23.9135 59.1838L21.0279 64.1858C20.6805 64.8355 19.8959 64.8988 19.4459 64.4488L17.6093 62.6122ZM17.6093 52.1005C17.2226 51.718 17.2226 51.0922 17.6093 50.7097C17.9918 50.3272 18.6176 50.3272 19.0001 50.7097L19.9324 51.6421L22.212 47.6919C22.4876 47.2222 23.0852 47.0619 23.5549 47.3333C24.026 47.6047 24.1849 48.2066 23.9135 48.6721L21.0279 53.6741C20.6805 54.3238 19.8959 54.3871 19.4459 53.9371L17.6093 52.1005ZM40.1627 42.1977L42.2834 40.0729C42.6659 39.6904 43.2916 39.6904 43.6741 40.0729C44.0609 40.4596 44.0609 41.0811 43.6741 41.4636L41.9009 43.2411V55.8608H51.6349C51.3804 55.8088 51.1441 55.6611 50.9937 55.4221L47.9998 50.7379C47.817 50.5424 47.7213 50.271 47.7452 49.9883L48.814 38.5682L45.6443 39.8436C44.9468 40.1221 44.217 39.5371 44.3013 38.8157L44.9313 33.6055C43.3451 33.7096 39.7127 34.2313 37.3896 36.8863C37.3784 36.8975 37.3657 36.9144 37.3545 36.9257L36.1788 38.1294C37.076 38.699 37.6582 39.7002 37.6582 40.8125V44.7627L40.1627 42.1977ZM27.0649 63.899C26.5235 63.899 26.0806 63.4602 26.0806 62.9146C26.0806 62.3718 26.5235 61.9302 27.0649 61.9302H32.8446C33.3902 61.9302 33.829 62.3732 33.829 62.9146C33.829 63.4602 33.3902 63.899 32.8446 63.899H27.0649ZM27.0649 53.4913C26.5235 53.4913 26.0806 53.0525 26.0806 52.5069C26.0806 51.9655 26.5235 51.5225 27.0649 51.5225H32.8446C33.3902 51.5225 33.829 51.9655 33.829 52.5069C33.829 53.0525 33.3902 53.4913 32.8446 53.4913H27.0649ZM27.0649 49.5608C26.5235 49.5608 26.0806 49.1221 26.0806 48.5807C26.0806 48.035 26.5235 47.5963 27.0649 47.5963H32.8446C33.3902 47.5963 33.829 48.035 33.829 48.5807C33.829 49.1221 33.3902 49.5608 32.8446 49.5608H27.0649ZM27.0649 59.9727C26.5235 59.9727 26.0806 59.5297 26.0806 58.9883C26.0806 58.4427 26.5235 58.004 27.0649 58.004H32.8446C33.3902 58.004 33.829 58.4427 33.829 58.9883C33.829 59.5311 33.3902 59.9727 32.8446 59.9727H27.0649ZM41.8573 22.0236C42.0443 22.3063 42.3157 22.558 42.6631 22.7254L42.4156 21.8L42.2637 20.848C42.0682 20.7524 41.6702 20.7243 41.5985 20.9043C41.479 21.2108 41.6618 21.7255 41.8573 22.0236ZM47.2868 10.8383C49.451 12.3486 50.6266 14.9207 50.3524 17.5546C52.6488 19.1211 55.2673 19.0255 57.8871 17.826C58.3934 17.5869 58.9671 17.7936 59.2062 18.2802C59.4579 18.8019 59.7209 19.2927 60.0148 19.7314C62.3182 8.62629 49.5987 6.50988 47.2868 10.8383ZM48.7493 18.8118C48.5257 18.6599 48.423 18.5446 48.0799 18.4925C47.869 18.4644 47.6412 18.4925 47.4176 18.5839C46.6835 18.8835 46.031 19.3377 45.4966 19.903C45.2491 20.1702 45.027 20.4571 44.8343 20.7679C44.9299 21.9519 45.2365 24.3158 46.1815 26.4364C47.1377 28.5852 48.7887 30.4949 51.6152 30.4949C52.9273 30.4949 54.1662 29.8888 55.2195 28.8439L55.7173 28.3054C56.6145 27.2408 57.3471 25.8458 57.8506 24.2314C57.8548 24.1471 57.8745 24.0683 57.9026 23.9924H57.8984C58.1529 23.2794 58.3891 22.1671 58.4004 21.4133L58.3807 20.8157L57.8618 19.9593C54.6049 21.1757 51.4999 20.9479 48.7493 18.8118ZM48.4188 16.5589C48.3865 15.8418 48.2121 15.1485 47.9084 14.5143C47.4415 13.5369 46.6849 12.7044 45.7034 12.1588C45.3251 12.0547 45.0101 12.0308 44.7429 12.0786C44.006 12.2066 43.6221 12.9632 43.407 13.6818C42.9443 15.1963 42.9879 17.3169 43.2551 19.1464L43.4702 19.2814C44.276 18.1649 45.387 17.2846 46.6793 16.7614C47.2502 16.5308 47.8451 16.4633 48.4188 16.5589ZM60.1737 23.0249C61.2016 22.3836 61.2706 21.0322 60.8909 20.976C60.6996 20.9521 60.5801 20.9239 60.4085 20.8086C60.3973 20.8691 60.3804 20.9324 60.3565 20.9914C60.3565 20.9914 60.3565 21.9519 60.3129 22.2472C60.2735 22.4947 60.2299 22.7535 60.1737 23.0249ZM52.556 34.265H51.0809C50.9332 34.265 50.8095 34.3888 50.8095 34.5364V37.2829C50.8095 37.4305 50.9332 37.5543 51.0809 37.5543H52.556C52.7037 37.5543 52.8274 37.4305 52.8274 37.2829V34.5364C52.8274 34.3888 52.7037 34.265 52.556 34.265ZM52.9188 32.3244C53.5249 32.4243 54.0551 32.7674 54.3982 33.261L55.3952 32.5677C55.4515 32.1416 55.4346 31.655 55.4346 31.2163C54.6485 31.7591 53.8076 32.1374 52.9188 32.3244ZM54.7962 35.3774V36.5769L56.8493 37.4024L56.4626 34.2172L54.7962 35.3774ZM52.9385 39.4921C52.6277 39.5441 51.0091 39.5441 50.6984 39.4921L49.7295 49.8125L51.8177 53.0779L53.906 49.8125L52.9385 39.4921ZM48.8407 36.4419V35.5813L46.8438 34.1708L46.4529 37.4038L48.8407 36.4419ZM49.1515 33.4002C49.4384 32.9094 49.9095 32.5396 50.4635 32.3793C49.5031 32.2443 48.6621 31.9363 47.9281 31.506C47.9281 31.8885 47.9168 32.188 47.9632 32.5621L49.1515 33.4002ZM54.837 38.7102L55.886 49.8997C55.9381 50.2864 55.8537 50.4735 55.6315 50.7561L52.6573 55.4122C52.5096 55.6471 52.279 55.8074 52.0076 55.8622H59.0712V42.8347C59.0712 42.2891 59.5141 41.8504 60.0555 41.8504C60.6012 41.8504 61.0399 42.2891 61.0399 42.8347V55.8622H66.537V42.4719C66.537 37.8439 62.9412 33.9852 58.3737 33.6139L59.0037 38.8157C59.0881 39.5371 58.3582 40.1235 57.6607 39.8436L54.837 38.7102Z" fill="#0B3D34"/>
</svg>
