<svg width="22" height="22" viewBox="0 0 22 22" fill="none" xmlns="http://www.w3.org/2000/svg">
<path fill-rule="evenodd" clip-rule="evenodd" d="M1.54648 1.54648C0 3.09295 0 5.58197 0 10.56V11.44C0 16.418 0 18.907 1.54648 20.4535C3.09295 22 5.58197 22 10.56 22H11.44C16.418 22 18.907 22 20.4535 20.4535C22 18.907 22 16.418 22 11.44V10.56C22 5.58197 22 3.09295 20.4535 1.54648C18.907 0 16.418 0 11.44 0H10.56C5.58197 0 3.09295 0 1.54648 1.54648ZM3.69995 6.69995C3.81931 12.4465 6.684 15.9 11.7064 15.9H11.9911V12.6123C13.8366 12.7964 15.2322 14.1502 15.7923 15.9H18.4C17.6838 13.2845 15.8014 11.8387 14.6262 11.2861C15.8014 10.6046 17.4541 8.947 17.849 6.69995H15.48C14.9658 8.52338 13.4418 10.181 11.9911 10.3376V6.69995H9.62214V13.0727C8.15306 12.7043 6.29838 10.9178 6.21574 6.69995H3.69995Z" fill="white"/>
</svg>
