<svg width="56" height="56" viewBox="0 0 56 56" fill="none" xmlns="http://www.w3.org/2000/svg">
<path d="M16.1824 3.59406C12.4155 3.59406 9.35195 6.65766 9.35195 10.4234C9.35195 14.1914 12.4155 17.2572 16.1824 17.2572C19.9504 17.2572 23.0151 14.1914 23.0151 10.4234C23.0151 6.65766 19.9504 3.59406 16.1824 3.59406ZM16.1824 15.5083C13.3802 15.5083 11.1009 13.2278 11.1009 10.4234C11.1009 7.62234 13.3802 5.34188 16.1824 5.34188C18.9857 5.34188 21.2673 7.62234 21.2673 10.4234C21.2673 13.2278 18.9857 15.5083 16.1824 15.5083ZM27.319 34.2442H10.2259C9.74352 34.2442 9.35195 34.6358 9.35195 35.1181C9.35195 35.6016 9.74352 35.9931 10.2259 35.9931H27.319C27.8013 35.9931 28.1929 35.6016 28.1929 35.1181C28.1929 34.6358 27.8013 34.2442 27.319 34.2442ZM27.5016 24.9834H10.2259C9.74352 24.9834 9.35195 25.375 9.35195 25.8573C9.35195 26.3408 9.74352 26.7323 10.2259 26.7323H27.5016C27.9851 26.7323 28.3756 26.3408 28.3756 25.8573C28.3756 25.375 27.9851 24.9834 27.5016 24.9834ZM30.2141 29.6155H10.2259C9.74352 29.6155 9.35195 30.007 9.35195 30.4894C9.35195 30.9728 9.74352 31.3644 10.2259 31.3644H30.2141C30.6976 31.3644 31.0891 30.9728 31.0891 30.4894C31.0891 30.007 30.6976 29.6155 30.2141 29.6155ZM35.346 20.3547H10.2259C9.74352 20.3547 9.35195 20.7463 9.35195 21.2286C9.35195 21.712 9.74352 22.1036 10.2259 22.1036H35.346C35.8284 22.1036 36.2199 21.712 36.2199 21.2286C36.2199 20.7463 35.8284 20.3547 35.346 20.3547ZM35.346 13.8523H25.0648C24.5813 13.8523 24.1909 14.2439 24.1909 14.7273C24.1909 15.2097 24.5813 15.6012 25.0648 15.6012H35.346C35.8284 15.6012 36.2199 15.2097 36.2199 14.7273C36.2199 14.2439 35.8284 13.8523 35.346 13.8523ZM35.346 9.54953H25.0648C24.5813 9.54953 24.1909 9.94109 24.1909 10.4234C24.1909 10.9069 24.5813 11.2984 25.0648 11.2984H35.346C35.8284 11.2984 36.2199 10.9069 36.2199 10.4234C36.2199 9.94109 35.8284 9.54953 35.346 9.54953ZM35.346 5.24891H25.0648C24.5813 5.24891 24.1909 5.64047 24.1909 6.12391C24.1909 6.60625 24.5813 6.99781 25.0648 6.99781H35.346C35.8284 6.99781 36.2199 6.60625 36.2199 6.12391C36.2199 5.64047 35.8284 5.24891 35.346 5.24891ZM35.346 5.24891H25.0648C24.5813 5.24891 24.1909 5.64047 24.1909 6.12391C24.1909 6.60625 24.5813 6.99781 25.0648 6.99781H35.346C35.8284 6.99781 36.2199 6.60625 36.2199 6.12391C36.2199 5.64047 35.8284 5.24891 35.346 5.24891ZM35.346 9.54953H25.0648C24.5813 9.54953 24.1909 9.94109 24.1909 10.4234C24.1909 10.9069 24.5813 11.2984 25.0648 11.2984H35.346C35.8284 11.2984 36.2199 10.9069 36.2199 10.4234C36.2199 9.94109 35.8284 9.54953 35.346 9.54953ZM35.346 13.8523H25.0648C24.5813 13.8523 24.1909 14.2439 24.1909 14.7273C24.1909 15.2097 24.5813 15.6012 25.0648 15.6012H35.346C35.8284 15.6012 36.2199 15.2097 36.2199 14.7273C36.2199 14.2439 35.8284 13.8523 35.346 13.8523ZM35.346 20.3547H10.2259C9.74352 20.3547 9.35195 20.7463 9.35195 21.2286C9.35195 21.712 9.74352 22.1036 10.2259 22.1036H35.346C35.8284 22.1036 36.2199 21.712 36.2199 21.2286C36.2199 20.7463 35.8284 20.3547 35.346 20.3547ZM30.2141 29.6155H10.2259C9.74352 29.6155 9.35195 30.007 9.35195 30.4894C9.35195 30.9728 9.74352 31.3644 10.2259 31.3644H30.2141C30.6976 31.3644 31.0891 30.9728 31.0891 30.4894C31.0891 30.007 30.6976 29.6155 30.2141 29.6155ZM27.5016 24.9834H10.2259C9.74352 24.9834 9.35195 25.375 9.35195 25.8573C9.35195 26.3408 9.74352 26.7323 10.2259 26.7323H27.5016C27.9851 26.7323 28.3756 26.3408 28.3756 25.8573C28.3756 25.375 27.9851 24.9834 27.5016 24.9834ZM27.319 34.2442H10.2259C9.74352 34.2442 9.35195 34.6358 9.35195 35.1181C9.35195 35.6016 9.74352 35.9931 10.2259 35.9931H27.319C27.8013 35.9931 28.1929 35.6016 28.1929 35.1181C28.1929 34.6358 27.8013 34.2442 27.319 34.2442ZM16.1824 3.59406C12.4155 3.59406 9.35195 6.65766 9.35195 10.4234C9.35195 14.1914 12.4155 17.2572 16.1824 17.2572C19.9504 17.2572 23.0151 14.1914 23.0151 10.4234C23.0151 6.65766 19.9504 3.59406 16.1824 3.59406ZM16.1824 15.5083C13.3802 15.5083 11.1009 13.2278 11.1009 10.4234C11.1009 7.62234 13.3802 5.34188 16.1824 5.34188C18.9857 5.34188 21.2673 7.62234 21.2673 10.4234C21.2673 13.2278 18.9857 15.5083 16.1824 15.5083ZM16.1824 3.59406C12.4155 3.59406 9.35195 6.65766 9.35195 10.4234C9.35195 14.1914 12.4155 17.2572 16.1824 17.2572C19.9504 17.2572 23.0151 14.1914 23.0151 10.4234C23.0151 6.65766 19.9504 3.59406 16.1824 3.59406ZM16.1824 15.5083C13.3802 15.5083 11.1009 13.2278 11.1009 10.4234C11.1009 7.62234 13.3802 5.34188 16.1824 5.34188C18.9857 5.34188 21.2673 7.62234 21.2673 10.4234C21.2673 13.2278 18.9857 15.5083 16.1824 15.5083ZM27.319 34.2442H10.2259C9.74352 34.2442 9.35195 34.6358 9.35195 35.1181C9.35195 35.6016 9.74352 35.9931 10.2259 35.9931H27.319C27.8013 35.9931 28.1929 35.6016 28.1929 35.1181C28.1929 34.6358 27.8013 34.2442 27.319 34.2442ZM27.5016 24.9834H10.2259C9.74352 24.9834 9.35195 25.375 9.35195 25.8573C9.35195 26.3408 9.74352 26.7323 10.2259 26.7323H27.5016C27.9851 26.7323 28.3756 26.3408 28.3756 25.8573C28.3756 25.375 27.9851 24.9834 27.5016 24.9834ZM30.2141 29.6155H10.2259C9.74352 29.6155 9.35195 30.007 9.35195 30.4894C9.35195 30.9728 9.74352 31.3644 10.2259 31.3644H30.2141C30.6976 31.3644 31.0891 30.9728 31.0891 30.4894C31.0891 30.007 30.6976 29.6155 30.2141 29.6155ZM35.346 20.3547H10.2259C9.74352 20.3547 9.35195 20.7463 9.35195 21.2286C9.35195 21.712 9.74352 22.1036 10.2259 22.1036H35.346C35.8284 22.1036 36.2199 21.712 36.2199 21.2286C36.2199 20.7463 35.8284 20.3547 35.346 20.3547ZM35.346 13.8523H25.0648C24.5813 13.8523 24.1909 14.2439 24.1909 14.7273C24.1909 15.2097 24.5813 15.6012 25.0648 15.6012H35.346C35.8284 15.6012 36.2199 15.2097 36.2199 14.7273C36.2199 14.2439 35.8284 13.8523 35.346 13.8523ZM35.346 9.54953H25.0648C24.5813 9.54953 24.1909 9.94109 24.1909 10.4234C24.1909 10.9069 24.5813 11.2984 25.0648 11.2984H35.346C35.8284 11.2984 36.2199 10.9069 36.2199 10.4234C36.2199 9.94109 35.8284 9.54953 35.346 9.54953ZM35.346 5.24891H25.0648C24.5813 5.24891 24.1909 5.64047 24.1909 6.12391C24.1909 6.60625 24.5813 6.99781 25.0648 6.99781H35.346C35.8284 6.99781 36.2199 6.60625 36.2199 6.12391C36.2199 5.64047 35.8284 5.24891 35.346 5.24891ZM25.0648 6.99781H35.346C35.8284 6.99781 36.2199 6.60625 36.2199 6.12391C36.2199 5.64047 35.8284 5.24891 35.346 5.24891H25.0648C24.5813 5.24891 24.1909 5.64047 24.1909 6.12391C24.1909 6.60625 24.5813 6.99781 25.0648 6.99781ZM35.346 9.54953H25.0648C24.5813 9.54953 24.1909 9.94109 24.1909 10.4234C24.1909 10.9069 24.5813 11.2984 25.0648 11.2984H35.346C35.8284 11.2984 36.2199 10.9069 36.2199 10.4234C36.2199 9.94109 35.8284 9.54953 35.346 9.54953ZM35.346 13.8523H25.0648C24.5813 13.8523 24.1909 14.2439 24.1909 14.7273C24.1909 15.2097 24.5813 15.6012 25.0648 15.6012H35.346C35.8284 15.6012 36.2199 15.2097 36.2199 14.7273C36.2199 14.2439 35.8284 13.8523 35.346 13.8523ZM35.346 20.3547H10.2259C9.74352 20.3547 9.35195 20.7463 9.35195 21.2286C9.35195 21.712 9.74352 22.1036 10.2259 22.1036H35.346C35.8284 22.1036 36.2199 21.712 36.2199 21.2286C36.2199 20.7463 35.8284 20.3547 35.346 20.3547ZM30.2141 29.6155H10.2259C9.74352 29.6155 9.35195 30.007 9.35195 30.4894C9.35195 30.9728 9.74352 31.3644 10.2259 31.3644H30.2141C30.6976 31.3644 31.0891 30.9728 31.0891 30.4894C31.0891 30.007 30.6976 29.6155 30.2141 29.6155ZM10.2259 26.7323H27.5016C27.9851 26.7323 28.3756 26.3408 28.3756 25.8573C28.3756 25.375 27.9851 24.9834 27.5016 24.9834H10.2259C9.74352 24.9834 9.35195 25.375 9.35195 25.8573C9.35195 26.3408 9.74352 26.7323 10.2259 26.7323ZM27.319 34.2442H10.2259C9.74352 34.2442 9.35195 34.6358 9.35195 35.1181C9.35195 35.6016 9.74352 35.9931 10.2259 35.9931H27.319C27.8013 35.9931 28.1929 35.6016 28.1929 35.1181C28.1929 34.6358 27.8013 34.2442 27.319 34.2442ZM16.1824 17.2572C19.9504 17.2572 23.0151 14.1914 23.0151 10.4234C23.0151 6.65766 19.9504 3.59406 16.1824 3.59406C12.4155 3.59406 9.35195 6.65766 9.35195 10.4234C9.35195 14.1914 12.4155 17.2572 16.1824 17.2572ZM16.1824 5.34188C18.9857 5.34188 21.2673 7.62234 21.2673 10.4234C21.2673 13.2278 18.9857 15.5083 16.1824 15.5083C13.3802 15.5083 11.1009 13.2278 11.1009 10.4234C11.1009 7.62234 13.3802 5.34188 16.1824 5.34188ZM44.3552 0H11.0112C8.00336 0 5.55664 2.44672 5.55664 5.45344V44.578C5.55664 44.9367 5.77758 45.2605 6.11117 45.3917C6.21508 45.4322 6.32336 45.4519 6.43164 45.4519C6.67008 45.4519 6.90305 45.3545 7.07148 45.173L11.8818 39.9963L16.6954 45.173C16.8605 45.3512 17.0924 45.4519 17.3352 45.4519C17.5791 45.4519 17.811 45.3512 17.9762 45.173L22.7865 39.9963L27.599 45.173C27.7652 45.3512 27.9971 45.4519 28.2399 45.4519C28.4827 45.4519 28.7146 45.3512 28.8798 45.173L32.4727 41.3066C33.3324 42.373 34.4404 43.2294 35.7081 43.7872V47.7214H32.6138C32.2606 47.7214 31.9423 47.9347 31.8066 48.2617C31.671 48.5877 31.7454 48.9639 31.9959 49.2144L38.5256 55.7441C38.6896 55.907 38.9116 56 39.1435 56C39.3754 56 39.5974 55.907 39.7615 55.7441L46.2912 49.2144C46.5416 48.9639 46.616 48.5877 46.4804 48.2617C46.3459 47.9347 46.0265 47.7214 45.6732 47.7214H42.5757V43.7894C45.5934 42.4627 47.7065 39.4461 47.7065 35.9428C47.7065 31.5164 44.3312 27.8633 40.0185 27.4247V16.2181H49.567C50.0504 16.2181 50.442 15.8266 50.442 15.3442V6.08672C50.442 2.73 47.7109 0 44.3552 0ZM43.5623 49.4703L39.1435 53.8891L34.7248 49.4703H36.5831C37.0654 49.4703 37.457 49.0788 37.457 48.5964V44.3417C38.0027 44.4511 38.566 44.5091 39.1435 44.5091C39.7199 44.5091 40.2821 44.4511 40.8268 44.3428V48.5964C40.8268 49.0788 41.2184 49.4703 41.7018 49.4703H43.5623ZM45.9587 35.9428C45.9587 39.702 42.9016 42.7612 39.1435 42.7612C35.3865 42.7612 32.3295 39.702 32.3295 35.9428C32.3295 32.1858 35.3865 29.1287 39.1435 29.1287C42.9016 29.1287 45.9587 32.1858 45.9587 35.9428ZM38.2696 6.08672V27.4247C33.957 27.8633 30.5806 31.5164 30.5806 35.9428C30.5806 37.3264 30.912 38.6323 31.496 39.7895L28.2399 43.2939L23.4263 38.1161C23.2612 37.9389 23.0293 37.8372 22.7854 37.8372C22.5426 37.8372 22.3107 37.9389 22.1455 38.1172L17.3352 43.2939L12.5227 38.1161C12.3565 37.9389 12.1246 37.8372 11.8818 37.8372C11.639 37.8372 11.4071 37.9389 11.242 38.1172L7.30555 42.3522V5.45344C7.30555 3.41141 8.96805 1.74891 11.0112 1.74891H40.0918C38.9674 2.85359 38.2696 4.39031 38.2696 6.08672ZM48.6931 14.4703H40.0185V6.08672C40.0185 3.69469 41.9632 1.74891 44.3552 1.74891C46.7473 1.74891 48.6931 3.69469 48.6931 6.08672V14.4703ZM35.346 5.24891H25.0648C24.5813 5.24891 24.1909 5.64047 24.1909 6.12391C24.1909 6.60625 24.5813 6.99781 25.0648 6.99781H35.346C35.8284 6.99781 36.2199 6.60625 36.2199 6.12391C36.2199 5.64047 35.8284 5.24891 35.346 5.24891ZM35.346 9.54953H25.0648C24.5813 9.54953 24.1909 9.94109 24.1909 10.4234C24.1909 10.9069 24.5813 11.2984 25.0648 11.2984H35.346C35.8284 11.2984 36.2199 10.9069 36.2199 10.4234C36.2199 9.94109 35.8284 9.54953 35.346 9.54953ZM35.346 13.8523H25.0648C24.5813 13.8523 24.1909 14.2439 24.1909 14.7273C24.1909 15.2097 24.5813 15.6012 25.0648 15.6012H35.346C35.8284 15.6012 36.2199 15.2097 36.2199 14.7273C36.2199 14.2439 35.8284 13.8523 35.346 13.8523ZM35.346 20.3547H10.2259C9.74352 20.3547 9.35195 20.7463 9.35195 21.2286C9.35195 21.712 9.74352 22.1036 10.2259 22.1036H35.346C35.8284 22.1036 36.2199 21.712 36.2199 21.2286C36.2199 20.7463 35.8284 20.3547 35.346 20.3547ZM30.2141 29.6155H10.2259C9.74352 29.6155 9.35195 30.007 9.35195 30.4894C9.35195 30.9728 9.74352 31.3644 10.2259 31.3644H30.2141C30.6976 31.3644 31.0891 30.9728 31.0891 30.4894C31.0891 30.007 30.6976 29.6155 30.2141 29.6155ZM10.2259 26.7323H27.5016C27.9851 26.7323 28.3756 26.3408 28.3756 25.8573C28.3756 25.375 27.9851 24.9834 27.5016 24.9834H10.2259C9.74352 24.9834 9.35195 25.375 9.35195 25.8573C9.35195 26.3408 9.74352 26.7323 10.2259 26.7323ZM27.319 34.2442H10.2259C9.74352 34.2442 9.35195 34.6358 9.35195 35.1181C9.35195 35.6016 9.74352 35.9931 10.2259 35.9931H27.319C27.8013 35.9931 28.1929 35.6016 28.1929 35.1181C28.1929 34.6358 27.8013 34.2442 27.319 34.2442ZM16.1824 17.2572C19.9504 17.2572 23.0151 14.1914 23.0151 10.4234C23.0151 6.65766 19.9504 3.59406 16.1824 3.59406C12.4155 3.59406 9.35195 6.65766 9.35195 10.4234C9.35195 14.1914 12.4155 17.2572 16.1824 17.2572ZM16.1824 5.34188C18.9857 5.34188 21.2673 7.62234 21.2673 10.4234C21.2673 13.2278 18.9857 15.5083 16.1824 15.5083C13.3802 15.5083 11.1009 13.2278 11.1009 10.4234C11.1009 7.62234 13.3802 5.34188 16.1824 5.34188ZM16.1824 3.59406C12.4155 3.59406 9.35195 6.65766 9.35195 10.4234C9.35195 14.1914 12.4155 17.2572 16.1824 17.2572C19.9504 17.2572 23.0151 14.1914 23.0151 10.4234C23.0151 6.65766 19.9504 3.59406 16.1824 3.59406ZM16.1824 15.5083C13.3802 15.5083 11.1009 13.2278 11.1009 10.4234C11.1009 7.62234 13.3802 5.34188 16.1824 5.34188C18.9857 5.34188 21.2673 7.62234 21.2673 10.4234C21.2673 13.2278 18.9857 15.5083 16.1824 15.5083ZM27.319 34.2442H10.2259C9.74352 34.2442 9.35195 34.6358 9.35195 35.1181C9.35195 35.6016 9.74352 35.9931 10.2259 35.9931H27.319C27.8013 35.9931 28.1929 35.6016 28.1929 35.1181C28.1929 34.6358 27.8013 34.2442 27.319 34.2442ZM27.5016 24.9834H10.2259C9.74352 24.9834 9.35195 25.375 9.35195 25.8573C9.35195 26.3408 9.74352 26.7323 10.2259 26.7323H27.5016C27.9851 26.7323 28.3756 26.3408 28.3756 25.8573C28.3756 25.375 27.9851 24.9834 27.5016 24.9834ZM30.2141 29.6155H10.2259C9.74352 29.6155 9.35195 30.007 9.35195 30.4894C9.35195 30.9728 9.74352 31.3644 10.2259 31.3644H30.2141C30.6976 31.3644 31.0891 30.9728 31.0891 30.4894C31.0891 30.007 30.6976 29.6155 30.2141 29.6155ZM35.346 20.3547H10.2259C9.74352 20.3547 9.35195 20.7463 9.35195 21.2286C9.35195 21.712 9.74352 22.1036 10.2259 22.1036H35.346C35.8284 22.1036 36.2199 21.712 36.2199 21.2286C36.2199 20.7463 35.8284 20.3547 35.346 20.3547ZM35.346 13.8523H25.0648C24.5813 13.8523 24.1909 14.2439 24.1909 14.7273C24.1909 15.2097 24.5813 15.6012 25.0648 15.6012H35.346C35.8284 15.6012 36.2199 15.2097 36.2199 14.7273C36.2199 14.2439 35.8284 13.8523 35.346 13.8523ZM35.346 9.54953H25.0648C24.5813 9.54953 24.1909 9.94109 24.1909 10.4234C24.1909 10.9069 24.5813 11.2984 25.0648 11.2984H35.346C35.8284 11.2984 36.2199 10.9069 36.2199 10.4234C36.2199 9.94109 35.8284 9.54953 35.346 9.54953ZM35.346 5.24891H25.0648C24.5813 5.24891 24.1909 5.64047 24.1909 6.12391C24.1909 6.60625 24.5813 6.99781 25.0648 6.99781H35.346C35.8284 6.99781 36.2199 6.60625 36.2199 6.12391C36.2199 5.64047 35.8284 5.24891 35.346 5.24891ZM35.346 5.24891H25.0648C24.5813 5.24891 24.1909 5.64047 24.1909 6.12391C24.1909 6.60625 24.5813 6.99781 25.0648 6.99781H35.346C35.8284 6.99781 36.2199 6.60625 36.2199 6.12391C36.2199 5.64047 35.8284 5.24891 35.346 5.24891ZM35.346 9.54953H25.0648C24.5813 9.54953 24.1909 9.94109 24.1909 10.4234C24.1909 10.9069 24.5813 11.2984 25.0648 11.2984H35.346C35.8284 11.2984 36.2199 10.9069 36.2199 10.4234C36.2199 9.94109 35.8284 9.54953 35.346 9.54953ZM35.346 13.8523H25.0648C24.5813 13.8523 24.1909 14.2439 24.1909 14.7273C24.1909 15.2097 24.5813 15.6012 25.0648 15.6012H35.346C35.8284 15.6012 36.2199 15.2097 36.2199 14.7273C36.2199 14.2439 35.8284 13.8523 35.346 13.8523ZM35.346 20.3547H10.2259C9.74352 20.3547 9.35195 20.7463 9.35195 21.2286C9.35195 21.712 9.74352 22.1036 10.2259 22.1036H35.346C35.8284 22.1036 36.2199 21.712 36.2199 21.2286C36.2199 20.7463 35.8284 20.3547 35.346 20.3547ZM30.2141 29.6155H10.2259C9.74352 29.6155 9.35195 30.007 9.35195 30.4894C9.35195 30.9728 9.74352 31.3644 10.2259 31.3644H30.2141C30.6976 31.3644 31.0891 30.9728 31.0891 30.4894C31.0891 30.007 30.6976 29.6155 30.2141 29.6155ZM27.5016 24.9834H10.2259C9.74352 24.9834 9.35195 25.375 9.35195 25.8573C9.35195 26.3408 9.74352 26.7323 10.2259 26.7323H27.5016C27.9851 26.7323 28.3756 26.3408 28.3756 25.8573C28.3756 25.375 27.9851 24.9834 27.5016 24.9834ZM27.319 34.2442H10.2259C9.74352 34.2442 9.35195 34.6358 9.35195 35.1181C9.35195 35.6016 9.74352 35.9931 10.2259 35.9931H27.319C27.8013 35.9931 28.1929 35.6016 28.1929 35.1181C28.1929 34.6358 27.8013 34.2442 27.319 34.2442ZM16.1824 3.59406C12.4155 3.59406 9.35195 6.65766 9.35195 10.4234C9.35195 14.1914 12.4155 17.2572 16.1824 17.2572C19.9504 17.2572 23.0151 14.1914 23.0151 10.4234C23.0151 6.65766 19.9504 3.59406 16.1824 3.59406ZM16.1824 15.5083C13.3802 15.5083 11.1009 13.2278 11.1009 10.4234C11.1009 7.62234 13.3802 5.34188 16.1824 5.34188C18.9857 5.34188 21.2673 7.62234 21.2673 10.4234C21.2673 13.2278 18.9857 15.5083 16.1824 15.5083ZM16.1824 3.59406C12.4155 3.59406 9.35195 6.65766 9.35195 10.4234C9.35195 14.1914 12.4155 17.2572 16.1824 17.2572C19.9504 17.2572 23.0151 14.1914 23.0151 10.4234C23.0151 6.65766 19.9504 3.59406 16.1824 3.59406ZM16.1824 15.5083C13.3802 15.5083 11.1009 13.2278 11.1009 10.4234C11.1009 7.62234 13.3802 5.34188 16.1824 5.34188C18.9857 5.34188 21.2673 7.62234 21.2673 10.4234C21.2673 13.2278 18.9857 15.5083 16.1824 15.5083ZM27.319 34.2442H10.2259C9.74352 34.2442 9.35195 34.6358 9.35195 35.1181C9.35195 35.6016 9.74352 35.9931 10.2259 35.9931H27.319C27.8013 35.9931 28.1929 35.6016 28.1929 35.1181C28.1929 34.6358 27.8013 34.2442 27.319 34.2442ZM27.5016 24.9834H10.2259C9.74352 24.9834 9.35195 25.375 9.35195 25.8573C9.35195 26.3408 9.74352 26.7323 10.2259 26.7323H27.5016C27.9851 26.7323 28.3756 26.3408 28.3756 25.8573C28.3756 25.375 27.9851 24.9834 27.5016 24.9834ZM30.2141 29.6155H10.2259C9.74352 29.6155 9.35195 30.007 9.35195 30.4894C9.35195 30.9728 9.74352 31.3644 10.2259 31.3644H30.2141C30.6976 31.3644 31.0891 30.9728 31.0891 30.4894C31.0891 30.007 30.6976 29.6155 30.2141 29.6155ZM35.346 20.3547H10.2259C9.74352 20.3547 9.35195 20.7463 9.35195 21.2286C9.35195 21.712 9.74352 22.1036 10.2259 22.1036H35.346C35.8284 22.1036 36.2199 21.712 36.2199 21.2286C36.2199 20.7463 35.8284 20.3547 35.346 20.3547ZM35.346 13.8523H25.0648C24.5813 13.8523 24.1909 14.2439 24.1909 14.7273C24.1909 15.2097 24.5813 15.6012 25.0648 15.6012H35.346C35.8284 15.6012 36.2199 15.2097 36.2199 14.7273C36.2199 14.2439 35.8284 13.8523 35.346 13.8523ZM35.346 9.54953H25.0648C24.5813 9.54953 24.1909 9.94109 24.1909 10.4234C24.1909 10.9069 24.5813 11.2984 25.0648 11.2984H35.346C35.8284 11.2984 36.2199 10.9069 36.2199 10.4234C36.2199 9.94109 35.8284 9.54953 35.346 9.54953ZM35.346 5.24891H25.0648C24.5813 5.24891 24.1909 5.64047 24.1909 6.12391C24.1909 6.60625 24.5813 6.99781 25.0648 6.99781H35.346C35.8284 6.99781 36.2199 6.60625 36.2199 6.12391C36.2199 5.64047 35.8284 5.24891 35.346 5.24891ZM35.346 5.24891H25.0648C24.5813 5.24891 24.1909 5.64047 24.1909 6.12391C24.1909 6.60625 24.5813 6.99781 25.0648 6.99781H35.346C35.8284 6.99781 36.2199 6.60625 36.2199 6.12391C36.2199 5.64047 35.8284 5.24891 35.346 5.24891ZM35.346 9.54953H25.0648C24.5813 9.54953 24.1909 9.94109 24.1909 10.4234C24.1909 10.9069 24.5813 11.2984 25.0648 11.2984H35.346C35.8284 11.2984 36.2199 10.9069 36.2199 10.4234C36.2199 9.94109 35.8284 9.54953 35.346 9.54953ZM35.346 13.8523H25.0648C24.5813 13.8523 24.1909 14.2439 24.1909 14.7273C24.1909 15.2097 24.5813 15.6012 25.0648 15.6012H35.346C35.8284 15.6012 36.2199 15.2097 36.2199 14.7273C36.2199 14.2439 35.8284 13.8523 35.346 13.8523ZM16.1824 3.59406C12.4155 3.59406 9.35195 6.65766 9.35195 10.4234C9.35195 14.1914 12.4155 17.2572 16.1824 17.2572C19.9504 17.2572 23.0151 14.1914 23.0151 10.4234C23.0151 6.65766 19.9504 3.59406 16.1824 3.59406ZM16.1824 15.5083C13.3802 15.5083 11.1009 13.2278 11.1009 10.4234C11.1009 7.62234 13.3802 5.34188 16.1824 5.34188C18.9857 5.34188 21.2673 7.62234 21.2673 10.4234C21.2673 13.2278 18.9857 15.5083 16.1824 15.5083ZM35.346 20.3547H10.2259C9.74352 20.3547 9.35195 20.7463 9.35195 21.2286C9.35195 21.712 9.74352 22.1036 10.2259 22.1036H35.346C35.8284 22.1036 36.2199 21.712 36.2199 21.2286C36.2199 20.7463 35.8284 20.3547 35.346 20.3547ZM27.5016 24.9834H10.2259C9.74352 24.9834 9.35195 25.375 9.35195 25.8573C9.35195 26.3408 9.74352 26.7323 10.2259 26.7323H27.5016C27.9851 26.7323 28.3756 26.3408 28.3756 25.8573C28.3756 25.375 27.9851 24.9834 27.5016 24.9834ZM30.2141 29.6155H10.2259C9.74352 29.6155 9.35195 30.007 9.35195 30.4894C9.35195 30.9728 9.74352 31.3644 10.2259 31.3644H30.2141C30.6976 31.3644 31.0891 30.9728 31.0891 30.4894C31.0891 30.007 30.6976 29.6155 30.2141 29.6155ZM27.319 34.2442H10.2259C9.74352 34.2442 9.35195 34.6358 9.35195 35.1181C9.35195 35.6016 9.74352 35.9931 10.2259 35.9931H27.319C27.8013 35.9931 28.1929 35.6016 28.1929 35.1181C28.1929 34.6358 27.8013 34.2442 27.319 34.2442Z" fill="#0B3D34"/>
<path d="M39.1442 29.1287C35.3872 29.1287 32.3302 32.1858 32.3302 35.9428C32.3302 39.702 35.3872 42.7612 39.1442 42.7612C42.9023 42.7612 45.9594 39.702 45.9594 35.9428C45.9594 32.1858 42.9023 29.1287 39.1442 29.1287ZM41.7025 49.4703H43.563L39.1442 53.8891L34.7255 49.4703H36.5838C37.0661 49.4703 37.4577 49.0788 37.4577 48.5964V44.3417C38.0034 44.4511 38.5667 44.5091 39.1442 44.5091C39.7206 44.5091 40.2828 44.4511 40.8275 44.3428V48.5964C40.8275 49.0788 41.2191 49.4703 41.7025 49.4703ZM48.6938 6.08671V14.4703H40.0192V6.08671C40.0192 3.69468 41.9639 1.7489 44.3559 1.7489C46.748 1.7489 48.6938 3.69468 48.6938 6.08671ZM16.1831 5.34187C13.3809 5.34187 11.1016 7.62234 11.1016 10.4234C11.1016 13.2278 13.3809 15.5083 16.1831 15.5083C18.9864 15.5083 21.268 13.2278 21.268 10.4234C21.268 7.62234 18.9864 5.34187 16.1831 5.34187Z" fill="#B5D8D2"/>
<path d="M14.8251 13.7888V7.78882H17.5524C17.914 7.78882 18.2609 7.92428 18.5166 8.1654C18.7723 8.40651 18.916 8.73354 18.916 9.07453C18.916 9.41553 18.7723 9.74255 18.5166 9.98367C18.2609 10.2248 17.914 10.3602 17.5524 10.3602H13.916" stroke="#0B3D34" stroke-width="1.5" stroke-linecap="round" stroke-linejoin="round"/>
<path d="M16.416 12.5591L13.916 12.5507" stroke="#0B3D34" stroke-width="1.5" stroke-linecap="round" stroke-linejoin="round"/>
<path d="M41.5243 38.5693L36.3848 33.4297" stroke="#0B3D34" stroke-width="1.5" stroke-linecap="round" stroke-linejoin="round"/>
<path d="M36.3839 38.5693L41.5234 33.4297" stroke="#0B3D34" stroke-width="1.5" stroke-linecap="round" stroke-linejoin="round"/>
</svg>
