<svg width="24" height="24" viewBox="0 0 24 24" fill="none" xmlns="http://www.w3.org/2000/svg">
<path d="M4.21284 10.7705C9.75185 8.20927 16.9193 5.08666 17.909 4.65438C20.5042 3.52327 21.3006 3.73983 20.9036 6.24525C20.6183 8.04602 19.7958 14.0072 19.1396 17.7179C18.7506 19.9184 17.8773 20.1792 16.5048 19.2271C15.8448 18.769 12.5126 16.4527 11.7892 15.9088C11.1291 15.4132 10.2186 14.8168 11.3605 13.6424C11.767 13.2243 14.4303 10.5506 16.5056 8.46998C16.7774 8.19678 16.4359 7.74784 16.1221 7.96689C13.3249 9.91676 9.44677 12.6229 8.95309 12.9752C8.20742 13.5075 7.49108 13.7515 6.20577 13.3634C5.23427 13.0702 4.28574 12.7204 3.91647 12.5871C2.49408 12.074 2.83165 11.4093 4.21284 10.7705Z" fill="white"/>
</svg>
