<svg width="100" height="100" viewBox="0 0 100 100" fill="none" xmlns="http://www.w3.org/2000/svg">
<g clip-path="url(#clip0_544_2298)">
<path d="M45.8429 58.6535C45.8429 57.5868 46.711 56.7213 47.7784 56.7213C48.8467 56.7213 49.7122 57.5868 49.7122 58.6535C49.7122 59.7245 48.8467 60.5926 47.7784 60.5926C46.711 60.5917 45.8429 59.7245 45.8429 58.6535ZM78.4766 55.5127H73.5025V49.2329H78.5637C80.1335 49.2329 81.5292 50.6296 81.5292 52.2866C81.5292 54.2048 80.0465 55.5127 78.4766 55.5127ZM79.3473 67.8119H73.5025V61.27H79.3473C81.2637 61.27 82.7516 62.665 82.7516 64.4979C82.7516 66.5023 81.3551 67.8119 79.3473 67.8119ZM80.5697 74.0038C86.7628 74.0038 90.5146 70.4302 90.5146 64.8453C90.5146 61.5295 88.8586 58.8285 85.8042 57.5189C88.1594 55.9489 88.6853 53.6815 88.6853 51.3253C88.6853 45.918 84.5818 43.2117 78.8258 43.2117H61.2948V49.2329H66.356V67.8119H61.2948V74.0029L80.5697 74.0038ZM41.2318 43.2117H29.5448V55.5127H22.4784V43.2117H10.7913V49.2329H15.8491V67.8119H10.7913V74.0029H22.4784V61.27H29.5448V74.0029H41.2318V67.8119H36.3473V49.2329H41.2318V43.2117ZM93.2154 57.3439C95.4826 59 97.1421 61.8813 97.1421 65.1971C97.1421 70.2535 95.5688 73.3063 92.7818 76.0988C89.9895 78.8921 85.3671 80.6354 79.8732 80.6354H54.8378V73.423C58.7576 71.9688 61.5499 68.1959 61.5499 63.7734C61.5499 59.3492 58.7576 55.5736 54.8378 54.1195V31.1772H61.293V36.9328H67.6603V25.9423H34.8655V36.9328H41.2327V31.1772H47.6844V54.1134C43.7646 55.5675 40.9689 59.344 40.9689 63.7726C40.9689 68.1968 43.7646 71.9723 47.6844 73.4239V80.6345H4.33789V61.2718H9.4827V55.5144H4.33789V36.5862H28.2361V19.5771H74.4672V36.5862H77.693C82.4869 36.5862 87.1085 37.7191 90.0749 39.9003C93.3059 42.2556 95.3111 45.7456 95.3111 50.5442C95.3085 52.5452 94.8714 55.5127 93.2154 57.3439Z" fill="#2D2D2D" fill-opacity="0.3"/>
</g>
<defs>
<clipPath id="clip0_544_2298">
<rect width="100" height="100" fill="white"/>
</clipPath>
</defs>
</svg>
