<svg width="303" height="100" viewBox="0 0 303 100" fill="none" xmlns="http://www.w3.org/2000/svg">
<path d="M146.607 40.1182V85.2509H162.537L162.832 69.0267L173.156 85.2509H191.15L175.811 60.7671L189.97 40.1182H172.566L162.832 56.3424L162.537 40.1182H146.607Z" fill="#2D2D2D" fill-opacity="0.3"/>
<path d="M6.49023 40.1182V85.2509H22.4194L22.7144 64.6019L28.3191 85.2509L35.6938 84.9559L41.0035 64.8969L41.2985 85.2509L57.5227 84.9559L57.2277 40.1182H37.4637L32.1539 59.5872L26.2542 40.1182H6.49023Z" fill="#2D2D2D" fill-opacity="0.3"/>
<path d="M114.454 39.5283L103.539 46.313V79.0563L114.454 85.841H133.038L143.952 79.0563V65.192H128.023V75.2215L127.433 75.8115H119.763L119.468 49.8528L127.728 49.5578L128.023 58.1124H143.952V46.313L133.038 39.5283H114.454Z" fill="#2D2D2D" fill-opacity="0.3"/>
<path d="M123.01 14.749V35.103H129.794V27.7284L130.089 27.4334H136.284L136.579 27.7284V35.103H143.364V14.749H136.579V22.1237L136.284 22.4186H130.089L129.794 22.1237V14.749H123.01Z" fill="#2D2D2D" fill-opacity="0.3"/>
<path d="M76.6953 14.749V35.103H95.5744V30.6782H84.0699L83.48 30.0883V27.7284L84.0699 27.1384H89.6747V22.7136H84.0699L83.48 22.1237V19.7638L84.0699 19.1738L84.3649 19.4688H95.5744V14.749H76.6953Z" fill="#2D2D2D" fill-opacity="0.3"/>
<path d="M52.5078 14.749V28.3183H65.4872L65.7821 28.6133V35.103H72.5668V14.749H65.7821V23.0086L65.1922 23.5986L64.8972 23.3036H60.1774L59.8824 23.5986L59.2925 23.0086V14.749H52.5078Z" fill="#2D2D2D" fill-opacity="0.3"/>
<path d="M30.6777 14.749V35.103H49.5568V30.6782H38.0524L37.4624 30.0883V27.4334L37.7574 27.1384H43.6571V22.7136H37.7574L37.4624 22.4186V19.7638L38.0524 19.1738L38.3474 19.4688H49.5568V14.749H30.6777Z" fill="#2D2D2D" fill-opacity="0.3"/>
<path d="M231.563 46.0176V58.4072L225.368 62.2422L233.038 66.3721V78.4658L221.828 85.251H192.625V40.1182H221.238L231.563 46.0176ZM209.439 67.8467V74.9258H217.109V67.8467H209.439ZM209.439 57.2275H217.109V50.1475H209.439V57.2275Z" fill="#2D2D2D" fill-opacity="0.3"/>
<path d="M267.551 40.4131L279.055 85.251H262.536L261.061 77.5811L260.471 76.9912H251.031L249.262 85.251H232.742L242.771 40.1182L267.551 40.4131ZM252.801 67.2568H258.995L255.898 50.1475L252.801 67.2568Z" fill="#2D2D2D" fill-opacity="0.3"/>
<path d="M89.6738 39.5283L100.589 46.3125V79.0566L89.6738 85.8408H71.0898L60.1758 79.0566V46.3125L71.0898 39.5283H89.6738ZM76.6953 49.5576V75.5166H84.3652V49.5576H76.6953Z" fill="#2D2D2D" fill-opacity="0.3"/>
<path d="M167.552 14.749L167.847 15.0439V35.1025H161.062L160.767 34.8076V29.2031L160.472 28.9082H158.702L157.816 29.793L154.277 35.1025H146.607L151.327 28.9082L151.032 28.6133H147.787L147.492 28.3184V14.749H167.552ZM155.162 19.1738V24.1885H161.356V19.1738H155.162Z" fill="#2D2D2D" fill-opacity="0.3"/>
<path d="M119.174 14.749V29.2031H106.195L105.899 29.498V35.1025H99.1152V14.749H119.174ZM106.49 19.1738V24.1885H112.685V19.1738H106.49Z" fill="#2D2D2D" fill-opacity="0.3"/>
<path d="M192.036 14.749V35.1025H185.251V29.2031L184.956 28.9082H182.892L178.762 35.1025H171.092L175.812 28.9082L175.517 28.6133H171.977V14.749H192.036ZM179.646 19.1738V24.1885H185.841V19.1738H179.646Z" fill="#2D2D2D" fill-opacity="0.3"/>
<path d="M26.8418 14.749V22.7139L23.8926 24.4834L23.5977 25.0732L26.8418 27.1387V35.1025H6.48828V14.749H26.8418ZM13.5684 27.2861V30.9736H19.7627V28.6133L18.2881 27.2861H13.5684ZM13.5684 19.1738V22.8613H18.2881L19.7627 21.5342V19.1738H13.5684Z" fill="#2D2D2D" fill-opacity="0.3"/>
</svg>
